<svg width="231" height="95" viewBox="0 0 231 95" fill="none" xmlns="http://www.w3.org/2000/svg">
<g clip-path="url(#clip0_197_4162)">
<path d="M45 12H38V19V26.01V33.01V40.01V47.01H45V40.01V33.01V26.01V19H52.01V26.01V33.01V40.01V47.01H59.01V40.01V33.01V26.01V19V12H52.01H45Z" fill="#231815"/>
<path d="M75.9499 12H68.9399V19H75.9499V26.01V33.01V40.01H82.9499V33.01V26.01V19H89.9499V12H82.9499H75.9499Z" fill="#231815"/>
<path d="M148.43 16.95L143.48 12L138.52 16.95L133.57 21.9L128.62 26.86L133.57 31.81L138.52 26.86L143.48 21.9L148.43 26.86L153.38 31.81L158.33 26.86L153.38 21.9L148.43 16.95Z" fill="#231815"/>
<path d="M106.89 12H99.8901V19V26.01V33.01H106.89H113.89H120.9V26.01H113.89H106.89V19H113.89H120.9V12H113.89H106.89Z" fill="#231815"/>
<path d="M187.11 16.95L182.16 12L177.21 16.95L172.26 12L167.31 16.95L162.35 21.9L167.31 26.86L172.26 21.9L177.21 26.86L182.16 21.9L187.11 26.86L192.07 21.9L187.11 16.95Z" fill="#231815"/>
<path d="M178.33 58.9195V60.7895L181.44 59.3895L184.19 60.4195V58.5495L181.44 57.5195L178.33 58.9195Z" fill="#231815"/>
<path d="M182.41 61.0692V60.4492H180.47V61.0692H178.83V71.5292H184.05L183.75 68.0792H181.87L182.05 70.1292H180.94V67.6092H184.04V61.0692H182.4H182.41ZM182.05 62.4692V63.6392H180.95V62.4692H182.05ZM180.94 66.1992V65.0292H182.04V66.1992H180.94Z" fill="#231815"/>
<path d="M189.59 66.2991H187.73V65.3691H191.74V61.0791H185.24V71.5391H191.93V66.3091H189.58L189.59 66.2991ZM189.39 62.4691V63.9591H187.72V62.4691H189.39ZM187.73 70.1191V67.6891H189.59V70.1191H187.73Z" fill="#231815"/>
<path d="M189.67 58.1695V57.5195H187.33V58.1695H184.91V59.4895V59.5695V60.4195H187.21V59.5695H189.77V60.4195H192.07V59.5695V59.4895V58.1695H189.67Z" fill="#231815"/>
<path d="M136.1 67.3195V65.9195H130.72V64.5195H135.85V63.1195H130.72V62.1895H135.41V60.7895H130.72V59.8495H135.91V58.4495H133.84L134.02 57.5195H131.03L130.86 58.4495H127.48L127.3 57.5195H124.32L124.49 58.4495H122.42V59.8495H127.61V60.7895H122.92V62.1895H127.61V63.1195H122.48V64.5195H127.61V65.9195H122.23V67.3195H126.46L122.21 71.5195H125.69L129.17 68.0795L132.65 71.5195H136.13L131.88 67.3195H136.1Z" fill="#231815"/>
<path d="M102.74 57.5195H99.5402V58.4495H94.1802V59.8495H99.5402V61.2495H94.6902V62.3595V62.6495V70.4195H97.6402V62.6495H99.5402V71.5195H102.74V62.6495H104.64V70.4195H107.59V62.6495V62.3595V61.2495H102.74V59.8495H108.1V58.4495H102.74V57.5195Z" fill="#231815"/>
<path d="M69.2201 60.5095H66.0801V61.9095H69.2201V69.0395L66.0801 69.9395V71.5195L69.2201 70.6195V71.5195H72.0801V57.5195H69.2201V60.5095Z" fill="#231815"/>
<path d="M76.9303 62.3795L80.0003 61.8195V60.2295L76.9303 60.7895V57.5195H74.0703V71.5195H75.9903H76.9303H80.0703V70.1195H76.9303V62.3795Z" fill="#231815"/>
<path d="M44.56 59.4795H45.14V58.0795H42.96V57.5195H40.23V58.0795H38.06V59.4795H38.64V61.2495H38.02V62.6495H40.51V64.0395H38.02V65.4395H40.01L38 70.1895H39.99L40.51 68.9595V71.5195H43.25V68.2195L45.02 69.2795V67.5095L43.25 66.4495V65.4495H45.23V64.0495H43.25V62.6595H45.23V61.2595H44.57V59.4895L44.56 59.4795ZM40.88 59.4795H42.33V61.2495H40.88V59.4795Z" fill="#231815"/>
<path d="M45.2998 70.9595H47.7398L48.1098 62.6495H48.7698V71.5195H51.3798V62.6495H51.9798V61.2495H48.1698L48.2398 59.4895L51.9798 58.9195V57.5195L45.8498 58.4495L45.2998 70.9595Z" fill="#231815"/>
<path d="M164.22 57.9092H160.64V59.3092H164.22V57.9092Z" fill="#231815"/>
<path d="M153.89 57.5195H151.16L150.23 61.0195H152.97L153.89 57.5195Z" fill="#231815"/>
<path d="M160.64 62.4693H161.41V71.5193H163.63V62.4693H164.22V61.0693H160.64V62.4693Z" fill="#231815"/>
<path d="M151.43 61.6992L150.23 66.9492H151.1V71.5192H153.32V64.3492L153.92 61.6992H151.43Z" fill="#231815"/>
<path d="M158.28 57.5195H156.18V59.8495H154.12V61.2495H156.18V71.5195H158.28V61.2495H160.34V59.8495H158.28V57.5195Z" fill="#231815"/>
<path d="M155.59 63.1191H154.22V70.4291H155.59V63.1191Z" fill="#231815"/>
<path d="M160.24 63.1191H158.87V70.4291H160.24V63.1191Z" fill="#231815"/>
<path d="M160.07 57.5195H158.91V59.3095H160.07V57.5195Z" fill="#231815"/>
<path d="M111.9 77.4697H110.57V78.3097H111.9V82.0297H112.75V78.3097H114.08V77.4697H112.75H111.9Z" fill="#231815"/>
<path d="M100.69 77.4697V78.3097V81.1797V82.0297H101.54H103.83V81.1797H101.54V78.3097H103.83V77.4697H101.54H100.69Z" fill="#231815"/>
<path d="M107.63 77.4697H106.78V82.0297H107.63V77.4697Z" fill="#231815"/>
<path d="M118.06 79.1697L117.15 77.4697H116.21L117.64 79.9597V82.0297H118.48V79.9597L119.91 77.4697H118.98L118.06 79.1697Z" fill="#231815"/>
<path d="M163.73 81.1797H162.33V77.4697H161.48V81.1797V82.0297H162.33H163.73H164.58V81.1797V77.4697H163.73V81.1797Z" fill="#231815"/>
<path d="M183.49 81.1797H182.08V77.4697H181.23V81.1797V82.0297H182.08H183.49H184.33V81.1797V77.4697H183.49V81.1797Z" fill="#231815"/>
<path d="M168.06 77.4697V78.3097V79.3197V80.0297V80.1697H170.32V81.1797H168.06V82.0297H171.16V81.8897V81.1797V80.1697V79.3197H170.32H168.91V78.3097H171.16V77.4697H168.91H168.06Z" fill="#231815"/>
<path d="M155.88 80.1197L154.59 77.4697H153.75V82.0297H154.58V79.2597L155.56 81.2497H156.2L157.15 79.2197V82.0297H157.99V77.4697H157.15L155.88 80.1197Z" fill="#231815"/>
<path d="M191.22 77.4697L189.95 80.1197L188.66 77.4697H187.82V82.0297H188.66V79.2597L189.63 81.2497H190.27L191.22 79.2197V82.0297H192.07V77.4697H191.22Z" fill="#231815"/>
<path d="M174.65 77.4697V78.3097V79.3197V80.1697V81.1797V82.0297H175.5H177.75V81.1797H175.5V80.1697H177.75V79.3197H175.5V78.3097H177.75V77.4697H175.5H174.65Z" fill="#231815"/>
<path d="M85.1899 77.4697V78.3097V79.3197V80.1697V81.1797V82.0297H86.0399H88.2899V81.1797H86.0399V80.1697H88.2899V79.3197H86.0399V78.3097H88.2899V77.4697H86.0399H85.1899Z" fill="#231815"/>
<path d="M76.0897 77.4697H75.2397V82.0297H76.0897V77.4697Z" fill="#231815"/>
<path d="M64.8798 77.4697H63.5498V78.3097H64.8798V82.0297H65.7298V78.3097H67.0598V77.4697H65.7298H64.8798Z" fill="#231815"/>
<path d="M92.1796 77.4697H91.3296V82.0297H92.1796V77.4697Z" fill="#231815"/>
<path d="M79.8397 77.4697H78.9897V82.0297H79.8397V80.4597H82.3997V77.4697H79.8397ZM81.5497 79.6097H79.8397V78.3097H81.5497V79.6097Z" fill="#231815"/>
<path d="M70.2696 77.4697L68.6196 82.0297H69.4896L69.7696 81.1997H71.5996L71.8896 82.0297H72.7696L71.0796 77.4697H70.2696ZM70.0296 80.4197L70.6596 78.5597L71.3196 80.4197H70.0296Z" fill="#231815"/>
<path d="M53.4302 80.6897L52.6702 77.7997H51.8602L51.0702 80.6797L50.3002 77.4697H49.4302L50.6202 82.0297H51.4302L52.2602 79.1597L53.0502 82.0297H53.8602L55.0302 77.4697H54.1702L53.4302 80.6897Z" fill="#231815"/>
<path d="M40.56 77.4697H38.85H38V78.3097V82.0297H38.85V78.3097H40.56V82.0297H41.41V77.4697H41.4H40.56Z" fill="#231815"/>
<path d="M44.2202 77.4697V78.3097V79.3197V80.1697V81.1797V82.0297H45.0702H47.3202V81.1797H45.0702V80.1697H47.3202V79.3197H45.0702V78.3097H47.3202V77.4697H45.0702H44.2202Z" fill="#231815"/>
<path d="M130.07 77.4697L128.42 82.0297H129.29L129.57 81.1997H131.4L131.69 82.0297H132.57L130.88 77.4697H130.07ZM129.84 80.4197L130.47 78.5597L131.13 80.4197H129.84Z" fill="#231815"/>
<path d="M141.72 78.2597H143.05V82.0297H143.89V78.2597H145.23V77.4697H141.72V78.2597Z" fill="#231815"/>
<path d="M138 77.47H135.44V82.03H136.29V80.14H136.97L138 82.03H138.85L137.82 80.14H138.85V77.46H138V77.47ZM136.29 79.29V78.31H138V79.29H136.29Z" fill="#231815"/>
</g>
<defs>
<clipPath id="clip0_197_4162">
<rect width="154.07" height="70.03" fill="white" transform="translate(38 12)"/>
</clipPath>
</defs>
</svg>
