<svg width="50" height="50" viewBox="0 0 50 50" fill="none" xmlns="http://www.w3.org/2000/svg">
<path fill-rule="evenodd" clip-rule="evenodd" d="M12.8545 38.8685C13.3922 37.9394 14.3974 37.3136 15.5474 37.3136C16.6974 37.3136 17.7023 37.9394 18.2403 38.8685H45.087C45.9452 38.8685 46.6418 39.5651 46.6418 40.423C46.6418 41.2812 45.9452 41.9778 45.087 41.9778H18.2403C17.7023 42.9069 16.6974 43.5327 15.5474 43.5327C14.3974 43.5327 13.3922 42.9069 12.8545 41.9778H4.66423C3.80602 41.9778 3.10938 41.2812 3.10938 40.423C3.10938 39.5651 3.80602 38.8685 4.66423 38.8685H12.8545ZM46.6418 10.8834C46.6418 8.3073 44.5538 6.21924 41.9777 6.21924C34.4482 6.21924 15.3034 6.21924 7.77355 6.21924C5.19781 6.21924 3.10938 8.3073 3.10938 10.8834V29.5401C3.10938 32.1159 5.19781 34.2043 7.77355 34.2043H41.9777C44.5538 34.2043 46.6418 32.1159 46.6418 29.5401V10.8834ZM28.918 21.4554C29.3094 21.1618 29.54 20.701 29.54 20.2118C29.54 19.7222 29.3094 19.2614 28.918 18.9677L22.6989 14.3036C22.228 13.9502 21.5978 13.8935 21.0709 14.1569C20.5441 14.4204 20.2116 14.9584 20.2116 15.5476V24.876C20.2116 25.4648 20.5441 26.0032 21.0709 26.2663C21.5978 26.5297 22.228 26.473 22.6989 26.1196L28.918 21.4554Z" fill="#5D4F3F"/>
</svg>
