<svg width="50" height="50" viewBox="0 0 50 50" fill="none" xmlns="http://www.w3.org/2000/svg">
<path fill-rule="evenodd" clip-rule="evenodd" d="M4 15.7209V13.2791C4 10.8177 4.97674 8.45786 6.71734 6.71734C8.45794 4.97682 10.8177 4 13.2791 4H19.6982L13.8378 15.7209H4ZM22.9762 4H34.3494L28.4889 15.7209H17.1157L22.9762 4ZM37.6058 4.04298C39.7409 4.24614 41.7511 5.18772 43.2827 6.71726C45.0233 8.45786 46 10.8177 46 13.2791V15.7209H31.7669L37.6058 4.04298ZM46 18.6512V36.7209C46 39.1823 45.0233 41.5421 43.2827 43.2827C41.5421 45.0233 39.1822 46 36.7209 46H13.2791C10.8177 46 8.45786 45.0233 6.71734 43.2827C4.97682 41.5421 4 39.1823 4 36.7209V18.6512H14.7617H29.4129H46ZM21.7631 24.4862C21.0052 24.078 20.0909 24.0974 19.3525 24.539C18.6141 24.9805 18.1628 25.7756 18.1628 26.6351V37.0394C18.1628 37.8989 18.6141 38.694 19.3525 39.1355C20.0909 39.577 21.0052 39.5965 21.7631 39.1883L31.4231 33.9881C32.2143 33.5623 32.7065 32.736 32.7065 31.8373C32.7065 30.9386 32.2143 30.1123 31.4231 29.6865L21.7631 24.4862Z" fill="#5D4F3F"/>
</svg>
