<svg width="231" height="95" viewBox="0 0 231 95" fill="none" xmlns="http://www.w3.org/2000/svg">
<g clip-path="url(#clip0_79_29666)">
<path d="M64.0651 44.5569C63.7641 45.2639 63.4581 45.8133 63.147 46.1948L62.4697 45.7523C62.7958 45.3504 63.0818 44.8519 63.3377 44.2567L64.0651 44.5569ZM66.8796 44.038H65.1137V46.7747H64.2859V44.038H62.55V43.3564H64.2859V42.7154H62.6453V42.0592H63.5735C63.4832 41.7896 63.3527 41.4742 63.1771 41.1232L63.739 40.8689H62.6654V40.2127H64.1755C64.1153 40.055 64.02 39.8922 63.8895 39.7091L64.7876 39.5361C64.9531 39.8159 65.0735 40.0397 65.1388 40.2076H66.7241V40.8638H65.7007L66.2826 41.1436C66.1371 41.4691 65.9766 41.7744 65.806 42.049H66.7341V42.7052H65.1137V43.3462H66.8796V44.0278V44.038ZM65.4899 40.8689H63.9547C64.1655 41.2758 64.331 41.6726 64.4514 42.0592H64.9531C65.1638 41.693 65.3444 41.2962 65.4899 40.8689ZM66.7091 45.3453L66.0268 45.6811C65.8813 45.2487 65.6756 44.8417 65.4197 44.45L66.1221 44.1703C66.408 44.5976 66.6037 44.9892 66.704 45.3453H66.7091ZM70.7477 42.7561H69.8898V46.7646H69.0721V42.7561H68.1188C68.1038 44.623 67.7426 45.9608 67.0402 46.7696L66.3529 46.2813C66.9699 45.5641 67.276 44.4653 67.276 42.9799V40.172C68.3295 40.0448 69.2175 39.8464 69.94 39.5667L70.5169 40.172C69.8296 40.4314 69.0319 40.6349 68.1238 40.7926V42.049H70.7527V42.751L70.7477 42.7561Z" fill="#231815"/>
<path d="M80.9672 45.6553C79.6126 46.1284 78.243 46.515 76.8533 46.8049L76.6074 46.0978C77.5556 45.8995 78.3784 45.696 79.0657 45.4874V42.6388H76.783V41.8961H79.0657V39.6172H79.9387V45.2229C80.2046 45.1415 80.5357 45.0347 80.9471 44.8973L80.9672 45.6502V45.6553ZM84.9356 44.6481C84.9155 45.0907 84.8603 45.4925 84.77 45.8537C84.6797 46.2148 84.5392 46.4488 84.3436 46.5557C84.1529 46.6676 83.7265 46.7184 83.0793 46.7184C82.6779 46.7184 82.3619 46.7083 82.1411 46.6778C81.9154 46.6523 81.7448 46.576 81.6194 46.4488C81.4939 46.3217 81.4337 46.1385 81.4337 45.8995V39.6223H82.3067V41.9012H84.75V42.6439H82.3067V45.813C82.3067 45.874 82.3418 45.9198 82.4121 45.9452C82.4773 45.9707 82.7281 45.9859 83.1495 45.9859C83.4205 45.9859 83.6161 45.9707 83.7466 45.9452C83.872 45.9198 83.9623 45.7163 84.0024 45.345C84.0426 44.9737 84.0626 44.6634 84.0626 44.4192L84.9356 44.6379V44.6481Z" fill="#231815"/>
<path d="M99.0686 41.1997H95.3761V42.2018H98.5217V45.1573C98.5217 45.7982 98.2207 46.1187 97.6187 46.1187C97.0769 46.1187 96.7006 46.1187 96.4849 46.1085L96.2139 45.3607C96.6404 45.3811 97.0367 45.3913 97.403 45.3913C97.4531 45.3913 97.5083 45.3709 97.5635 45.3353C97.6187 45.2997 97.6488 45.259 97.6488 45.2081V42.9241H95.3811V46.7596H94.5232V42.9241H92.2706V46.0983H91.4127V42.1967H94.5232V41.1946H90.8608V40.4824H94.5433C94.4179 40.2434 94.2423 39.9992 94.0316 39.7499L94.9497 39.5566C95.1503 39.8313 95.341 40.1365 95.5266 40.4824H99.0736V41.1946L99.0686 41.1997Z" fill="#231815"/>
<path d="M113.186 46.5504H104.983V45.823H107.382C107.091 44.358 106.694 43.1015 106.203 42.0434L106.855 41.6467H105.32V40.9091H108.741C108.586 40.5275 108.375 40.146 108.119 39.7696L109.027 39.5C109.303 39.9476 109.544 40.4156 109.745 40.9091H112.945V41.6467H111.265L111.957 42.0333C111.771 43.1371 111.4 44.3986 110.833 45.8179H113.191V46.5453L113.186 46.5504ZM111.154 41.6467H107C107.537 42.8878 107.958 44.2766 108.259 45.823H109.925C110.547 44.2817 110.959 42.8929 111.159 41.6467H111.154Z" fill="#231815"/>
<path d="M121.173 44.1397C120.857 44.9994 120.391 45.9048 119.779 46.8459L119.086 46.3779C119.593 45.6149 120.035 44.7501 120.411 43.7836L121.173 44.1448V44.1397ZM121.153 42.7001L120.597 43.2648C120.01 42.7815 119.513 42.4254 119.112 42.2016L119.688 41.6166C120.19 41.9167 120.677 42.2779 121.148 42.7001H121.153ZM121.209 40.6908L120.627 41.2656C120.17 40.8078 119.714 40.4212 119.247 40.1007L119.859 39.5615C120.376 39.9329 120.822 40.3093 121.204 40.6908H121.209ZM127.44 46.205L127.013 46.8306C125.593 46.5305 124.71 45.9201 124.344 44.9994C124.043 45.8235 123.09 46.4237 121.474 46.795L121.063 46.1134C122.061 45.9557 122.794 45.6658 123.271 45.2334C123.742 44.8112 123.963 44.038 123.928 42.9239H124.761C124.736 43.7073 124.801 44.2465 124.936 44.5517C125.418 44.2669 125.859 43.9057 126.256 43.4733L126.928 43.9261C126.491 44.389 125.955 44.8061 125.328 45.1774C125.709 45.6047 126.416 45.9455 127.44 46.205ZM127.344 42.7052L126.823 43.2597C126.195 42.8019 125.353 42.3288 124.304 41.8354C123.752 42.5017 122.939 42.9748 121.871 43.2597L121.389 42.6289C122.056 42.4916 122.618 42.2779 123.08 41.988C123.541 41.698 123.807 41.2911 123.883 40.7722C123.958 40.2482 123.988 39.8667 123.973 39.6175H124.821C124.811 40.1058 124.746 40.584 124.63 41.0571C125.237 40.7468 125.774 40.3449 126.251 39.8515L126.923 40.2839C126.592 40.6654 126.045 41.0774 125.292 41.5251C126.105 41.9269 126.787 42.3186 127.339 42.7052H127.344ZM123.286 44.623L122.608 45.0553C122.322 44.6586 121.971 44.2567 121.55 43.8497L122.232 43.4326C122.603 43.7582 122.955 44.155 123.286 44.623ZM123.356 41.1588L122.664 41.5607C122.458 41.2097 122.127 40.7824 121.67 40.2788L122.398 39.8871C122.819 40.3449 123.14 40.7722 123.351 41.1588H123.356Z" fill="#231815"/>
<path d="M136.716 41.3626C136.51 43.4329 135.547 45.0455 133.836 46.1951L133.299 45.6152C133.997 45.193 134.569 44.6538 135.015 43.9874C135.462 43.3261 135.707 42.6801 135.743 42.0493H133.575V41.3626H136.716ZM141.592 45.5491L141.04 46.1493C139.55 45.2998 138.522 44.2672 137.94 43.0514V45.9153C137.94 46.1493 137.89 46.3325 137.784 46.4545C137.684 46.5766 137.554 46.6631 137.403 46.6987C137.248 46.7394 136.997 46.7598 136.651 46.7598C136.41 46.7598 136.154 46.7496 135.878 46.7343L135.622 45.9967C135.983 46.0272 136.274 46.0425 136.49 46.0425C136.756 46.0425 136.922 46.0222 136.992 45.9967C137.057 45.9662 137.092 45.9001 137.092 45.8034V39.6025H137.94V41.2507C138.04 41.6169 138.201 42.0035 138.422 42.4156C139.184 41.9578 139.912 41.3321 140.594 40.5385L141.301 40.9455C140.559 41.8001 139.721 42.5071 138.788 43.0616C139.365 44.0281 140.303 44.8573 141.587 45.544L141.592 45.5491Z" fill="#231815"/>
<path d="M155.71 41.581H152.058V43.0359H154.727V46.79H153.874V46.3678H149.399V46.79H148.49V43.0359H151.159V41.581H147.497V40.879H151.159V39.6582H152.058V40.879H155.71V41.581ZM153.874 45.6404V43.748H149.399V45.6404H153.874Z" fill="#231815"/>
<path d="M164.67 45.8739C163.647 46.2299 162.668 46.5199 161.75 46.7437L161.555 46.0824C161.635 46.0723 161.765 46.0417 161.941 46.001V42.7709H162.643V45.7976C162.769 45.767 162.909 45.7263 163.065 45.6704V42.2368H161.876V39.79H164.344V42.2368H163.822V43.2745H164.475V43.9663H163.822V45.4211C164.073 45.3499 164.334 45.2634 164.605 45.1566L164.665 45.879L164.67 45.8739ZM163.566 41.5806V40.4665H162.628V41.5806H163.566ZM169.416 45.6094H166.346L166.752 45.9451C166.21 46.2859 165.578 46.5809 164.856 46.82L164.384 46.2706C165.021 46.0824 165.563 45.8586 166.01 45.6043H165.072V42.659H169.416V45.6043V45.6094ZM169.838 42.3334H164.63V41.7688H166.823V41.4737H164.986V40.9549H166.823V40.6649H164.761V40.1054H166.823V39.5967H167.64V40.1054H169.717V40.6649H167.64V40.9549H169.497V41.4737H167.64V41.7688H169.838V42.3334ZM168.588 43.5237V43.1982H165.909V43.5237H168.588ZM168.588 44.2766V43.9561H165.909V44.2766H168.588ZM168.588 45.0854V44.7395H165.909V45.0854H168.588ZM169.948 46.2147L169.572 46.8048C169.085 46.5962 168.428 46.4029 167.6 46.2249L167.971 45.6551C168.664 45.7925 169.321 45.9756 169.953 46.2096L169.948 46.2147Z" fill="#231815"/>
<path d="M178.196 42.2629H177.514V46.7699H176.696V42.2629H175.753V41.5762H176.696V39.5974H177.514V41.5762H178.196V42.2629ZM184.016 45.2133H182.982V46.017C182.982 46.2917 182.907 46.4799 182.762 46.5918C182.616 46.6986 182.41 46.7546 182.16 46.7597C181.909 46.7597 181.618 46.7648 181.292 46.7648L181.021 46.1035C181.231 46.1035 181.397 46.1086 181.527 46.1086C181.849 46.1086 182.029 46.0984 182.084 46.073C182.135 46.0475 182.165 46.0068 182.165 45.9356V45.2133H177.945V44.6181H182.165V44.3434H182.987V44.6181H184.021V45.2133H184.016ZM183.905 40.7165H181.432V41.042H183.509V43.5295C183.509 43.7635 183.429 43.9263 183.268 44.0179C183.108 44.1094 182.817 44.1552 182.4 44.1552C182.26 44.1552 182.145 44.1501 182.064 44.1399L181.813 43.5448C181.969 43.555 182.23 43.56 182.596 43.56C182.671 43.56 182.711 43.5244 182.711 43.4532V43.2497H181.437V44.1043H180.609V43.2497H179.355V44.2162H178.537V41.0471H180.604V40.7216H178.111V40.1417H180.604V39.6076H181.432V40.1417H182.431C182.31 40.0348 182.165 39.9433 182.004 39.867L182.586 39.5312C182.772 39.6126 182.997 39.7652 183.263 39.9891L182.992 40.1366H183.9V40.7165H183.905ZM180.564 46.0323L180.012 46.4952C179.681 46.2306 179.32 45.9916 178.919 45.7728L179.405 45.3048C179.842 45.5236 180.223 45.7627 180.564 46.0323ZM180.604 41.9424V41.6067H179.35V41.9424H180.604ZM180.604 42.7614V42.4257H179.35V42.7614H180.604ZM182.706 41.9424V41.6067H181.432V41.9424H182.706ZM182.706 42.7614V42.4257H181.432V42.7614H182.706Z" fill="#231815"/>
<path d="M193.267 43.7478C193.016 43.8342 192.69 43.936 192.304 44.053V46.7541H191.486V44.287C191.17 44.3734 190.693 44.4955 190.061 44.6481L189.881 43.9411C190.382 43.8342 190.914 43.7071 191.486 43.5595V41.9419H190.834C190.784 42.2624 190.688 42.6439 190.558 43.0814L189.835 42.9033C190.081 42.1098 190.237 41.2196 190.297 40.2277L191.045 40.3447C191.014 40.7058 190.979 41.011 190.939 41.2603H191.486V39.6427H192.304V41.2603H193.066L193.076 41.9419H192.299V43.3205C192.856 43.1475 193.152 43.0509 193.197 43.0356L193.262 43.7478H193.267ZM198.018 40.655C198.003 41.5858 197.973 42.5981 197.918 43.6969C197.868 44.7906 197.817 45.4926 197.777 45.7927C197.737 46.0979 197.657 46.3166 197.531 46.4489C197.406 46.5811 197.266 46.6727 197.115 46.7185C196.96 46.7643 196.583 46.7846 195.976 46.7846C195.76 46.7846 195.58 46.7846 195.434 46.7744L195.189 46.0877C195.545 46.103 195.841 46.1132 196.087 46.1132C196.478 46.1132 196.714 46.0877 196.794 46.0369C196.874 45.986 196.929 45.9046 196.965 45.7876C197 45.6757 197.045 45.1823 197.085 44.3226C197.13 43.4629 197.165 42.471 197.185 41.3519H196.934C196.779 42.476 196.488 43.4375 196.056 44.2361C195.63 45.0347 194.993 45.8181 194.145 46.5862L193.443 46.1132C194.27 45.4061 194.893 44.6888 195.309 43.9563C195.725 43.2238 196.001 42.354 196.132 41.3519H195.705C195.364 42.827 194.652 44.0377 193.558 44.989L192.876 44.5362C193.914 43.702 194.587 42.6439 194.898 41.3519H194.501C194.245 41.8961 193.939 42.3743 193.583 42.7863L192.876 42.4201C193.473 41.7995 193.949 40.8533 194.301 39.5918L195.113 39.7139C195.023 40.0445 194.918 40.3599 194.792 40.66H198.008L198.018 40.655Z" fill="#231815"/>
<path d="M207.781 40.8789L207.339 41.4588C207.194 41.3012 207.033 41.1536 206.853 41.0214V41.5504H205.107V41.2299C204.871 41.408 204.58 41.5962 204.229 41.7844L203.993 41.057C204.686 40.6958 205.313 40.177 205.87 39.4902L206.632 39.7242C206.587 39.8056 206.542 39.8616 206.492 39.9074C207.059 40.2787 207.485 40.5992 207.771 40.8739L207.781 40.8789ZM207.716 46.2507L206.968 46.5864C206.888 46.3575 206.813 46.1845 206.752 46.0675C205.92 46.3829 205.192 46.6068 204.57 46.739L204.344 46.1184C204.455 46.0421 204.52 45.9455 204.52 45.8336V41.9065H207.395V44.5771H205.313V45.8234C205.634 45.7369 205.995 45.6148 206.396 45.4469C206.346 45.3249 206.256 45.1773 206.125 45.0044L206.848 44.7043C207.199 45.1824 207.485 45.7013 207.711 46.2456L207.716 46.2507ZM206.627 42.9442V42.5271H205.318V42.9442H206.627ZM206.627 43.9667V43.4682H205.318V43.9667H206.627ZM206.773 40.9502C206.557 40.7772 206.316 40.5992 206.035 40.416C205.88 40.5839 205.684 40.7619 205.458 40.9502H206.773ZM212.246 41.8912H211.719V43.7123H209.126V44.2719H212.045V46.4185H209.126V46.7695H208.298V41.8963H207.891V40.4415H209.582C209.522 40.2838 209.396 40.0396 209.206 39.7242L210.059 39.5157C210.214 39.7853 210.36 40.0905 210.49 40.4415H212.256V41.8963L212.246 41.8912ZM211.423 41.6979V41.0722H208.724V41.6979H211.423ZM210.886 43.0765V42.3389H209.121V43.0765H210.886ZM211.228 45.7827V44.9332H209.121V45.7827H211.228Z" fill="#231815"/>
<path d="M54.7437 46.9986C54.4426 45.4675 53.0329 43.8855 51.3472 43.4073C49.5962 42.9139 47.0225 43.0817 45.8686 44.5366C46.3402 44.4043 46.8971 44.328 47.4992 44.3992C47.5594 44.3992 47.6145 44.4094 47.6446 44.4145C47.9507 44.4501 48.2467 44.5366 48.5326 44.6688C51.011 45.8185 51.1214 48.9469 50.1682 50.9918C49.812 51.7447 49.3203 52.5687 48.7484 53.2097C48.041 53.9981 47.1229 54.7561 46.1596 55.2902C45.4372 55.6921 44.6696 56.0329 43.897 56.3584C44.9154 56.1957 45.6629 56.1651 46.9423 55.7836C49.6765 54.9748 52.5161 53.4793 53.9159 51.1342C54.6283 49.949 54.9995 48.3314 54.7336 46.9986" fill="#94CFB1"/>
<path d="M53.8756 47.11C53.5946 45.5941 52.2952 44.0325 50.745 43.5543C49.1345 43.0609 46.7615 43.2287 45.6979 44.6683C46.1344 44.5412 46.6461 44.4648 47.198 44.5361C47.2582 44.5412 47.3034 44.5462 47.3385 44.5513C47.6144 44.5869 47.8903 44.6734 48.1512 44.8057C50.4339 45.9451 50.5443 49.0379 49.6663 51.0574C49.3402 51.8052 48.8887 52.6191 48.3619 53.2499C47.7147 54.0281 46.8669 54.7759 45.9839 55.305C45.3166 55.7017 44.6143 56.0375 43.9019 56.3579C44.845 56.2002 45.5274 56.1697 46.7063 55.7933C49.2198 54.9947 51.8287 53.5195 53.123 51.1999C53.7803 50.0248 54.1164 48.4275 53.8706 47.11" fill="#009967"/>
<path d="M39.3423 38.0098C39.3019 37.9233 39.2615 37.8419 39.2261 37.7656C39.2665 37.847 39.3019 37.9284 39.3423 38.0098Z" fill="#B6001F"/>
<path d="M47.4991 46.673C46.2097 45.7217 44.0022 46.3372 43.5106 48.1533C43.1443 49.5064 43.9621 50.7832 45.2966 50.2745C44.5842 50.0812 44.2832 49.1198 44.7347 48.4788C45.0959 47.9701 45.8435 47.9803 46.2699 48.3109C47.2683 49.0791 46.8519 50.6102 46.2147 51.2562C45.2113 52.2685 43.345 52.0752 42.6677 50.4271C42.2162 49.3181 42.2965 48.0057 42.8483 47.0138C43.1293 46.5051 43.4805 46.0422 43.8868 45.6709C44.0073 45.5539 44.524 45.0757 44.9304 44.9892C42.5423 43.3106 40.3449 40.1872 39.3365 38.0151C39.2963 37.9287 39.2612 37.8524 39.2211 37.771C39.0505 37.4047 38.7896 36.8909 38.3682 36.7943C37.9919 36.7078 37.721 37.069 37.5354 37.3589C37.42 37.5319 37.3497 37.6998 37.2544 37.8829C33.4265 44.8621 22.2437 52.3194 22.2437 52.3194C23.9344 53.7895 25.2087 54.756 26.6887 55.5139C27.5817 55.9768 28.6453 56.277 29.7691 56.3991C30.6822 56.4957 31.6103 56.4804 32.5234 56.3482C32.9499 56.2871 33.3713 56.2108 33.7827 56.104C34.3646 55.9616 34.9466 55.7632 35.4935 55.5139C36.2259 55.1782 36.9534 54.817 37.5705 54.2727C37.8565 54.0235 38.1224 53.7335 38.3431 53.4182C38.8448 52.7009 39.1057 51.5513 38.6441 50.7526C38.1123 49.837 36.833 49.7505 36.1908 50.6204C36.0503 50.8137 35.9249 51.0935 35.8948 51.3275C35.8446 51.7446 35.9299 52.2227 36.2811 52.4873C36.4918 52.645 36.7979 52.6602 37.0287 52.533C37.134 52.4771 37.5103 52.2227 37.43 52.06C38.022 53.2706 36.2711 54.1151 35.3179 53.4029C34.776 53.001 34.4198 52.177 34.3697 51.4801C34.2543 49.7963 35.4433 48.2296 36.9283 47.9396C38.1525 47.7005 39.3916 48.3974 40.0137 49.3487C40.7211 50.4423 40.8215 51.7598 40.3198 52.9552C40.0489 53.5911 39.5973 54.2575 39.0756 54.7306C37.9819 55.7276 37.119 56.0175 36.256 56.3634C35.5637 56.6381 34.0486 56.9535 33.0853 57.0858C34.761 57.2943 36.5219 57.2943 38.2026 57.0807C40.1241 56.8365 42.1209 56.3177 43.932 55.4783C45.8485 54.5881 48.2667 52.7365 48.678 50.0659C48.8737 48.7637 48.4623 47.38 47.5041 46.6679" fill="#B6001F"/>
<path d="M29.809 37.8217C29.7689 37.7149 29.6936 37.5979 29.5933 37.5572C29.4578 37.5063 29.3274 37.6233 29.2622 37.7352C29.2421 37.7708 29.222 37.8115 29.202 37.8471C29.1719 37.9183 29.1367 37.9896 29.1016 38.0608C28.9611 38.3507 28.7856 38.6966 28.5698 39.0883H30.3709C30.2104 38.7628 30.0448 38.4067 29.8843 38.015C29.8592 37.9489 29.8341 37.8878 29.804 37.8217" fill="#B6001F"/>
<path d="M29.6538 39.9733V40.6855C29.6538 41.0161 29.9047 41.2857 30.2157 41.2908H31.8111C31.4198 40.833 30.9683 40.2073 30.5217 39.373H30.2157C29.9047 39.373 29.6538 39.6427 29.6538 39.9784" fill="#B6001F"/>
<path d="M29.3628 40.6857V39.9735C29.3628 39.6429 29.1119 39.3682 28.8009 39.3682H28.4045C28.0684 39.943 27.652 40.589 27.1353 41.2859H28.7959C29.1069 41.2859 29.3578 41.0163 29.3578 40.6857" fill="#B6001F"/>
<path d="M31.6602 42.1817V42.8938C31.6602 43.1431 31.8006 43.3567 32.0013 43.4483C32.3475 43.1075 32.6937 42.7565 33.0348 42.4004C33.0348 42.4004 32.6485 42.1817 32.0916 41.5967C31.8458 41.6628 31.6602 41.8968 31.6602 42.1817Z" fill="#B6001F"/>
<path d="M27.5513 42.1813V42.8935C27.5513 43.2292 27.8021 43.4988 28.1132 43.4988H30.8023C31.1133 43.4988 31.3642 43.2343 31.3642 42.8986V42.1864C31.3642 41.8507 31.1133 41.5811 30.8023 41.5811H28.1132C27.8021 41.5811 27.5513 41.8507 27.5513 42.1864" fill="#B6001F"/>
<path d="M27.2553 42.8881V42.176C27.2553 41.9165 27.1048 41.6978 26.8941 41.6113C26.4375 42.2116 25.9057 42.8474 25.3037 43.4884H26.6934C27.0095 43.4884 27.2553 43.2188 27.2553 42.8881Z" fill="#B6001F"/>
<path d="M29.6538 44.3837V45.0958C29.6538 45.2586 29.714 45.4061 29.8144 45.5129C30.4264 44.9636 31.0435 44.3837 31.6606 43.7783H30.2207C29.9097 43.7783 29.6588 44.0479 29.6588 44.3837" fill="#B6001F"/>
<path d="M28.7959 43.7783H26.1068C25.7908 43.7783 25.5449 44.0479 25.5449 44.3786V45.0907C25.5449 45.4214 25.7958 45.6961 26.1068 45.6961H28.7959C29.107 45.6961 29.3578 45.4265 29.3578 45.0958V44.3837C29.3578 44.053 29.107 43.7783 28.7959 43.7783Z" fill="#B6001F"/>
<path d="M25.2536 45.0959V44.3837C25.2536 44.1548 25.1332 43.9513 24.9576 43.8496C24.3606 44.46 23.6883 45.0806 22.9458 45.6961H24.6967C25.0028 45.6961 25.2586 45.4265 25.2586 45.0959" fill="#B6001F"/>
<path d="M27.5513 46.5866V47.2987C27.5513 47.3598 27.5563 47.4157 27.5713 47.4666C28.1282 47.0037 28.7052 46.5052 29.2922 45.9863H28.1132C27.8021 45.9863 27.5513 46.2559 27.5513 46.5917" fill="#B6001F"/>
<path d="M26.6934 45.9863H24.0043C23.6932 45.9863 23.4424 46.2559 23.4424 46.5866V47.2987C23.4424 47.6345 23.6932 47.9041 24.0043 47.9041H26.6934C27.0044 47.9041 27.2553 47.6345 27.2553 47.3038V46.5917C27.2553 46.261 27.0044 45.9914 26.6934 45.9914" fill="#B6001F"/>
<path d="M22.5845 47.8994C22.8906 47.8994 23.1464 47.6298 23.1464 47.2941V46.5819C23.1464 46.2513 22.8956 45.9766 22.5845 45.9766C21.7567 46.6328 20.8386 47.2788 19.8252 47.8892C19.8503 47.8892 19.8703 47.8943 19.8904 47.8943H22.5845V47.8994Z" fill="#B6001F"/>
<path d="M25.5449 48.7887V49.1143C25.9112 48.8243 26.2975 48.514 26.6988 48.1885H26.1068C25.7958 48.1885 25.5449 48.4581 25.5449 48.7887Z" fill="#B6001F"/>
<path d="M24.687 48.1836H21.9979C21.6869 48.1836 21.436 48.4532 21.436 48.7889V49.5011C21.436 49.8317 21.6869 50.1064 21.9979 50.1064H24.2556C24.5666 49.8724 24.8977 49.6181 25.2539 49.3434V48.7889C25.2539 48.4583 25.0031 48.1836 24.692 48.1836" fill="#B6001F"/>
<path d="M21.1448 49.5011V48.7889C21.1448 48.4583 20.894 48.1836 20.5829 48.1836H19.3387C18.9976 48.3769 18.6464 48.5702 18.2852 48.7635C18.2852 48.7635 18.9474 49.3994 19.705 50.1064H20.5779C20.8839 50.1064 21.1398 49.8368 21.1398 49.5011" fill="#B6001F"/>
<path d="M22.5848 50.3916H20.0161C20.7536 51.0682 21.5011 51.7396 21.7721 51.9024C21.7721 51.9024 22.2888 51.5565 23.1467 50.9308C23.1166 50.6256 22.8758 50.3916 22.5898 50.3916" fill="#B6001F"/>
<path d="M66.0969 51.1601H64.4965V56.0587H63.6286V51.1601H62.0332V50.4072H66.0969V51.1601Z" fill="#231815"/>
<path d="M66.0818 52.294C66.4881 52.0498 66.9547 51.9277 67.4865 51.9277C68.4899 51.9277 68.9966 52.4568 68.9966 53.5097V56.0583H68.1788V55.4428H68.1588C67.8879 55.9158 67.4865 56.1498 66.9497 56.1498C66.5584 56.1498 66.2523 56.043 66.0266 55.8294C65.8008 55.6157 65.6904 55.3258 65.6904 54.9646C65.6904 54.2016 66.1369 53.7641 67.0249 53.6369L68.1839 53.4741C68.1839 52.8739 67.923 52.5738 67.4012 52.5738C66.9246 52.5738 66.4831 52.7315 66.0868 53.0468V52.2889L66.0818 52.294ZM67.3009 54.1863C67.0149 54.2219 66.8092 54.2982 66.6888 54.4101C66.5684 54.5169 66.5082 54.6797 66.5082 54.8934C66.5082 55.0714 66.5734 55.2138 66.6988 55.3258C66.8243 55.4428 66.9898 55.4987 67.1905 55.4987C67.4715 55.4987 67.7072 55.397 67.8929 55.1935C68.0835 54.99 68.1738 54.7357 68.1738 54.4254V54.0693L67.2959 54.1863H67.3009Z" fill="#231815"/>
<path d="M76.0053 56.0634H75.1574V53.7488C75.1574 53.347 75.0922 53.0621 74.9668 52.8841C74.8414 52.706 74.6357 52.6195 74.3597 52.6195C74.1189 52.6195 73.9132 52.7315 73.7426 52.9553C73.5721 53.1791 73.4817 53.4538 73.4817 53.7743V56.0634H72.6389V53.6929C72.6389 52.9756 72.368 52.6195 71.8312 52.6195C71.5803 52.6195 71.3696 52.7264 71.2041 52.9451C71.0435 53.1638 70.9582 53.4436 70.9582 53.7844V56.0634H70.1104V52.0244H70.9582V52.6602H70.9783C71.2643 52.1719 71.6807 51.9277 72.2325 51.9277C72.7844 51.9277 73.1707 52.1973 73.3664 52.7365C73.6674 52.1973 74.1089 51.9277 74.6959 51.9277C75.5688 51.9277 76.0053 52.472 76.0053 53.5657V56.0583V56.0634Z" fill="#231815"/>
<path d="M76.9385 55.1281C77.3097 55.3825 77.696 55.5097 78.0974 55.5097C78.6242 55.5097 78.8901 55.3418 78.8901 55.0111C78.8901 54.8738 78.8299 54.7568 78.7245 54.6703C78.6141 54.5788 78.3633 54.4618 77.982 54.3193C77.5756 54.1616 77.2997 53.9938 77.1592 53.8157C77.0187 53.6377 76.9485 53.4139 76.9485 53.1443C76.9485 52.7729 77.104 52.4779 77.4101 52.2592C77.7161 52.0455 78.0974 51.9336 78.5489 51.9336C78.9001 51.9336 79.2212 51.9946 79.5222 52.1116V52.8696C79.2212 52.6814 78.8851 52.5847 78.5088 52.5847C78.2981 52.5847 78.1225 52.6305 77.992 52.717C77.8616 52.8085 77.7964 52.9255 77.7964 53.0731C77.7964 53.2206 77.8465 53.3325 77.9419 53.4139C78.0422 53.4953 78.263 53.6072 78.6141 53.7394C79.0456 53.9022 79.3416 54.0701 79.4971 54.2532C79.6527 54.4363 79.7329 54.6602 79.7329 54.9298C79.7329 55.3113 79.5774 55.6114 79.2714 55.8301C78.9653 56.0489 78.564 56.1608 78.0673 56.1608C77.6358 56.1608 77.2646 56.0845 76.9485 55.9319V55.1281H76.9385Z" fill="#231815"/>
<path d="M84.0224 56.0634H83.1846V55.4326H83.1696C82.8936 55.9159 82.4822 56.16 81.9404 56.16C81.0022 56.16 80.5356 55.5903 80.5356 54.4458V52.0244H81.3735V54.3389C81.3735 55.0918 81.6594 55.4682 82.2314 55.4682C82.5123 55.4682 82.7381 55.3614 82.9137 55.1579C83.0943 54.9494 83.1796 54.6798 83.1796 54.344V52.0244H84.0174V56.0634H84.0224Z" fill="#231815"/>
<path d="M85.1265 50.6411C85.1265 50.4987 85.1716 50.3766 85.272 50.285C85.3673 50.1884 85.4877 50.1426 85.6432 50.1426C85.7987 50.1426 85.9141 50.1884 86.0145 50.285C86.1148 50.3766 86.17 50.4987 86.17 50.6411C86.17 50.7835 86.1198 50.9056 86.0145 50.9972C85.9141 51.0887 85.7887 51.1396 85.6432 51.1396C85.4977 51.1396 85.3723 51.0938 85.272 50.9972C85.1716 50.9005 85.1265 50.7835 85.1265 50.6411ZM85.2118 56.0637V52.0247H86.0596V56.0637H85.2118Z" fill="#231815"/>
<path d="M93.5999 56.0636H92.7369V53.5812H90.0579V56.0636H89.1899V50.4121H90.0579V52.8131H92.7369V50.4121H93.5999V56.0636Z" fill="#231815"/>
<path d="M94.8091 50.6411C94.8091 50.4987 94.8593 50.3766 94.9546 50.285C95.0499 50.1884 95.1703 50.1426 95.3258 50.1426C95.4814 50.1426 95.5917 50.1884 95.6971 50.285C95.7974 50.3766 95.8476 50.4987 95.8476 50.6411C95.8476 50.7835 95.7974 50.9056 95.6971 50.9972C95.5967 51.0887 95.4713 51.1396 95.3258 51.1396C95.1803 51.1396 95.0549 51.0938 94.9546 50.9972C94.8542 50.9005 94.8091 50.7835 94.8091 50.6411ZM94.8894 56.0637V52.0247H95.7372V56.0637H94.8894Z" fill="#231815"/>
<path d="M96.7407 55.1281C97.112 55.3825 97.4983 55.5097 97.8996 55.5097C98.4264 55.5097 98.6923 55.3418 98.6923 55.0111C98.6923 54.8738 98.6371 54.7568 98.5318 54.6703C98.4164 54.5788 98.1706 54.4618 97.7893 54.3193C97.3829 54.1616 97.107 53.9938 96.9665 53.8157C96.826 53.6377 96.7558 53.4139 96.7558 53.1443C96.7558 52.7729 96.9113 52.4779 97.2173 52.2592C97.5234 52.0455 97.9047 51.9336 98.3562 51.9336C98.7024 51.9336 99.0285 51.9946 99.3295 52.1116V52.8696C99.0285 52.6814 98.6923 52.5847 98.316 52.5847C98.1053 52.5847 97.9297 52.6305 97.7993 52.717C97.6689 52.8085 97.6036 52.9255 97.6036 53.0731C97.6036 53.2206 97.6538 53.3325 97.7491 53.4139C97.8495 53.4953 98.0702 53.6072 98.4214 53.7394C98.8529 53.9022 99.1489 54.0701 99.3044 54.2532C99.4599 54.4363 99.5402 54.6602 99.5402 54.9298C99.5402 55.3113 99.3847 55.6114 99.0786 55.8301C98.7726 56.0489 98.3712 56.1608 97.8746 56.1608C97.4431 56.1608 97.0718 56.0845 96.7508 55.9319V55.1281H96.7407Z" fill="#231815"/>
<path d="M102.45 56.0179C102.295 56.1044 102.069 56.1552 101.778 56.1552C101.02 56.1552 100.644 55.7381 100.644 54.9039V52.7064H99.9717V52.0247H100.644V51.0836L101.482 50.8242V52.0247H102.445V52.7064H101.482V54.7564C101.482 55.0056 101.527 55.1887 101.617 55.3007C101.703 55.4126 101.843 55.4685 102.039 55.4685C102.189 55.4685 102.325 55.4227 102.45 55.3363V56.0179Z" fill="#231815"/>
<path d="M102.932 54.0803C102.932 53.419 103.117 52.895 103.494 52.5084C103.865 52.1218 104.372 51.9336 105.019 51.9336C105.626 51.9336 106.107 52.1218 106.459 52.4931C106.815 52.8645 106.985 53.3732 106.985 54.0192C106.985 54.6652 106.8 55.1892 106.428 55.5758C106.057 55.9624 105.561 56.1608 104.938 56.1608C104.316 56.1608 103.845 55.9726 103.478 55.5961C103.117 55.2197 102.932 54.7161 102.932 54.0853V54.0803ZM103.79 54.0599C103.79 54.5025 103.895 54.8484 104.111 55.0976C104.321 55.3469 104.612 55.469 104.974 55.469C105.741 55.469 106.122 54.9908 106.122 54.0345C106.122 53.5716 106.022 53.2206 105.826 52.9764C105.631 52.7322 105.345 52.6152 104.974 52.6152C104.602 52.6152 104.311 52.7424 104.106 53.0018C103.895 53.2613 103.79 53.6123 103.79 54.0599Z" fill="#231815"/>
<path d="M110.181 52.8433C110.056 52.7619 109.89 52.7212 109.684 52.7212C109.413 52.7212 109.188 52.8433 109.022 53.0824C108.851 53.3266 108.771 53.647 108.771 54.0489V56.0582H107.923V52.0193H108.771V52.823H108.791C108.987 52.238 109.333 51.9531 109.835 51.9531C109.98 51.9531 110.101 51.9735 110.186 52.004V52.8433H110.181Z" fill="#231815"/>
<path d="M110.738 50.6411C110.738 50.4987 110.788 50.3766 110.883 50.285C110.984 50.1884 111.104 50.1426 111.255 50.1426C111.405 50.1426 111.525 50.1884 111.626 50.285C111.726 50.3766 111.776 50.4987 111.776 50.6411C111.776 50.7835 111.726 50.9056 111.626 50.9972C111.525 51.0887 111.4 51.1396 111.255 51.1396C111.109 51.1396 110.989 51.0938 110.888 50.9972C110.788 50.9005 110.738 50.7835 110.738 50.6411ZM110.823 56.0637V52.0247H111.671V56.0637H110.823Z" fill="#231815"/>
<path d="M115.684 55.8904C115.388 56.0684 115.012 56.1549 114.556 56.1549C113.974 56.1549 113.502 55.9667 113.141 55.5954C112.78 55.224 112.604 54.7357 112.604 54.1354C112.604 53.464 112.795 52.9298 113.181 52.528C113.567 52.1312 114.079 51.9277 114.726 51.9277C115.123 51.9277 115.439 51.9939 115.684 52.121V52.9248C115.403 52.7162 115.097 52.6145 114.766 52.6145C114.375 52.6145 114.064 52.7467 113.823 53.0112C113.582 53.2758 113.462 53.6318 113.462 54.0744C113.462 54.5169 113.577 54.8527 113.808 55.1019C114.039 55.3461 114.345 55.4733 114.731 55.4733C115.067 55.4733 115.383 55.3614 115.679 55.1426V55.8904H115.684Z" fill="#231815"/>
<path d="M116.688 52.294C117.095 52.0498 117.561 51.9277 118.093 51.9277C119.096 51.9277 119.603 52.4568 119.603 53.5097V56.0583H118.785V55.4428H118.765C118.494 55.9158 118.093 56.1498 117.556 56.1498C117.165 56.1498 116.859 56.043 116.633 55.8294C116.407 55.6157 116.297 55.3258 116.297 54.9646C116.297 54.2016 116.743 53.7641 117.631 53.6369L118.79 53.4741C118.79 52.8739 118.529 52.5738 118.008 52.5738C117.531 52.5738 117.095 52.7315 116.693 53.0468V52.2889L116.688 52.294ZM117.907 54.1863C117.621 54.2219 117.411 54.2982 117.295 54.4101C117.175 54.5169 117.115 54.6797 117.115 54.8934C117.115 55.0714 117.18 55.2138 117.305 55.3258C117.431 55.4428 117.596 55.4987 117.792 55.4987C118.078 55.4987 118.314 55.397 118.499 55.1935C118.685 54.99 118.78 54.7357 118.78 54.4254V54.0693L117.902 54.1863H117.907Z" fill="#231815"/>
<path d="M120.711 56.0638V50.0918H121.559V56.0638H120.711Z" fill="#231815"/>
<path d="M129.752 56.064V52.4167C129.752 52.0963 129.767 51.7198 129.802 51.2824H129.777C129.707 51.5978 129.652 51.8012 129.612 51.8979L127.916 56.064H127.354L125.648 51.9284C125.603 51.8216 125.548 51.6079 125.478 51.2773H125.453C125.478 51.6181 125.493 52.0301 125.493 52.5083V56.0589H124.69V50.4074H125.894L127.404 54.1412C127.52 54.4311 127.6 54.6753 127.635 54.8635H127.66C127.705 54.7109 127.785 54.4617 127.911 54.1259L129.446 50.4023H130.605V56.0538H129.752V56.064Z" fill="#231815"/>
<path d="M135.326 56.0634H134.483V55.4326H134.463C134.187 55.9159 133.781 56.16 133.244 56.16C132.306 56.16 131.834 55.5903 131.834 54.4458V52.0244H132.677V54.3389C132.677 55.0918 132.963 55.4682 133.535 55.4682C133.816 55.4682 134.042 55.3614 134.218 55.1579C134.393 54.9494 134.483 54.6798 134.483 54.344V52.0244H135.326V56.0634Z" fill="#231815"/>
<path d="M136.33 55.1281C136.701 55.3825 137.087 55.5097 137.489 55.5097C138.015 55.5097 138.281 55.3418 138.281 55.0111C138.281 54.8738 138.226 54.7568 138.116 54.6703C138.01 54.5788 137.759 54.4618 137.373 54.3193C136.972 54.1616 136.691 53.9938 136.555 53.8157C136.415 53.6377 136.345 53.4139 136.345 53.1443C136.345 52.7729 136.5 52.4779 136.806 52.2592C137.112 52.0455 137.494 51.9336 137.95 51.9336C138.301 51.9336 138.622 51.9946 138.928 52.1116V52.8696C138.622 52.6814 138.286 52.5847 137.91 52.5847C137.699 52.5847 137.524 52.6305 137.393 52.717C137.258 52.8085 137.198 52.9255 137.198 53.0731C137.198 53.2206 137.248 53.3325 137.343 53.4139C137.438 53.4953 137.664 53.6072 138.015 53.7394C138.447 53.9022 138.743 54.0701 138.898 54.2532C139.054 54.4363 139.134 54.6602 139.134 54.9298C139.134 55.3113 138.979 55.6114 138.673 55.8301C138.366 56.0489 137.965 56.1608 137.468 56.1608C137.037 56.1608 136.666 56.0845 136.345 55.9319V55.1281H136.33Z" fill="#231815"/>
<path d="M143.328 54.273H140.594C140.634 55.0869 141.041 55.4938 141.823 55.4938C142.265 55.4938 142.666 55.3616 143.027 55.092V55.799C142.671 56.033 142.205 56.1551 141.628 56.1551C141.051 56.1551 140.574 55.972 140.243 55.6057C139.907 55.2395 139.741 54.7308 139.741 54.0695C139.741 53.4489 139.922 52.9351 140.278 52.5282C140.634 52.1263 141.086 51.9229 141.628 51.9229C142.169 51.9229 142.586 52.0958 142.882 52.4366C143.183 52.7825 143.328 53.2556 143.328 53.8609V54.2628V54.273ZM142.511 53.6524C142.511 53.3065 142.43 53.042 142.28 52.8537C142.124 52.6706 141.909 52.5791 141.623 52.5791C141.367 52.5791 141.141 52.6757 140.955 52.8741C140.765 53.0674 140.649 53.3319 140.604 53.6524H142.516H142.511Z" fill="#231815"/>
<path d="M147.633 56.0634H146.79V55.4326H146.77C146.494 55.9159 146.088 56.16 145.546 56.16C144.608 56.16 144.141 55.5903 144.141 54.4458V52.0244H144.984V54.3389C144.984 55.0918 145.27 55.4682 145.837 55.4682C146.118 55.4682 146.344 55.3614 146.524 55.1579C146.7 54.9494 146.79 54.6798 146.79 54.344V52.0244H147.633V56.0634Z" fill="#231815"/>
<path d="M154.712 56.0634H153.864V53.7488C153.864 53.347 153.799 53.0621 153.673 52.8841C153.548 52.706 153.342 52.6195 153.061 52.6195C152.82 52.6195 152.615 52.7315 152.444 52.9553C152.273 53.1791 152.183 53.4538 152.183 53.7743V56.0634H151.345V53.6929C151.345 52.9756 151.074 52.6195 150.533 52.6195C150.287 52.6195 150.076 52.7264 149.915 52.9451C149.75 53.1638 149.67 53.4436 149.67 53.7844V56.0634H148.822V52.0244H149.67V52.6602H149.69C149.976 52.1719 150.392 51.9277 150.944 51.9277C151.496 51.9277 151.877 52.1973 152.073 52.7365C152.374 52.1973 152.815 51.9277 153.402 51.9277C154.275 51.9277 154.712 52.472 154.712 53.5657V56.0583V56.0634Z" fill="#231815"/>
<path d="M164.294 56.0636H163.331L160.667 51.8975C160.566 51.7449 160.496 51.6126 160.451 51.5007H160.431C160.451 51.6482 160.461 51.9229 160.461 52.3248V56.0636H159.623V50.4121H160.641L163.23 54.5019C163.351 54.6952 163.431 54.8326 163.476 54.9038H163.491C163.466 54.7309 163.451 54.4613 163.451 54.095V50.4121H164.289V56.0636H164.294Z" fill="#231815"/>
<path d="M168.925 54.273H166.185C166.226 55.0869 166.632 55.4938 167.415 55.4938C167.856 55.4938 168.257 55.3616 168.619 55.092V55.799C168.262 56.033 167.796 56.1551 167.219 56.1551C166.642 56.1551 166.165 55.972 165.834 55.6057C165.498 55.2395 165.333 54.7308 165.333 54.0695C165.333 53.4489 165.513 52.9351 165.869 52.5282C166.231 52.1263 166.677 51.9229 167.219 51.9229C167.761 51.9229 168.177 52.0958 168.473 52.4366C168.774 52.7825 168.925 53.2556 168.925 53.8609V54.2628V54.273ZM168.102 53.6524C168.102 53.3065 168.022 53.042 167.871 52.8537C167.716 52.6706 167.5 52.5791 167.219 52.5791C166.958 52.5791 166.737 52.6757 166.547 52.8741C166.356 53.0674 166.241 53.3319 166.195 53.6524H168.107H168.102Z" fill="#231815"/>
<path d="M175.081 52.0244L173.912 56.0634H173.029L172.286 53.3572C172.251 53.2402 172.231 53.0977 172.226 52.935H172.206C172.196 53.0418 172.171 53.1791 172.126 53.347L171.328 56.0634H170.465L169.286 52.0244H170.159L170.887 54.9188C170.912 55.0409 170.932 55.1681 170.942 55.3156H170.967C170.977 55.1783 171.002 55.046 171.042 54.9138L171.88 52.0295H172.673L173.42 54.9341C173.44 55.0002 173.455 55.1325 173.48 55.3309H173.51C173.52 55.2088 173.541 55.0765 173.576 54.9341L174.283 52.0295H175.086L175.081 52.0244Z" fill="#231815"/>
<path d="M181.221 51.1601H179.621V56.0587H178.753V51.1601H177.158V50.4072H181.221V51.1601Z" fill="#231815"/>
<path d="M181.206 52.294C181.613 52.0498 182.079 51.9277 182.611 51.9277C183.615 51.9277 184.121 52.4568 184.121 53.5097V56.0583H183.298V55.4428H183.278C183.007 55.9158 182.606 56.1498 182.069 56.1498C181.678 56.1498 181.372 56.043 181.146 55.8294C180.92 55.6157 180.81 55.3258 180.81 54.9646C180.81 54.2016 181.257 53.7641 182.145 53.6369L183.293 53.4741C183.293 52.8739 183.033 52.5738 182.516 52.5738C182.039 52.5738 181.598 52.7315 181.201 53.0468V52.2889L181.206 52.294ZM182.426 54.1863C182.14 54.2219 181.934 54.2982 181.818 54.4101C181.698 54.5169 181.638 54.6797 181.638 54.8934C181.638 55.0714 181.703 55.2138 181.829 55.3258C181.954 55.4428 182.119 55.4987 182.315 55.4987C182.601 55.4987 182.832 55.397 183.023 55.1935C183.213 54.99 183.303 54.7357 183.303 54.4254V54.0693L182.426 54.1863Z" fill="#231815"/>
<path d="M185.15 50.6411C185.15 50.4987 185.2 50.3766 185.295 50.285C185.395 50.1884 185.516 50.1426 185.661 50.1426C185.807 50.1426 185.932 50.1884 186.033 50.285C186.133 50.3766 186.183 50.4987 186.183 50.6411C186.183 50.7835 186.133 50.9056 186.033 50.9972C185.932 51.0887 185.807 51.1396 185.661 51.1396C185.516 51.1396 185.39 51.0938 185.295 50.9972C185.195 50.9005 185.145 50.7835 185.145 50.6411H185.15ZM185.23 56.0637V52.0247H186.078V56.0637H185.23Z" fill="#231815"/>
<path d="M188.114 55.5191V57.9201H187.267V52.0244H188.114V52.6958H188.135C188.441 52.1872 188.887 51.9277 189.474 51.9277C189.981 51.9277 190.377 52.1058 190.668 52.4669C190.959 52.8281 191.105 53.3114 191.105 53.9269C191.105 54.5983 190.944 55.1375 190.613 55.5445C190.282 55.9514 189.845 56.1549 189.293 56.1549C188.792 56.1549 188.405 55.9413 188.14 55.514H188.119L188.114 55.5191ZM188.109 54.3643C188.109 54.6746 188.205 54.9442 188.395 55.1528C188.586 55.3614 188.827 55.4733 189.123 55.4733C189.474 55.4733 189.75 55.3359 189.941 55.0612C190.136 54.7866 190.232 54.4101 190.232 53.9218C190.232 53.5047 190.146 53.1842 189.961 52.9604C189.785 52.7315 189.529 52.6195 189.208 52.6195C188.887 52.6195 188.621 52.7365 188.415 52.9756C188.21 53.2147 188.109 53.5148 188.109 53.8811V54.3643Z" fill="#231815"/>
<path d="M195.374 54.273H192.635C192.675 55.0869 193.081 55.4938 193.864 55.4938C194.3 55.4938 194.707 55.3616 195.068 55.092V55.799C194.717 56.033 194.25 56.1551 193.668 56.1551C193.086 56.1551 192.615 55.972 192.283 55.6057C191.947 55.2395 191.782 54.7308 191.782 54.0695C191.782 53.4489 191.962 52.9351 192.319 52.5282C192.68 52.1263 193.126 51.9229 193.668 51.9229C194.21 51.9229 194.626 52.0958 194.922 52.4366C195.223 52.7825 195.374 53.2556 195.374 53.8609V54.2628V54.273ZM194.551 53.6524C194.551 53.3065 194.471 53.042 194.315 52.8537C194.165 52.6706 193.944 52.5791 193.663 52.5791C193.407 52.5791 193.181 52.6757 192.996 52.8741C192.805 53.0674 192.69 53.3319 192.645 53.6524H194.556H194.551Z" fill="#231815"/>
<path d="M196.162 50.6411C196.162 50.4987 196.212 50.3766 196.307 50.285C196.407 50.1884 196.528 50.1426 196.678 50.1426C196.829 50.1426 196.949 50.1884 197.05 50.285C197.15 50.3766 197.2 50.4987 197.2 50.6411C197.2 50.7835 197.15 50.9056 197.05 50.9972C196.949 51.0887 196.824 51.1396 196.678 51.1396C196.533 51.1396 196.407 51.0938 196.312 50.9972C196.212 50.9005 196.167 50.7835 196.167 50.6411H196.162ZM196.247 56.0637V52.0247H197.095V56.0637H196.247Z" fill="#231815"/>
<path d="M204.093 55.8398C203.682 56.0534 203.16 56.1602 202.533 56.1602C201.725 56.1602 201.083 55.9059 200.597 55.387C200.11 54.8733 199.869 54.1916 199.869 53.3472C199.869 52.5028 200.14 51.7448 200.677 51.17C201.214 50.6003 201.911 50.3154 202.759 50.3154C203.296 50.3154 203.742 50.3917 204.098 50.5443V51.4295C203.707 51.2056 203.271 51.0937 202.789 51.0937C202.182 51.0937 201.695 51.2972 201.329 51.7041C200.958 52.106 200.777 52.6401 200.777 53.2912C200.777 53.9424 200.953 54.4205 201.294 54.8071C201.635 55.1937 202.102 55.387 202.679 55.387C203.215 55.387 203.687 55.2599 204.098 55.0106V55.8398H204.093Z" fill="#231815"/>
<path d="M204.977 50.6411C204.977 50.4987 205.022 50.3766 205.122 50.285C205.222 50.1884 205.343 50.1426 205.493 50.1426C205.644 50.1426 205.759 50.1884 205.865 50.285C205.965 50.3766 206.015 50.4987 206.015 50.6411C206.015 50.7835 205.965 50.9056 205.865 50.9972C205.764 51.0887 205.639 51.1396 205.493 51.1396C205.348 51.1396 205.222 51.0938 205.127 50.9972C205.027 50.9005 204.982 50.7835 204.982 50.6411H204.977ZM205.062 56.0637V52.0247H205.905V56.0637H205.062Z" fill="#231815"/>
<path d="M209.14 56.0179C208.985 56.1044 208.759 56.1552 208.468 56.1552C207.711 56.1552 207.334 55.7381 207.334 54.9039V52.7064H206.662V52.0247H207.334V51.0836L208.177 50.8242V52.0247H209.14V52.7064H208.177V54.7564C208.177 55.0056 208.222 55.1887 208.308 55.3007C208.393 55.4126 208.538 55.4685 208.734 55.4685C208.885 55.4685 209.02 55.4227 209.145 55.3363V56.0179H209.14Z" fill="#231815"/>
<path d="M213.325 52.0244L211.574 56.5924C211.228 57.503 210.721 57.9557 210.064 57.9557C209.848 57.9557 209.673 57.9303 209.537 57.8845V57.1621C209.678 57.2232 209.823 57.2588 209.969 57.2588C210.29 57.2588 210.52 57.0808 210.671 56.7247L210.947 56.0532L209.372 52.0244H210.31L211.268 54.9036C211.293 54.9646 211.323 55.0969 211.363 55.2953H211.383C211.393 55.2139 211.429 55.0867 211.479 54.9138L212.477 52.0244H213.33H213.325Z" fill="#231815"/>
<path d="M157.285 55.9621C157.285 56.2673 157.255 56.5013 157.18 56.6641C157.059 56.9489 156.824 57.1575 156.477 57.2898L156.302 56.9795C156.653 56.837 156.834 56.5369 156.844 56.0842H156.357V55.1787H157.285V55.9621Z" fill="#231815"/>
</g>
<defs>
<clipPath id="clip0_79_29666">
<rect width="195.04" height="21.1868" fill="white" transform="translate(18.2852 36.7744)"/>
</clipPath>
</defs>
</svg>
