<svg width="388" height="120" viewBox="0 0 388 120" fill="none" xmlns="http://www.w3.org/2000/svg">
<g clip-path="url(#clip0_79_30791)">
<path d="M339.258 50.2462V50.8186C339.132 52.1168 337.883 52.4684 336.535 52.3692C336.233 52.4459 336.183 52.6938 335.886 52.6442C335.485 53.1175 335.435 53.9694 335.286 54.7177C335.435 54.7943 335.485 54.9431 335.561 55.0918C335.413 57.1157 335.836 58.5897 335.787 60.5369C335.737 60.7623 335.936 60.7352 335.936 60.911C335.462 61.4339 335.237 62.0334 335.363 63.3091C335.39 63.584 335.539 63.8815 335.561 64.1069C335.561 64.1835 335.435 64.3052 335.462 64.3819C335.489 64.5306 335.638 64.6298 335.661 64.756C335.683 64.8822 335.584 64.8551 335.561 64.9814C335.561 65.1301 335.688 65.3555 335.661 65.4547C335.661 65.653 335.561 65.9054 335.561 66.0271C335.584 66.3021 335.836 66.4508 335.836 66.6762C335.836 66.9782 335.661 66.9241 335.512 67.1991C335.489 67.2982 335.512 67.5011 335.462 67.6498C335.386 67.8256 335.214 68.0014 335.187 68.1231C335.038 68.7722 335.561 69.5971 335.512 70.1966C335.435 71.0215 334.461 71.3956 334.065 71.9185C334.114 72.0672 334.24 72.3197 334.114 72.4414C333.217 72.3422 332.491 72.6171 331.666 72.3918V72.0176C331.143 71.7697 330.769 71.8419 330.219 71.7427C329.146 71.5669 328.894 70.3679 327.722 70.2958C327.023 69.6692 326.545 68.8218 325.571 68.4477C325.472 68.0735 325.247 67.6498 325.021 67.3749V67.1765C325.769 67.3523 326.946 67.0503 327.293 67.6498C327.92 67.6002 328.492 68.0014 329.042 68.0735C329.367 68.1006 329.741 68.024 330.115 68.0735C330.314 68.1006 330.517 68.1998 330.715 68.1727C332.388 68.024 332.464 65.1752 332.365 63.6291C333.113 62.4797 332.766 60.3837 332.888 58.6573C332.915 58.5085 333.014 58.3553 332.987 58.184C332.987 57.8324 332.789 57.4583 332.789 57.1112C332.789 56.3133 332.965 55.4389 332.987 54.614C332.861 54.2399 332.712 53.8657 332.739 53.4916C332.189 52.7163 331.689 53.3158 330.864 53.4916C330.242 53.6178 329.466 53.6178 328.79 53.69C328.366 53.7666 327.965 54.0145 327.618 54.0911C327.32 54.1182 326.996 54.0415 326.743 54.0911C326.468 54.1407 326.193 54.4923 325.896 54.339C325.697 54.3661 325.747 54.614 325.571 54.6636C325.373 54.6906 325.274 54.614 325.098 54.614C325.071 54.614 325.048 54.641 325.021 54.641V53.1671C325.395 52.9913 325.472 52.7659 325.995 52.6442C326.27 52.5676 326.468 52.1934 326.82 52.0943C327.843 51.8464 329.119 51.3686 329.894 50.9719C330.246 50.8231 330.494 50.422 330.819 50.2958C331.143 50.147 331.567 50.2687 331.716 49.8721C331.743 49.5746 331.567 49.4709 331.517 49.2726C331.666 48.9976 331.941 48.8488 332.04 48.5243C332.04 48.1727 331.738 48.1231 331.716 47.776C331.689 47.4785 331.991 47.2261 331.941 46.8745C331.842 46.3246 331.04 46.0992 330.868 45.5989C330.792 45.351 330.62 44.9002 330.593 44.7244C330.467 43.6246 331.369 43.2279 331.517 42.1777C331.991 41.8261 332.766 41.2807 333.591 41.479C333.916 41.5556 334.042 42.0289 334.439 41.9523C334.637 42.4526 334.863 42.7005 335.363 42.9755C335.561 43.3992 335.237 43.7012 335.187 44.0483C335.11 44.6208 335.688 45.2203 335.187 45.7476C335.512 46.1218 335.313 47.0233 335.836 47.1946C335.76 47.5957 335.985 47.7445 336.111 47.9924C336.409 48.069 336.661 48.1907 336.909 48.3665C336.936 48.4927 336.959 48.6415 336.959 48.8398C337.261 49.1914 337.707 49.0382 338.081 49.1644C338.582 49.3402 338.857 49.9622 339.254 50.2372L339.258 50.2462ZM325.021 65.955C325.594 65.2067 326.247 64.5081 326.87 63.8094C326.622 63.0341 327.221 62.8853 327.117 62.1371C326.991 61.9883 326.743 61.9117 326.491 61.8892C326.243 61.3393 325.666 61.0418 325.017 60.9156V65.9595L325.021 65.955ZM325.021 38.4319V34.9115C325.896 34.8349 326.671 34.2354 327.618 34.3886C327.794 34.4157 327.969 34.587 328.19 34.6365C328.29 34.6636 328.438 34.6095 328.515 34.6365C328.817 34.7853 328.84 34.8844 329.363 34.9611C330.088 35.0873 330.688 35.5335 330.913 36.0835C330.363 36.5342 330.165 37.305 329.412 37.58C329.011 37.4538 328.84 37.607 328.465 37.6295C328.366 37.7287 328.29 37.8775 328.24 38.0533C327.992 38.0803 327.965 37.8775 327.717 37.9045C326.892 38.3282 325.941 38.4274 325.017 38.4274L325.021 38.4319ZM325.021 67.3794C324.944 67.2532 324.845 67.181 324.773 67.1044C324.85 67.154 324.922 67.181 325.021 67.181V67.3794ZM325.021 54.641C324.796 54.7402 324.647 54.9385 324.449 55.0918C324.273 55.0918 324.223 55.191 324.025 55.1414C323.452 55.7905 322.352 55.8896 321.852 56.5883C320.653 56.6875 320.427 57.7603 319.129 57.7603C319.228 57.1878 319.828 57.1112 320.13 56.7371C319.954 56.435 320.179 56.1376 320.306 55.9392C321.279 56.088 321.356 55.3397 322.005 55.1414V54.7177C322.506 54.4923 323.028 54.3661 323.506 54.019C323.655 53.9198 323.754 53.6674 323.93 53.5457C324.232 53.3474 324.629 53.3203 325.003 53.1716H325.03V54.6455L325.021 54.641ZM325.021 34.907H324.773C324.575 35.1324 324.399 35.3803 324.097 35.4794H323.547C323.349 36.2547 322.474 36.0519 321.672 36.2277C321.424 36.3043 321.297 36.6289 321.049 36.4531C320.599 36.8542 319.999 37.0796 319.278 37.2013C318.804 37.5529 318.277 37.8279 317.402 37.7738C317.177 38.175 316.703 38.1254 316.23 38.2741C316.081 38.3012 315.955 38.4499 315.806 38.4725C315.608 38.522 315.356 38.4454 315.157 38.4725C314.634 38.5491 314.332 38.824 313.935 38.9458C313.534 39.0945 313.11 39.0449 312.885 39.2207C311.812 39.1711 311.285 39.6715 310.311 39.694C310.135 39.7436 310.135 39.969 309.937 39.969C309.112 40.1943 308.115 40.1673 307.263 40.3927C307.114 40.4423 307.038 40.5414 306.889 40.5685C306.339 40.6181 305.789 40.3431 305.289 40.4423C305.09 40.4918 304.964 40.6676 304.815 40.7172C304.716 40.7443 304.59 40.7443 304.491 40.7443V41.2176C305.19 41.3167 305.712 42.0424 306.416 42.1687C306.691 42.2182 306.988 42.092 307.263 42.1191C308.16 42.1687 308.737 42.7186 309.463 42.7952C310.586 42.944 311.663 42.3444 312.61 42.2723C313.16 41.9703 313.561 41.3979 314.409 41.5737C314.485 41.8486 314.76 42.074 314.733 42.3715C314.733 42.5698 314.508 42.6735 314.409 42.9214C314.359 43.0476 314.409 43.1964 314.359 43.2955C314.084 43.868 313.385 44.3188 313.083 44.8957C312.984 45.0445 313.056 45.2473 312.984 45.4186C312.808 45.8198 312.412 46.0947 312.236 46.4418C312.186 46.5184 312.263 46.7168 312.236 46.8159C312.087 47.1901 311.56 47.3388 311.762 47.9383C311.636 48.1366 311.262 48.2133 311.113 48.4116C311.037 48.5108 311.064 48.7362 311.014 48.8353C310.888 49.0336 310.613 49.1103 310.514 49.259C310.415 49.4348 310.464 49.7098 310.365 49.9081C310.266 50.0839 310.04 50.156 309.941 50.3318C309.842 50.5076 309.842 50.8051 309.716 51.0305C309.517 51.3821 309.166 51.5804 309.193 52.0808C308.769 52.4323 307.971 53.131 307.696 53.6313C307.448 54.1317 307.322 55.0783 307.322 55.4524C307.349 56.3494 308.422 55.9257 309.197 55.8265C309.648 55.5786 309.946 55.2 310.595 55.1279C310.87 54.8799 310.87 54.303 311.321 54.2309C311.569 53.2076 312.47 52.8831 313.142 52.3061C312.993 51.7066 313.665 51.4317 313.94 50.9088C314.066 50.7105 313.99 50.3589 314.165 50.111C314.292 49.9126 314.589 49.8856 314.787 49.6872C314.936 49.561 315.013 49.2861 315.162 49.1148C315.31 48.966 315.513 48.939 315.612 48.8398C315.712 48.6911 315.712 48.3891 315.86 48.1907C316.135 47.8391 316.537 47.74 316.609 47.4425C316.685 47.1675 316.559 46.7664 316.609 46.4914C316.708 45.9911 317.159 45.6936 317.082 45.2158C317.055 44.9904 316.834 44.765 316.78 44.5171C316.631 43.8905 316.731 43.1423 316.505 42.5428C316.005 42.1687 315.405 41.9433 315.383 41.0959C315.784 40.5234 316.956 40.7217 317.407 40.1989C317.655 40.2259 317.808 40.1222 318.006 40.0726C318.182 39.996 318.232 39.7706 318.43 39.6985C319.327 39.7481 320.026 39.374 320.504 39.1756C320.878 39.0269 321.279 39.1261 321.626 39.0269C322.176 38.8286 322.176 38.3778 322.799 38.3778C323.497 38.3778 324.273 38.4274 325.021 38.4274V34.907ZM325.021 60.9065C323.872 60.6586 322.424 60.9065 321.523 61.2311C321 61.4294 320.4 61.6548 320.301 62.0785C320.526 62.2047 320.603 62.5022 321.049 62.678C322.1 63.0792 324.196 62.3805 323.696 63.9041C323.569 63.9807 323.448 64.0798 323.222 64.0528C323.047 64.4269 322.871 64.8011 322.6 65.076C322.127 66.1263 321.252 66.7483 320.878 67.8977C321.329 68.2989 321.703 67.749 321.951 67.474C322.826 67.2757 323.326 66.4012 324.449 66.7754C324.624 66.5004 324.823 66.2254 325.021 65.9505V60.9065ZM304.486 55.538V51.5939C304.563 51.6706 304.635 51.7427 304.685 51.8419C304.712 52.216 304.86 52.8425 304.585 53.0634C304.658 53.1896 304.883 53.1626 304.91 53.3113C304.91 54.1587 304.685 54.8574 304.486 55.5335V55.538ZM324.196 29.8405C324.223 31.1657 321.572 30.6879 320.301 30.8412C320.026 31.0666 319.751 30.9403 319.327 30.9674C318.651 30.9944 317.88 31.4677 317.353 31.4407C316.902 31.4136 316.528 31.0395 316.131 30.9178C315.73 30.7691 315.256 30.8412 314.959 30.6924C314.458 30.4445 314.458 29.6692 313.787 29.57C314.062 29.1193 313.16 29.0697 313.412 28.4477C314.76 28.1727 316.487 28.5468 317.357 27.749C318.259 27.9473 319.332 27.722 320.405 27.6498C321.428 27.6002 323.15 27.8977 323.551 28.5739C323.628 28.673 323.651 28.8984 323.777 29.0968C323.953 29.4213 324.201 29.5971 324.201 29.845L324.196 29.8405ZM316.776 59.6354C317.078 60.0366 316.627 60.3611 316.55 60.7578C316.528 60.9065 316.627 61.0823 316.6 61.2311C316.573 61.506 316.352 61.8035 316.275 62.1281C316.199 62.6014 316.374 63.1513 316.077 63.575C316.302 63.7012 316.153 64.0483 316.226 64.3728C316.275 64.5982 316.501 64.8236 316.501 65.0715C316.501 65.2203 316.374 65.3961 316.325 65.5944C316.176 66.3426 316.374 67.7174 315.225 67.6904C314.702 67.6634 314.576 67.2667 314.102 67.1405C314.08 66.5139 313.205 65.8153 313.228 64.8912C313.255 64.6658 313.426 64.4675 313.453 64.2151C313.48 63.8635 313.381 63.4894 313.403 63.1423C313.431 62.4661 313.228 61.7945 313.304 61.3212C313.331 61.1229 313.53 61.0237 313.552 60.8479C313.701 60.298 313.327 59.8247 313.304 59.3469C313.277 59.1711 313.381 59.0494 313.354 58.9232C313.228 58.522 312.43 58.0983 313.029 57.598C312.903 57.2735 312.331 57.1968 312.331 56.8993C312.331 56.6244 312.93 56.3269 313.232 56.3494C313.854 56.426 314.134 57.3005 314.481 57.5214C314.531 58.3462 315.103 58.6708 315.378 59.2928V59.7661C315.928 59.8428 316.203 59.365 316.776 59.6174V59.6354ZM304.486 40.7533V41.2266C304.387 41.1995 304.261 41.1995 304.162 41.1995C304.162 41.1004 304.135 41.0237 304.062 41.0012C304.112 40.7758 304.288 40.7533 304.486 40.7533ZM304.486 51.5939V55.538C304.211 56.435 303.936 57.2599 304.112 58.2831C303.287 58.7564 303.963 60.5054 303.314 60.9065C303.314 61.2085 303.237 61.4294 303.089 61.6052C303.012 62.3805 303.237 62.9304 303.039 63.4803C302.962 63.6787 302.665 63.7778 302.566 64.0032C302.367 64.4269 302.417 64.7785 302.566 65.3014C302.192 65.653 302.34 66.2254 301.867 66.4508C302.169 67.0007 301.592 67.4245 301.542 67.9473C300.817 68.1727 300.641 68.9976 299.843 69.1193C300.019 68.1457 300.519 67.7941 300.591 66.7213C301.042 66.4734 300.817 65.9956 300.916 65.5493C300.938 65.3735 301.141 65.2473 301.213 65.0219C301.29 64.8461 301.263 64.6208 301.34 64.472C301.416 64.2737 301.587 64.1475 301.664 63.9491C301.79 63.4488 301.565 62.9755 301.912 62.6735C302.264 62.7231 302.462 62.5969 302.561 62.3985C302.435 61.7494 302.187 61.1995 302.286 60.5234C302.385 59.8743 302.16 59.1982 302.286 58.5987C302.336 58.3508 302.638 58.0983 302.66 57.8504C302.687 57.7242 302.66 56.8002 302.611 56.5252C302.561 56.1736 302.137 55.7995 302.088 55.4028C302.038 55.2045 302.137 54.9025 302.137 54.6546C302.11 54.1046 301.962 53.5322 301.962 53.104C301.962 52.3557 302.061 51.905 301.587 51.4542C301.835 51.0801 301.56 50.5031 301.389 50.2327C301.939 49.5565 301.367 48.6099 300.789 48.4116C300.938 48.0375 300.74 47.3118 301.015 47.0639C301.064 47.0639 301.064 47.0909 301.064 47.1405C302.412 48.362 303.738 49.6151 304.437 51.5128C304.437 51.5398 304.459 51.5624 304.486 51.5894V51.5939Z" fill="#231815"/>
<path d="M297.043 69.6735C296.52 69.8493 295.569 69.7997 295.095 69.5743C294.572 69.7726 293.747 69.7005 293.445 69.3489C292.097 69.3715 290.898 68.4249 289.523 68.2987C288.621 68.222 287.774 68.497 287.476 67.6225C285.628 67.0456 284.929 65.3237 283.478 64.3275C283.004 63.5026 282.576 62.6282 282.003 61.8033C281.728 61.4021 281.305 61.1272 281.057 60.753C281.03 60.7034 281.007 60.6764 280.98 60.6268V51.783C281.079 51.5351 281.178 51.2827 281.228 51.0347C281.354 50.3361 281.102 49.5878 281.553 49.0109C282.725 48.7855 283.478 49.8583 284.1 50.6606C284.573 51.2601 285.299 51.9588 284.974 53.0812C284.798 53.7303 284.023 54.5056 283.55 55.0555C282.95 55.7316 282.323 56.3311 281.927 56.8765C281.976 57.2777 281.877 57.5256 281.877 57.8772C282.553 58.1251 282.725 58.8779 283.153 59.4278C284.154 60.6494 285.799 61.2263 286.85 62.4479C288.274 62.7995 288.671 64.1698 290.073 64.5484C291.773 66.8698 295.294 67.3972 297.043 69.669V69.6735ZM279.316 46.401L280.98 45.0758C281.106 44.9991 281.205 44.927 281.332 44.8774C281.733 44.6791 282.179 44.6025 282.553 44.4267C282.702 44.3771 283.441 44.1788 283.59 44.1021C284.212 43.8768 284.226 43.8497 284.753 43.6018C285.655 43.2277 286.489 42.2315 287.039 41.8078C287.589 41.3931 287.801 41.4562 288.125 41.1317C288.748 41.055 289.198 40.8071 289.748 40.9559C290.271 41.1317 290.528 41.7176 291.123 42.0061C291.074 42.3036 291.322 42.6056 291.223 42.9076C291.196 43.0338 290.222 43.9083 290.073 44.0075C289.446 44.4087 288.148 44.5799 287.3 44.7828C286.827 44.8819 286.349 44.9315 285.876 44.9811C285.403 45.0577 285.186 45.0668 284.74 45.1659C284.415 45.2155 283.856 45.4048 283.604 45.4814C283.306 45.5806 283.067 45.5986 282.716 45.6708C282.54 45.6978 282.13 45.8285 282.003 45.8285C281.652 45.8285 281.269 46.1215 280.971 46.2207L279.686 46.4506L279.316 46.4055V46.401ZM280.98 40.0769V32.4591C282.531 32.6079 284.429 32.7071 284.6 34.0052C284.699 34.7805 284.028 35.2042 283.599 35.6775C283.148 36.6782 282.427 37.476 281.927 38.4767C281.652 39.0762 281.354 39.5766 280.975 40.0769H280.98ZM280.98 60.6358C280.782 60.2617 280.556 59.6126 280.105 59.536C279.682 59.4594 278.857 60.1625 278.509 60.4871C278.036 60.9108 277.635 61.5373 277.234 61.8123C277.107 61.9115 276.832 61.9611 276.733 62.0106C276.21 62.4118 275.809 62.9076 275.237 63.3359C274.862 63.6379 274.835 63.6874 274.412 63.8858C274.186 64.012 274.087 64.1833 273.686 64.1112C273.559 64.1382 273.713 64.4132 273.537 64.3861C272.662 64.3861 272.41 65.1614 271.815 65.486C271.666 65.5851 271.441 65.5851 271.265 65.6618C270.841 65.8601 270.638 66.1621 270.165 66.2613V65.486C270.764 64.8594 271.716 64.4132 272.139 63.6108C272.288 63.6379 272.239 63.8362 272.365 63.8362C272.838 62.9617 273.641 62.4118 274.461 61.9115C274.962 60.8883 275.985 60.4871 276.783 59.5405C277.207 59.0672 277.932 58.2153 278.005 57.6654C278.153 56.6917 277.306 55.7406 276.855 55.1186C276.481 54.6183 276.332 54.3703 275.908 53.9692C275.309 53.4192 274.56 52.7972 273.686 52.4231C274.533 52.2743 275.385 52.6485 276.084 52.9955C276.783 53.3201 277.558 53.6221 278.18 54.0187C278.654 54.3433 278.906 54.9428 279.677 54.794C280.101 54.3433 280.277 53.6717 280.502 52.9955C280.628 52.5944 280.827 52.1977 280.975 51.7965V60.6403L280.98 60.6358ZM280.98 32.4591V40.0769C280.93 40.1761 280.854 40.2527 280.782 40.3519C279.857 41.4742 279.032 42.7003 277.91 43.4981C277.31 43.3494 277.36 42.7995 277.409 42.0016C277.409 41.7041 277.387 41.3525 277.409 41.2263C277.459 41.028 277.712 40.753 277.833 40.4781C278.207 39.6802 278.307 38.63 278.559 37.6068C278.685 37.1064 279.059 36.6331 279.186 36.1598C279.235 35.9615 279.235 35.7091 279.285 35.5107C279.384 35.1862 279.609 34.9112 279.686 34.6363C279.812 33.9602 279.686 33.4147 279.614 32.8152C279.839 32.4907 280.214 32.7161 280.462 32.4141C280.637 32.4411 280.813 32.4636 280.984 32.4636L280.98 32.4591ZM280.98 45.0758V45.6978C280.48 45.8736 280.132 46.4235 279.605 46.6489C279.407 46.7255 279.154 46.6985 278.956 46.7481C278.433 46.8968 277.932 47.1222 277.405 47.1988C276.557 47.325 275.656 47.2755 275.007 47.6992C274.732 47.6 274.281 47.6721 274.033 47.573C273.884 46.8472 274.434 46.5723 274.682 46.099C275.155 45.7474 275.48 46.3965 275.908 46.4731C276.183 46.5227 276.458 46.2973 276.905 46.1981C277.328 46.0719 277.806 46.099 278.131 45.9728C278.406 45.8736 278.604 45.5716 278.83 45.4724C279.253 45.3237 279.655 45.4995 280.178 45.4229C280.403 45.3958 280.678 45.2245 280.975 45.0713L280.98 45.0758ZM270.165 62.9572C270.413 62.8581 270.616 62.6823 270.665 62.3577C270.688 61.9836 270.314 61.3841 270.165 61.1587V62.9572ZM270.165 66.2522C270.066 66.2522 269.966 66.2793 269.867 66.2793V65.8556C269.939 65.7068 270.043 65.5806 270.165 65.4814V66.2567V66.2522ZM270.165 61.1587V62.9572C270.066 63.0068 269.966 63.0338 269.867 63.0564V60.9108C269.966 60.9874 270.066 61.037 270.093 61.0866C270.115 61.0866 270.142 61.1091 270.169 61.1587H270.165ZM269.863 53.8159V47.7217C269.962 47.9967 270.039 48.2716 270.039 48.5691C270.061 49.0199 269.939 49.5157 269.89 50.1197C269.791 51.1204 270.066 52.2698 269.939 53.1939C269.917 53.4192 269.89 53.6176 269.867 53.8159H269.863ZM269.863 66.2793C269.786 66.2793 269.737 66.2793 269.664 66.2522C269.714 66.1035 269.764 65.9773 269.863 65.8511V66.2748V66.2793ZM269.863 47.7217V53.8159C269.737 54.6137 269.637 55.3395 269.489 55.8398C268.74 56.0381 268.339 55.4386 267.766 55.4161C267.568 54.7895 266.793 54.6904 266.892 53.9196C267.365 53.7212 268.064 53.3967 268.168 52.7702C268.217 52.4727 268.091 52.094 268.118 51.8191C268.168 50.0972 268.294 48.222 267.942 46.5227C268.74 46.2252 269.516 46.8743 269.867 47.7217H269.863ZM269.863 60.9063C269.737 60.8297 269.588 60.7575 269.489 60.6809C268.537 60.0814 268.163 60.7801 267.117 61.2308C266.518 61.4787 265.742 61.7807 265.17 61.907C264.345 62.0828 262.821 62.0828 262.474 61.4562C262.122 60.8567 262.55 59.6081 262.523 58.932C262.501 58.0305 262.397 57.183 262.424 56.286C262.451 54.3388 262.375 52.5132 262.573 50.7147C262.348 50.4668 262.397 49.8673 262.573 49.6149C262.226 49.1912 262.474 48.5646 262.474 47.9651C262.474 47.3656 262.298 46.7436 262.248 46.09C262.199 45.4138 262.348 44.6656 262.248 44.0931C262.122 43.2953 261.324 42.4929 261.924 41.6726C262.474 41.3706 263.173 41.348 263.799 41.1226C264.2 40.9739 264.498 40.6223 264.899 40.5231C265.373 40.3744 265.923 40.424 266.297 40.2482C266.748 40.0228 266.946 39.5225 267.446 39.4233C268.096 39.2475 269.421 39.5991 269.669 39.0221C269.818 38.648 269.218 37.9719 268.844 37.7465C268.519 37.5707 267.942 37.4219 267.568 37.2462C266.842 36.9441 266.468 36.7233 265.945 36.9216C265.769 36.9982 265.571 36.9712 265.346 37.0478C264.994 37.147 264.647 37.3994 264.245 37.5482C263.822 37.6969 263.398 37.7735 262.97 37.9223C262.244 38.1702 261.622 38.7201 260.973 38.923C260.571 39.0492 260.048 39.1213 259.598 39.2475C258.849 39.4458 258.322 39.5721 257.6 39.5721C256.352 39.5721 255.252 40.3473 253.904 40.0724C253.931 40.6448 254.481 40.7981 254.954 40.7981C254.981 40.9964 255.004 41.2984 255.179 41.4968C255.427 41.8709 256.627 42.6462 257.276 42.7724C258.227 42.9707 258.651 42.6732 259.201 42.4479C259.949 42.7228 259.877 43.5973 259.976 44.5439C260.053 45.0668 260.202 45.6663 260.202 46.1441C260.229 47.3927 259.827 48.6683 259.877 49.989C259.927 51.0618 259.602 52.1391 259.602 53.1849C259.602 53.6852 259.701 54.1855 259.652 54.6318C259.625 54.9563 259.453 55.2583 259.426 55.5558C259.399 55.8037 259.503 56.0787 259.476 56.3311C259.449 56.9306 259.228 57.5031 259.151 58.0305C259.052 58.7787 259.228 59.0041 259.327 59.527C259.354 59.7524 259.327 60.0499 259.377 60.3023C259.476 60.8522 259.85 61.3029 259.751 61.8033C259.525 63.0789 257.33 62.7273 256.23 62.9031C255.878 62.9527 255.657 63.151 255.333 63.0519C254.882 62.0016 255.707 60.8026 255.883 59.4323C256.009 58.657 255.932 57.8592 256.059 57.0613C255.657 56.561 255.558 55.664 255.008 54.9653C254.832 54.74 254.485 54.6137 254.282 54.4154C253.759 53.843 253.408 52.991 252.709 53.5409C252.583 54.0638 252.957 54.3884 252.934 54.9158C252.907 55.2132 252.709 55.5423 252.709 55.8398C252.709 56.0652 252.858 56.241 252.885 56.4393C252.934 57.1154 252.709 57.5391 252.61 58.0395C252.511 58.4407 252.461 58.8373 252.384 59.2114C252.209 59.9372 251.861 60.5862 251.659 61.3075C251.46 61.9836 251.361 62.6327 251.109 63.2818C250.861 63.9309 250.635 64.5574 250.482 65.2065C251.181 66.2793 251.604 67.8028 252.979 67.9786C254.003 68.1048 254.327 67.2529 255.004 66.9284C255.152 66.8517 255.355 66.8517 255.554 66.7526C255.702 66.6759 255.829 66.5272 256.004 66.4776C256.203 66.401 256.505 66.4506 256.73 66.3784C257.429 66.1305 258.006 65.6031 258.48 65.4769C258.831 65.4003 259.156 65.4544 259.431 65.3778C260.003 65.202 260.553 64.8053 261.252 64.927C262.302 64.3275 263.975 64.3275 265.35 64.003C265.625 63.9263 265.873 63.7551 266.125 63.728C266.324 63.7055 266.549 63.8046 266.725 63.7776C267.5 63.728 268.123 63.2773 268.997 63.4035C269.146 63.2051 269.52 63.1556 269.872 63.0519V60.9063H269.863Z" fill="#231815"/>
<path d="M200.306 62.3979C200.405 63.0244 199.954 63.3986 199.981 64.0702C199.756 64.1198 199.931 63.7952 199.684 63.8719C199.634 64.1964 199.931 64.1694 199.931 64.4443C199.882 65.8687 199.657 66.8919 198.408 67.2165C197.632 67.4148 196.334 67.0181 195.536 66.9911C195.36 66.964 195.261 67.0407 195.135 67.0181C194.711 66.9686 194.337 66.7928 193.963 66.7432C193.038 66.644 192.29 66.8919 191.564 67.0677C191.14 67.1939 190.766 67.1669 190.415 67.2661C190.216 67.3427 189.914 67.5681 189.689 67.5681C189.062 67.541 188.792 66.617 188.539 66.022C188.463 65.7966 188.291 65.6208 188.264 65.4991C188.066 64.823 188.237 63.9755 188.413 63.3535C188.512 62.9027 188.661 62.6052 188.787 62.0283C188.963 61.1313 189.563 60.3785 189.684 59.7294C189.761 59.4049 189.657 59.0037 189.734 58.6792C189.811 58.305 190.009 57.9309 190.108 57.5793C190.234 57.1556 190.257 56.7544 190.356 56.3307C190.581 55.3301 190.929 54.7576 191.082 53.7073C191.181 52.9095 191.758 51.9088 191.929 51.0118C192.056 50.3853 192.353 48.9158 191.654 48.8617C191.303 48.8617 191.253 49.1592 191.032 49.3621C190.081 49.7362 189.31 50.4844 188.535 51.111C187.962 51.6113 187.259 52.283 186.786 52.8825C186.335 53.4324 186.087 54.1581 185.438 54.5052C184.811 55.3526 184.189 56.2541 183.49 57.079C183.265 57.3539 182.918 57.5523 182.715 57.8047C182.539 58.003 182.44 58.3276 182.241 58.58C181.939 58.9316 181.615 59.1029 181.565 59.6798C180.916 60.054 180.74 60.9284 180.091 61.3026C180.091 61.5009 179.942 61.5505 179.942 61.7263C179.167 62.2987 178.842 63.2498 178.22 63.9755C177.593 64.7238 176.723 65.3008 176.345 66.2744C174.997 67.0993 174.271 69.0465 172.724 69.5198C172.427 69.619 172.075 69.5694 171.773 69.4702C171.575 69.4207 171.422 69.2449 171.201 69.1953C170.651 69.0195 170.452 69.0195 170.15 68.5732C169.952 67.6492 169.749 66.5764 169.276 65.7019C169.127 65.4044 168.825 65.1024 168.802 64.8275C168.802 64.6291 169.077 63.8043 169.226 63.6059C169.6 63.1056 170.376 63.056 170.849 62.6819C171.575 62.7089 171.922 62.3573 172.247 61.9832C172.22 61.1087 172.346 60.2839 172.296 59.5356C172.269 59.4094 172.197 59.2381 172.197 59.1119C172.224 58.7107 172.549 58.3366 172.346 57.9129C172.12 57.6875 171.597 57.7641 171.521 57.39C170.845 57.5388 170.398 57.363 169.848 57.2413C169.722 56.9438 169.348 56.9167 169.122 56.7184C168.974 56.5922 168.924 56.3443 168.748 56.1459C168.622 55.9972 168.374 55.9476 168.275 55.8214C168.049 55.5464 167.977 55.1452 167.752 54.8703C167.526 54.5728 167.202 54.3474 166.976 54.0454C166.454 53.2972 166.729 52.1703 165.926 51.6474C165.8 51.3454 165.8 51.0975 165.701 50.8496C165.624 50.7008 165.426 50.6738 165.453 50.2771C165.953 50.4258 166.075 50.9532 166.404 51.2778C166.553 51.3048 166.828 51.2282 166.877 51.3274C167.603 52.0756 168.55 52.5759 169.474 53.0988C169.974 53.1259 170.322 53.3738 170.75 53.2476C171.047 53.1484 170.975 52.923 171.151 52.6976C171.3 52.5489 171.525 52.621 171.575 52.4227C171.548 51.4986 171.976 50.6242 172.098 49.7001C172.125 49.5018 172.071 49.326 172.098 49.1277C172.125 48.9789 172.224 48.8031 172.247 48.6544C172.296 48.2803 172.147 47.9557 172.098 47.505C172.048 47.1534 172.147 46.7567 172.098 46.4547C172.021 45.8552 171.85 45.2827 171.724 44.53C171.575 43.6825 171.201 43.0335 170.899 42.3303C171.796 42.2041 172.021 42.754 172.873 42.6819C173.495 43.0064 174.095 43.5789 174.645 44.1063C174.97 44.4578 175.596 45.0303 175.817 45.5036C176.543 46.928 176.543 49.2268 176.268 50.9983C176.241 51.1741 176.417 51.1741 176.394 51.3724C176.218 51.697 176.317 51.9719 176.317 52.3235C176.268 53.0718 175.966 53.82 175.916 54.5232C175.84 55.5464 176.015 56.5967 175.592 57.4441C175.817 58.2915 175.294 59.166 175.542 59.8647C176.367 60.1126 176.439 59.2426 177.066 59.1164C177.841 58.1924 178.914 57.5162 179.789 56.6192C180.091 56.3443 180.289 55.9431 180.614 55.7222C180.839 55.5464 181.137 55.4968 181.362 55.3481C182.237 54.7215 182.737 53.6262 183.86 53.198V52.6751C185.032 51.8998 185.884 50.7774 186.858 49.7542C187.182 49.4297 187.606 49.1818 187.908 48.8302C188.882 47.8791 190.031 47.0812 191.032 46.058C191.979 46.1347 192.254 45.5352 192.606 44.9582C192.633 44.4578 192.479 44.0341 192.754 43.7366C192.457 43.2859 192.655 42.6864 192.606 42.1635C192.479 41.0141 191.956 39.8647 192.083 38.8685C192.506 38.4448 193.232 38.3186 193.706 37.9444C194.404 38.0211 194.756 37.7461 195.18 37.5703C195.554 38.0707 195.779 39.4184 195.955 40.1937C196.032 40.5182 195.906 41.1448 196.005 41.5415C196.081 41.7894 196.406 41.9426 196.528 42.1635C196.83 42.1635 197.1 42.3123 197.326 42.4385C197.925 42.763 198.525 43.065 198.822 43.6375C199.796 43.6871 199.472 45.2106 199.048 45.7335C198.822 46.0355 198.322 46.36 197.948 46.5088C197.222 46.8063 196.298 46.6846 195.951 47.3066C195.752 47.8791 195.874 48.7806 195.428 49.0781C195.527 49.9526 194.954 50.1779 195.054 51.0253C194.878 51.2237 194.828 51.4986 194.652 51.6519C194.129 55.0506 192.881 57.9219 192.128 61.2169C192.628 61.7894 193.602 61.244 194.477 61.1178C194.851 61.0682 195.252 61.1448 195.626 61.0682C195.874 61.0186 196.1 60.8203 196.375 60.7932C196.897 60.7166 197.601 60.9194 198.146 60.942C198.322 60.942 198.52 60.8653 198.669 60.8924C199.093 60.969 200.22 61.839 200.292 62.4159L200.306 62.3979Z" fill="#231815"/>
<path fill-rule="evenodd" clip-rule="evenodd" d="M227.648 36.8674C229.257 38.0168 231.214 36.7953 233.202 35.8577C235.19 35.5962 237.21 33.7346 238.936 34.9336C239.721 34.8255 241.511 34.7669 243.098 34.3116C244.684 34.3702 246.068 34.9562 246.032 36.8674C246.005 38.2287 245.135 38.6974 243.981 38.8777C242.827 39.0535 241.389 39.644 240.226 39.1257C238.278 38.747 236.299 39.1347 234.307 40.7709C232.309 41.6183 230.299 40.7709 228.293 42.0285C227.887 42.1683 227.927 43.9262 227.972 44.2868C228.013 45.1117 228.054 46.3873 227.648 46.5451C228.374 45.5084 229.154 45.594 229.97 45.6526C230.786 45.3371 231.633 45.2109 232.494 44.8863C233.355 44.3274 234.23 44.2102 235.095 44.377C235.961 44.5437 236.818 44.9945 237.647 45.576C237.552 46.6938 237.516 47.7216 237.489 48.7583C237.458 49.2496 237.435 50.7957 237.359 51.9722C237.21 53.8563 236.858 58.0934 235.871 58.0123C234.884 59.4277 233.256 61.7265 230.551 60.0903C230.087 58.0258 229.541 58.5622 229.023 58.2287C228.504 57.512 228.013 57.6382 227.648 56.2183C227.206 57.1198 227.12 58.3323 227.17 60.5546C227.188 61.2938 227.215 61.9834 227.256 63.1374C227.292 64.1561 227.337 64.6294 227.377 65.1793C227.418 65.3326 227.459 66.2701 227.486 66.8696C227.513 67.672 227.535 68.0506 227.531 68.578C227.531 69.1955 227.526 69.5606 227.517 69.8536C227.508 70.1421 227.49 70.3585 227.468 70.665C227.436 71.5169 227.395 72.0759 227.337 71.9947C227.278 72.3643 227.206 72.3869 227.116 72.9954C226.936 73.7797 226.692 74.1223 226.354 74.3792C226.02 74.4017 225.597 75.2041 225.065 75.5737C224.745 74.5054 224.483 73.6535 224.271 73.3921C224.059 72.5221 223.897 72.2516 223.775 71.9136C223.654 71.4313 223.572 71.0662 223.527 71.0436C223.505 70.692 223.491 70.5974 223.482 70.0745C223.473 69.6959 223.473 69.3308 223.482 68.9882C223.491 68.9837 223.5 68.1588 223.518 68.0236C223.536 67.406 223.559 67.2302 223.59 67.0184C223.649 66.1259 223.721 65.5264 223.807 65.292C223.893 64.7691 223.987 64.5167 224.086 63.3853C224.186 62.619 224.285 61.6319 224.379 61.0414C224.474 60.2661 224.564 59.5313 224.636 58.9544C224.862 56.5609 224.97 53.8744 224.745 52.6708C222.932 52.7024 221.968 55.2402 220.931 56.6781C219.894 59.7297 218.785 60.3968 216.679 61.0549C216.314 59.6756 216.089 60.7394 215.976 59.0896C215.868 59.653 215.872 56.4933 215.963 56.4437C216.057 54.8976 216.238 54.8886 216.477 53.4552C216.72 51.4583 217.022 51.7648 217.36 50.4712C217.698 48.294 218.068 50.1376 218.447 47.3339C218.825 45.274 219.213 44.9359 219.578 45.8915C220.133 45.1793 220.895 45.6526 221.702 44.0524C222.509 43.8901 223.356 43.2771 224.095 42.9886C224.095 41.9474 224.095 40.7439 224.095 41.0549C226.232 41.4741 228.067 41.0594 229.663 40.523C231.259 39.653 232.607 38.1926 233.775 37.832C231.832 37.7058 229.857 39.4457 227.896 38.9409C225.935 38.4045 223.992 41.1766 222.103 41.2442C220.218 42.2269 218.393 43.1103 216.675 43.9623C214.872 45.6887 213.073 45.4047 211.698 45.9276C210.323 45.9546 209.372 45.008 209.254 42.024C210.841 42.308 212.469 41.2217 214.096 41.6995C215.719 41.7671 217.342 40.4328 218.915 39.8424C220.489 38.9904 222.013 37.6832 223.446 37.832C223.018 38.4045 222.013 38.2422 221.512 36.8629C222.472 37.255 222.563 34.9697 222.288 33.2794C222.013 31.9136 221.372 29.8852 220.868 30.7326C222.747 29.8086 224.767 30.5703 226.151 31.4944C227.54 33.9645 228.293 33.8158 227.639 36.8584L227.648 36.8674ZM224.745 49.1234C224.799 47.0409 225.074 47.7982 225.119 45.8419C225.164 43.5791 224.975 43.187 224.1 43.3177C223.491 43.9172 222.923 45.7247 222.418 45.2469C221.913 45.6075 221.472 47.3384 221.115 47.0229C220.759 48.7493 220.493 48.1768 220.34 49.8536C220.187 49.9663 220.142 52.2742 220.232 52.0263C220.908 51.9226 221.67 52.1885 222.45 50.5343C223.23 49.2947 224.019 49.0828 224.749 49.1234H224.745ZM227.328 50.4171C227.337 51.5935 227.531 53.4867 227.328 54.6091C228.414 56.0425 229.384 53.8113 230.2 55.2987C231.016 56.3445 231.678 54.7173 232.156 54.0862C232.634 53.329 232.922 51.837 232.99 51.6026C233.058 51.9451 232.904 49.4434 232.49 48.4788C231.439 48.3932 230.484 49.0378 229.622 49.1595C228.761 49.4164 227.995 50.3269 227.328 50.4126V50.4171Z" fill="black"/>
<path fill-rule="evenodd" clip-rule="evenodd" d="M130.505 31.8462C130.618 32.946 130.492 33.0587 130.253 34.2532C130.014 34.9248 129.658 35.4522 129.315 35.9751C128.968 36.205 128.63 37.0929 128.427 37.7465C128.598 38.2604 128.815 37.6924 129.062 38.1793C129.31 38.4497 129.59 38.0621 129.887 38.0756C130.19 38.2739 130.51 38.044 130.843 37.6519C131.177 37.2011 131.519 37.44 131.867 37.1155C132.214 36.9757 132.556 36.6783 132.894 36.7819C133.233 36.9307 133.557 36.9307 133.864 36.5565C134.17 36.4844 134.454 36.5791 134.707 36.836C134.959 37.0929 135.185 37.5121 135.365 38.0936C134.892 38.2379 134.297 39.4188 133.629 39.5C132.962 40.0138 132.227 40.2032 131.47 40.3023C130.712 40.4916 129.933 40.6088 129.175 40.6945C128.422 40.7801 127.692 40.8252 127.038 40.8658C127.183 40.2798 127.25 39.6172 127.255 38.914C127.255 38.2108 127.192 37.6609 127.056 36.7278C126.926 36.5611 126.732 34.9969 126.475 34.5462C126.218 33.7168 125.907 33.3111 125.533 32.6079C125.163 31.7695 124.739 31.4991 124.261 31.152C124.572 30.3587 125.023 29.962 125.542 29.8223C126.06 29.1371 126.655 29.9214 127.255 30.0476C127.859 29.8989 128.472 30.4308 129.035 30.9987C129.599 31.5351 130.108 31.481 130.51 31.8462H130.505Z" fill="black" stroke="#231815" stroke-width="0.77"/>
<path fill-rule="evenodd" clip-rule="evenodd" d="M161.039 43.6378V45.0261C160.471 45.3281 159.89 45.6076 159.29 45.8781C158.695 46.1485 158.086 46.4055 157.469 46.6624C156.856 47.316 156.238 47.0906 155.62 47.4151C155.003 47.3025 154.385 48.3527 153.781 48.1769C153.172 48.1364 152.573 48.2581 151.987 48.9883C151.401 48.8666 150.833 49.8627 150.283 49.8853C150.702 50.1242 151.067 51.1835 151.383 51.4855C151.54 51.6838 151.689 51.9182 151.824 52.2472C151.96 52.5943 152.086 53.1082 152.199 53.4733C152.311 53.8339 152.415 54.0187 152.51 54.6813C152.604 55.6685 152.685 54.4875 152.758 55.7721C152.807 56.4347 152.852 56.9892 152.893 56.588C152.933 57.2867 152.969 57.2191 153.001 57.4399C153.033 57.0883 153.06 58.1792 153.087 58.1611C153.109 57.5121 153.132 59.4142 153.15 59.1889C153.168 59.3556 153.181 59.7658 153.19 60.0859C153.199 61.1181 153.208 60.0137 153.213 60.9964C153.213 62.3306 153.217 61.7311 153.213 61.961C153.213 61.2037 153.204 62.2991 153.195 62.8445C153.186 64.1787 153.168 62.9527 153.145 64.0615C153.123 64.4176 153.1 64.3004 153.069 65.3281C153.055 65.5625 153.037 65.0802 153.024 66.0584C153.006 67.1312 152.988 65.7158 152.969 66.7796C152.933 67.609 152.888 67.4287 152.843 67.7803C152.821 68.1003 152.798 68.7719 152.776 68.6547C152.753 69.8672 152.726 69.5066 152.699 69.2632C152.649 69.0198 152.595 69.6599 152.537 70.1512C152.478 71.1835 152.419 71.3773 152.356 71.4494C152.293 71.7694 152.23 72.0309 152.167 72.387C151.906 73.8249 151.613 75.1321 151.319 76.2499C148.935 76.2049 148.601 74.1089 147.848 72.432C148.38 72.5583 148.696 72.4681 148.98 72.3509C149.264 71.9182 149.521 71.8776 149.931 72.085C149.881 71.4855 149.841 70.8183 149.805 70.0926C149.769 69.8718 149.733 69.1866 149.706 67.9425C149.692 67.902 149.678 67.7757 149.665 66.7886C149.651 67.014 149.642 66.6849 149.633 65.6797C149.629 64.9044 149.624 64.7332 149.62 64.7106C149.62 64.039 149.611 63.9624 149.606 64.2373C149.597 64.4762 149.593 63.3268 149.584 63.3583C149.579 62.7904 149.57 62.849 149.566 62.0737C149.561 61.1181 149.557 62.4433 149.552 61.0279C149.548 60.6313 149.543 59.6937 149.539 59.3016C149.539 58.1702 149.539 58.0665 149.539 57.6202C149.539 57.769 149.539 55.5423 149.539 56.0065C149.539 55.7361 149.539 54.776 149.548 54.4785C149.548 54.1043 149.552 53.7392 149.557 53.3831C149.557 53.0315 149.561 52.689 149.566 52.3599C149.575 51.7469 149.579 50.7597 149.588 50.5704C149.038 50.7372 148.457 50.5479 147.866 50.5614C146.094 50.5975 144.251 50.7057 142.997 50.2279C142.831 50.9761 142.704 51.8145 142.596 52.698C142.488 53.8609 142.407 54.7174 142.321 55.4791C142.24 56.4393 142.159 57.7104 142.06 58.364C141.965 59.6036 141.852 60.0453 141.703 61.1496C141.555 62.0376 141.374 62.8805 141.14 63.6333C140.437 65.8961 139.255 67.4016 137.096 67.2213C136.01 66.0313 138.201 66.0178 138.485 65.1388C138.656 64.5709 138.827 63.9533 138.99 63.2952C139.152 62.6371 139.31 61.934 139.458 61.2037C139.603 60.6493 139.738 60.0543 139.855 58.9319C139.972 58.4091 140.071 56.9306 140.148 56.5384C140.225 56.3311 140.279 54.8932 140.301 54.0908C140.324 53.2885 140.319 52.6529 140.279 51.6522C140.238 50.8454 140.166 50.0566 140.049 49.2858C139.819 47.7442 139.427 46.2973 138.832 45.0216C139.436 43.6739 140.153 42.4433 140.896 41.2398C141.271 40.6403 141.649 40.0453 142.028 39.4458C142.217 39.0131 142.407 38.7652 142.592 38.6615C142.776 38.6074 142.961 38.2152 143.142 37.6383C143.322 36.579 143.502 36.9486 143.674 36.5925C143.845 36.4257 144.016 35.8803 144.178 35.7496C144.341 35.4656 144.499 34.6272 144.647 34.7399C144.796 34.1359 144.94 33.6626 145.076 33.7212C145.211 33.1307 145.337 32.707 145.45 32.4185C145.567 32.13 145.671 31.9047 145.765 31.49C146.234 31.1744 146.771 30.9536 147.267 31.9588C147.515 32.1886 147.753 32.4816 147.97 32.8062C148.186 33.1533 148.376 33.0992 148.529 33.8609C148.682 34.5912 148.799 34.3838 148.862 34.9743C148.926 35.2853 148.939 35.6955 148.885 35.9975C148.795 36.4843 148.524 36.9035 148.137 37.5346C147.749 38.1521 147.24 38.7156 146.662 38.977C146.09 39.4593 145.45 40.0859 144.801 40.3293C144.151 40.3744 143.493 40.6764 142.88 41.6049C142.267 42.0196 141.703 42.4253 141.239 42.8174C140.775 43.2096 140.414 43.5972 140.211 43.9759C141.131 45.6031 142.997 46.2792 142.988 48.8305C144.431 48.4834 145.892 47.7622 147.366 46.9328C148.105 46.5181 148.844 45.6888 149.588 45.6347C150.332 45.3867 151.081 44.5258 151.833 44.368C152.586 44.0435 153.344 43.746 154.101 43.3358C154.858 43.2321 155.625 42.3487 156.391 42.7363C157.158 42.6281 157.929 42.6281 158.699 42.7679C159.47 42.9076 160.25 43.1826 161.026 43.6288L161.039 43.6378Z" fill="black" stroke="#231815" stroke-width="0.77"/>
<path fill-rule="evenodd" clip-rule="evenodd" d="M124.608 40.5186C124.775 41.4156 119.825 44.8458 118.711 42.254C120.7 41.6995 122.877 41.3299 124.608 40.5186Z" fill="black" stroke="#231815" stroke-width="0.77"/>
<path fill-rule="evenodd" clip-rule="evenodd" d="M111.773 60.9831C114.1 60.3836 116.277 59.6398 118.391 58.8285C119.095 58.558 119.794 58.2786 120.488 57.9991C121.182 57.9676 121.867 57.8549 122.557 57.1427C123.247 57.2058 123.932 56.8362 124.622 56.2817C125.312 56.4215 126.001 55.7589 126.696 55.4343C126.705 54.7447 126.416 53.9513 125.947 53.7845C125.478 53.0994 124.825 53.4465 124.108 53.46C123.391 53.2481 122.607 53.5321 121.881 53.5772C121.151 53.8296 120.474 53.4645 119.965 53.2572C119.455 52.8966 119.117 52.545 119.068 51.6164C119.879 51.4677 120.686 52.0762 121.475 51.3279C122.264 51.355 123.026 50.9177 123.752 50.6518C124.478 50.165 125.158 50.6157 125.785 49.6286C126.407 48.9615 126.971 48.7902 127.457 48.3034C128.909 46.8384 129.639 44.9903 129.13 42.9484C127.971 44.3052 127.025 45.8738 125.866 47.2306C125.478 47.6813 125.068 48.1095 124.617 48.4972C123.747 48.3529 123.076 48.3755 122.584 48.096C122.097 47.7309 121.791 47.181 121.669 46.5725C121.547 45.9594 121.606 45.2878 121.84 44.6838C126.407 47.3568 128.58 38.8105 132.944 43.2955C133.021 43.5659 132.953 43.9806 133.291 43.9896C132.353 46.0586 130.501 47.2125 128.783 48.4972C129.951 49.2905 132.484 46.0225 133.985 48.1501C133.341 49.3536 132.146 50.0117 130.888 50.6022C130.257 50.8997 129.612 51.1747 129.008 51.4992C128.404 51.6975 127.845 52.0221 127.39 52.6577C127.913 52.9777 128.503 53.6673 129.135 53.5141C129.766 53.5682 130.433 53.4284 131.105 53.2391C131.776 53.0498 132.453 52.8064 133.102 52.6441C133.751 52.4819 134.373 52.3962 134.937 52.5269C135.5 52.6937 136.001 53.0724 136.411 53.6989C136.028 54.3119 135.554 54.7131 135.036 54.65C134.513 54.7762 133.945 54.8619 133.372 54.8979C132.795 54.934 132.214 54.952 131.668 55.0647C131.123 55.0106 130.609 55.5695 130.171 55.7814V58.211C130.577 58.8195 131.19 59.0494 131.871 59.2026C132.552 59.117 133.296 59.6759 133.972 59.7931C134.648 59.8066 135.252 60.0365 135.649 60.8073C136.046 61.3392 136.23 62.2768 136.073 63.0701C135.46 63.1512 134.928 62.7726 134.45 62.439C133.967 62.5878 133.539 61.9657 133.12 61.515C132.705 61.2941 132.299 60.8749 131.88 60.5008C131.461 60.3475 131.019 59.5001 130.523 59.6038C130.64 60.4737 130.64 62.0649 130.537 62.4661C130.437 64.0572 130.235 64.0978 129.951 65.2112C129.671 66.0586 129.306 66.8204 128.882 67.4154C128.458 68.0149 127.971 68.4521 127.444 68.655C126.917 69.304 126.348 68.8848 125.753 68.5062C125.163 67.8932 124.545 67.3568 123.928 66.5409C124.338 65.9685 124.865 66.311 125.415 66.3471C125.965 66.3651 126.538 66.8384 127.052 66.1938V59.9509C126.348 60.1041 125.767 60.4557 125.276 60.9245C124.78 61.3933 124.369 61.9838 124.004 62.6148C123.639 63.1783 123.314 64.1744 122.999 64.5441C122.679 64.7604 122.363 65.671 122.016 66.2434C121.664 66.9015 121.277 67.3072 120.812 67.2351C120.06 67.0998 119.785 66.1533 119.748 65.8287C119.712 65.0895 119.915 64.2691 120.114 63.8183C120.312 63.0791 120.51 62.7501 120.465 62.3804C121.205 62.6238 121.849 62.3714 122.431 61.8305C123.012 61.5736 123.531 61.2536 124.031 60.9155C124.527 60.5774 125.005 60.2123 125.496 59.8652C125.988 59.5181 126.497 59.1891 127.056 58.9096C127.11 58.3236 127.097 58.1343 127.034 57.8909C126.971 57.6069 126.853 57.3771 126.709 57.1742C125.979 57.4357 125.28 57.6701 124.599 57.909C123.919 58.4679 123.256 58.6257 122.602 59.0358C119.329 61.1003 116.232 63.7012 111.791 61.3347V60.9876L111.773 60.9831Z" fill="black" stroke="#231815" stroke-width="0.77"/>
<path d="M117.395 92.0755V91.5616C117.891 91.5436 118.18 91.5075 118.265 91.4624C118.324 91.4309 118.365 91.3768 118.392 91.3047C118.437 91.2055 118.464 90.8629 118.477 90.2724C118.5 89.2943 118.509 88.5596 118.509 88.0637L118.495 85.4854C118.495 84.8003 118.473 84.4081 118.428 84.3044C118.405 84.2458 118.365 84.2008 118.31 84.1692C118.229 84.1196 117.923 84.0746 117.391 84.0295V83.5156C118.026 83.5382 118.495 83.5472 118.802 83.5472C119.14 83.5472 119.523 83.5382 119.956 83.5156C120.894 84.7146 121.958 86.0128 123.139 87.4147C123.928 88.3522 124.608 89.1275 125.176 89.736V87.3155C125.176 86.4005 125.167 85.6071 125.145 84.9445C125.127 84.5479 125.095 84.309 125.046 84.2188C125.023 84.1692 124.978 84.1377 124.91 84.1151C124.847 84.0971 124.559 84.0655 124.058 84.0295V83.5156C124.5 83.5382 124.942 83.5472 125.379 83.5472C125.979 83.5472 126.524 83.5382 127.011 83.5156V84.0295C126.56 84.0565 126.285 84.0881 126.191 84.1287C126.137 84.1467 126.096 84.1782 126.065 84.2143C126.033 84.2504 126.006 84.2999 125.992 84.354C125.965 84.4532 125.947 84.7642 125.943 85.2916L125.92 87.7302L125.907 90.1868C125.907 90.8449 125.92 91.503 125.947 92.1611L125.866 92.2467C125.37 92.1566 125.023 92.098 124.82 92.071C123.774 90.9125 122.512 89.4611 121.033 87.7076C120.285 86.8242 119.681 86.0759 119.221 85.4719V87.8429C119.221 88.4875 119.23 89.2673 119.253 90.1778C119.266 90.8494 119.293 91.2326 119.338 91.3362C119.356 91.3813 119.383 91.4174 119.428 91.4399C119.505 91.485 119.798 91.5255 120.308 91.5616V92.0755C119.649 92.0484 119.181 92.0349 118.896 92.0349C118.662 92.0349 118.157 92.0484 117.386 92.0755H117.395Z" fill="#231815"/>
<path d="M135.077 90.8945L135.252 91.0703L134.977 91.6518C134.684 91.8321 134.369 91.9718 134.035 92.062C133.702 92.1521 133.341 92.1972 132.967 92.1972C132.079 92.1972 131.38 91.9403 130.87 91.4264C130.361 90.9125 130.104 90.1868 130.104 89.2583C130.104 88.6678 130.181 88.181 130.329 87.7933C130.451 87.4823 130.649 87.2209 130.929 87.0135C131.209 86.8062 131.529 86.6078 131.894 86.423C132.259 86.2337 132.656 86.1436 133.093 86.1436C133.76 86.1436 134.31 86.3284 134.747 86.7025C135.18 87.0766 135.401 87.6761 135.401 88.501C135.401 88.6047 135.392 88.7579 135.379 88.9653L134.378 89.1501C134.071 89.1681 133.625 89.1816 133.039 89.1816H131.718C131.781 89.8848 131.988 90.4122 132.345 90.7638C132.701 91.1199 133.156 91.2957 133.711 91.2957C133.94 91.2957 134.17 91.2596 134.4 91.1965C134.63 91.1289 134.856 91.0297 135.077 90.899V90.8945ZM131.677 88.5326C132.043 88.5641 132.408 88.5821 132.773 88.5821C133.093 88.5821 133.431 88.5641 133.787 88.5326V88.2441C133.792 87.7437 133.702 87.3786 133.517 87.1442C133.332 86.9143 133.084 86.7971 132.773 86.7971C132.552 86.7971 132.363 86.8512 132.205 86.9594C132.047 87.0676 131.93 87.2209 131.853 87.4147C131.777 87.6085 131.718 87.9826 131.677 88.528V88.5326Z" fill="#231815"/>
<path d="M138.169 86.7745V86.2742C138.674 86.3012 139.31 86.3148 140.085 86.3148C140.644 86.3148 141.149 86.3012 141.591 86.2742V86.7745L141.194 86.7926C140.982 86.7926 140.851 86.8151 140.793 86.8512C140.739 86.8872 140.712 86.9458 140.712 87.0225C140.712 87.0675 140.784 87.374 140.923 87.9375L141.523 90.1372L142.745 87.4462C143.024 86.8286 143.218 86.3824 143.317 86.1074H143.962C144.237 86.8692 144.814 88.2124 145.689 90.1372L146.23 88.5099C146.5 87.6851 146.64 87.1983 146.64 87.054C146.64 86.9594 146.599 86.8917 146.523 86.8512C146.464 86.8241 146.212 86.7971 145.761 86.77V86.2697C146.338 86.2877 146.789 86.3012 147.109 86.3012C147.46 86.3012 147.853 86.2922 148.299 86.2697V86.77C147.983 86.7836 147.785 86.8106 147.713 86.8512C147.659 86.8827 147.609 86.9413 147.569 87.0225C147.451 87.2298 147.176 87.951 146.744 89.1861C146.432 90.0786 146.126 91.0432 145.815 92.0709H144.814C144.359 90.9125 143.804 89.6323 143.151 88.2305C142.443 89.6774 141.87 90.9575 141.437 92.0709H140.432C140.256 91.3317 139.99 90.3355 139.625 89.0779C139.264 87.8248 139.053 87.1397 138.989 87.0179C138.953 86.9503 138.908 86.9007 138.863 86.8737C138.787 86.8286 138.552 86.7926 138.169 86.77V86.7745Z" fill="#231815"/>
<path d="M158.235 92.0762V91.5624C158.465 91.5624 158.709 91.5443 158.961 91.5038C159.078 91.4857 159.164 91.4497 159.209 91.4046C159.259 91.3595 159.295 91.2739 159.317 91.1431C159.344 90.9674 159.371 90.3273 159.389 89.2184C159.403 88.4296 159.407 87.6273 159.407 86.8069C159.407 85.1932 159.403 84.3728 159.394 84.3413C159.385 84.3097 159.241 84.2962 158.961 84.2962C158.393 84.2962 157.906 84.3142 157.501 84.3458C157.266 84.3683 157.131 84.3863 157.099 84.4089C157.068 84.4269 157.045 84.463 157.027 84.5171C157.009 84.5666 156.978 84.9227 156.923 85.5853H156.401C156.41 84.8055 156.387 84.1384 156.337 83.575L156.405 83.5254C157.685 83.5885 158.93 83.6155 160.142 83.6155C161.355 83.6155 162.703 83.584 164.2 83.5254L164.267 83.6246C164.191 84.1835 164.137 84.8371 164.101 85.5853H163.596C163.56 84.9002 163.523 84.5306 163.487 84.472C163.46 84.4269 163.393 84.3953 163.294 84.3773C162.969 84.3232 162.32 84.2962 161.355 84.2962C161.274 84.2962 161.224 84.3097 161.211 84.3322C161.193 84.3593 161.188 84.4675 161.188 84.6568L161.152 88.7587C161.152 89.9486 161.161 90.6744 161.184 90.9448C161.206 91.2153 161.251 91.3775 161.332 91.4361C161.387 91.4722 161.707 91.5173 162.297 91.5624V92.0762C161.698 92.0492 161.062 92.0356 160.39 92.0356C159.507 92.0356 158.79 92.0492 158.24 92.0762H158.235Z" fill="#231815"/>
<path d="M172.693 91.5759V92.0762L172.224 92.0582C171.976 92.0447 171.728 92.0402 171.48 92.0402C171.097 92.0402 170.736 92.0537 170.394 92.0762L170.331 92.0086L170.394 91.1747L169.122 92.1258C168.897 92.1799 168.694 92.2025 168.518 92.2025C168.09 92.2025 167.756 92.0762 167.522 91.8193C167.288 91.5624 167.17 91.1882 167.17 90.6969C167.17 90.0929 167.333 89.6647 167.653 89.4168C168.068 89.0922 168.983 88.7993 170.398 88.5468C170.389 88.0645 170.308 87.7174 170.15 87.5011C169.929 87.2036 169.582 87.0548 169.118 87.0548C169.01 87.0548 168.897 87.0684 168.78 87.0954C168.663 87.1224 168.55 87.163 168.428 87.2216L168.153 87.8752L167.734 87.7715L167.747 87.4966V87.2306L167.734 86.9872C168.356 86.5996 168.802 86.3607 169.077 86.2615C169.276 86.1894 169.555 86.1533 169.907 86.1533C170.385 86.1533 170.777 86.2254 171.079 86.3697C171.381 86.5139 171.597 86.7123 171.737 86.9602C171.877 87.2081 171.945 87.5732 171.945 88.0465C171.945 88.2448 171.936 88.6009 171.922 89.1148C171.904 89.6467 171.9 90.0704 171.9 90.3904C171.9 90.8998 171.913 91.2108 171.94 91.319C171.958 91.3821 171.994 91.4362 172.057 91.4722C172.12 91.5083 172.337 91.5443 172.706 91.5804L172.693 91.5759ZM170.389 89.0697C169.677 89.223 169.213 89.3942 168.996 89.5745C168.78 89.7549 168.676 89.9983 168.676 90.3048C168.676 90.5527 168.744 90.751 168.884 90.8908C169.023 91.035 169.195 91.1026 169.406 91.1026C169.727 91.1026 170.056 90.9223 170.389 90.5572V89.0652V89.0697Z" fill="#231815"/>
<path d="M175.601 92.0759V91.5755C176.06 91.5575 176.326 91.5304 176.399 91.4899C176.471 91.4493 176.516 91.3366 176.534 91.1473C176.565 90.8904 176.583 90.3269 176.583 89.448C176.583 89.0693 176.579 88.7177 176.565 88.3977L176.547 87.6855C176.547 87.4511 176.52 87.3024 176.471 87.2483C176.421 87.1942 176.281 87.1626 176.06 87.1536L175.605 87.1356V86.6668C176.583 86.5947 177.39 86.4189 178.026 86.1439L178.179 86.2656C178.116 87.0454 178.089 88.1768 178.089 89.6643C178.089 90.5253 178.103 91.0436 178.13 91.2239C178.148 91.3501 178.188 91.4313 178.242 91.4673C178.297 91.5034 178.562 91.5395 179.04 91.5755V92.0759C178.306 92.0533 177.742 92.0398 177.341 92.0398C177.124 92.0398 176.547 92.0533 175.61 92.0759H175.601ZM177.296 83.2275C177.557 83.2275 177.778 83.3222 177.963 83.507C178.148 83.6918 178.242 83.9172 178.242 84.1786C178.242 84.4401 178.148 84.6609 177.963 84.8457C177.778 85.0306 177.553 85.1252 177.287 85.1252C177.021 85.1252 176.804 85.0351 176.619 84.8457C176.435 84.6609 176.34 84.4401 176.34 84.1786C176.34 83.9172 176.43 83.6918 176.619 83.507C176.804 83.3222 177.03 83.2275 177.291 83.2275H177.296Z" fill="#231815"/>
<path d="M181.948 87.131V86.6622C182.661 86.5991 183.251 86.5045 183.72 86.3737L184.369 86.1709C184.428 86.1709 184.455 86.2205 184.455 86.3151C184.455 86.3918 184.446 86.5045 184.432 86.6487L184.419 87.2076L185.406 86.4278C185.613 86.261 185.961 86.1799 186.443 86.1799C187.128 86.1799 187.683 86.3918 188.097 86.8155C188.512 87.2392 188.72 87.8116 188.72 88.5329C188.72 88.8935 188.67 89.2496 188.566 89.6011C188.463 89.9527 188.341 90.2277 188.197 90.4395C188.052 90.6469 187.804 90.8903 187.448 91.1653C186.835 91.6566 186.47 91.9361 186.348 92.0082C186.118 92.1434 185.839 92.211 185.514 92.211C185.329 92.211 185.149 92.1885 184.964 92.1434C184.779 92.0983 184.599 92.0307 184.423 91.9451L184.446 93.7977C184.464 94.2439 184.509 94.5054 184.586 94.5775C184.662 94.6541 184.964 94.6902 185.487 94.6902V95.1905C184.856 95.168 184.306 95.1544 183.842 95.1544C182.949 95.1544 182.318 95.168 181.953 95.1905V94.6902C182.386 94.6766 182.633 94.6541 182.697 94.618C182.737 94.5955 182.769 94.5549 182.787 94.5008C182.823 94.4017 182.85 93.987 182.868 93.2523C182.89 92.22 182.904 91.4492 182.904 90.9489L182.89 88.5283C182.89 87.8162 182.863 87.4105 182.823 87.3068C182.8 87.2527 182.773 87.2166 182.733 87.1896C182.661 87.1535 182.399 87.1355 181.953 87.1355L181.948 87.131ZM184.414 90.7416C184.599 90.9759 184.797 91.1472 185.014 91.2689C185.23 91.3861 185.465 91.4447 185.717 91.4447C186.136 91.4447 186.479 91.2644 186.745 90.9083C187.011 90.5477 187.146 89.9708 187.146 89.1729C187.146 88.5283 187.011 88.0415 186.736 87.708C186.461 87.3744 186.118 87.2076 185.695 87.2076C185.483 87.2076 185.271 87.2572 185.059 87.3609C184.847 87.4646 184.635 87.6178 184.423 87.8207V90.7461L184.414 90.7416Z" fill="#231815"/>
<path d="M196.947 90.8945L197.123 91.0703L196.848 91.6518C196.555 91.8321 196.239 91.9718 195.906 92.062C195.572 92.1521 195.212 92.1972 194.837 92.1972C193.949 92.1972 193.25 91.9403 192.741 91.4264C192.232 90.9125 191.975 90.1868 191.975 89.2583C191.975 88.6678 192.051 88.181 192.2 87.7933C192.322 87.4823 192.52 87.2209 192.8 87.0135C193.079 86.8062 193.399 86.6078 193.764 86.423C194.13 86.2337 194.526 86.1436 194.964 86.1436C195.631 86.1436 196.181 86.3284 196.618 86.7025C197.051 87.0766 197.272 87.6761 197.272 88.501C197.272 88.6047 197.263 88.7579 197.249 88.9653L196.248 89.1501C195.942 89.1681 195.496 89.1816 194.909 89.1816H193.589C193.652 89.8848 193.859 90.4122 194.215 90.7638C194.571 91.1199 195.027 91.2957 195.581 91.2957C195.811 91.2957 196.041 91.2596 196.271 91.1965C196.501 91.1289 196.726 91.0297 196.947 90.899V90.8945ZM193.548 88.5326C193.913 88.5641 194.278 88.5821 194.643 88.5821C194.964 88.5821 195.302 88.5641 195.658 88.5326V88.2441C195.662 87.7437 195.572 87.3786 195.387 87.1442C195.202 86.9143 194.955 86.7971 194.643 86.7971C194.423 86.7971 194.233 86.8512 194.075 86.9594C193.918 87.0676 193.8 87.2209 193.724 87.4147C193.647 87.6085 193.589 87.9826 193.548 88.528V88.5326Z" fill="#231815"/>
<path d="M200.378 92.0759V91.5755C200.838 91.5575 201.104 91.5304 201.176 91.4899C201.248 91.4493 201.293 91.3366 201.311 91.1473C201.343 90.8904 201.361 90.3269 201.361 89.448C201.361 89.0693 201.356 88.7177 201.343 88.3977L201.325 87.6855C201.325 87.4511 201.298 87.3024 201.248 87.2483C201.198 87.1942 201.059 87.1626 200.838 87.1536L200.382 87.1356V86.6668C201.361 86.5947 202.168 86.4189 202.803 86.1439L202.957 86.2656C202.898 87.0454 202.866 88.1768 202.866 89.6643C202.866 90.5253 202.88 91.0436 202.907 91.2239C202.925 91.3501 202.966 91.4313 203.02 91.4673C203.074 91.5034 203.34 91.5395 203.818 91.5755V92.0759C203.083 92.0533 202.519 92.0398 202.118 92.0398C201.902 92.0398 201.325 92.0533 200.387 92.0759H200.378ZM202.073 83.2275C202.334 83.2275 202.555 83.3222 202.74 83.507C202.925 83.6918 203.02 83.9172 203.02 84.1786C203.02 84.4401 202.925 84.6609 202.74 84.8457C202.555 85.0306 202.33 85.1252 202.069 85.1252C201.807 85.1252 201.586 85.0351 201.401 84.8457C201.216 84.6609 201.122 84.4401 201.122 84.1786C201.122 83.9172 201.216 83.6918 201.401 83.507C201.586 83.3222 201.812 83.2275 202.078 83.2275H202.073Z" fill="#231815"/>
<path d="M220.255 90.7506L220.408 90.8904C220.3 91.0932 220.21 91.3006 220.129 91.5124C219.655 91.7603 219.204 91.9361 218.767 92.0398C218.33 92.1435 217.825 92.193 217.257 92.193C216.193 92.193 215.291 92.0037 214.556 91.6341C213.822 91.26 213.254 90.7326 212.857 90.0565C212.46 89.3758 212.262 88.6005 212.262 87.7216C212.262 86.4594 212.708 85.4227 213.605 84.6159C214.502 83.809 215.738 83.4033 217.315 83.4033C217.838 83.4033 218.361 83.4484 218.875 83.5431C219.389 83.6377 219.899 83.7774 220.408 83.9713L220.449 84.0614C220.372 84.2823 220.322 84.4941 220.291 84.697C220.237 85.0486 220.196 85.4903 220.165 86.0132H219.651C219.628 85.3731 219.601 85.017 219.579 84.9539C219.556 84.8908 219.443 84.7826 219.245 84.6294C219.047 84.4761 218.776 84.3544 218.438 84.2552C218.1 84.1606 217.726 84.111 217.315 84.111C216.342 84.111 215.566 84.413 214.994 85.0125C214.417 85.612 214.133 86.4504 214.133 87.5232C214.133 88.6862 214.48 89.6282 215.17 90.3449C215.805 91.0121 216.684 91.3456 217.798 91.3456C218.231 91.3456 218.632 91.3005 219.011 91.2104C219.385 91.1202 219.804 90.9625 220.259 90.7416L220.255 90.7506Z" fill="#231815"/>
<path d="M223.424 92.0759V91.5755C223.884 91.5575 224.15 91.5304 224.217 91.4899C224.289 91.4493 224.334 91.3366 224.353 91.1473C224.384 90.8904 224.402 90.3269 224.402 89.448C224.402 89.0693 224.398 88.7177 224.384 88.3977L224.366 87.6855C224.366 87.4511 224.339 87.3024 224.289 87.2483C224.24 87.1942 224.1 87.1626 223.879 87.1536L223.424 87.1356V86.6668C224.402 86.5947 225.209 86.4189 225.845 86.1439L225.998 86.2656C225.939 87.0454 225.908 88.1768 225.908 89.6643C225.908 90.5253 225.921 91.0436 225.948 91.2239C225.966 91.3501 226.007 91.4313 226.061 91.4673C226.115 91.5034 226.381 91.5395 226.859 91.5755V92.0759C226.124 92.0533 225.561 92.0398 225.159 92.0398C224.943 92.0398 224.366 92.0533 223.428 92.0759H223.424ZM225.119 83.2275C225.38 83.2275 225.601 83.3222 225.786 83.507C225.971 83.6918 226.066 83.9172 226.066 84.1786C226.066 84.4401 225.971 84.6609 225.786 84.8457C225.601 85.0306 225.376 85.1252 225.114 85.1252C224.853 85.1252 224.632 85.0351 224.447 84.8457C224.262 84.6609 224.168 84.4401 224.168 84.1786C224.168 83.9172 224.262 83.6918 224.447 83.507C224.632 83.3222 224.857 83.2275 225.123 83.2275H225.119Z" fill="#231815"/>
<path d="M229.586 87.1715L230.398 86.6396C230.389 85.9184 230.366 85.2919 230.335 84.751C230.889 84.5797 231.412 84.3723 231.908 84.1289L232.093 84.2686C232.003 84.8591 231.944 85.6479 231.908 86.6396C232.098 86.6712 232.282 86.6892 232.463 86.6892C232.877 86.6892 233.252 86.6622 233.581 86.6036L233.635 86.6396L233.581 86.8605C233.518 87.0904 233.477 87.2977 233.445 87.487C232.972 87.4555 232.62 87.4374 232.395 87.4374C232.228 87.4374 232.066 87.4465 231.908 87.46C231.899 87.8702 231.895 88.2353 231.895 88.5463C231.895 89.9166 231.935 90.6919 232.016 90.8812C232.098 91.066 232.291 91.1607 232.598 91.1607C232.688 91.1607 232.783 91.1517 232.886 91.1291C232.99 91.1111 233.103 91.0795 233.22 91.0435L233.324 91.2734C233.08 91.5438 232.841 91.8278 232.611 92.1208C232.463 92.1433 232.323 92.1614 232.197 92.1749C232.07 92.1884 231.953 92.1929 231.85 92.1929C231.507 92.1929 231.223 92.1343 230.993 92.0171C230.763 91.8999 230.596 91.7467 230.493 91.5573C230.389 91.368 230.335 91.0931 230.335 90.7189C230.335 90.5251 230.344 90.0113 230.366 89.1819C230.384 88.4516 230.398 87.8792 230.398 87.4555L230.087 87.442C229.956 87.442 229.789 87.4555 229.586 87.478V87.1625V87.1715Z" fill="#231815"/>
<path d="M235.88 86.7748V86.2744C236.813 86.297 237.413 86.3105 237.674 86.3105C238.035 86.3105 238.544 86.297 239.207 86.2744V86.7748C238.828 86.7928 238.603 86.8198 238.531 86.8559C238.459 86.8965 238.423 86.9596 238.423 87.0497C238.423 87.1714 238.621 87.7349 239.022 88.74L239.685 90.4214L240.253 89.0916C240.763 87.9016 241.015 87.2165 241.015 87.0317C241.015 86.946 240.979 86.8874 240.907 86.8514C240.835 86.8153 240.618 86.7928 240.249 86.7748V86.2744L240.632 86.2879C241.042 86.3015 241.317 86.3105 241.448 86.3105C241.597 86.3105 241.975 86.297 242.593 86.2744V86.7748C242.394 86.7748 242.232 86.8063 242.106 86.8649C242.052 86.8919 242.007 86.937 241.966 87.0001C241.903 87.0903 241.646 87.6492 241.2 88.6814L240.064 91.2778L239.009 93.6803C238.77 94.1716 238.553 94.5142 238.364 94.7125C238.175 94.9109 237.967 95.0551 237.747 95.1498C237.521 95.2444 237.273 95.294 236.998 95.294C236.723 95.294 236.43 95.2264 236.119 95.0867C236.218 94.6855 236.286 94.2933 236.331 93.9147L236.498 93.8606C236.737 94.1266 237.016 94.2573 237.332 94.2573C237.602 94.2573 237.823 94.1716 237.994 93.9958C238.166 93.8201 238.441 93.3152 238.81 92.4768L237.449 89.0285L236.701 87.1759C236.637 87.0272 236.565 86.928 236.489 86.8784C236.412 86.8333 236.209 86.7973 235.871 86.7702L235.88 86.7748Z" fill="#231815"/>
<path d="M256.51 89.0742V88.5784C257.249 88.5964 257.912 88.6099 258.493 88.6099C259.03 88.6099 259.611 88.6009 260.234 88.5784V88.9705C260.053 89.0291 259.882 89.0967 259.72 89.1734C259.67 89.5836 259.647 89.9351 259.647 90.2236C259.647 90.431 259.67 90.8412 259.72 91.4542C258.913 91.7427 258.241 91.941 257.7 92.0447C257.159 92.1483 256.595 92.1979 256.014 92.1979C254.445 92.1979 253.214 91.7922 252.326 90.9764C251.438 90.1605 250.992 89.1058 250.992 87.8076C250.992 86.5094 251.447 85.405 252.353 84.6072C253.259 83.8049 254.562 83.4082 256.257 83.4082C256.857 83.4082 257.429 83.4533 257.975 83.5479C258.525 83.6426 259.048 83.7823 259.544 83.9762L259.598 84.0663C259.481 84.5847 259.39 85.2248 259.336 85.991H258.822C258.822 85.6034 258.791 85.2653 258.741 84.9678C258.48 84.6658 258.146 84.4404 257.74 84.2917C257.33 84.1429 256.848 84.0663 256.293 84.0663C255.247 84.0663 254.418 84.3818 253.796 85.0174C253.174 85.653 252.867 86.5184 252.867 87.6228C252.867 88.7992 253.192 89.7458 253.845 90.4625C254.499 91.1792 255.302 91.5398 256.257 91.5398C256.767 91.5398 257.308 91.4136 257.88 91.1657C257.912 90.8547 257.93 90.5572 257.93 90.2777C257.93 89.6512 257.894 89.3041 257.822 89.241C257.75 89.1779 257.312 89.1193 256.514 89.0742H256.51Z" fill="#231815"/>
<path d="M263.569 89.1732C263.569 88.2086 263.795 87.4829 264.246 87.0006C264.787 86.4281 265.566 86.1396 266.59 86.1396C267.613 86.1396 268.348 86.3695 268.817 86.8293C269.286 87.2891 269.52 88.0148 269.52 89.0065C269.52 89.9981 269.25 90.814 268.713 91.3684C268.177 91.9228 267.424 92.1978 266.468 92.1978C265.512 92.1978 264.809 91.9409 264.313 91.4225C263.822 90.9041 263.574 90.1559 263.574 89.1687L263.569 89.1732ZM265.26 88.7585C265.26 89.8449 265.4 90.6157 265.675 91.0754C265.891 91.4315 266.211 91.6073 266.644 91.6073C267.023 91.6073 267.316 91.4586 267.519 91.1566C267.721 90.8545 267.825 90.3046 267.825 89.5113C267.825 88.4205 267.699 87.6632 267.446 87.244C267.239 86.9104 266.914 86.7437 266.477 86.7437C266.098 86.7437 265.801 86.8969 265.585 87.2034C265.368 87.5099 265.26 88.0283 265.26 88.763V88.7585Z" fill="#231815"/>
<path d="M272.288 86.7748V86.2744L273.857 86.3105C274.384 86.3105 274.952 86.297 275.552 86.2744V86.7748C275.173 86.7883 274.948 86.8108 274.88 86.8424C274.808 86.8739 274.772 86.928 274.772 87.0091C274.772 87.0587 274.79 87.1534 274.835 87.2976L275.2 88.3163L276.012 90.4214L276.81 88.5507C277.179 87.6853 277.364 87.1759 277.364 87.0182C277.364 86.9325 277.333 86.8739 277.265 86.8469C277.198 86.8153 276.963 86.7928 276.562 86.7748V86.2744C277.094 86.297 277.527 86.3105 277.86 86.3105C278.221 86.3105 278.609 86.297 279.023 86.2744V86.7748C278.699 86.7883 278.496 86.8288 278.415 86.901C278.334 86.9731 278.099 87.4238 277.711 88.2622C277.324 89.0961 276.774 90.3673 276.061 92.0756H274.989C274.723 91.3409 274.317 90.2952 273.78 88.9474C273.429 88.0639 273.19 87.4869 273.068 87.2165C272.987 87.0407 272.91 86.928 272.838 86.8829C272.766 86.8334 272.586 86.8018 272.297 86.7793L272.288 86.7748Z" fill="#231815"/>
<path d="M286.909 90.8945L287.084 91.0703L286.809 91.6518C286.516 91.8321 286.201 91.9718 285.867 92.062C285.534 92.1521 285.173 92.1972 284.799 92.1972C283.911 92.1972 283.212 91.9403 282.702 91.4264C282.193 90.9125 281.936 90.1868 281.936 89.2583C281.936 88.6678 282.013 88.181 282.161 87.7933C282.283 87.4823 282.482 87.2209 282.761 87.0135C283.041 86.8062 283.361 86.6078 283.726 86.423C284.091 86.2337 284.488 86.1436 284.925 86.1436C285.592 86.1436 286.142 86.3284 286.579 86.7025C287.012 87.0766 287.233 87.6761 287.233 88.501C287.233 88.6047 287.224 88.7579 287.211 88.9653L286.214 89.1501C285.908 89.1681 285.461 89.1816 284.875 89.1816H283.554C283.618 89.8848 283.825 90.4122 284.181 90.7638C284.537 91.1199 284.993 91.2957 285.547 91.2957C285.777 91.2957 286.007 91.2596 286.237 91.1965C286.462 91.1289 286.692 91.0297 286.913 90.899L286.909 90.8945ZM283.509 88.5326C283.875 88.5641 284.24 88.5821 284.609 88.5821C284.929 88.5821 285.268 88.5641 285.624 88.5326V88.2441C285.628 87.7437 285.538 87.3786 285.358 87.1442C285.173 86.9143 284.925 86.7971 284.614 86.7971C284.393 86.7971 284.204 86.8512 284.046 86.9594C283.888 87.0676 283.771 87.2209 283.694 87.4147C283.618 87.6085 283.559 87.9826 283.518 88.528L283.509 88.5326Z" fill="#231815"/>
<path d="M290.082 92.0755V91.5752C290.492 91.5571 290.727 91.5301 290.79 91.503C290.839 91.4805 290.875 91.4399 290.907 91.3858C290.952 91.2867 290.979 91.0703 290.988 90.7367C291.006 90.1418 291.011 89.6008 291.011 89.114C291.011 88.172 290.997 87.6175 290.975 87.4417C290.961 87.3381 290.925 87.2659 290.866 87.2254C290.803 87.1848 290.546 87.1532 290.087 87.1352V86.6664C290.907 86.5898 291.493 86.4906 291.845 86.3779L292.471 86.1436C292.53 86.1436 292.557 86.1841 292.557 86.2607V86.3464C292.539 86.6033 292.534 86.9684 292.534 87.4507C292.742 87.2524 292.972 87 293.224 86.6935C293.409 86.4681 293.576 86.3193 293.711 86.2472C293.846 86.1751 294.036 86.1436 294.266 86.1436C294.396 86.1436 294.527 86.1661 294.662 86.2112C294.626 86.6168 294.604 87.1713 294.59 87.8699L294.315 87.9691C294.221 87.8113 294.121 87.6987 294.009 87.6356C293.896 87.5724 293.752 87.5409 293.571 87.5409C293.328 87.5409 293.116 87.604 292.945 87.7302C292.769 87.8564 292.656 88.0007 292.611 88.1629C292.58 88.2846 292.562 88.6993 292.562 89.4115C292.562 90.4438 292.575 91.0433 292.602 91.2145C292.62 91.3272 292.656 91.4084 292.719 91.4489C292.814 91.512 293.121 91.5526 293.639 91.5797V92.08L292.954 92.062C292.521 92.0484 292.142 92.0439 291.827 92.0439C291.511 92.0439 291.178 92.0484 290.776 92.062L290.087 92.08L290.082 92.0755Z" fill="#231815"/>
<path d="M297.408 92.0759V91.5755C297.85 91.553 298.102 91.5169 298.157 91.4673C298.215 91.4223 298.247 91.3141 298.26 91.1518C298.283 90.7416 298.296 90.0159 298.296 88.9792C298.296 88.4653 298.287 88.0236 298.274 87.654C298.265 87.4241 298.251 87.2934 298.224 87.2528C298.206 87.2212 298.17 87.1942 298.13 87.1807C298.084 87.1626 297.845 87.1491 297.408 87.1401V86.6713C297.629 86.6713 297.972 86.6262 298.441 86.5316C298.905 86.4369 299.302 86.3287 299.617 86.2025L299.784 86.1484C299.843 86.1484 299.87 86.1935 299.87 86.2882V86.3423C299.852 86.455 299.847 86.7479 299.847 87.2212L300.789 86.4279C300.907 86.3242 301.028 86.2566 301.155 86.2206C301.335 86.171 301.551 86.1484 301.808 86.1484C302.237 86.1484 302.593 86.2251 302.863 86.3738C303.138 86.5226 303.337 86.7299 303.467 86.9913C303.593 87.2528 303.657 87.663 303.657 88.2174C303.657 88.4608 303.652 88.7448 303.639 89.0648C303.616 89.7229 303.607 90.2954 303.607 90.7777C303.607 91.0527 303.63 91.242 303.675 91.3456C303.706 91.4178 303.751 91.4673 303.81 91.4944C303.868 91.5169 304.089 91.5485 304.477 91.5845V92.0849L303.729 92.0623L303.246 92.0488L301.989 92.0849L301.921 92.0037C302.025 91.2284 302.079 90.4351 302.079 89.6238C302.079 88.5915 302.016 87.9515 301.889 87.7126C301.727 87.4015 301.43 87.2483 301.001 87.2483C300.726 87.2483 300.483 87.3204 300.28 87.4601C300.077 87.5999 299.946 87.7486 299.883 87.9109C299.856 87.9785 299.843 88.1813 299.843 88.5284C299.843 90.0024 299.847 90.8498 299.861 91.0617C299.874 91.278 299.906 91.4087 299.964 91.4583C300.036 91.5214 300.311 91.562 300.78 91.5891V92.0894C300.073 92.0669 299.473 92.0533 298.986 92.0533C298.698 92.0533 298.17 92.0669 297.408 92.0894V92.0759Z" fill="#231815"/>
<path d="M307.317 92.0755V91.5752C307.737 91.5571 307.976 91.5301 308.034 91.494C308.093 91.4534 308.129 91.3858 308.147 91.2822C308.178 91.0838 308.196 90.6105 308.196 89.8668C308.196 88.2982 308.178 87.4507 308.138 87.32C308.106 87.2118 307.967 87.1532 307.714 87.1487L307.322 87.1352V86.6664C307.822 86.6123 308.246 86.5447 308.598 86.4681C308.949 86.387 309.269 86.2923 309.553 86.1751C309.612 86.1526 309.653 86.1436 309.68 86.1436C309.738 86.1436 309.765 86.1931 309.765 86.2968C309.765 86.3734 309.761 86.4771 309.752 86.6078C309.747 86.6664 309.743 86.7656 309.743 86.9143V87.1352L310.739 86.387C310.951 86.2292 311.271 86.1481 311.699 86.1481C312.128 86.1481 312.479 86.2337 312.736 86.4005C312.993 86.5673 313.187 86.8377 313.322 87.2073L314.359 86.3825C314.558 86.2247 314.837 86.1436 315.193 86.1436C315.833 86.1436 316.302 86.3013 316.6 86.6123C316.902 86.9279 317.051 87.4372 317.051 88.1404L317.037 88.6452C317.019 89.2087 317.015 89.709 317.015 90.1463C317.015 90.7277 317.033 91.1064 317.069 91.2777C317.091 91.3723 317.136 91.4354 317.195 91.476C317.253 91.5166 317.483 91.5481 317.88 91.5706V92.071C317.375 92.0484 316.933 92.0349 316.559 92.0349C316.185 92.0349 315.815 92.0484 315.423 92.071L315.351 91.9538C315.455 91.0793 315.509 90.2229 315.509 89.389C315.509 88.4018 315.432 87.7843 315.279 87.5364C315.126 87.2885 314.855 87.1668 314.467 87.1668C314.215 87.1668 313.994 87.2299 313.8 87.3561C313.606 87.4823 313.48 87.6265 313.421 87.7888C313.381 87.9015 313.358 88.2576 313.358 88.8571C313.358 89.9344 313.372 90.6782 313.399 91.0883C313.412 91.2731 313.449 91.3903 313.512 91.4399C313.575 91.4895 313.832 91.5346 314.287 91.5661V92.0665C313.755 92.0439 313.232 92.0304 312.718 92.0304C312.078 92.0304 311.505 92.0439 310.996 92.0665V91.5661C311.397 91.5661 311.636 91.5075 311.704 91.3903C311.771 91.2731 311.808 90.7638 311.808 89.8578C311.808 88.8255 311.785 88.1855 311.744 87.9331C311.704 87.6806 311.605 87.4868 311.447 87.3561C311.289 87.2254 311.073 87.1623 310.798 87.1623C310.595 87.1623 310.41 87.2073 310.243 87.302C310.076 87.3966 309.937 87.5274 309.824 87.6987C309.761 87.7933 309.725 87.9376 309.725 88.1314V88.3658C309.743 88.4785 309.747 88.7985 309.747 89.3259V90.0471C309.743 90.7413 309.752 91.1514 309.779 91.2777C309.792 91.3588 309.824 91.4174 309.878 91.4534C309.932 91.4895 310.158 91.5256 310.545 91.5616V92.062C310.058 92.0394 309.526 92.0259 308.945 92.0259C308.742 92.0259 308.192 92.0394 307.299 92.062L307.317 92.0755Z" fill="#231815"/>
<path d="M325.738 90.8945L325.914 91.0703L325.639 91.6518C325.345 91.8321 325.03 91.9718 324.696 92.062C324.363 92.1521 324.002 92.1972 323.628 92.1972C322.74 92.1972 322.041 91.9403 321.532 91.4264C321.022 90.9125 320.765 90.1868 320.765 89.2583C320.765 88.6678 320.842 88.181 320.991 87.7933C321.112 87.4823 321.311 87.2209 321.59 87.0135C321.87 86.8062 322.19 86.6078 322.555 86.423C322.92 86.2337 323.317 86.1436 323.754 86.1436C324.421 86.1436 324.971 86.3284 325.409 86.7025C325.841 87.0766 326.062 87.6761 326.062 88.501C326.062 88.6047 326.053 88.7579 326.04 88.9653L325.043 89.1501C324.737 89.1681 324.291 89.1816 323.704 89.1816H322.384C322.447 89.8848 322.654 90.4122 323.01 90.7638C323.366 91.1199 323.822 91.2957 324.376 91.2957C324.606 91.2957 324.836 91.2596 325.066 91.1965C325.291 91.1289 325.521 91.0297 325.742 90.899L325.738 90.8945ZM322.343 88.5326C322.708 88.5641 323.073 88.5821 323.443 88.5821C323.763 88.5821 324.101 88.5641 324.457 88.5326V88.2441C324.462 87.7437 324.372 87.3786 324.191 87.1442C324.007 86.9143 323.759 86.7971 323.448 86.7971C323.227 86.7971 323.037 86.8512 322.879 86.9594C322.722 87.0676 322.605 87.2209 322.528 87.4147C322.451 87.6085 322.393 87.9826 322.352 88.528L322.343 88.5326Z" fill="#231815"/>
<path d="M329.132 92.0759V91.5755C329.574 91.553 329.827 91.5169 329.881 91.4673C329.939 91.4223 329.971 91.3141 329.984 91.1518C330.007 90.7416 330.02 90.0159 330.02 88.9792C330.02 88.4653 330.011 88.0236 329.998 87.654C329.989 87.4241 329.975 87.2934 329.948 87.2528C329.93 87.2212 329.894 87.1942 329.854 87.1807C329.809 87.1626 329.57 87.1491 329.132 87.1401V86.6713C329.353 86.6713 329.696 86.6262 330.165 86.5316C330.629 86.4369 331.026 86.3287 331.341 86.2025L331.508 86.1484C331.567 86.1484 331.594 86.1935 331.594 86.2882V86.3423C331.576 86.455 331.571 86.7479 331.571 87.2212L332.513 86.4279C332.631 86.3242 332.752 86.2566 332.879 86.2206C333.059 86.171 333.275 86.1484 333.532 86.1484C333.961 86.1484 334.317 86.2251 334.587 86.3738C334.862 86.5226 335.061 86.7299 335.191 86.9913C335.318 87.2528 335.381 87.663 335.381 88.2174C335.381 88.4608 335.376 88.7448 335.363 89.0648C335.34 89.7229 335.331 90.2954 335.331 90.7777C335.331 91.0527 335.354 91.242 335.399 91.3456C335.43 91.4178 335.475 91.4673 335.534 91.4944C335.593 91.5169 335.813 91.5485 336.201 91.5845V92.0849L335.453 92.0623L334.97 92.0488L333.713 92.0849L333.645 92.0037C333.749 91.2284 333.803 90.4351 333.803 89.6238C333.803 88.5915 333.74 87.9515 333.613 87.7126C333.451 87.4015 333.154 87.2483 332.725 87.2483C332.45 87.2483 332.207 87.3204 332.004 87.4601C331.801 87.5999 331.67 87.7486 331.607 87.9109C331.58 87.9785 331.567 88.1813 331.567 88.5284C331.567 90.0024 331.571 90.8498 331.585 91.0617C331.598 91.278 331.63 91.4087 331.688 91.4583C331.761 91.5214 332.036 91.562 332.504 91.5891V92.0894C331.797 92.0669 331.197 92.0533 330.71 92.0533C330.422 92.0533 329.894 92.0669 329.132 92.0894V92.0759Z" fill="#231815"/>
<path d="M338.802 87.1715L339.614 86.6396C339.605 85.9184 339.582 85.2919 339.551 84.751C340.105 84.5797 340.628 84.3723 341.124 84.1289L341.309 84.2686C341.219 84.8591 341.16 85.6479 341.124 86.6396C341.309 86.6712 341.498 86.6892 341.678 86.6892C342.093 86.6892 342.467 86.6622 342.797 86.6036L342.851 86.6396L342.797 86.8605C342.733 87.0904 342.693 87.2977 342.661 87.487C342.188 87.4555 341.836 87.4374 341.611 87.4374C341.444 87.4374 341.282 87.4465 341.124 87.46C341.115 87.8702 341.11 88.2353 341.11 88.5463C341.11 89.9166 341.151 90.6919 341.232 90.8812C341.313 91.066 341.507 91.1607 341.814 91.1607C341.904 91.1607 341.999 91.1517 342.102 91.1291C342.206 91.1111 342.319 91.0795 342.436 91.0435L342.54 91.2734C342.296 91.5438 342.057 91.8278 341.827 92.1208C341.678 92.1433 341.539 92.1614 341.412 92.1749C341.286 92.1884 341.169 92.1929 341.065 92.1929C340.723 92.1929 340.439 92.1343 340.209 92.0171C339.979 91.8999 339.812 91.7467 339.708 91.5573C339.605 91.368 339.551 91.0931 339.551 90.7189C339.551 90.5251 339.56 90.0113 339.582 89.1819C339.6 88.4516 339.614 87.8792 339.614 87.4555L339.303 87.442C339.172 87.442 339.005 87.4555 338.802 87.478V87.1625V87.1715Z" fill="#231815"/>
<path fill-rule="evenodd" clip-rule="evenodd" d="M60.0917 44.9581L64.3835 45.8641L64.1581 47.6716L68.5626 48.4605L73.2016 25.7514C73.2016 25.7514 64.6135 22.3618 60.0962 27.7843V34.3383H60.5471C62.9184 29.2538 67.5528 30.7233 67.5528 30.7233L65.177 41.7938L60.0917 40.7751V44.9536V44.9581ZM58.5093 30.4979C58.5093 30.4979 49.245 30.3852 46.8691 42.4744L60.0872 44.9581V40.7796L52.6306 39.3101C53.645 34.9063 58.6175 34.3383 60.0872 34.3383V27.7843C59.5237 28.4605 58.9557 29.3665 58.5048 30.4979H58.5093Z" fill="#E9C518"/>
<path fill-rule="evenodd" clip-rule="evenodd" d="M64.1625 47.6669L63.7116 49.3617L56.4805 47.8923V52.1835L62.81 53.5402L60.7768 64.6108C60.7768 64.6108 57.9501 64.2727 56.4805 61.6719V69.0147C59.8706 71.2729 64.1625 71.3856 64.1625 71.3856L68.567 48.4512L64.1625 47.6624V47.6669ZM56.476 47.8968L46.3054 45.8594C43.8214 57.9486 52.4096 61.3383 52.4096 61.3383C52.4096 65.1787 54.2173 67.5542 56.476 69.0192V61.6764C56.0251 60.8875 55.7997 59.8688 55.687 58.6248C55.687 58.6248 49.2493 56.2538 50.1509 50.9439L56.476 52.188V47.8968Z" fill="#5EAF50"/>
<path fill-rule="evenodd" clip-rule="evenodd" d="M88.2272 36.4841C88.2272 32.5309 86.3067 30.16 84.0481 28.6905V36.3714C84.3862 37.0475 84.7243 38.0662 84.7243 39.3103C84.7243 39.3103 91.1665 41.6813 90.2604 46.8785L84.0481 45.6344V49.8129L94.3313 51.9585C96.8153 39.8692 88.2317 36.4796 88.2317 36.4796L88.2272 36.4841ZM84.0481 28.6905C80.6579 26.6576 76.3616 26.5449 76.3616 26.5449L71.957 49.3666L76.4743 50.3854L76.9251 48.4651L84.0435 49.8219V45.6434L77.714 44.3993L79.6345 33.3288C79.6345 33.3288 82.5739 33.5542 84.0435 36.3804V28.6905H84.0481Z" fill="#DA4F22"/>
<path fill-rule="evenodd" clip-rule="evenodd" d="M80.6581 69.9257C81.2217 69.2496 81.7897 68.4563 82.1278 67.4421C82.1278 67.4421 91.3922 67.5548 93.6508 55.3528L80.6581 52.8692V57.1649L88.1147 58.6343C87.2086 62.93 82.3532 63.4935 80.6581 63.6062V69.9348V69.9257ZM76.1364 52.0758L76.4745 50.381L71.9573 49.3623L67.4355 72.184C67.4355 72.184 76.2491 75.5737 80.6536 69.9257V63.5971H80.0901C77.8315 68.6817 73.197 67.2122 73.197 67.2122L75.4557 56.1417L80.6536 57.1604V52.8647L76.1364 52.0758Z" fill="#2C6CAE"/>
<path fill-rule="evenodd" clip-rule="evenodd" d="M46.3057 74.7843C46.3057 74.7843 52.9733 73.0895 56.2508 80.4323C56.2508 80.4323 58.6266 84.3854 59.0774 88.1131C59.0774 88.1131 55.2364 86.9817 52.5225 81.5591C52.5225 81.5591 50.1512 76.9254 46.3057 74.7798V74.7843Z" fill="#A19D98"/>
<path fill-rule="evenodd" clip-rule="evenodd" d="M65.9701 72.9775C65.9701 72.9775 58.739 80.433 62.1246 86.3109C62.1246 86.3109 63.707 87.4423 64.9513 85.0668C64.9513 85.0668 62.35 85.0668 63.2562 81.7898C63.2562 81.7898 63.707 77.4986 65.9701 72.9775Z" fill="#A19D98"/>
<path fill-rule="evenodd" clip-rule="evenodd" d="M61.7866 91.9538C61.7866 91.9538 73.535 75.9114 87.6592 82.1228C87.6592 82.1228 79.1838 84.7237 76.9252 86.076C76.9252 86.076 69.1305 91.9493 61.7866 91.9493V91.9538Z" fill="#A19D98"/>
</g>
<defs>
<clipPath id="clip0_79_30791">
<rect width="296.996" height="70.5882" fill="white" transform="translate(45.8545 24.7061)"/>
</clipPath>
</defs>
</svg>
