<svg width="388" height="120" viewBox="0 0 388 120" fill="none" xmlns="http://www.w3.org/2000/svg">
<g clip-path="url(#clip0_79_30834)">
<path d="M294.058 84.9418C293.911 84.5353 293.799 84.0236 293.463 83.6872C293.056 83.4278 293.021 82.9162 292.657 82.5798C292.51 82.4326 292.286 82.3625 292.104 82.4746C292.034 82.5097 291.957 82.3975 291.922 82.4746C291.957 82.734 292.069 82.9933 292.216 83.2106C292.293 83.3928 292.069 83.4699 291.992 83.582C291.733 83.6101 291.586 83.3928 291.48 83.2106C291.333 82.5447 290.486 82.769 290.079 82.2503C289.743 82.3204 289.673 81.956 289.491 81.8088C289.421 81.6265 289.456 81.2971 289.232 81.22C288.861 81.1499 288.686 80.8135 288.272 80.7785C287.978 80.407 287.579 80.3369 287.313 79.9654C287.018 79.7832 286.801 79.4888 286.801 79.1244C286.801 79.0122 286.948 79.0473 286.983 78.9772C286.948 78.6057 286.43 78.6057 286.353 78.2412C285.877 78.052 285.695 77.3581 285.134 77.5754C285.358 77.8768 285.505 78.1291 285.8 78.3183V78.3534C285.87 78.5426 286.094 78.6478 286.136 78.872C286.136 79.0543 286.059 79.2015 285.954 79.3136C285.512 79.3907 285.253 78.9491 284.882 78.837C284.441 78.802 284.224 78.3954 283.999 78.059C283.558 77.7997 283.593 78.4305 283.187 78.3954C282.928 78.2482 282.963 77.9188 282.963 77.6595C282.893 77.4422 282.669 77.6174 282.556 77.4773C282.444 77.4002 282.556 77.288 282.556 77.1829C282.038 76.6993 281.338 76.482 280.861 75.9633C280.679 75.5218 280.42 76.0755 280.196 75.8162C280.091 75.1924 279.355 75.1153 278.942 74.7858C278.753 74.6807 278.571 74.5686 278.501 74.3793C278.466 74.2321 278.606 74.2321 278.683 74.1901C278.571 73.7135 278.017 73.6013 277.646 73.5312C277.646 73.6013 277.681 73.6013 277.723 73.6434C277.8 73.7555 277.835 73.9378 277.688 74.0078C277.289 74.1901 276.953 73.8607 276.624 73.6434C276.441 73.314 275.958 73.6083 275.888 73.1598C275.594 73.1598 275.629 72.7252 275.335 72.8303C275.005 72.6832 274.599 72.6832 274.27 72.6832C274.123 72.6832 273.976 72.571 274.053 72.3888C274.018 72.3117 273.941 72.3117 273.864 72.3117C273.569 72.3888 273.647 71.9823 273.345 72.0173C273.198 71.9823 273.128 71.8351 273.198 71.6879C273.163 71.5757 273.009 71.5407 272.897 71.5057C272.421 71.0291 271.685 70.8749 271.202 70.4333C270.831 70.5104 270.613 70.0969 270.242 70.1389C270.025 70.0688 269.612 70.181 269.43 69.8796C269.612 69.2908 269.023 69.7674 268.876 69.403C268.505 69.438 268.211 69.1437 267.882 69.1086C267.735 68.7722 267.328 68.9194 267.069 68.8493C266.852 68.5549 266.411 68.5899 266.152 68.4357C265.703 68.1764 265.262 67.9591 264.933 67.5526C264.821 67.3704 264.674 67.6648 264.526 67.5526C264.337 67.4054 264.008 67.4054 263.973 67.1111C263.826 66.6695 264.456 66.5223 264.337 66.0807C264.631 65.7864 264.898 65.4499 265.073 65.0785C265.15 64.8962 265.409 64.8612 265.444 64.679C265.773 64.4196 265.99 63.9781 266.285 63.6837C266.579 63.6416 266.691 63.3122 266.915 63.0949C266.915 62.9057 267.209 62.8707 267.174 62.6534C267.51 62.2469 267.84 61.9174 267.917 61.3988C267.84 61.0694 268.246 60.9923 268.134 60.6208C268.428 60.3965 268.281 59.99 268.617 59.7727C268.652 59.5134 268.582 59.184 268.911 59.0017C269.023 58.6303 269.135 58.1537 268.988 57.7471C269.093 57.5929 269.136 57.4177 269.136 57.2285C269.283 57.0112 269.206 56.7519 269.171 56.5696C269.058 56.3524 269.283 56.1211 269.248 55.8687C269.213 55.6865 268.988 55.8337 268.876 55.7636C268.841 55.6865 268.659 55.6515 268.694 55.5043C268.694 55.4272 268.694 55.245 268.841 55.2099C268.953 55.1749 269.058 55.2099 269.1 55.28C269.171 55.28 269.213 55.3571 269.248 55.28C269.1 55.0978 268.953 54.8805 268.771 54.7683C268.589 54.6212 268.547 54.3618 268.589 54.1446C268.253 53.8852 268.442 53.4086 268.253 53.0371C268.365 52.7077 268.253 52.2591 268.141 51.8947C268.029 51.7054 268.323 51.376 267.994 51.2989C267.629 50.7873 267.146 50.1565 266.593 49.8271C266.264 49.6448 266.004 49.3855 265.822 49.0911C265.486 48.9019 264.975 49.014 264.751 48.5374C264.561 48.5374 264.386 48.2781 264.204 48.3482L264.169 48.201C263.91 48.0117 263.581 47.9066 263.245 47.9066C262.88 47.6473 262.432 48.0117 262.103 47.7244C261.739 47.3879 261.185 47.5351 260.856 47.1356C260.485 46.9884 260.562 46.5048 260.562 46.0983C260.744 45.8039 260.709 45.3974 260.779 45.0329C260.968 44.5143 260.891 43.8905 261.185 43.3718C261.325 42.8181 261.479 42.1943 261.591 41.6056L261.514 41.0869L261.255 40.6804C261.255 40.2038 260.779 39.9445 260.555 39.573L260.478 39.2015C260.141 39.1665 260.036 38.76 259.777 38.6128C259.7 38.6128 259.7 38.5777 259.665 38.5006C259.329 38.3885 259.483 37.9469 259.189 37.8348C258.635 37.3582 258.488 36.5802 258.117 35.9914C257.858 35.7742 257.452 35.7742 257.122 35.8092C256.793 35.7742 256.681 36.2508 256.352 36.1386C256.17 36.5101 256.275 36.9166 256.205 37.246C256.499 37.4703 256.723 37.989 257.122 37.989C257.34 37.8418 257.641 37.8768 257.823 37.7296C258.411 37.7717 258.082 38.4726 258.222 38.8721C258.152 39.2786 257.963 39.6851 257.858 40.0566C257.858 40.4982 257.858 40.9047 257.746 41.2341C257.704 41.4163 257.634 41.5285 257.599 41.6757C257.711 42.0822 257.305 42.4186 257.34 42.8181C256.975 43.1896 257.158 43.7363 257.01 44.1849C256.751 44.4442 257.045 44.8157 256.828 45.0329C256.716 45.4044 256.716 45.846 256.457 46.1754C256.457 46.2455 256.457 46.3226 256.38 46.3646C256.492 46.6941 256.086 46.7712 256.044 47.0585C256.121 47.5702 255.532 47.8365 255.602 48.3131C255.231 48.4954 255.273 48.9019 255.119 49.1962C255.084 49.3434 255.049 49.5257 255.119 49.6799C254.937 49.9672 255.119 50.3387 255.014 50.598C255.014 50.8574 255.091 51.1167 255.273 51.2639C255.385 51.6003 255.715 51.4812 255.862 51.7405C255.939 52.0349 256.303 51.9578 256.562 51.9998C256.856 52.1891 257.193 52.147 257.557 52.147C257.781 51.8877 257.998 52.2241 258.292 52.0699C258.586 51.9578 258.362 51.5162 258.727 51.4461C259.063 51.334 259.21 51.0396 259.469 50.8924C259.833 51.0045 260.064 50.7452 260.282 50.4859C260.87 50.2966 261.311 50.598 261.9 50.6681C262.117 50.6681 262.271 50.9275 262.488 50.8504C262.6 50.9975 262.817 50.8153 262.894 51.0396C263.224 51.0746 263.371 51.4461 263.707 51.4041C263.924 51.7755 264.407 51.6984 264.702 51.9227C265.213 51.9227 265.402 52.5115 265.948 52.4764C266.397 52.6587 266.208 53.2474 266.649 53.4296C267.02 53.724 267.167 54.2076 267.048 54.6842L266.978 54.8314C267.048 55.1258 267.09 55.4622 266.866 55.6795C266.978 55.9739 266.754 56.2683 266.866 56.6047C266.719 56.7449 266.754 56.8991 266.754 57.0813C266.565 57.2635 266.789 57.5229 266.607 57.7471C266.572 58.0065 266.348 58.1537 266.348 58.3709C266.313 58.6653 266.131 59.0017 265.829 59.1139L265.717 59.5905C265.682 59.8498 265.311 59.8498 265.353 60.1091C265.535 60.5507 265.136 60.7399 264.947 61.0694C264.912 61.546 264.435 61.8754 264.316 62.324C264.099 62.6183 263.77 62.7305 263.693 63.102C263.434 63.7678 262.845 64.0201 262.362 64.5037C262.068 64.6509 262.068 65.1696 261.662 64.9874C261.444 64.9523 261.556 65.2046 261.479 65.3168C261.409 65.3939 261.29 65.3939 261.185 65.3518L260.408 64.9523C259.749 64.8752 259.231 64.3215 258.565 64.2094C257.935 63.7678 257.2 63.6977 256.534 63.4384C256.058 63.102 255.399 63.144 254.916 62.8496C254.398 62.9968 254.068 62.5553 253.592 62.4782C253.263 62.4782 253.039 62.1417 252.71 62.2889C252.71 62.8006 253.333 62.7725 253.627 62.9548C253.886 62.9197 254.11 63.0669 254.293 63.137C254.692 63.172 254.916 63.4664 255.322 63.4314C255.729 63.5015 256.023 63.8379 256.464 63.7958C256.87 64.0552 257.382 64.1323 257.753 64.3846C258.229 64.4196 258.6 64.6439 259.042 64.7561C259.119 64.7911 259.189 64.9453 259.336 64.9032C259.595 65.1626 260.078 65.2747 260.296 65.5621C260.331 65.7093 260.331 65.8284 260.296 65.9336C259.889 66.4522 259.518 65.6742 259.154 65.5621C259.007 65.2327 258.678 65.527 258.453 65.3028C258.236 65.4149 257.977 65.2677 257.872 65.2327C257.872 65.2677 257.907 65.2677 257.907 65.2677C257.872 65.3028 257.83 65.3378 257.795 65.3378V65.2257C256.87 65.0364 255.988 64.672 255.07 64.5598C254.923 64.4477 254.811 64.3776 254.664 64.2654C253.998 64.0762 253.452 63.6767 252.927 63.2281C252.667 63.0809 252.303 63.151 252.086 62.9688C251.603 62.8566 251.161 62.6394 250.755 62.3029C250.72 62.2328 250.755 62.1908 250.79 62.1207C251.007 62.0086 251.267 62.0436 251.414 62.1628C251.596 62.1978 251.855 62.2679 252.044 62.2328C252.044 62.1207 251.967 61.9735 251.897 61.9034C251.456 61.9034 251.084 61.6091 250.755 61.4198C249.943 61.2025 249.172 60.8311 248.36 60.761C248.135 60.5367 247.764 60.6839 247.582 60.3895C247.064 60.5367 246.77 60.025 246.251 60.0951C246.034 60.1302 245.845 59.9129 245.628 60.025C245.404 59.6956 244.997 59.8008 244.633 59.7657C244.486 59.7307 244.339 59.5064 244.115 59.6185C243.821 59.5414 243.526 59.3241 243.267 59.1349C243.232 58.8055 242.714 58.8475 242.826 58.434C242.637 58.2167 242.42 58.0625 242.125 58.0275C241.754 57.8453 241.425 58.1046 241.019 57.9224C240.872 57.7401 240.612 57.8803 240.465 57.7401C239.765 57.7401 239.176 57.4107 238.476 57.4458C238.252 57.1514 237.916 57.0743 237.593 56.9621C237.404 56.857 237.222 56.9271 237.033 56.857C236.781 56.5626 236.333 56.6678 236.003 56.7098C235.926 56.7098 235.821 56.6397 235.856 56.5276C235.926 56.3804 235.744 56.3454 235.667 56.3103C235.226 56.3804 234.932 56.086 234.49 56.1211C233.937 55.9038 233.349 55.6445 232.718 55.6795C232.347 55.9388 232.088 56.3454 231.941 56.7449C231.688 56.9271 231.759 57.1934 231.688 57.4528C231.983 57.7822 231.906 58.3359 231.983 58.7003C231.948 59.0718 232.319 59.4433 232.13 59.8428C232.319 60.2493 232.466 60.7259 232.501 61.2095C232.578 61.4268 232.501 61.7983 232.648 62.0576C232.942 62.4641 232.76 63.0178 233.019 63.4244C233.089 63.8309 233.279 64.2304 233.201 64.6369C233.426 64.8191 233.426 65.1135 233.391 65.3799C233.461 65.6392 233.538 65.8915 233.426 66.1158C233.65 66.5924 233.608 66.9639 233.72 67.4405C233.909 67.6998 233.867 68.0292 233.944 68.3236C233.832 68.4357 233.867 68.5899 233.909 68.7301C234.203 68.8773 233.944 69.3189 234.168 69.5081C234.203 69.9847 234.28 70.4263 234.35 70.8678C234.567 71.3515 234.644 71.9052 234.679 72.4168C234.939 73.0056 235.086 73.6364 235.345 74.1831C235.345 74.2602 235.492 74.3303 235.422 74.4074C235.457 74.5545 235.457 74.7017 235.639 74.7368L235.562 74.7718C235.562 74.8419 235.639 74.919 235.674 74.9611C235.709 75.2554 236.01 75.4377 236.157 75.697C236.192 76.1386 236.641 76.3628 236.599 76.8395C236.711 76.9866 236.928 77.1759 236.97 77.3511C237.334 77.5333 237.523 77.9398 237.818 78.1992C238.077 78.4936 238.483 78.4936 238.665 78.83C239.071 79.0473 239.513 79.3066 239.954 79.5239C240.101 79.7482 240.395 79.8603 240.654 79.8603C240.732 79.8253 240.732 79.6781 240.844 79.601C241.173 79.636 241.579 79.5589 241.908 79.5589C242.125 79.4468 242.35 79.4888 242.609 79.4888C242.896 79.3066 243.274 79.5589 243.603 79.4187C243.716 79.4888 243.821 79.601 243.933 79.601V79.4538C244.374 78.9001 245.222 79.1664 245.81 78.9001C246.286 78.6057 246.84 78.4585 247.358 78.2763C247.876 78.1992 248.395 77.9819 248.759 77.6455C248.577 77.239 249.053 77.2039 249.242 77.0217C249.501 76.9095 249.606 77.1338 249.796 77.1689L250.272 76.7974C250.384 76.7203 250.496 76.7624 250.566 76.6152C251.042 76.3909 251.372 75.8372 252.044 75.8722C252.303 75.7601 252.408 75.4307 252.745 75.3956C252.857 75.4307 252.962 75.3606 253.039 75.5078C253.116 75.5778 253.039 75.725 252.927 75.8021C252.415 76.2437 251.68 76.5381 251.309 77.1268C251.939 77.1268 252.373 76.496 252.857 76.1666C253.627 75.8302 254.328 75.3185 254.993 74.6877C255.287 74.6176 255.434 74.2462 255.729 74.2111C256.023 73.8046 256.429 73.4682 256.87 73.2158C257.017 73.2929 257.164 73.1387 257.277 73.0336C257.347 72.8794 257.459 73.1037 257.606 72.9916C257.83 72.8794 258.012 72.6972 258.089 72.4729C258.313 72.1084 258.79 72.0664 259.014 71.7019C259.049 71.2954 259.455 71.1903 259.672 70.8538C259.854 70.5174 260.338 70.5174 260.485 70.1179C260.891 70.195 260.779 69.5992 261.185 69.5992C261.704 69.41 261.774 68.7512 262.362 68.7512C262.439 68.6811 262.586 68.5689 262.586 68.4147C262.733 68.2675 262.88 67.9802 263.175 68.0152C263.287 68.1274 263.469 68.0152 263.623 68.0152C263.994 68.1974 264.393 68.3446 264.765 68.5339C264.877 68.646 265.024 68.7512 265.206 68.7161C265.794 69.2698 266.607 69.2698 267.118 69.9357C267.601 69.9006 267.601 70.5595 268.078 70.4543C268.337 70.5665 268.414 70.9309 268.743 70.8608C269.185 71.2674 269.773 71.3725 270.249 71.7089L270.915 71.779C271.097 72.0033 271.139 72.2977 271.468 72.2977C271.874 72.6341 272.386 72.7462 272.827 73.0406C273.345 73.328 273.934 73.5172 274.452 73.8466C274.634 73.9588 274.669 74.141 274.858 74.1761C275.3 74.5125 275.776 74.6597 276.182 75.0241C276.406 75.4727 275.741 75.1713 275.594 75.3536C275.776 75.5078 275.965 75.683 276.182 75.7951C276.294 75.8302 276.441 75.9774 276.546 75.7951L276.399 75.683C276.364 75.5007 276.364 75.3185 276.546 75.1643C276.736 75.1643 276.841 75.3115 276.953 75.4587C277.429 75.5288 277.688 76.0124 278.123 76.0895C278.389 76.2717 278.606 76.454 278.865 76.6362C278.97 76.7834 279.159 76.8605 279.194 77.0427C278.9 77.1198 279.306 77.3721 278.97 77.4142L279.306 77.5964V77.5263C279.334 77.4212 279.488 77.4913 279.565 77.4913C279.636 77.302 279.86 77.4212 280.007 77.4212C280.483 77.7506 281.001 78.0099 281.443 78.4165C281.478 78.5286 281.408 78.5987 281.296 78.5987C280.931 78.5286 280.637 78.1571 280.266 78.017C280.231 78.087 280.196 78.1221 280.196 78.1641C280.455 78.5356 280.938 78.6407 281.156 79.0122L281.373 78.7949C281.485 78.7178 281.632 78.7178 281.709 78.83C281.779 78.9421 281.709 79.0473 281.597 79.1244C281.744 79.1944 281.968 79.1945 282.003 79.4187C281.968 79.4538 282.003 79.4888 282.038 79.4888C282.185 79.5239 282.367 79.636 282.514 79.4888C282.662 79.636 282.991 79.7061 282.921 79.9304C283.145 80.0776 283.327 80.2668 283.586 80.1477C283.88 80.1897 283.957 80.4841 284.252 80.4841C284.511 80.4841 284.728 80.6663 284.952 80.7785C285.176 80.9957 285.281 81.3322 285.653 81.3322C285.688 81.3322 285.723 81.4443 285.8 81.3672C285.653 81.178 285.435 81.213 285.281 81.0378C285.316 80.8135 285.057 80.7014 284.875 80.5892C284.658 80.1477 284.104 80.2598 283.768 79.9304C283.803 79.8533 283.733 79.7411 283.845 79.6711C284.14 79.4117 284.14 79.8883 284.322 79.9584C284.658 79.8883 284.91 80.1477 285.064 80.3649C285.393 80.3649 285.505 80.7014 285.723 80.8836C286.094 80.8836 286.164 81.3602 286.535 81.3602C286.864 81.5424 287.271 81.6896 287.565 81.949C287.712 82.0191 287.6 82.2083 287.565 82.2784C287.453 82.3485 287.341 82.3134 287.229 82.2784C287.194 82.3134 287.194 82.3485 287.194 82.4256C287.117 82.6499 286.934 82.4256 286.822 82.4606C286.857 82.6078 287.011 82.6428 287.117 82.748C287.229 83.0073 287.488 82.8601 287.67 83.0494C287.894 82.9793 288.076 83.1545 288.258 83.2316C288.552 83.7082 289.141 83.7432 289.4 84.1848C289.806 84.4792 290.29 84.6965 290.654 85.0679C290.836 85.103 291.095 85.1801 291.2 85.3623C291.459 85.4394 291.642 85.8039 292.013 85.7338C292.118 85.8039 292.272 85.916 292.272 86.0982C292.454 86.3576 292.496 86.7991 292.86 86.9113C293.12 87.1005 293.267 86.652 293.484 86.8692C293.561 86.9113 293.631 86.9463 293.708 86.8692C294.149 86.7641 293.673 86.3926 294.037 86.2454C294.107 86.0632 293.967 85.874 294.002 85.6917C294.184 85.5025 294.002 85.1801 294.002 84.9137L294.058 84.9418ZM259.567 67.1391C259.308 67.3984 259.056 67.7278 258.867 68.0222C258.832 68.2816 258.902 68.5409 258.79 68.7231C258.902 69.0595 258.607 69.2768 258.685 69.5361C258.832 70.0548 258.173 69.8656 258.061 70.202C257.725 70.4964 257.508 71.015 257.031 71.0501C256.814 71.1973 256.59 71.3094 256.625 71.6038C256.443 71.786 256.184 71.6388 256.107 71.9332C255.778 71.9683 255.476 72.4519 255.112 72.1925C254.888 72.2977 254.706 72.0383 254.594 71.9332C254.594 71.744 254.706 71.5617 254.664 71.4145C253.97 71.779 253.34 72.2977 252.752 72.8514C251.722 73.6995 250.615 74.3232 249.585 75.0662C249.55 75.2134 249.396 75.3956 249.256 75.4307C248.521 75.2835 248.072 76.0615 247.484 76.2787C247.379 76.3909 247.267 76.5381 247.12 76.461C247.078 76.4259 247.043 76.4259 247.008 76.461C246.931 76.8324 246.489 76.7203 246.342 77.0147C246.048 77.232 245.572 77.1268 245.39 77.5263C244.801 77.7156 244.318 78.1922 243.73 78.3394C243.47 78.4865 243.288 78.1922 243.099 78.4515C242.84 78.3814 242.623 78.4515 242.511 78.6758C242.294 78.6758 242.104 78.5286 241.957 78.7459C241.439 78.7038 240.998 78.9632 240.479 78.9281C240.367 78.858 240.22 78.7038 240.115 78.6688C240.038 78.816 239.856 78.851 239.709 78.7739C239.05 78.4375 238.49 78.0029 237.867 77.5894C237.649 77.4422 237.572 77.1549 237.537 76.8535C237.131 76.5591 237.166 76.0404 236.984 75.6339C236.802 74.8209 236.354 74.162 236.136 73.307C235.919 72.7182 235.8 72.0524 235.583 71.4286C235.324 70.5805 234.995 69.7324 234.876 68.7722C234.616 68.1834 234.876 67.4054 234.434 66.8587C234.399 66.305 234.287 65.7513 234.14 65.1626C234.105 64.8682 234.063 64.6089 234.063 64.3145C233.916 63.8729 233.804 63.3543 233.664 62.9127C233.664 62.1768 233.552 61.3988 233.293 60.7049C233.328 60.3334 233.293 59.9339 233.328 59.5624L233.405 58.7144C233.552 58.6022 233.734 58.455 233.958 58.5321C234.035 58.6723 234.217 58.6373 234.357 58.7144C234.581 58.6022 234.764 58.8966 234.988 58.7564C235.247 58.6793 235.205 58.9737 235.394 59.0508C235.541 59.0158 235.723 59.0508 235.8 58.9036C235.877 58.9807 235.877 59.0928 235.835 59.1209C236.052 59.3802 236.424 59.1629 236.648 59.3802L237.124 59.4153C237.383 59.7797 237.825 59.7447 238.161 60.004C238.378 59.9339 238.679 60.004 238.791 59.8218C239.05 59.7447 239.38 59.8568 239.562 60.0811C239.744 60.1162 239.891 59.9339 240.038 60.0811C240.591 60.4105 241.215 60.6348 241.838 60.747C242.167 60.9642 242.616 60.9642 242.945 61.1184C243.239 61.3007 243.575 61.3427 243.87 61.4478C243.947 61.4829 244.017 61.4478 244.059 61.4128C244.276 61.4478 244.5 61.602 244.682 61.56C244.794 61.7422 245.088 61.6301 245.236 61.8193C245.348 61.7843 245.418 61.7142 245.53 61.7142C245.747 61.9735 246.048 61.9735 246.3 62.1207C246.636 62.2679 247.036 62.2328 247.337 62.4852C247.778 62.4151 247.96 62.8917 248.409 62.8216C248.479 62.8917 248.521 62.8566 248.591 62.8566C248.703 63.0108 248.808 63.0459 248.997 63.0809C249.144 63.0459 249.326 62.7795 249.515 62.9688C249.55 63.1861 249.845 63.2632 249.992 63.3753C250.139 63.2702 250.286 63.3753 250.433 63.3052C250.622 63.4945 250.769 63.8239 251.063 63.7117C250.951 63.5295 250.545 63.5645 250.657 63.2702C250.881 63.0459 251.246 63.0459 251.54 63.1931C251.687 63.2702 251.869 63.0108 252.016 63.1931C252.24 63.6346 252.829 63.3753 253.123 63.7117C253.34 63.7888 253.452 64.0061 253.564 64.1533C253.781 64.4477 254.152 64.0832 254.412 64.3425C254.447 64.4897 254.671 64.6019 254.524 64.7491C254.012 65.0084 253.711 64.3075 253.2 64.3776C253.011 64.2724 252.794 64.3005 252.611 64.2724C252.24 64.1603 251.946 63.9711 251.575 63.901C251.764 64.1253 252.016 64.5318 252.422 64.4547C253.053 64.6019 253.676 64.7911 254.16 65.2327C254.489 65.3448 254.93 65.2327 255.154 65.5621C255.672 65.7513 256.114 66.0457 256.632 66.1929C256.667 66.1578 256.744 66.1578 256.779 66.0878C256.45 65.7163 255.932 65.6812 255.602 65.3448C255.567 65.2747 255.525 65.2327 255.525 65.1205C255.897 64.9032 256.191 65.2677 256.555 65.3799C257.186 65.5621 257.851 65.7093 258.362 66.0807C258.762 66.2279 259.098 66.6345 259.539 66.7816C259.651 66.8938 259.616 67.041 259.574 67.1531L259.567 67.1391ZM283.551 79.5239C283.187 79.4187 282.858 79.4187 282.486 79.3837C282.374 79.3486 282.409 79.2015 282.486 79.1244C282.669 79.0473 282.963 78.9772 283.152 79.1244C283.257 79.3066 283.516 79.2295 283.628 79.4187C283.663 79.4888 283.593 79.5239 283.551 79.5239ZM288.938 83.3998C288.531 83.2947 288.237 82.9582 287.866 82.8111C287.831 82.741 287.796 82.6218 287.831 82.5517C287.866 82.5167 287.901 82.4396 287.978 82.4396C288.167 82.5097 288.314 82.6639 288.419 82.8111C288.637 82.9162 288.938 83.0003 289.05 83.2176C289.05 83.2947 289.015 83.3648 288.938 83.3998ZM292.881 84.8717C292.811 84.9067 292.734 84.9418 292.699 84.9067C292.328 84.5353 291.817 84.5353 291.403 84.318C291.291 84.1357 291.074 84.0166 291.144 83.7643C291.221 83.547 291.403 83.7643 291.515 83.7643C291.845 84.0236 292.328 84.0586 292.51 84.4652C292.622 84.4652 292.699 84.5773 292.804 84.6124C292.874 84.6824 292.916 84.7946 292.874 84.8717H292.881Z" fill="#E60012"/>
<path d="M264.064 69.1292C263.728 68.8698 263.245 68.982 262.922 68.7227C262.922 68.8698 263.14 68.8348 263.069 68.982C263.069 69.2413 263.364 69.1642 263.504 69.2694C263.84 69.3464 264.169 69.4516 264.498 69.3815C264.428 69.2343 264.204 69.1923 264.064 69.1222V69.1292Z" fill="#E60012"/>
<path d="M268.891 71.3447C268.673 71.3027 268.449 71.2326 268.225 71.1204C267.931 70.6789 267.455 70.4195 266.901 70.4966C266.642 70.4546 266.719 70.1602 266.495 70.0831C266.089 70.013 265.759 69.7537 265.388 69.7537C265.276 69.6486 265.094 69.6836 264.982 69.7186L265.017 69.7887C265.276 69.9009 265.535 69.9359 265.752 70.0831C265.97 70.3424 266.341 70.3775 266.635 70.4966C266.894 70.8611 267.3 70.826 267.56 71.1204C267.56 71.5269 268.036 71.4218 268.218 71.5269C268.701 71.4218 268.954 71.9335 269.36 71.8634C269.255 71.6811 268.996 71.569 268.884 71.3517L268.891 71.3447Z" fill="#E60012"/>
<path d="M273.682 71.7436C274.27 72.003 274.901 72.1922 275.447 72.5216C275.601 72.6338 275.818 72.816 276.007 72.781C276.007 72.7109 275.972 72.6338 275.93 72.5987C275.412 72.4165 275.118 71.9679 274.564 71.8628C274.228 71.7156 273.976 71.5264 273.528 71.5264C273.493 71.6385 273.605 71.7086 273.675 71.7507L273.682 71.7436Z" fill="#E60012"/>
<path d="M270.326 72.3324C270.109 72.1151 269.773 72.038 269.479 71.9609V72.031C269.815 72.0731 269.997 72.4025 270.326 72.4446C270.403 72.4796 270.508 72.5917 270.473 72.7039C270.662 72.9212 270.992 73.0683 271.286 73.1384C271.286 73.1034 271.251 73.0683 271.286 73.0683L271.321 73.1104C271.615 73.0683 271.692 73.552 272.021 73.4048V73.1875C271.797 73.0403 271.615 72.8931 271.356 72.816C271.097 72.5217 270.725 72.4095 270.326 72.3394V72.3324Z" fill="#E60012"/>
<path d="M272.757 73.9941C272.939 74.3656 273.457 74.3656 273.864 74.4076V74.2184C273.716 74.1063 273.527 74.0292 273.31 73.9941C273.205 73.7348 272.904 73.8469 272.757 73.9941Z" fill="#E60012"/>
<path d="M274.375 74.5124C274.228 74.3301 274.081 74.5474 274.011 74.6245C274.046 74.6596 274.046 74.6946 274.116 74.6946C274.151 74.7296 274.228 74.8067 274.263 74.7647C274.445 74.4002 274.557 74.9119 274.781 74.8348C274.781 74.6175 274.487 74.6175 274.375 74.5054V74.5124Z" fill="#E60012"/>
<path d="M277.072 76.0615C277.072 76.0615 277.1 76.0686 277.107 76.0686L277.072 76.0615Z" fill="#E60012"/>
<path d="M277.107 76.0752C277.079 76.4256 277.513 76.3976 277.695 76.5448C277.772 76.6219 277.807 76.6569 277.912 76.6569C278.171 76.9513 278.508 76.9163 278.837 76.9934C278.837 76.9233 278.76 76.8812 278.76 76.8462C278.22 76.5588 277.681 76.2714 277.107 76.0822V76.0752Z" fill="#E60012"/>
<path d="M284.7 77.1689C284.518 76.9095 284.189 76.8324 283.922 76.6852C283.775 76.6502 283.593 76.5381 283.516 76.6502C283.957 76.7623 284.252 77.1689 284.7 77.2039V77.1689Z" fill="#E60012"/>
<path d="M288.419 79.9649C288.601 80.2313 289.05 80.2313 289.078 80.6728C289.302 80.7429 289.414 81.2265 289.708 81.0023C289.89 81.0023 290.002 81.2195 290.149 81.2616C290.261 81.3036 290.373 81.3737 290.486 81.3387C290.486 81.3153 290.474 81.2896 290.451 81.2616C289.897 81.2266 289.897 80.7079 289.421 80.4906C289.085 80.4906 288.945 80.1962 288.643 80.1191C288.496 80.007 288.426 79.7477 288.167 79.7897L288.244 79.9019C288.279 79.9369 288.356 80.007 288.426 79.972L288.419 79.9649Z" fill="#E60012"/>
<path d="M310.82 53.9128C310.491 53.8287 310.071 53.8287 309.91 53.4152C308.586 53.1699 307.269 53.9128 306.036 53.9969C304.964 54.4105 303.809 54.9011 302.653 55.3146C301.91 55.3987 301.084 55.4828 300.257 55.3987C299.921 55.1534 299.431 55.1534 299.017 55.0693C298.359 54.5717 299.179 54.081 299.017 53.5834C298.849 52.9246 298.52 52.1816 299.017 51.5228C298.933 50.941 298.849 50.2822 299.263 49.7846C299.017 49.2939 299.599 48.7963 299.094 48.4669C299.592 47.4786 299.094 46.0698 299.837 45.1657C300.173 44.5069 300.916 44.591 301.413 44.0162C302.324 44.0162 302.485 43.1051 303.227 42.7756C303.641 42.285 303.556 41.7874 304.054 41.2898C304.138 40.9603 304.306 40.6309 304.138 40.3015C303.809 39.888 304.306 39.5585 304.551 39.3132C304.796 38.9768 304.635 38.5633 304.719 38.1568C305.21 37.6661 304.88 37.0073 304.719 36.4256C304.306 35.8508 304.222 36.9232 303.725 37.0844C302.821 37.4138 302.492 38.4091 301.581 38.7385C301.252 38.9067 300.923 38.7385 300.762 38.4932C300.509 37.9115 300.348 37.4138 300.678 36.8391C300.264 36.0961 301.175 35.5214 300.839 34.6873C300.762 33.6991 301.336 32.7879 301.091 31.7997C301.252 31.2179 300.601 30.7273 300.432 30.2297C300.096 28.8279 299.277 30.475 298.373 30.1456C298.205 30.7273 298.037 31.4702 298.037 32.045C298.534 31.8838 298.695 31.302 299.277 31.2179C299.613 31.302 299.774 31.6315 299.935 31.8768C299.851 32.7038 300.271 33.5239 299.697 34.2668C300.187 34.9256 300.187 35.7527 300.103 36.5798C300.355 37.568 300.271 38.311 300.103 39.3062C299.613 40.6239 298.205 40.6239 297.049 40.708C296.636 40.708 296.391 40.3786 296.146 40.0492C295.893 39.3833 295.648 38.7245 295.564 37.8974C294.738 39.3062 295.235 41.3669 295.48 42.7686C295.564 43.1051 295.97 43.2663 295.97 43.6798C296.713 44.5069 297.785 44.9204 298.527 45.7404C298.695 46.7287 298.611 47.6398 298.527 48.6351C298.527 49.4552 298.03 50.121 298.366 50.941C297.785 51.4387 298.282 52.0204 298.114 52.5952C298.114 53.1769 297.953 53.5904 298.198 54.0881C298.03 55.0763 298.366 55.9034 298.94 56.7304C299.024 56.8916 299.354 57.0598 299.354 57.3051C300.593 57.964 301.826 57.3893 303.234 57.2281C304.306 56.8145 305.301 55.5739 306.618 56.1487C306.702 57.3893 305.301 57.8869 304.558 58.7069C305.385 58.4546 306.456 58.2934 306.947 57.3893C307.612 57.4664 307.941 56.8075 308.439 56.5622C308.684 56.401 309.013 56.2328 309.342 56.401C310.253 56.2328 311.654 56.3169 311.899 55.0833C311.731 54.5016 311.241 54.2563 310.827 53.9268L310.82 53.9128Z" fill="#E60012"/>
<path d="M285.33 31.2946C284.756 31.7081 284.335 32.2899 284.42 32.9487C284.917 34.0211 283.593 33.8599 283.516 34.6799C282.935 35.2617 282.773 36.1728 282.276 36.8317C281.45 37.1611 281.786 38.0722 281.12 38.4017C280.959 39.1446 280.126 39.3899 279.635 39.7193C279.551 40.4623 278.48 40.7146 278.48 41.4576C278.396 42.0323 277.737 42.2846 277.24 42.3687C276.749 42.5299 276.826 43.0276 276.336 43.1117C275.755 44.0999 274.515 44.0999 273.941 45.0882C273.366 45.2494 272.701 45.747 272.042 45.6629C271.384 45.9923 271.223 46.8194 271.139 47.3941C271.713 48.053 272.54 48.053 273.282 48.4665C273.856 48.3824 274.515 48.6347 275.096 48.2983C276.995 47.8917 279.054 47.6394 280.616 46.2376C281.197 45.74 281.856 45.1653 282.185 44.4223C282.851 44.177 283.096 43.35 283.754 43.1047C284.251 42.2776 284.91 41.6188 285.162 40.7076C285.246 40.2941 285.246 39.7123 285.575 39.3829C285.82 38.9694 285.491 38.64 285.491 38.3105C286.318 37.8129 285.659 36.9929 286.066 36.2499C285.989 35.9135 286.479 35.6682 286.234 35.3388C286.318 34.9252 286.402 34.4276 286.066 34.0141C286.318 33.3552 285.82 32.6964 286.318 32.1988C286.402 31.3717 286.318 30.4605 285.905 29.7246C285.575 30.1381 285.246 30.7199 285.323 31.2946H285.33Z" fill="#E60012"/>
<path d="M284.181 52.7568C284.265 52.175 284.181 51.4321 284.097 50.7732C284.013 50.4438 284.097 50.1144 284.097 49.778C282.78 50.1144 282.941 48.6285 282.199 48.1309C281.793 48.215 281.954 48.6285 281.954 48.9579C281.456 49.4485 281.954 50.0303 281.625 50.605C281.456 50.7732 281.709 51.1026 281.456 51.2638C281.54 51.9227 281.211 52.5044 281.127 53.0792C280.966 53.5698 281.211 54.0674 280.882 54.4809C281.127 55.1398 280.14 55.6374 280.63 56.2963C280.546 57.1233 280.385 58.1116 280.308 58.9386C280.714 59.268 280.308 59.7657 280.714 60.0951C280.469 60.5086 280.714 61.0063 280.798 61.3287C281.54 61.6581 280.966 62.8987 282.038 63.0599C282.367 62.9758 282.696 62.7305 282.78 62.3169C282.696 61.8193 283.278 61.3287 283.194 60.7469C282.696 59.8358 283.684 59.3451 283.6 58.5181C283.6 57.2775 284.097 56.3734 284.013 55.1328C284.265 54.3898 284.419 53.5628 284.181 52.7427V52.7568Z" fill="#E60012"/>
<path d="M321.712 44.4506C322.392 44.2824 323.324 44.7029 323.919 44.1072C324.514 43.932 325.026 43.8549 325.705 44.0231C326.462 43.8549 327.232 44.0231 327.912 44.4506C328.332 44.787 328.668 45.3828 328.584 45.8874C328.164 46.3991 327.989 46.9037 327.477 47.3313C326.973 47.927 326.546 48.7751 326.125 49.455C325.873 49.6302 325.789 50.0508 325.53 50.3031C325.705 50.6395 325.026 50.8918 325.362 51.2353C326.041 51.5717 326.721 51.831 327.484 51.9151C328.08 52.0833 328.843 52.3427 329.011 53.0155C328.843 53.6113 328.584 54.2841 327.996 54.3753C326.385 54.5435 324.942 55.6439 323.59 56.4078C322.651 56.7513 321.804 57.5924 320.704 57.1718C320.108 56.499 320.192 55.6509 320.108 54.7117C320.613 53.7795 320.613 52.5039 321.797 51.9922C322.644 51.1441 322.056 50.1278 321.888 49.1957C321.888 49.1045 321.972 49.0204 322.14 49.0204C322.224 49.5251 322.644 49.7844 322.987 50.0437C323.499 50.1279 323.751 49.448 324.01 49.0204C324.01 48.1724 325.614 47.3243 324.514 46.5603C323.071 46.6514 321.888 45.9716 320.788 45.2076C320.704 44.78 320.704 44.0231 321.04 43.6025C321.208 43.8549 321.292 44.3595 321.719 44.4506H321.712Z" fill="#E60012"/>
<path d="M320.108 47.6682C319.933 48.348 319.597 48.9368 319.513 49.5325C319.17 50.5559 319.086 51.7334 318.749 52.7567C318.665 54.0323 317.993 55.0486 317.902 56.2331C317.054 57.3405 317.229 58.6932 316.466 59.8777C316.207 60.6487 316.207 61.7491 315.45 62.1696C315.03 63.27 314.344 64.2022 313.839 65.2185C313.755 65.4708 313.839 65.6461 314.007 65.8143C315.359 66.41 316.298 64.8821 317.482 64.4546C318.504 64.027 319.352 63.0177 320.536 62.8425C320.711 62.2538 321.558 62.3308 321.979 61.9103C322.91 61.8262 323.338 61.0622 324.353 61.0622C325.712 60.3053 327.323 59.9618 328.759 59.4572C329.439 59.4572 330.118 59.0296 330.798 59.1979C331.393 58.9455 332.156 59.282 332.836 58.9455C333.263 58.8614 333.768 59.1979 334.188 58.9455C335.372 59.1138 336.899 59.1138 338.166 59.282C339.189 59.282 340.457 59.8777 341.22 60.6417C341.732 60.894 341.9 61.5739 342.068 62.1696H341.984C342.327 62.422 341.9 62.9336 342.159 63.1859C341.907 63.6135 341.655 64.2022 341.136 64.2933C340.625 65.1414 339.946 65.9895 339.441 66.7535C338.853 68.0291 338.426 69.3818 337.746 70.5733C337.578 71.1621 337.242 71.5896 337.242 72.1854C336.822 72.9494 336.478 73.7133 336.31 74.5614C335.967 75.3254 335.463 76.0053 335.119 76.6781C334.951 77.1898 334.615 77.5262 334.531 77.9537C334.02 78.6336 333.683 79.2224 333.172 79.8181C332.325 80.5751 331.988 81.8507 330.713 81.9348C330.202 81.9348 330.034 82.2782 329.607 82.3553C328.591 82.3553 327.407 82.2712 326.728 81.3461C326.132 81.255 325.796 80.498 325.369 80.2457C324.185 79.2224 323.001 78.2061 322.238 77.0216C321.811 76.7692 321.733 76.2576 321.222 75.9983C320.886 75.4936 320.459 74.7226 319.611 74.7226C319.275 74.8067 319.107 74.4703 318.848 74.2951C318.595 73.6993 319.611 73.0195 318.848 72.4307C319.016 72.5989 319.191 72.5148 319.443 72.5148C319.779 72.1714 320.291 71.6667 320.375 71.071C321.306 70.0477 321.726 68.7791 321.726 67.4193C321.047 66.9147 320.627 67.8469 320.031 68.0151C319.443 68.5267 318.756 68.9473 318.595 69.7112C318.252 70.0477 317.916 70.3911 317.916 70.7205L318.007 71.1481C317.328 71.1481 317.068 71.912 316.396 71.9962C315.976 72.0803 315.632 71.8279 315.289 71.6597C315.205 71.064 314.182 71.1481 314.442 70.3C314.273 69.7883 314.273 69.2837 314.533 68.8632C314.701 68.695 314.869 68.6108 315.128 68.7791C315.38 69.0314 315.212 69.6271 315.716 69.7112C316.907 69.3678 317.671 68.1833 318.855 67.6787C320.129 66.2348 322.245 65.7232 324.115 66.0666C324.542 66.3189 325.131 66.6624 325.215 67.167C325.131 67.167 324.963 67.167 324.872 67.3352C324.872 67.4193 324.963 67.5034 325.047 67.5034L325.299 67.4193C325.551 68.0151 324.956 68.4356 324.619 68.7791C324.115 69.7112 323.604 70.5593 323.092 71.3233C323.008 71.4915 323.008 71.9191 323.352 71.9191C324.115 71.9191 324.963 71.7508 325.81 71.4915C326.49 71.6667 327.505 71.6667 327.842 72.5919C328.01 73.2718 327.253 73.5241 326.91 73.7834C325.894 74.0358 324.963 74.4633 324.031 74.4633C323.352 74.8838 322.42 74.4633 321.74 74.7997C321.488 74.7997 321.229 74.7156 321.061 74.8838C320.886 75.5637 321.656 76.1595 322.161 76.6641C322.497 76.6641 322.497 77.0916 322.924 77.0075C323.856 77.6033 324.535 78.6196 325.726 78.8719C326.23 79.5518 327.253 79.2153 327.933 79.5518C329.032 79.8111 329.712 79.2154 330.559 78.963C331.239 78.5355 331.911 78.1991 332.17 77.4351C332.514 76.8393 332.934 76.3347 333.361 75.7389C334.209 73.6222 335.484 71.4985 336.072 69.2066C336.583 68.2744 337.011 67.0829 337.515 66.0666C337.683 64.7139 338.874 63.7747 338.699 62.2467C338.783 61.9874 338.874 61.658 338.783 61.3987C338.608 60.9711 338.608 60.3824 338.279 60.123C337.088 59.3591 335.477 59.6184 334.209 59.6184C333.361 59.5343 332.43 59.6184 331.414 59.7866C330.482 60.0389 329.803 60.2983 328.871 60.4665C327.94 60.887 326.924 60.9711 326.069 61.3987C324.71 61.8192 323.695 62.5902 322.343 62.9266C321.32 63.5224 320.305 64.1952 319.205 64.5387C318.7 65.0433 318.021 65.1344 317.426 65.3867C317.082 65.9825 316.319 65.7232 315.983 66.1507C315.051 66.7395 313.951 66.1507 313.02 66.7395C312.508 67.5875 311.577 68.3515 311.233 69.2837C310.47 69.8725 310.386 71.1481 309.538 71.4845C309.279 72.4237 308.263 72.4237 307.759 73.0966C307.423 73.3559 306.912 73.5241 306.575 73.44C306.316 73.1877 306.4 73.0195 306.4 72.7601C306.743 72.3326 306.996 71.7368 307.423 71.3163C308.018 70.6364 308.775 69.9636 309.202 69.0244C310.05 68.1833 310.638 66.9918 311.577 66.0596C312.081 65.1274 312.424 63.9429 313.356 63.1719C313.699 62.5832 314.028 61.9874 314.456 61.3917C314.196 60.9641 314.715 60.9641 314.799 60.6277C315.303 59.6955 315.562 58.6722 316.158 57.8241C316.41 56.2962 317.51 55.2799 317.769 53.7519C318.112 52.9038 318.532 52.0558 318.7 51.1236C318.869 50.8642 318.785 50.4437 319.128 50.1914C319.296 49.6867 319.212 49.091 319.632 48.5793C319.464 48.0747 319.8 47.7313 320.059 47.3037C320.227 47.3037 320.143 47.4789 320.143 47.6471L320.108 47.6682Z" fill="#E60012"/>
<path d="M97.0798 51.9916C95.4057 47.3587 90.3203 45.3611 88.2819 41.5202C86.6919 38.5905 81.2913 37.9948 83.925 39.5718C80.1565 37.0486 78.3213 38.4223 76.1568 36.0393C76.1148 35.9762 75.6175 35.3664 75.4564 34.6165C73.9574 34.28 71.968 34.3571 69.4744 34.8618C68.7599 34.9178 68.1435 35.1141 67.5971 35.4365C66.1892 36.0603 64.7812 36.4458 63.3733 36.6C61.2509 36.7612 58.9533 37.6443 56.4667 39.2494C55.444 39.719 54.7505 40.2586 54.3653 40.8684C54.0571 41.4291 53.1605 42.0599 51.6825 42.7748C49.9663 43.6229 48.7615 44.7233 48.0681 46.076C47.5357 47.3797 47.5988 48.8306 48.2502 50.4426C48.7896 51.9285 49.8683 52.9027 51.4583 53.3723C51.6405 53.2462 51.8086 53.113 51.9907 52.9939C52.418 52.7135 53.3566 52.1528 53.5808 52.0547C54.1832 51.6622 54.7856 51.3117 55.388 51.0314C56.4597 50.5127 57.7836 50.001 59.0374 49.7768C59.6328 49.6576 60.1371 49.5735 60.5924 49.4614C60.7255 49.4263 61.1108 49.2861 61.0407 49.3422C61.3349 49.195 61.6011 49.0408 61.9163 48.9147C63.0791 48.368 64.7182 48.0035 66.2592 48.5642C67.1138 48.9427 67.1138 48.9918 67.9403 49.2791C68.6268 49.5104 69.4323 50.1202 69.8316 50.6949C70.6722 51.8794 71.0924 52.8817 71.8419 53.6667C72.1572 54.0522 72.5354 54.2344 72.9067 54.4307C72.7946 54.3956 73.5721 54.3256 73.9153 54.0873C75.0781 53.7298 74.966 53.0569 76.472 52.1528C78.4123 51.3047 80.1705 50.1272 82.6011 49.6716C83.6378 49.7277 84.0441 50.1552 84.6955 50.4917C85.0037 50.6669 85.2769 50.8702 85.5571 51.0594L85.6202 51.1435L85.5921 51.0874L85.7953 51.2206C85.8653 51.4869 86.1665 51.6131 86.4677 51.7463L86.7269 51.8654C87.1332 52.1528 87.4554 52.3911 87.8266 52.6644L87.7286 52.6364L87.9107 52.7275L88.387 53.071C88.4571 53.1551 88.5271 53.2462 88.5831 53.3653C88.6742 53.4775 88.7723 53.4494 88.8983 53.4424C90.0681 54.0873 91.2939 54.7391 92.7089 55.1246C92.7089 55.1246 92.856 55.2297 93.0241 55.3699C93.8507 55.6012 94.6772 55.7694 95.5038 55.8745C96.5264 56.0497 97.5631 56.232 98.6208 56.4493C98.5648 56.1058 98.5018 55.7694 98.4387 55.426C98.0044 54.1363 97.4651 53.0639 97.0588 51.9916H97.0798ZM95.0485 55.2998C95.2726 55.2998 95.4127 55.3278 95.6158 55.3909C95.3917 55.3769 95.2446 55.3559 95.0485 55.2998ZM97.0308 55.7133C96.9397 55.6292 96.8417 55.5661 96.7436 55.5241L97.367 55.6502C97.2479 55.7063 97.1639 55.7764 97.0308 55.7063V55.7133Z" fill="#6FBA2C"/>
<path d="M98.6418 56.4425C97.5841 56.2252 96.5474 56.043 95.5248 55.8677C94.6982 55.7696 93.8717 55.6014 93.0451 55.3631C93.2412 55.5173 93.4794 55.7065 93.5985 55.8117L93.2482 55.7766V55.8117C92.2536 55.6294 91.0978 55.5523 90.1382 55.3L89.7389 55.2089C89.5498 55.1248 89.3746 55.0197 89.1995 54.9145C88.9474 54.7183 88.6812 54.536 88.394 54.3118C88.0578 53.9613 87.3293 54.0594 86.6498 53.709C86.5308 53.681 86.7689 53.3866 86.5308 53.3235C85.9844 53.0782 85.7462 53.1483 85.2279 52.8189C84.9827 52.7698 84.9337 52.2371 84.7025 52.1951C84.1842 51.9708 82.9724 51.9427 83.5678 52.2231C84.4083 52.6016 85.3259 53.1062 86.0334 53.4497C85.375 53.2464 84.2542 52.6506 83.4837 52.2581L82.6642 51.8096C82.5661 51.8306 82.468 51.8586 82.426 51.8937C82.0407 52.146 81.5574 52.5175 80.9971 52.91C80.6678 53.1132 80.3246 53.3095 79.9604 53.4987C80.3526 53.3726 79.5681 53.8141 79.372 53.9263C78.8606 54.2066 78.3283 54.466 77.7959 54.7183C77.7049 54.8024 77.4317 55.0267 77.4527 55.0827C77.0744 55.4472 77.2075 55.5033 76.2059 56.2392C75.6385 56.5826 74.924 57.0312 73.9083 57.3466L73.0257 57.5008L72.9137 57.5148H72.8576L72.8296 57.5218H72.8226C71.3936 57.3396 72.4303 57.4728 72.1081 57.4307H72.0941L71.905 57.3466L71.5267 57.1924C71.0364 56.9681 70.469 56.7368 70.1538 56.4214C68.6058 55.2299 67.8843 53.7581 67.3519 53.0852C67.0157 52.6857 67.1418 52.7838 66.9387 52.6577C66.8266 52.5946 66.5114 52.4964 66.1892 52.3773C65.0754 51.9708 65.6638 52.125 65.3206 51.9778C64.9213 51.8516 64.5291 51.9497 63.9477 52.0549C63.6745 52.1039 63.3593 52.2231 63.0511 52.3913C62.4487 52.7347 61.8813 52.8609 61.3419 53.0572C60.3403 53.3235 59.5417 53.5197 58.9603 53.744C57.6435 54.3118 56.7539 54.8024 55.1498 55.1949C54.7855 55.272 54.3723 55.4612 53.966 55.6995C53.966 55.7205 53.952 55.7486 53.945 55.7766C53.924 55.7696 53.903 55.7626 53.8749 55.7556C52.6281 56.5196 51.4933 57.7251 52.0677 57.613C49.476 58.7204 49.1888 59.1619 47.6758 59.5124C46.8633 61.0543 46.492 62.7155 46.562 64.5027C46.541 68.7992 46.9263 72.0513 47.7458 74.2592C48.4813 76.6001 49.1188 77.9178 49.6791 78.1771C50.4707 78.4925 51.1431 79.0392 51.7035 79.8172C52.0257 80.3639 52.8172 81.0718 54.0851 81.9339C55.2689 82.6559 56.6068 83.1255 58.1058 83.3427C59.5908 83.6021 60.7395 84.1838 61.5381 85.095C62.1124 85.8589 62.96 86.3566 64.0737 86.5809C63.9477 86.4617 63.8286 86.3215 63.7375 86.1533C63.7375 86.1533 63.3593 86.1113 63.1701 86.0832C62.981 85.88 63.1001 85.7047 63.1421 85.5295C63.7936 85.8099 64.3609 86.2094 64.9143 86.7C64.9283 86.7 64.9563 86.707 64.9774 86.707C65.993 86.7 67.2539 86.9383 68.7529 87.4289C70.5391 87.9266 73.1098 88.0878 76.437 87.9055C76.1638 87.7373 75.8766 87.457 75.6595 87.5481C74.952 87.5551 74.2866 87.7163 73.481 87.8284C73.1308 87.9336 73.2639 87.2958 73.0888 87.3518C72.0521 87.3378 71.0784 87.9406 70.441 87.6392C69.9577 87.4289 69.5444 87.1626 69.1451 86.9383C69.4603 87.0855 69.7756 87.2397 70.1398 87.3168C71.4847 87.3729 72.7315 87.3869 74.0064 87.2117C75.5404 87.2958 76.6612 87.1135 78.3353 86.9313C79.2319 86.8051 78.2442 87.492 77.3966 87.8284C80.5207 87.443 83.6308 86.0061 86.7339 83.525C89.6969 82.1092 92.3166 80.0906 94.439 77.6305C94.8313 76.9085 95.2376 76.1726 95.7139 75.4437C99.8817 69.5211 99.7416 62.8626 98.6488 56.4355L98.6418 56.4425Z" fill="#E60012"/>
<path d="M76.423 87.92C76.5561 88.0042 76.6962 88.0672 76.8083 88.0112C76.9694 87.9901 77.1795 87.9271 77.3897 87.8359C77.2496 87.857 77.1165 87.871 76.9764 87.892C76.7803 87.899 76.6051 87.906 76.416 87.92H76.423Z" fill="url(#paint0_linear_79_30834)"/>
<path d="M69.9505 89.3425L70.9522 89.5878C70.7911 89.5037 70.637 89.4056 70.4969 89.2584C70.2938 89.1393 70.1467 89.2584 69.9505 89.3425ZM65.3975 87.1908C64.669 86.4689 63.9755 85.9082 63.128 85.5437C63.086 85.7189 62.9669 85.8941 63.156 86.0974C63.3451 86.1184 63.7234 86.1675 63.7234 86.1675C64.1717 86.9735 65.0052 87.2188 65.8458 87.352L65.6427 86.9104C65.2014 86.7562 65.0683 86.8964 65.3905 87.1978L65.3975 87.1908ZM73.684 89.9103C73.3758 89.8332 73.0676 89.8262 72.7734 89.8332C73.0256 89.9103 73.3268 89.9453 73.684 89.9103ZM76.8081 88.0108C77.6137 87.9057 79.4489 86.7843 78.3281 86.9455C76.654 87.1277 75.5333 87.3099 73.9992 87.2258C72.7174 87.4011 71.4776 87.387 70.1327 87.331C69.7684 87.2539 69.4532 87.0927 69.138 86.9525C69.5373 87.1768 69.9505 87.4431 70.4339 87.6534C71.0713 87.9618 72.0519 87.352 73.0816 87.366C73.2567 87.3099 73.1237 87.9478 73.4739 87.8426C74.2794 87.7305 74.9449 87.5693 75.6524 87.5623C75.9816 87.4221 76.4789 88.151 76.8151 88.0108H76.8081ZM104.252 53.5129C102.263 45.5578 96.5893 40.1889 89.8789 35.1495C87.2311 33.0328 81.046 31.8763 77.9009 32.0025C75.5963 32.5983 75.2741 33.7127 75.4632 34.6098C75.6243 35.3598 76.1217 35.9696 76.1637 36.0326C78.3281 38.4157 80.1634 37.0349 83.9319 39.5651C81.2911 37.9881 86.6917 38.5769 88.2888 41.5136C90.3202 45.3545 95.4126 47.3521 97.0867 51.985C97.4929 53.0573 98.0323 54.1227 98.4666 55.4193C98.5296 55.7558 98.5927 56.0992 98.6487 56.4426C99.7414 62.8628 99.8815 69.5213 95.7138 75.4508C94.649 77.0839 93.9416 78.7591 92.8979 80.1749C92.0783 81.1351 90.7755 81.6678 89.9629 82.2355C88.646 83.1326 88.639 83.392 89.9489 82.4037C90.8595 81.7869 89.7668 83.5041 89.1994 84.0788C89.0033 84.3942 88.1907 83.9527 87.9806 84.233C87.3572 84.5274 86.9439 85.1372 86.2925 85.5507C86.0473 85.803 85.8372 85.1792 85.7181 85.3054C84.8495 85.8311 84.3382 86.8684 83.6237 86.8614C83.0983 86.8964 82.65 86.9525 82.1947 86.9385C81.9075 86.9525 81.6273 86.9735 81.3472 87.0436L80.8218 87.3029C79.5399 87.9057 77.9429 88.4104 76.4159 88.6346L76.4299 88.6907C77.3335 88.6697 78.188 88.6837 79.1547 88.9781C78.7414 88.8659 78.7834 88.6837 79.2317 88.6066L79.617 88.901C78.8325 89.1323 78.0199 89.4477 77.2424 88.95C77.2424 88.95 76.8992 89.0902 76.7241 89.1673C76.4719 89.0692 76.4859 88.8659 76.4299 88.6907L75.9045 88.7398C76.2618 89.0692 77.4736 89.5037 77.4736 89.5037C79.7921 89.3636 81.9846 89.1253 84.058 88.5575C84.177 88.3963 84.2541 88.2211 84.4853 88.2351C84.6744 88.2982 84.8635 88.3192 85.0316 88.3192C85.3468 88.2562 85.627 88.137 85.9282 88.0459L86.2224 87.8777C86.3555 87.7375 86.2785 87.6604 86.1454 87.6113C86.3065 87.6394 86.4886 87.6394 86.6777 87.6043C86.7688 87.5483 86.8738 87.5062 86.9789 87.4501C87.3362 87.2539 87.6794 87.1277 88.0086 87.2329C87.4552 87.4641 86.8738 87.6254 86.3135 87.8216L86.2224 87.8777L86.0963 87.9898C86.7688 87.7445 87.4692 87.5553 88.1207 87.2679C88.2678 87.1768 88.3939 87.0997 88.4989 87.0226C88.9262 86.7072 89.3395 86.4058 89.7808 86.539L90.131 86.3778L90.033 86.3637L90.1871 86.3497L91.616 85.5507C92.5757 85.0601 93.4302 84.3802 94.3548 83.7564C100.099 79.4179 103.573 73.0678 104.715 65.5823C105.331 61.5101 105.142 57.4379 104.252 53.5199V53.5129ZM72.2341 89.8402H72.2271C72.4022 89.8542 72.5913 89.8402 72.7734 89.8262C72.5913 89.7701 72.4232 89.693 72.2971 89.5738C72.3882 89.693 72.4232 89.8051 72.2341 89.8402Z" fill="url(#paint1_linear_79_30834)"/>
<path d="M75.8558 46.6578C75.8558 49.167 73.8455 51.1926 71.3448 51.1926C68.8442 51.1926 66.8408 49.167 66.8408 46.6578C66.8408 44.1486 68.8582 42.123 71.3448 42.123C73.8315 42.123 75.8558 44.1556 75.8558 46.6578Z" fill="#ED6C00"/>
<path d="M78.6155 80.1609C78.5594 80.1609 78.5104 80.1749 78.4474 80.1819C78.5174 80.2029 78.5734 80.1889 78.6155 80.1609ZM92.1135 73.3202C91.7142 73.2711 91.7492 72.7805 91.4901 72.5842C91.427 72.2828 91.2449 72.0796 91.1749 71.7782C90.9297 71.6731 91.0067 71.2245 90.6845 71.2525C90.4534 70.9231 90.0891 70.7829 89.7389 70.86C89.5428 70.8811 89.4727 70.5306 89.2416 70.6427C88.9964 71.0633 88.5131 70.8881 88.1769 71.0983C87.7916 71.2175 87.6305 70.7969 87.3573 70.7829C87.0351 70.3273 86.4957 70.4185 86.1385 70.019C85.9424 70.04 85.7743 69.9629 85.6412 69.8017C85.1999 69.7106 84.8636 69.4793 84.4574 69.4302C84.0931 69.29 83.897 68.9606 83.5538 68.6802H83.1965C83.0845 68.7714 82.9374 68.9186 82.7763 68.8485C82.6502 68.7714 82.5521 68.6031 82.5031 68.477C82.1949 68.1546 81.9077 68.449 81.5855 68.3859C81.1442 68.3368 80.7239 68.0705 80.3877 67.8392C80.2336 67.8952 80.0444 67.9583 79.8833 67.9303C79.5891 67.7411 79.3019 67.6359 78.9797 67.6219C78.7205 67.7831 78.5174 67.3135 78.2372 67.2995C78.0901 67.2644 77.964 67.2574 77.8239 67.2644C77.88 67.0191 77.971 66.7808 78.1742 66.5986C78.5104 65.7715 78.5945 64.7482 78.8116 63.9212C79.7152 62.3582 79.0568 60.7461 79.4841 59.1061C78.8676 57.9075 77.957 56.695 76.7732 55.7908C77.1585 55.4614 77.1585 55.3563 77.4387 55.0899C77.4177 55.0339 77.6909 54.8096 77.7819 54.7255C78.3143 54.4732 78.8466 54.2138 79.358 53.9335C79.5541 53.8213 80.3316 53.3798 79.9464 53.5059C80.3106 53.3167 80.6538 53.1134 80.9831 52.9172C81.5434 52.5247 82.0268 52.1532 82.412 51.9009C82.447 51.8658 82.5451 51.8378 82.6502 51.8168L83.4697 52.2653C84.2402 52.6578 85.361 53.2606 86.0194 53.4569C85.3119 53.1064 84.4013 52.6088 83.5538 52.2303C82.9584 51.9499 84.1702 51.971 84.6885 52.2023C84.9197 52.2443 84.9687 52.77 85.2139 52.8261C85.7322 53.1555 85.9704 53.0854 86.5168 53.3307C86.7619 53.3938 86.5168 53.6882 86.6358 53.7162C87.3153 54.0666 88.0438 53.9685 88.38 54.319C88.6602 54.5432 88.9334 54.7255 89.1855 54.9217C89.3607 55.0269 89.5358 55.132 89.7249 55.2161L90.1242 55.3072C91.0838 55.5595 92.2466 55.6366 93.2342 55.8189V55.7838C92.6599 55.6436 92.1135 55.4123 91.6162 54.9988C91.8333 55.16 91.7703 55.2582 91.4691 55.174L91.322 54.9217C91.8543 54.9918 92.3727 55.0479 92.7579 55.4754C92.7579 55.4754 92.9891 55.4684 93.1082 55.4614C93.2482 55.5665 93.2132 55.6787 93.2272 55.7838L93.5775 55.8189C93.3603 55.6226 92.7159 55.132 92.7159 55.132C91.3009 54.7465 90.0751 54.0877 88.9053 53.4498C88.7793 53.4498 88.6812 53.4849 88.5901 53.3727C88.5341 53.2536 88.4711 53.1625 88.394 53.0784L87.9177 52.7349L87.7356 52.6438H87.7286C87.6165 52.6158 87.6095 52.6859 87.6305 52.77L87.7286 53.0013C87.7146 52.9522 87.6585 52.8541 87.6305 52.77C87.5885 52.6789 87.5184 52.5878 87.4274 52.5036C87.2663 52.4195 87.1051 52.3284 86.951 52.2023C87.1612 52.2864 87.3153 52.3915 87.4274 52.5036L87.7356 52.6438L87.8336 52.6719C87.4554 52.4055 87.1402 52.1602 86.7339 51.8728L86.4747 51.7537C86.1805 51.6275 85.8793 51.4944 85.8023 51.228L85.5991 51.0948L85.6272 51.1509L85.5641 51.0668C85.2839 50.8776 85.0037 50.6743 84.7025 50.4991C84.0511 50.1627 83.6448 49.7351 82.6081 49.679C80.1775 50.1346 78.4193 51.3121 76.479 52.1602C74.966 53.0644 75.0781 53.7372 73.9223 54.0947C73.5721 54.333 72.7946 54.4031 72.9137 54.4381C72.5424 54.2419 72.1642 54.0596 71.849 53.6741C71.0995 52.8821 70.6862 51.8798 69.8386 50.7023C69.4393 50.1276 68.6408 49.5178 67.9473 49.2865C67.1208 48.9992 67.1208 48.9431 66.2662 48.5716C64.7252 48.0109 63.0861 48.3754 61.9233 48.9221C61.6081 49.0482 61.3419 49.2094 61.0477 49.3496C61.1178 49.2865 60.7325 49.4267 60.5994 49.4688C60.1441 49.5809 59.6398 49.672 59.0444 49.7842C57.7906 50.0085 56.4667 50.5201 55.395 51.0388C54.7926 51.3191 54.1902 51.6696 53.5878 52.0621C53.3636 52.1602 52.425 52.7209 51.9977 53.0013C51.1011 53.597 50.3026 54.333 49.532 54.8657C48.7615 55.3633 47.2205 56.2044 46.3659 57.1295C44.7689 60.1223 47.3886 59.5266 47.3676 59.5967C49.1398 59.2322 49.2939 58.8047 52.0467 57.6342C51.2762 57.7814 53.6018 55.5385 55.1288 55.2161C56.7329 54.8166 57.6154 54.333 58.9393 53.7652C59.5207 53.541 60.3192 53.3447 61.3209 53.0784C61.8603 52.8821 62.4277 52.756 63.0301 52.4125C63.3383 52.2443 63.6535 52.1252 63.9267 52.0761C64.501 51.971 64.8933 51.8728 65.2996 51.999C65.6428 52.1392 65.0544 51.985 66.1682 52.3985C66.4904 52.5177 66.8056 52.6158 66.9177 52.6789C67.1208 52.805 66.9947 52.7069 67.3309 53.1064C67.8633 53.7793 68.5848 55.2511 70.1328 56.4427C70.448 56.7581 71.0154 56.9894 71.5057 57.2136L71.884 57.3678L72.0731 57.4379H72.0871C72.4093 57.487 71.3726 57.3538 72.8016 57.5361H72.8366L72.8926 57.529L73.0047 57.515L73.8873 57.3608C74.2446 57.2487 74.5668 57.1155 74.861 56.9823C75.0151 58.1879 74.7069 59.4495 74.84 60.6971C73.9153 61.6503 74.6788 63.0521 73.9854 63.8932C73.9434 64.8464 73.467 65.7225 73.1308 66.5986C72.8016 66.5846 71.0714 66.6687 70.7702 66.6126C70.9033 66.7808 71.2606 66.7458 71.3236 67.0472C71.3096 67.3065 71.4217 67.6079 71.2395 67.8041C71.1625 67.8602 71.0434 67.8181 70.9594 67.7901C70.6021 67.7831 70.3219 67.72 70.0558 67.8812C70.42 67.9373 70.8823 67.8462 71.2185 67.9864L72.6125 68.2807C71.7789 69.7877 70.2379 71.9324 68.977 72.2478C68.1855 73.4954 66.3573 73.1519 65.4397 74.3084C64.5851 74.1332 64.1368 74.9673 63.5274 74.778C62.1054 75.4439 60.4243 75.6051 58.8483 75.3527C58.3649 75.2616 57.8956 75.4859 57.6365 74.9813C56.0674 75.0373 54.9537 74.2594 54.0781 73.0608C53.4617 72.7805 53.3216 71.9674 52.9433 71.5749C53.1955 71.9744 53.0834 72.2828 53.2235 72.7945C53.4757 72.9837 54.1902 72.9697 54.0921 73.3762C53.973 73.4884 53.98 73.5865 53.8539 73.5935C53.8749 74.3084 54.1341 74.806 54.4003 75.4088C54.8976 75.8994 55.395 76.3901 55.7802 76.9928C56.8659 77.1611 57.3773 78.0582 58.5821 77.918C60.3052 78.9764 62.8199 78.4857 64.9704 78.2054C65.6848 77.9741 66.5394 78.1563 67.1208 77.6166C68.1925 77.3783 69.0051 76.6354 70.2029 76.3901C70.5461 75.9695 71.2746 75.9415 71.4917 75.3247C72.6895 74.9813 73.0047 73.7407 74.2025 73.4954C75.0221 72.4721 76.2269 71.0212 77.0324 69.3601C77.2075 69.3111 77.3897 69.276 77.5998 69.283C77.859 69.5634 78.3773 69.5634 78.5384 69.9839C78.9727 69.9839 79.463 69.7176 79.9183 69.8928C80.7029 70.2152 81.5154 70.4886 82.328 70.6778C82.5171 71.0072 82.9304 70.7969 83.1195 71.1334C83.3997 71.1474 83.6168 71.3927 83.904 71.4558C84.2402 71.638 84.4994 71.9254 84.8356 72.0305C85.0177 72.3179 85.361 72.2057 85.4731 72.5422C85.7182 72.6052 85.9214 72.6753 86.1315 72.7875C86.5168 73.0608 86.7479 73.3902 87.1262 73.6145C87.4204 73.8108 87.4624 74.2453 87.8266 74.3435C88.0998 74.6659 88.5551 74.8481 88.7092 75.3177C88.8353 75.7943 88.2889 75.8924 88.1558 76.1658C87.8616 76.369 87.4204 76.327 87.1332 76.6144C86.902 77.0349 86.4607 76.9858 86.0544 76.9368C85.9424 77.4274 85.4941 77.2522 85.2489 77.5816C84.7796 77.6236 84.4574 77.9671 84.0301 78.0582C83.6028 78.1423 83.4977 77.4905 83.1195 77.6587C82.7692 77.7358 82.9794 78.2474 82.6362 78.3666C82.5661 78.4577 82.405 78.4297 82.356 78.3456C82.0268 78.1984 81.9777 78.5558 81.7466 78.6259C81.1021 78.8222 80.3596 78.9834 79.7292 78.9974C79.393 79.2497 79.0007 79.2848 78.6015 79.2357C78.4263 79.474 78.0481 79.2427 77.922 79.5651C77.7679 79.6632 77.5718 79.6422 77.4457 79.5231L77.2285 79.6773C76.8153 79.9366 76.1919 79.6422 75.9117 80.0207L76.2269 79.9927C76.7032 80.0417 77.1375 79.6002 77.5648 79.9085C77.873 79.8385 78.2162 80.0207 78.5945 79.9015C78.6715 79.9366 78.7205 80.0207 78.7205 80.0627C78.6995 80.1188 78.6645 80.1609 78.6295 80.1959C79.1128 80.1048 79.6031 80.0557 80.0514 80.287C80.1355 79.9226 80.5838 80.0627 80.7589 79.7824C81.1021 79.6632 81.4244 79.7193 81.7466 79.7754C81.8797 79.5441 82.1178 79.6072 82.3139 79.502C83.0845 79.2988 83.82 79.1376 84.5414 78.8923C85.1999 79.0955 85.5921 78.2194 86.2436 78.4647C86.6218 78.2474 87.0421 78.5208 87.4204 78.3105C87.5675 78.1633 87.5885 77.9881 87.6095 77.7638C87.6795 77.7148 87.7916 77.6587 87.9177 77.6867C88.0788 77.7148 88.0578 77.939 88.1068 78.0652C88.2749 78.0932 88.373 78.3456 88.5201 78.2054C88.6882 77.925 89.0244 77.7638 89.2556 77.6517C89.4867 77.5465 89.6478 77.5676 89.872 77.4624C90.0821 77.5325 90.2222 77.3433 90.3763 77.3293C90.7266 77.2942 91.0698 77.1751 91.413 77.0069C91.441 76.8316 91.6652 76.7125 91.5601 76.4672C91.6162 76.2008 91.8403 76.0887 92.0364 76.0186C92.2816 75.6471 92.7719 75.4228 92.6388 74.8621C92.6318 74.3365 92.3867 73.8248 92.1345 73.3692L92.1135 73.3202ZM83.4277 50.1276C83.1125 50.0015 82.6502 49.9103 82.2719 49.8683C82.6992 49.5459 83.3366 49.7982 83.4277 50.1276ZM67.8843 67.4046H67.492C67.3309 67.3275 67.0578 67.3976 66.8686 67.5027C67.0788 67.6149 67.3449 67.5027 67.5551 67.6149C67.8633 67.4957 68.1575 67.734 68.4237 67.6149C68.6758 67.678 68.879 67.7481 69.0821 67.7761L68.893 67.5308C68.5778 67.5588 68.2205 67.5027 67.8913 67.4046H67.8843ZM64.403 66.5495L64.1648 66.5285V66.6196C64.2489 66.5706 64.3399 66.6477 64.403 66.5495ZM53.5807 68.8204C53.98 68.477 54.6104 68.456 55.1568 68.4069C55.5631 68.0565 56.1795 68.3088 56.4387 67.7551C56.5928 67.6499 56.7959 67.72 56.999 67.7481C57.0971 67.5168 57.5244 67.8322 57.4824 67.4397C57.3493 67.2785 57.1671 67.0261 56.943 67.1383C56.7258 67.3275 56.4106 67.3626 56.1375 67.4327C55.7312 67.692 55.1918 67.3906 54.7365 67.6569C54.5054 67.7621 54.2252 67.699 54.0431 67.8532C53.5247 67.8602 53.3426 68.3648 53.1324 68.6943C53.0974 68.7854 53.1465 68.8695 53.2305 68.8555C53.3356 68.7153 53.4336 68.9256 53.5878 68.8204H53.5807ZM66.5464 67.4467C66.2732 67.1243 65.8109 67.6499 65.6848 67.0892C65.7058 66.907 65.8529 66.8019 65.965 66.7528C66.7145 66.7668 67.464 66.6967 68.1855 66.7598C68.5287 66.5916 68.8299 66.8719 69.2222 66.8369C69.3273 66.6967 69.5654 66.7177 69.7616 66.6967V66.6126C69.6705 66.5776 69.5514 66.5425 69.3903 66.5565C68.8299 66.4374 68.1715 66.6757 67.6111 66.5075C67.2329 66.7177 66.8406 66.3182 66.4203 66.4444C66.2592 66.4164 66.1752 66.3813 66.0631 66.4374C65.7409 66.3813 65.3626 66.5495 65.0404 66.5776C65.3906 66.9 64.7812 67.1733 64.8583 67.4817C65.3696 67.4817 65.979 67.6359 66.5534 67.4537L66.5464 67.4467ZM62.7499 67.5027C62.4977 67.3485 62.1615 67.4677 61.9303 67.5798C62.1265 67.5658 62.1825 67.7761 62.3856 67.8041C62.7639 67.5939 63.2892 67.7621 63.7095 67.5869C63.5834 67.4747 63.4363 67.2154 63.3873 67.0472C63.4083 66.8719 63.4714 66.7318 63.6185 66.6266V66.5355C63.3243 66.3883 62.967 66.4654 62.7569 66.7107C62.8479 66.8369 63.002 66.7318 63.1211 66.7598C63.2822 66.7878 63.2682 66.9701 63.3523 67.0472C63.1702 67.2434 63.0301 67.4677 62.7569 67.5027H62.7499ZM60.0671 67.5378C60.5574 67.7481 61.1038 67.6149 61.6431 67.5168C61.5311 67.5308 61.412 67.5378 61.2859 67.4677C61.0617 67.2224 60.7045 67.1663 60.7045 66.7738C60.4593 66.6617 60.2702 66.8159 60.1021 66.6547C59.99 66.7107 59.8219 66.5495 59.7939 66.6827C59.7028 66.5565 59.5557 66.7528 59.5137 66.6196C59.3946 66.6266 59.3246 66.7248 59.2125 66.7808C59.3316 66.8089 59.4577 66.886 59.5908 67.0051C59.7659 67.1663 59.5347 67.3205 59.5557 67.4957C59.6188 67.706 59.878 67.5518 60.0741 67.5378H60.0671ZM97.367 55.6577L96.7436 55.5315C96.8416 55.5736 96.9397 55.6366 97.0308 55.7207C97.1569 55.7908 97.2409 55.7207 97.367 55.6647V55.6577ZM95.0485 55.3002C95.2446 55.3563 95.3847 55.3773 95.6158 55.3913C95.4127 55.3282 95.2726 55.2932 95.0485 55.3002ZM97.1499 56.6599C96.7296 56.4707 96.1062 56.8632 95.3987 56.8281C95.3917 56.8632 95.3847 56.4777 95.1675 56.5268C94.6212 56.5268 94.1308 56.6109 93.6195 56.5128C93.3673 56.5478 93.1082 56.0922 92.877 56.0852C92.3516 56.0221 90.8316 56.0431 91.6302 56.2885C92.835 56.688 93.6755 56.723 94.7963 56.8562C95.6228 56.8632 96.4914 56.8141 97.36 56.8422C97.6052 56.8702 97.8223 56.9473 98.0394 57.0174C97.7593 56.8982 97.4651 56.7861 97.1499 56.6669V56.6599ZM52.0537 57.6202C52.1658 57.5921 52.3409 57.522 52.5931 57.3959C52.404 57.473 52.2218 57.5501 52.0537 57.6202Z" fill="white"/>
<path d="M123.417 51.4728C123.697 51.4728 123.957 51.5429 124.181 51.6761C124.391 51.8303 124.496 52.0055 124.496 52.2228C124.496 52.3419 124.468 52.4891 124.405 52.6503C123.999 53.6316 123.571 54.5147 123.109 55.2997H124.678C125.217 55.2997 125.484 55.5731 125.484 56.1127C125.484 56.7155 125.217 57.0169 124.678 57.0169H121.456V59.0144H124.944C125.484 59.0144 125.75 59.2808 125.75 59.8065C125.75 60.4092 125.484 60.7106 124.944 60.7106H121.456V60.9139L124.433 64.4744C124.594 64.7197 124.678 64.916 124.678 65.0631C124.678 65.729 124.349 66.0584 123.69 66.0584C123.403 66.0584 123.186 65.9323 123.018 65.6729L121.449 63.36V68.1401C121.449 68.7428 121.148 69.0442 120.552 69.0442C119.957 69.0442 119.656 68.7428 119.656 68.1401V63.7244C119.376 64.166 119.102 64.5585 118.85 64.9019C118.227 65.701 117.526 66.4369 116.77 67.1027C116.293 67.5723 115.943 67.8036 115.719 67.8036C115.061 67.8036 114.731 67.5023 114.731 66.8995C114.731 66.507 114.914 66.1776 115.271 65.9042C116.7 64.5865 117.771 63.4301 118.472 62.4138C118.857 61.8671 119.207 61.3064 119.523 60.7176H115.81C115.271 60.7176 115.005 60.4162 115.005 59.8135C115.005 59.2878 115.271 59.0215 115.81 59.0215H119.663V57.0239H116.174C115.635 57.0239 115.369 56.7225 115.369 56.1198C115.369 55.5731 115.635 55.3067 116.174 55.3067H121.302C121.316 55.1736 121.337 55.0754 121.372 55.0123C121.834 54.2133 122.311 53.183 122.801 51.9284C122.892 51.627 123.102 51.4728 123.424 51.4728H123.417ZM120.461 47.667C121.12 47.667 121.449 47.9684 121.449 48.5711V49.5033H125.028C125.568 49.5033 125.834 49.7767 125.834 50.3164C125.834 50.9191 125.568 51.2205 125.028 51.2205H115.81C115.271 51.2205 115.005 50.9191 115.005 50.3164C115.005 49.7697 115.271 49.5033 115.81 49.5033H119.572V48.5711C119.572 47.9684 119.873 47.667 120.468 47.667H120.461ZM117.421 51.4728C117.631 51.4728 117.842 51.5359 118.045 51.6551C118.43 52.2438 118.794 52.9097 119.116 53.6526C119.172 53.8208 119.207 53.975 119.207 54.1292C119.207 54.6549 118.92 54.9212 118.332 54.9212C118.171 54.9212 118.01 54.8582 117.863 54.739C117.491 54.0872 117.099 53.4564 116.7 52.8326C116.581 52.6223 116.518 52.4751 116.518 52.405C116.518 51.7882 116.819 51.4728 117.414 51.4728H117.421ZM134.786 48.5711C135.353 48.5992 135.647 48.8795 135.682 49.4122C135.668 49.8328 135.43 50.0711 134.968 50.1131C133.938 50.4776 132.061 50.6598 129.329 50.6598C128.972 50.6598 128.79 50.9612 128.79 51.564V54.4657H135.416C135.956 54.4657 136.222 54.746 136.222 55.3067C136.222 55.9095 135.956 56.2109 135.416 56.2109H133.714V68.1541C133.714 68.7569 133.385 69.0582 132.726 69.0582C132.131 69.0582 131.83 68.7569 131.83 68.1541V56.2109H128.783V57.3673C128.783 60.0728 128.489 62.3717 127.907 64.2781C127.368 65.9252 126.794 67.1238 126.184 67.8807C125.946 68.1681 125.645 68.3153 125.287 68.3363C124.664 68.3083 124.335 68.0069 124.3 67.4322C124.3 67.3551 124.391 67.1588 124.566 66.8434C125.28 65.8762 125.82 64.7127 126.177 63.353C126.716 61.6428 126.983 59.6523 126.983 57.3673V50.6598C126.983 49.6926 127.459 49.209 128.412 49.209C131.276 49.209 133.392 48.9987 134.772 48.5782L134.786 48.5711Z" fill="#E60012"/>
<path d="M145.125 47.8496C145.783 47.8496 146.112 48.151 146.112 48.7538V68.1475C146.112 68.7502 145.783 69.0516 145.125 69.0516C144.529 69.0516 144.228 68.7502 144.228 68.1475V65.449C143.514 65.8135 142.715 66.1429 141.832 66.4443C141.055 66.7317 140.046 67.033 138.813 67.3484C138.631 67.3905 138.498 67.4185 138.407 67.4185C137.693 67.4185 137.335 67.0541 137.335 66.3321C137.335 65.8485 137.546 65.5191 137.959 65.3369C139.633 64.9724 140.649 64.7341 141.027 64.615C141.874 64.3907 142.764 64.0542 143.689 63.6197C143.927 63.5005 144.109 63.4375 144.228 63.4375V54.5572H138.589C137.994 54.5572 137.693 54.2277 137.693 53.5619C137.693 52.9591 137.994 52.6577 138.589 52.6577H144.228V48.7608C144.228 48.158 144.529 47.8566 145.125 47.8566V47.8496ZM157.124 50.6602C157.852 50.6602 158.223 51.0247 158.223 51.7466C158.223 52.062 158.069 52.3634 157.754 52.6507C156.843 53.6039 155.8 54.473 154.623 55.258C153.789 55.8188 152.704 56.4215 151.38 57.0734C151.233 57.1364 151.121 57.1715 151.044 57.1855V65.1617C151.044 65.6453 151.191 65.9747 151.492 66.1569C151.835 66.3392 152.613 66.4303 153.817 66.4303C155.204 66.4303 156.024 66.3251 156.283 66.1149C156.612 65.8766 156.773 65.5542 156.773 65.1617V63.0099C156.801 62.316 157.103 61.9516 157.67 61.9235C158.293 61.9516 158.623 62.3721 158.658 63.1711C158.658 65.3159 158.539 66.5705 158.3 66.9349C158.153 67.3695 157.775 67.7199 157.18 67.9792C156.64 68.2175 155.527 68.3437 153.824 68.3437C151.856 68.3437 150.581 68.1334 150 67.7059C149.447 67.3134 149.173 66.5845 149.173 65.5331V48.7678C149.173 48.165 149.475 47.8636 150.07 47.8636C150.728 47.8636 151.058 48.165 151.058 48.7678V55.1599C152.536 54.3259 153.446 53.7792 153.789 53.5058C154.7 52.868 155.639 51.9849 156.612 50.8564C156.836 50.7373 157.019 50.6742 157.152 50.6742L157.124 50.6602Z" fill="#E60012"/>
<path d="M170.86 47.5059C171.519 47.5059 171.848 47.8353 171.848 48.5011V50.1132H180.625C181.22 50.1132 181.521 50.4146 181.521 51.0173C181.521 51.6201 181.22 51.9215 180.625 51.9215H161.285C160.689 51.9215 160.388 51.6201 160.388 51.0173C160.388 50.4146 160.689 50.1132 161.285 50.1132H169.88V48.5011C169.88 47.8353 170.209 47.5059 170.867 47.5059H170.86ZM163.519 55.2087H169.964V53.3022C169.964 52.6995 170.265 52.3981 170.86 52.3981C171.519 52.3981 171.848 52.6995 171.848 53.3022V55.2087H178.649C179.903 55.2087 180.527 55.8114 180.527 57.024V65.6099C180.527 67.1168 179.602 67.8738 177.753 67.8738C176.828 67.8738 175.721 67.6285 174.44 67.1519C174.019 66.9977 173.809 66.7313 173.809 66.3388C173.809 65.6169 174.047 65.2525 174.524 65.2525C174.734 65.2525 174.979 65.3085 175.259 65.4137C176.247 65.7921 177.01 65.9814 177.564 65.9814C178.278 65.9814 178.635 65.6239 178.635 64.916V57.823C178.635 57.2202 178.334 56.9188 177.739 56.9188H171.827V68.4275C171.827 69.0303 171.498 69.3317 170.839 69.3317C170.244 69.3317 169.943 69.0303 169.943 68.4275V56.9188H164.213C163.673 56.9188 163.407 57.2202 163.407 57.823V67.1589C163.407 67.7617 163.078 68.063 162.42 68.063C161.824 68.063 161.523 67.7617 161.523 67.1589V57.031C161.523 55.8255 162.181 55.2157 163.491 55.2157L163.519 55.2087Z" fill="#E60012"/>
<path d="M192.385 49.4122C192.981 49.4122 193.282 49.7136 193.282 50.3164C193.282 50.9191 192.981 51.2205 192.385 51.2205H189.338V55.7273H191.58C192.119 55.7273 192.385 56.0006 192.385 56.5403C192.385 57.1431 192.119 57.4444 191.58 57.4444H189.338V64.4884C190.067 64.159 190.907 63.7385 191.846 63.2408L192.203 63.1497C192.799 63.1497 193.1 63.4791 193.1 64.145C193.1 64.3693 192.918 64.6216 192.56 64.8949C191.713 65.4697 190.564 66.0654 189.114 66.6822C187.335 67.4532 185.668 68.0419 184.099 68.4485C183.861 68.5536 183.637 68.6097 183.426 68.6097C182.831 68.6097 182.53 68.2662 182.53 67.5864C182.53 67.0887 182.768 66.7523 183.244 66.5911C183.44 66.549 183.616 66.5 183.784 66.4579V55.6291C183.784 55.0264 184.085 54.725 184.68 54.725C185.276 54.725 185.577 55.0264 185.577 55.6291V65.9603C186.263 65.736 186.866 65.5187 187.391 65.3225C187.447 65.3085 187.503 65.2874 187.545 65.2524V51.2065H183.693C183.097 51.2065 182.796 50.9051 182.796 50.3023C182.796 49.6996 183.097 49.3982 183.693 49.3982H192.378L192.385 49.4122ZM195.608 47.667C196.266 47.667 196.595 47.9684 196.595 48.5711C196.553 49.3141 196.497 50.008 196.441 50.6528H203.313C203.908 50.6528 204.209 50.9542 204.209 51.5569C204.209 52.1597 203.908 52.4611 203.313 52.4611H202.416C202.416 53.4003 202.29 54.6409 202.038 56.1969C201.772 57.907 201.337 59.5401 200.742 61.1171C200.385 61.8741 200.006 62.575 199.6 63.2268C199.971 63.6824 200.385 64.1099 200.833 64.5165C201.519 65.1473 202.703 65.9953 204.391 67.0537C204.63 67.2079 204.749 67.4252 204.749 67.7125C204.749 68.4835 204.37 68.869 203.607 68.869C203.439 68.869 203.229 68.8059 202.955 68.6868C201.421 67.6775 200.21 66.7243 199.327 65.8341C198.998 65.4837 198.69 65.1543 198.409 64.8389C198.185 65.1122 197.94 65.3645 197.674 65.6098C196.315 66.8925 194.774 67.9508 193.044 68.7849C192.764 68.904 192.546 68.9671 192.392 68.9671C191.678 68.9671 191.321 68.6377 191.321 67.9719C191.321 67.6214 191.468 67.3831 191.769 67.2499C193.723 66.2406 195.278 65.1473 196.427 63.9838C196.707 63.6964 196.98 63.402 197.233 63.1006C197.156 62.9535 197.086 62.7993 197.008 62.6451C196.294 61.2573 195.769 59.7294 195.439 58.0682C195.32 57.6127 195.222 57.1361 195.152 56.6384C194.795 57.5566 194.354 58.4397 193.828 59.2668C193.527 59.5681 193.233 59.7223 192.932 59.7223C192.336 59.7223 192.035 59.421 192.035 58.8182C192.035 58.7271 192.07 58.5799 192.147 58.3626C193.03 56.9118 193.66 55.4119 194.052 53.8559C194.382 52.419 194.606 50.6598 194.725 48.5782C194.725 47.9754 195.026 47.674 195.622 47.674L195.608 47.667ZM196.28 52.4681C196.385 54.2624 196.595 55.8044 196.903 57.094C197.233 58.5729 197.716 59.9677 198.36 61.2643C198.374 61.2783 198.381 61.2994 198.381 61.3344C198.634 60.8648 198.872 60.3812 199.096 59.8836C199.824 58.1033 200.294 55.6291 200.504 52.4751H196.273L196.28 52.4681Z" fill="#E60012"/>
<path d="M216.776 47.5059C217.434 47.5059 217.763 47.8353 217.763 48.5011V49.3142H225.552C226.148 49.3142 226.449 49.6085 226.449 50.1973C226.449 50.786 226.148 51.1014 225.552 51.1014H209.168C208.692 51.1014 208.454 51.3468 208.454 51.8234V58.4398C208.454 60.935 208.335 63.1077 208.097 64.9651C207.901 66.2758 207.662 67.4252 207.382 68.4065C207.186 68.827 206.892 69.0443 206.486 69.0443C205.862 69.0163 205.533 68.7149 205.498 68.1401C205.869 66.451 206.156 64.9441 206.346 63.6334C206.556 62.0774 206.661 60.3462 206.661 58.4468V51.0173C206.661 49.8819 207.228 49.3212 208.363 49.3212H215.795V48.5081C215.795 47.8423 216.124 47.5129 216.783 47.5129L216.776 47.5059ZM213.462 51.8374C214.058 51.8374 214.359 52.0757 214.359 52.5593C214.359 52.6784 214.331 52.8326 214.268 53.0149C213.953 54.2975 213.595 55.468 213.196 56.5263V68.3294C213.196 68.8761 212.895 69.1424 212.3 69.1424C211.76 69.1424 211.494 68.8691 211.494 68.3294V60.0378C211.165 60.5845 210.808 61.1102 210.422 61.6218C210.184 61.8181 209.946 61.9162 209.708 61.9162C209.112 61.9162 208.811 61.6429 208.811 61.1032C208.811 60.984 208.867 60.7948 208.993 60.5355C209.785 59.4911 210.478 58.3276 211.074 57.045C211.718 55.6713 212.244 54.0943 212.664 52.307C212.741 51.9916 213.007 51.8304 213.469 51.8304L213.462 51.8374ZM226.001 54.3045C226.596 54.3045 226.897 54.6059 226.897 55.2087C226.897 55.8114 226.596 56.1128 226.001 56.1128H223.941V66.8084C223.941 68.3013 222.898 69.0513 220.81 69.0513C220.005 69.0513 218.933 68.778 217.588 68.2383C217.112 68.0841 216.874 67.7827 216.874 67.3341C216.902 66.7594 217.182 66.458 217.7 66.43C217.805 66.43 217.966 66.458 218.191 66.5211C219.521 67.0047 220.39 67.243 220.81 67.243C221.707 67.243 222.155 66.9416 222.155 66.3388V56.1198H215.263C214.667 56.1198 214.366 55.8184 214.366 55.2157C214.366 54.6129 214.667 54.3115 215.263 54.3115H222.155V53.0219C222.155 52.4191 222.456 52.1177 223.052 52.1177C223.647 52.1177 223.948 52.4191 223.948 53.0219V54.3115H226.008L226.001 54.3045ZM215.97 57.7249C216.222 57.7249 216.46 57.851 216.685 58.1104C217.651 59.4701 218.464 61.0051 219.101 62.7082C219.157 63.0096 219.192 63.283 219.192 63.5213C219.192 64.0049 218.835 64.2432 218.12 64.2432C217.791 64.2432 217.553 64.0329 217.406 63.6054C216.706 61.6288 215.956 60.0588 215.165 58.8954C215.108 58.6711 215.073 58.4888 215.073 58.3487C215.073 57.9281 215.375 57.7179 215.97 57.7179V57.7249Z" fill="#E60012"/>
</g>
<defs>
<linearGradient id="paint0_linear_79_30834" x1="76.9063" y1="86.9949" x2="76.9063" y2="34.3998" gradientUnits="userSpaceOnUse">
<stop stop-color="#7ECEF4"/>
<stop offset="1" stop-color="#0068B7"/>
</linearGradient>
<linearGradient id="paint1_linear_79_30834" x1="84.058" y1="87.0997" x2="84.058" y2="40.0067" gradientUnits="userSpaceOnUse">
<stop stop-color="#7ECEF4"/>
<stop offset="1" stop-color="#0068B7"/>
</linearGradient>
<clipPath id="clip0_79_30834">
<rect width="296.291" height="60.2768" fill="white" transform="translate(45.8545 29.6475)"/>
</clipPath>
</defs>
</svg>
