<svg width="54" height="50" viewBox="0 0 54 50" fill="none" xmlns="http://www.w3.org/2000/svg">
<path d="M26.7877 7.03125C23.8075 7.03125 20.8943 7.856 18.4164 9.40121C15.9385 10.9464 14.0072 13.1427 12.8667 15.7123C11.7263 18.2818 11.4279 21.1093 12.0093 23.8372C12.5907 26.5651 14.0257 29.0708 16.133 31.0374C18.2403 33.0041 20.9252 34.3434 23.8481 34.886C26.771 35.4286 29.8006 35.1502 32.554 34.0858C35.3073 33.0215 37.6606 31.219 39.3162 28.9065C40.9719 26.5939 41.8557 23.875 41.8557 21.0938C41.851 17.3655 40.262 13.7911 37.4372 11.1549C34.6124 8.51857 30.7825 7.03559 26.7877 7.03125ZM35.9959 17.0539C35.9959 17.6399 35.7466 18.2019 35.3028 18.6164L26.2971 27.0203C25.5389 27.7276 24.5108 28.1249 23.4388 28.1249C22.3668 28.1249 21.3387 27.7276 20.5805 27.0203L18.2726 24.8664C17.8288 24.4519 17.5795 23.8899 17.5795 23.3039C17.5794 22.8669 17.7182 22.4396 17.9783 22.0762C18.2384 21.7128 18.6082 21.4295 19.0408 21.2623C19.4735 21.095 19.9495 21.0512 20.4088 21.1365C20.8681 21.2218 21.29 21.4323 21.6211 21.7414L23.4393 23.4375L31.9543 15.4914C32.1742 15.2863 32.4352 15.1235 32.7225 15.0126C33.0098 14.9016 33.3176 14.8445 33.6285 14.8445C34.2564 14.8445 34.8586 15.0773 35.3025 15.4916C35.7465 15.906 35.9959 16.4679 35.9959 17.0539Z" fill="#5D4F3F"/>
<path d="M26.7876 2.34375C21.7107 2.34635 16.8231 4.1427 13.1075 7.37159C9.39201 10.6005 7.12409 15.0225 6.75982 19.7484C6.39555 24.4744 7.96194 29.1538 11.144 32.8458C14.3261 36.5377 18.8879 38.9685 23.9122 39.6492C24.0384 39.666 24.1589 39.7096 24.2643 39.7764C24.3698 39.8433 24.4575 39.9318 24.5207 40.0352L26.7876 43.7375L29.0545 40.0352C29.1178 39.9318 29.2055 39.8433 29.3109 39.7764C29.4164 39.7096 29.5369 39.666 29.6631 39.6492C34.6874 38.9685 39.2492 36.5377 42.4312 32.8458C45.6133 29.1538 47.1797 24.4744 46.8155 19.7484C46.4512 15.0225 44.1833 10.6005 40.4677 7.37159C36.7522 4.1427 31.8646 2.34635 26.7876 2.34375ZM26.7876 36.7187C23.4763 36.7187 20.2394 35.8024 17.4862 34.0855C14.7329 32.3686 12.5871 29.9283 11.3199 27.0732C10.0527 24.2181 9.72115 21.0764 10.3672 18.0455C11.0132 15.0145 12.6077 12.2304 14.9491 10.0452C17.2906 7.86001 20.2737 6.37187 23.5214 5.76898C26.7691 5.16609 30.1354 5.47551 33.1946 6.65813C36.2538 7.84075 38.8686 9.84345 40.7083 12.413C42.5479 14.9825 43.5298 18.0034 43.5298 21.0937C43.5247 25.2363 41.7592 29.2078 38.6205 32.137C35.4819 35.0663 31.2264 36.714 26.7876 36.7187Z" fill="#5D4F3F"/>
<path d="M17.5791 47.6562H35.9955V49.2188H17.5791V47.6562Z" fill="#5D4F3F"/>
</svg>
