<svg width="22" height="22" viewBox="0 0 22 22" fill="none" xmlns="http://www.w3.org/2000/svg">
<path d="M4.38444 3.1561C4.52798 3.23721 4.56096 3.39556 4.62497 3.53944C4.7045 3.70744 4.80634 3.87353 4.89556 4.03862C5.09438 4.41422 5.29322 4.79274 5.49399 5.16833C5.88872 5.91278 6.28348 6.65626 6.67628 7.40071C6.73544 7.51175 6.79558 7.62569 6.80528 7.74929C6.83534 8.08338 6.2893 8.46091 6.03324 8.61733C5.38728 9.01515 4.76171 9.30964 4.31749 9.95947C4.24766 10.0609 4.18365 10.17 4.15843 10.2906C4.09636 10.5871 4.38442 10.9955 4.51148 11.2523C4.6783 11.5932 4.85869 11.9292 5.05074 12.2585C5.43773 12.9189 5.87224 13.5485 6.35718 14.1423C7.62387 15.6968 9.22992 16.9926 11.0894 17.7756C11.2184 17.8297 12.0127 16.9868 12.1301 16.8516C12.4278 16.5059 12.6839 16.1293 13.0136 15.8136C13.4656 15.3839 13.8351 15.2053 14.387 15.5886C15.4868 16.3495 16.609 17.0766 17.7536 17.7708C19.3277 18.7248 17.0436 21.1444 16.0252 21.5799C13.7829 22.5368 11.1264 21.7083 9.10808 20.6009C5.02864 18.3665 1.87087 14.5179 0.482915 10.0925C0.153159 9.042 -0.0805834 7.94222 0.0261077 6.84725C0.18711 5.23283 1.26466 3.83184 2.81939 3.3172C3.23451 3.18106 3.67386 3.10671 4.11031 3.10478C4.19469 3.10478 4.27907 3.10478 4.35569 3.14147C4.36539 3.1463 4.378 3.15112 4.3877 3.15595L4.38444 3.1561Z" fill="#FF7400"/>
<path d="M21.0473 6.53735C20.5109 5.34391 19.7709 4.26055 18.8495 3.32098C17.9281 2.38148 16.8603 1.61773 15.6761 1.0519C14.4569 0.468689 13.1505 0.115289 11.7975 0.00425322C11.5124 -0.0208509 11.2389 0.0660494 11.0498 0.241783C10.9033 0.37503 10.8209 0.550764 10.8209 0.73326C10.8209 1.14072 11.1933 1.49219 11.6676 1.53179C16.4045 1.92961 20.1909 5.79078 20.4626 10.5175C20.4897 10.9896 20.835 11.3681 21.2424 11.3797H21.2947C21.4587 11.37 21.6148 11.2957 21.7419 11.1673C21.9232 10.9819 22.0154 10.7125 21.9979 10.4286C21.9184 9.07877 21.5983 7.77138 21.0445 6.54312L21.0473 6.53735Z" fill="#FF7400"/>
<path d="M16.3121 5.78319C15.5799 5.03392 14.7331 4.42656 13.7924 3.97179C12.8245 3.50446 11.7887 3.21575 10.7159 3.11631C10.4501 3.09121 10.1941 3.16845 10.0185 3.32874C9.88467 3.44943 9.8129 3.60585 9.8129 3.77097V3.91195C9.8129 4.09733 9.89728 4.27501 10.0486 4.41403C10.1902 4.54052 10.3735 4.62162 10.5723 4.639C14.2297 4.97985 17.0706 7.87762 17.3112 11.5253C17.3306 11.7233 17.4034 11.9106 17.5275 12.0544C17.6613 12.208 17.8379 12.2968 18.0241 12.3016H18.2152C18.3616 12.292 18.5032 12.2254 18.6177 12.1085C18.7845 11.9357 18.8689 11.6856 18.8514 11.4191C18.7796 10.3464 18.5158 9.31031 18.0716 8.33423C17.64 7.38798 17.0484 6.52766 16.319 5.77834L16.3121 5.78319Z" fill="#FF7400"/>
<path d="M14.7983 10.0723C14.5054 9.44956 14.1126 8.88373 13.6286 8.38936C13.1446 7.89499 12.586 7.48946 11.9672 7.18337C11.3319 6.86668 10.651 6.6668 9.944 6.58471C9.70541 6.55767 9.47264 6.6243 9.31553 6.76238C9.20399 6.86376 9.14191 6.99218 9.14191 7.12833L9.13706 7.4914C9.13706 7.64975 9.20884 7.80038 9.33589 7.91431C9.45034 8.01859 9.60357 8.08714 9.76556 8.10742C11.9187 8.3546 13.6191 10.0926 13.81 12.2401C13.8245 12.4033 13.8895 12.5568 13.9914 12.6727C14.1029 12.8011 14.2523 12.8754 14.4084 12.8803L14.7779 12.8851H14.8177C14.9389 12.8774 15.0563 12.8204 15.1475 12.7219C15.291 12.5713 15.3638 12.3386 15.3414 12.1011C15.2794 11.3962 15.0932 10.7116 14.7954 10.0715L14.7983 10.0723Z" fill="#FF7400"/>
</svg>
