<svg width="231" height="95" viewBox="0 0 231 95" fill="none" xmlns="http://www.w3.org/2000/svg">
<g clip-path="url(#clip0_79_30370)">
<path d="M136.677 41.8582H117.902L136.677 23V41.8582Z" fill="#8DCFAE"/>
<path d="M135.433 45.6484H124.417V69.9313H135.433V45.6484Z" fill="#76C58C"/>
<path d="M168.002 23.6191H140.778V49.7956H153.452V36.3496H168.002V23.6191Z" fill="#4CC0AD"/>
<path d="M166.568 41.2021C173.811 48.4767 173.811 60.2697 166.568 67.5443C159.326 74.8188 147.585 74.8188 140.342 67.5443L166.568 41.2021Z" fill="#0CACBD"/>
<path d="M78.8248 26.4497L75.2689 24.9248L73.5112 29.0589H63.1577V34.7461C63.1577 40.3926 62.0968 45.911 60 51.1513L64.6945 53.0449C67.0309 47.2015 68.2162 41.0457 68.2162 34.7461V34.1399H71.3521L70.1295 37.0209V52.1012H73.9965V37.8177L75.5582 34.143H80.9901V37.2709H76.7498V42.3518H80.9901V49.0764H78.1622V53.5605H85.4513V42.3518H87.1655V37.2709H85.4513V34.143H87.1655V29.062H77.7142L78.8217 26.4528L78.8248 26.4497Z" fill="#404041"/>
<path d="M77.3427 43.0052L74.8164 45.7148L77.4188 48.1626L79.945 45.4529L77.3427 43.0052Z" fill="#404041"/>
<path d="M108.361 29.0594H104.086V26.0596H99.0276V40.4555H94.3642V35.5746H96.6943V30.4937H89.3057V46.8583H94.3642V44.3397H99.0276V53.3547H104.086V44.3397H109.344V46.8583H114.402V35.1278C114.402 31.7811 111.693 29.0594 108.361 29.0594ZM104.086 40.4555V34.1403H108.361C108.902 34.1403 109.344 34.584 109.344 35.1278V40.4555H104.086Z" fill="#404041"/>
<path d="M62.9897 67.9666V65.0293H65.071V65.5136H63.5217V66.198H64.8875V66.6792H63.5217V67.4823H65.071V67.9666H62.9897Z" fill="#404041"/>
<path d="M66.5952 66.8728L67.3294 67.9665H66.7477L66.2686 67.2446L65.7988 67.9665H65.2326L65.9824 66.8697L65.2295 65.8135H65.8237L66.3028 66.5103L66.7694 65.8135H67.3357L66.5983 66.8728H66.5952Z" fill="#404041"/>
<path d="M68.9628 67.966V66.638C68.9628 66.388 68.8819 66.2349 68.6081 66.2349C68.3001 66.2349 68.1663 66.5661 68.1663 66.8317V67.966H67.6499V64.9756H68.1663V66.0411C68.2908 65.8599 68.5303 65.7599 68.7512 65.7599C69.2085 65.7599 69.4761 66.088 69.4761 66.5286V67.966H68.9596H68.9628Z" fill="#404041"/>
<path d="M70.0645 65.5168V64.9824H70.6182V65.5168H70.0645ZM70.0831 67.9666V65.8136H70.6058V67.9666H70.0831Z" fill="#404041"/>
<path d="M72.8361 67.8346C72.7054 67.9408 72.5312 68.0158 72.3165 68.0158C72.0801 68.0158 71.8436 67.9283 71.713 67.7315L71.6788 67.969H71.2339V64.9785H71.7503V65.9722C71.8499 65.8535 72.0552 65.7597 72.3103 65.7597C72.5281 65.7597 72.7023 65.8253 72.833 65.9347C73.0881 66.1472 73.2156 66.4722 73.2156 66.8971C73.2156 67.3221 73.0881 67.6252 72.833 67.8377L72.8361 67.8346ZM72.5592 66.3628C72.4845 66.2691 72.3725 66.1941 72.2139 66.1941C71.8094 66.1941 71.7285 66.5753 71.7285 66.8846C71.7285 67.0971 71.7659 67.3377 71.9152 67.4721C71.9868 67.5377 72.0832 67.5784 72.217 67.5784C72.3787 67.5784 72.4876 67.5034 72.5623 67.4096C72.6681 67.269 72.6992 67.069 72.6992 66.8846C72.6992 66.7003 72.6712 66.5034 72.5623 66.3628H72.5592Z" fill="#404041"/>
<path d="M73.6919 65.5168V64.9824H74.2457V65.5168H73.6919ZM73.7075 67.9666V65.8136H74.2301V67.9666H73.7075Z" fill="#404041"/>
<path d="M75.6328 67.9979C75.2004 67.9979 74.9857 67.751 74.9857 67.3354V66.2417H74.5938V65.8136H74.9857V65.2668L75.5022 65.1387V65.8136H76.0435V66.2417H75.5022V67.2885C75.5022 67.4541 75.5768 67.526 75.7417 67.526C75.8475 67.526 75.9346 67.5229 76.0746 67.5041V67.9385C75.9315 67.976 75.7853 67.9979 75.6328 67.9979Z" fill="#404041"/>
<path d="M76.4883 65.5168V64.9824H77.042V65.5168H76.4883ZM76.5038 67.9666V65.8136H77.0265V67.9666H76.5038Z" fill="#404041"/>
<path d="M79.2637 67.6854C79.1144 67.8667 78.8375 68.0198 78.514 68.0198C78.1904 68.0198 77.9135 67.8667 77.7642 67.6854C77.6024 67.4823 77.5122 67.2542 77.5122 66.8917C77.5122 66.5292 77.6024 66.3011 77.7642 66.098C77.9135 65.9168 78.1873 65.7637 78.514 65.7637C78.8406 65.7637 79.1175 65.9168 79.2637 66.098C79.4255 66.3011 79.5157 66.5292 79.5157 66.8917C79.5157 67.2542 79.4255 67.4854 79.2637 67.6854ZM78.8375 66.348C78.7659 66.273 78.6508 66.2105 78.5108 66.2105C78.3708 66.2105 78.2557 66.273 78.1842 66.348C78.0597 66.4855 78.0317 66.6886 78.0317 66.8917C78.0317 67.0948 78.0597 67.2979 78.1842 67.4354C78.2557 67.5104 78.3708 67.5729 78.5108 67.5729C78.6508 67.5729 78.7659 67.5104 78.8375 67.4354C78.9619 67.2979 78.9899 67.0948 78.9899 66.8917C78.9899 66.6886 78.9619 66.4855 78.8375 66.348Z" fill="#404041"/>
<path d="M81.3046 67.9661V66.6443C81.3046 66.3912 81.2206 66.2381 80.9499 66.2381C80.7695 66.2381 80.6481 66.3537 80.5797 66.5099C80.505 66.6787 80.5081 66.9036 80.5081 67.0849V67.9629H79.9917V65.81H80.4241L80.4615 66.0881C80.589 65.86 80.8441 65.7568 81.093 65.7568C81.5503 65.7568 81.8179 66.0787 81.8179 66.5255V67.9629H81.3014L81.3046 67.9661Z" fill="#404041"/>
<path d="M85.1309 67.6725C84.9132 67.8975 84.6083 68.0193 84.2941 68.0193C83.9798 68.0193 83.6874 67.9162 83.4665 67.6912C83.1492 67.3725 83.1025 66.9788 83.1025 66.4976C83.1025 66.0163 83.1492 65.6226 83.4665 65.3039C83.6905 65.0789 83.983 64.9727 84.2941 64.9727C84.6052 64.9727 84.9132 65.0883 85.1309 65.3133C85.2989 65.4882 85.386 65.7195 85.4109 65.9507H84.8665C84.854 65.8226 84.8074 65.732 84.7358 65.6414C84.6425 65.5195 84.4776 65.4601 84.2941 65.4601C84.1261 65.4601 83.9612 65.5289 83.8461 65.6539C83.6439 65.8663 83.6439 66.2288 83.6439 66.4976C83.6439 66.7663 83.6439 67.1319 83.8461 67.3413C83.9612 67.4662 84.1261 67.535 84.2941 67.535C84.4745 67.535 84.6394 67.4694 84.7358 67.3475C84.8105 67.2569 84.854 67.1538 84.8665 67.0257H85.4109C85.386 67.2569 85.2989 67.4944 85.1309 67.6662V67.6725Z" fill="#404041"/>
<path d="M87.6414 67.0505H86.2072C86.2041 67.2161 86.2601 67.3724 86.3628 67.4724C86.4374 67.5411 86.5401 67.6036 86.6801 67.6036C86.8294 67.6036 86.9196 67.5755 86.9943 67.5005C87.041 67.4536 87.0783 67.3974 87.097 67.3192H87.5916C87.5792 67.4474 87.4921 67.6161 87.4112 67.7161C87.2308 67.9317 86.9632 68.0192 86.6894 68.0192C86.397 68.0192 86.1823 67.9161 86.0143 67.7536C85.7997 67.5473 85.6846 67.2442 85.6846 66.8911C85.6846 66.538 85.7872 66.2412 85.9926 66.0287C86.1543 65.8631 86.3846 65.7568 86.677 65.7568C86.9943 65.7568 87.2836 65.885 87.461 66.1537C87.6165 66.3912 87.6539 66.6349 87.6476 66.9036C87.6476 66.9036 87.6445 67.0036 87.6445 67.0474L87.6414 67.0505ZM87.0005 66.2974C86.9321 66.2224 86.8232 66.1724 86.6739 66.1724C86.5183 66.1724 86.3908 66.2381 86.3161 66.338C86.2414 66.4349 86.2103 66.5318 86.2041 66.6724H87.1312C87.1281 66.5099 87.0814 66.388 87.0005 66.2943V66.2974Z" fill="#404041"/>
<path d="M89.4242 67.9661V66.6443C89.4242 66.3912 89.3402 66.2381 89.0695 66.2381C88.8891 66.2381 88.7678 66.3537 88.6993 66.5099C88.6246 66.6787 88.6278 66.9036 88.6278 67.0849V67.9629H88.1113V65.81H88.5438L88.5811 66.0881C88.7086 65.86 88.9637 65.7568 89.2126 65.7568C89.67 65.7568 89.9375 66.0787 89.9375 66.5255V67.9629H89.4211L89.4242 67.9661Z" fill="#404041"/>
<path d="M91.3062 67.9979C90.8737 67.9979 90.6591 67.751 90.6591 67.3354V66.2417H90.2671V65.8136H90.6591V65.2668L91.1755 65.1387V65.8136H91.7168V66.2417H91.1755V67.2885C91.1755 67.4541 91.2502 67.526 91.4151 67.526C91.5208 67.526 91.6079 67.5229 91.7479 67.5041V67.9385C91.6048 67.976 91.4586 67.9979 91.3062 67.9979Z" fill="#404041"/>
<path d="M93.9354 67.0505H92.5012C92.4981 67.2161 92.5541 67.3724 92.6567 67.4724C92.7314 67.5411 92.834 67.6036 92.974 67.6036C93.1234 67.6036 93.2136 67.5755 93.2883 67.5005C93.3349 67.4536 93.3691 67.3974 93.3909 67.3192H93.8856C93.8731 67.4474 93.786 67.6161 93.7051 67.7161C93.5247 67.9317 93.2571 68.0192 92.9834 68.0192C92.6909 68.0192 92.4763 67.9161 92.3083 67.7536C92.0936 67.5473 91.9785 67.2442 91.9785 66.8911C91.9785 66.538 92.0812 66.2412 92.2865 66.0287C92.4483 65.8631 92.6785 65.7568 92.9709 65.7568C93.2883 65.7568 93.5776 65.885 93.7549 66.1537C93.9105 66.3912 93.9478 66.6349 93.9416 66.9036C93.9416 66.9036 93.9385 67.0036 93.9385 67.0474L93.9354 67.0505ZM93.2945 66.2974C93.2229 66.2224 93.1172 66.1724 92.9678 66.1724C92.8123 66.1724 92.6847 66.2381 92.6101 66.338C92.5354 66.4349 92.5043 66.5318 92.4981 66.6724H93.4251C93.422 66.5099 93.3754 66.388 93.2945 66.2943V66.2974Z" fill="#404041"/>
<path d="M95.4781 66.2728C95.1141 66.2728 94.9243 66.5322 94.9243 66.8822V67.9665H94.4048V65.8135H94.8434L94.8901 66.1353C94.9897 65.8853 95.2448 65.7822 95.4968 65.7822C95.5496 65.7822 95.6025 65.7853 95.6585 65.7947V66.2916C95.5994 66.2791 95.5403 66.2697 95.4812 66.2697L95.4781 66.2728Z" fill="#404041"/>
<path d="M98.8192 67.9725L98.6139 67.7412C98.3775 67.9475 98.085 68.0475 97.7864 68.0475C97.2668 68.0475 96.8188 67.7069 96.8188 67.1569C96.8188 66.7913 97.0304 66.5413 97.3384 66.3507C97.1517 66.1476 97.0242 65.9851 97.0242 65.7132C97.0242 65.2508 97.3819 64.9727 97.8237 64.9727C98.2655 64.9727 98.6326 65.2383 98.6326 65.6976C98.6326 66.0788 98.4024 66.2976 98.0788 66.4851L98.5859 67.0413C98.6357 66.9507 98.6512 66.8163 98.6606 66.6819C98.6699 66.5507 98.6699 66.4132 98.6699 66.3226H99.4259V66.7319H99.0868C99.0743 66.96 99.0339 67.1944 98.9095 67.3913C99.0961 67.5912 99.2672 67.785 99.4508 67.9787H98.8255L98.8192 67.9725ZM97.637 66.6694C97.4442 66.785 97.2917 66.885 97.2917 67.1319C97.2917 67.435 97.5406 67.5912 97.8144 67.5912C97.9886 67.5912 98.1784 67.5506 98.3059 67.41C98.0788 67.16 97.8642 66.9163 97.637 66.6694ZM97.8206 65.3945C97.6526 65.3945 97.4939 65.4976 97.4939 65.7007C97.4939 65.8913 97.6495 66.0288 97.7708 66.1538C97.9513 66.0538 98.1473 65.9601 98.1473 65.7132C98.1473 65.5101 98.0073 65.3945 97.8206 65.3945Z" fill="#404041"/>
<path d="M102.628 67.6725C102.41 67.8975 102.105 68.0193 101.791 68.0193C101.476 68.0193 101.184 67.9162 100.963 67.6912C100.646 67.3725 100.599 66.9788 100.599 66.4976C100.599 66.0163 100.646 65.6226 100.963 65.3039C101.187 65.0789 101.48 64.9727 101.791 64.9727C102.102 64.9727 102.41 65.0883 102.628 65.3133C102.796 65.4882 102.883 65.7195 102.908 65.9507H102.363C102.351 65.8226 102.304 65.732 102.232 65.6414C102.136 65.5195 101.974 65.4601 101.791 65.4601C101.623 65.4601 101.458 65.5289 101.343 65.6539C101.14 65.8663 101.14 66.2288 101.14 66.4976C101.14 66.7663 101.14 67.1319 101.343 67.3413C101.458 67.4662 101.623 67.535 101.791 67.535C101.971 67.535 102.136 67.4694 102.232 67.3475C102.307 67.2569 102.351 67.1538 102.363 67.0257H102.908C102.883 67.2569 102.796 67.4944 102.628 67.6662V67.6725Z" fill="#404041"/>
<path d="M103.321 65.5168V64.9824H103.875V65.5168H103.321ZM103.337 67.9666V65.8136H103.859V67.9666H103.337Z" fill="#404041"/>
<path d="M105.801 67.9661V66.6443C105.801 66.3912 105.72 66.2381 105.446 66.2381C105.266 66.2381 105.144 66.3537 105.076 66.5099C105.001 66.6787 105.004 66.9036 105.004 67.0849V67.9629H104.488V65.81H104.92L104.958 66.0881C105.085 65.86 105.34 65.7568 105.589 65.7568C106.046 65.7568 106.314 66.0787 106.314 66.5255V67.9629H105.798L105.801 67.9661Z" fill="#404041"/>
<path d="M108.722 67.0505H107.288C107.285 67.2161 107.341 67.3724 107.443 67.4724C107.518 67.5411 107.621 67.6036 107.761 67.6036C107.91 67.6036 108 67.5755 108.075 67.5005C108.122 67.4536 108.156 67.3974 108.178 67.3192H108.672C108.66 67.4474 108.573 67.6161 108.492 67.7161C108.311 67.9317 108.044 68.0192 107.77 68.0192C107.478 68.0192 107.263 67.9161 107.095 67.7536C106.88 67.5473 106.765 67.2442 106.765 66.8911C106.765 66.538 106.868 66.2412 107.073 66.0287C107.235 65.8631 107.465 65.7568 107.758 65.7568C108.075 65.7568 108.364 65.885 108.542 66.1537C108.697 66.3912 108.734 66.6349 108.728 66.9036C108.728 66.9036 108.725 67.0036 108.725 67.0474L108.722 67.0505ZM108.078 66.2974C108.006 66.2224 107.901 66.1724 107.751 66.1724C107.596 66.1724 107.468 66.2381 107.394 66.338C107.319 66.4349 107.288 66.5318 107.282 66.6724H108.209C108.206 66.5099 108.159 66.388 108.078 66.2943V66.2974Z" fill="#404041"/>
<path d="M111.721 67.9661V66.6287C111.721 66.363 111.649 66.2099 111.391 66.2099C111.099 66.2099 110.971 66.5193 110.971 66.7911V67.9661H110.461V66.6287C110.461 66.363 110.389 66.2099 110.131 66.2099C109.839 66.2099 109.705 66.5193 109.705 66.7911V67.9661H109.195V65.8131H109.624L109.665 66.0974C109.783 65.8975 109.991 65.7568 110.274 65.7568C110.576 65.7568 110.781 65.8881 110.887 66.1099C111.015 65.885 111.245 65.7568 111.534 65.7568C111.992 65.7568 112.231 66.0631 112.231 66.5099V67.9629H111.721V67.9661Z" fill="#404041"/>
<path d="M114.437 68.0004C114.213 68.0004 114.091 67.8598 114.073 67.6973C113.973 67.8723 113.727 68.0192 113.423 68.0192C112.912 68.0192 112.648 67.6973 112.648 67.3442C112.648 66.9349 112.965 66.6974 113.373 66.6693L114.004 66.6224V66.4912C114.004 66.288 113.933 66.1506 113.64 66.1506C113.401 66.1506 113.261 66.2568 113.248 66.4568H112.751C112.779 65.9724 113.164 65.7568 113.64 65.7568C114.007 65.7568 114.322 65.8725 114.443 66.1943C114.496 66.3318 114.505 66.4849 114.505 66.6287V67.4286C114.505 67.5286 114.539 67.5661 114.623 67.5661C114.658 67.5661 114.689 67.5567 114.689 67.5567V67.9379C114.602 67.9754 114.558 67.9973 114.434 67.9973L114.437 68.0004ZM114.004 67.0099L113.46 67.0505C113.304 67.063 113.152 67.1567 113.152 67.3317C113.152 67.5067 113.295 67.6005 113.457 67.6005C113.777 67.6005 114.004 67.4255 114.004 67.1067V67.0068V67.0099Z" fill="#404041"/>
<path d="M63.7706 58.5388V59.695H65.7212V60.4075H63.7706V62.1417H62.9897V57.8232H65.9608V58.5357H63.7737L63.7706 58.5388Z" fill="#404041"/>
<path d="M68.4062 62.1415V61.3697L70.7769 58.5386H68.4436V57.8262H71.7413V58.6011L69.3893 61.4322H71.7724V62.1447H68.4062V62.1415Z" fill="#404041"/>
<path d="M78.7189 58.5388V59.695H80.6695V60.4075H78.7189V62.1417H77.938V57.8232H80.909V58.5357H78.722L78.7189 58.5388Z" fill="#404041"/>
<path d="M83.6812 62.1417V57.8232H84.4745V62.1417H83.6812Z" fill="#404041"/>
<path d="M88.4474 58.5388V59.695H90.398V60.4075H88.4474V62.1417H87.6665V57.8232H90.6375V58.5357H88.4505L88.4474 58.5388Z" fill="#404041"/>
<path d="M94.9961 58.5574V62.1447H94.2153V58.5574H92.9429V57.8262H96.2717V58.5574H94.9993H94.9961Z" fill="#404041"/>
<path d="M98.9907 62.1417V57.8232H102.052V58.5357H99.7716V59.5388H101.778V60.245H99.7716V61.4261H102.052V62.1386H98.9907V62.1417Z" fill="#404041"/>
<path d="M104.976 62.1417V57.8232H108.037V58.5357H105.757V59.5388H107.764V60.245H105.757V61.4261H108.037V62.1386H104.976V62.1417Z" fill="#404041"/>
<path d="M113.597 62.1417L111.736 59.1763V62.1417H110.968V57.8232H111.798L113.634 60.7449V57.8232H114.402V62.1417H113.597Z" fill="#404041"/>
</g>
<defs>
<clipPath id="clip0_79_30370">
<rect width="112" height="50" fill="white" transform="translate(60 23)"/>
</clipPath>
</defs>
</svg>
