<svg width="243" height="493" viewBox="0 0 243 493" fill="none" xmlns="http://www.w3.org/2000/svg">
<path d="M147 492H243V-3.05176e-05H147V492Z" fill="#EDC796"/>
<path d="M243 371.644C226.772 363.552 208.472 359 189.112 359C122.222 359 68.0002 413.272 68.0002 480.224C68.0002 484.539 68.2265 488.805 68.667 493H243V371.633V371.644Z" fill="#D69700"/>
<path d="M211 278.972V272.302L180.596 302.69V309.376L211 278.972Z" fill="white"/>
<path d="M211 261.893V255.223L180.596 285.612V292.298L211 261.893Z" fill="white"/>
<path d="M208.736 230H202.065L180.596 251.469V258.139L208.736 230Z" fill="white"/>
<path d="M211 296.051V289.381L180.596 319.77V326.456L211 296.051Z" fill="white"/>
<path d="M211 244.814V238.144L180.596 268.548V275.219L211 244.814Z" fill="white"/>
<path d="M211 313.131V306.46L180.596 336.849V343.519L211 313.131Z" fill="white"/>
<path d="M185.762 389.591L211 364.368V357.682L180.596 388.086V389.591H185.762Z" fill="white"/>
<path d="M211 381.447V374.761L196.17 389.591H202.841L211 381.447Z" fill="white"/>
<path d="M211 347.289V340.603L180.596 371.007V377.677L211 347.289Z" fill="white"/>
<path d="M211 330.209V323.539L180.596 353.928V360.598L211 330.209Z" fill="white"/>
<path d="M184.986 230L180.596 234.39V241.06L191.656 230H184.986Z" fill="white"/>
<path d="M26.5983 393C12.0169 393 0.196331 404.82 0.196331 419.402C0.196331 433.983 12.0169 445.804 26.5983 445.804C41.1797 445.804 53.0002 433.983 53.0002 419.402C53.0002 404.82 41.1797 393 26.5983 393Z" fill="#EC3A41"/>
</svg>
