<svg width="17" height="17" viewBox="0 0 17 17" fill="none" xmlns="http://www.w3.org/2000/svg">
<path d="M8.50008 1.78959C10.0086 1.78959 11.4252 2.33899 12.4883 3.33757C13.544 4.32809 14.1253 5.64521 14.1253 7.04197C14.1253 8.43872 13.544 9.75316 12.4893 10.7455L8.50008 14.4892L4.51182 10.7437C3.4571 9.75316 2.87583 8.43872 2.87583 7.04018C2.87583 5.64163 3.4571 4.3272 4.51182 3.33488C5.57629 2.33884 7.00936 1.78358 8.50008 1.78959ZM8.50008 2.83161e-05C6.51675 -0.00518261 4.61118 0.735855 3.19646 2.0625C2.50117 2.71103 1.94869 3.48565 1.5715 4.34084C1.19431 5.19603 1 6.11454 1 7.04241C1 7.97028 1.19431 8.8888 1.5715 9.74399C1.94869 10.5992 2.50117 11.3738 3.19646 12.0223L8.50008 17L13.8037 12.0205C14.4989 11.3722 15.0514 10.5977 15.4285 9.74265C15.8057 8.88761 16 7.96924 16 7.04152C16 6.11379 15.8057 5.19542 15.4285 4.34038C15.0514 3.48534 14.4989 2.71088 13.8037 2.0625C12.389 0.735772 10.4834 -0.00527936 8.50008 2.83161e-05ZM8.50008 4.92044C9.12635 4.92044 9.71512 5.15308 10.1576 5.57452C10.5971 5.99432 10.844 6.56349 10.844 7.15694C10.844 7.7504 10.5971 8.31957 10.1576 8.73937C9.71418 9.1617 9.12635 9.39345 8.50008 9.39345C7.87381 9.39345 7.28597 9.16081 6.84252 8.73937C6.40301 8.31957 6.15612 7.7504 6.15612 7.15694C6.15612 6.56349 6.40301 5.99432 6.84252 5.57452C7.05998 5.36658 7.31838 5.20174 7.60285 5.08948C7.88732 4.97723 8.19225 4.91977 8.50008 4.92044ZM8.50008 4.02565C7.96012 4.02534 7.42843 4.15216 6.95212 4.39487C6.47581 4.63759 6.06959 4.9887 5.76947 5.4171C5.46936 5.84549 5.28461 6.33794 5.23161 6.85078C5.1786 7.36362 5.25898 7.88102 5.46562 8.35712C5.67225 8.83323 5.99876 9.25332 6.41621 9.58018C6.83365 9.90703 7.32914 10.1306 7.85875 10.2309C8.38836 10.3313 8.93574 10.3054 9.45236 10.1556C9.96899 10.0058 10.4389 9.73661 10.8205 9.37198C11.4355 8.78427 11.781 7.98759 11.781 7.15694C11.781 6.3263 11.4355 5.52962 10.8205 4.94191C10.516 4.65083 10.1543 4.42005 9.75607 4.2628C9.35786 4.10556 8.93102 4.02497 8.50008 4.02565Z" fill="#FF7400"/>
</svg>
