<svg width="231" height="95" viewBox="0 0 231 95" fill="none" xmlns="http://www.w3.org/2000/svg">
<g clip-path="url(#clip0_79_30414)">
<path d="M78.1238 75.666H78.6724L79.4202 77.9968H78.931L78.7668 77.3993H78.012L77.8477 77.9968H77.376L78.1203 75.666H78.1238ZM78.1168 77.0393H78.6689L78.599 76.7842C78.5256 76.5431 78.4627 76.274 78.3964 76.0224H78.3824C78.323 76.2775 78.2531 76.5431 78.1832 76.7842L78.1133 77.0393H78.1168Z" fill="black"/>
<path d="M79.6333 75.6979C79.6333 75.5476 79.7451 75.4463 79.9024 75.4463C80.0596 75.4463 80.1714 75.5476 80.1714 75.6979C80.1714 75.8481 80.0631 75.953 79.9024 75.953C79.7416 75.953 79.6333 75.8516 79.6333 75.6979ZM79.6717 76.236H80.133V77.9972H79.6717V76.236Z" fill="black"/>
<path d="M80.6431 76.2359H81.0205L81.0554 76.5469H81.0659C81.1952 76.3162 81.3839 76.1904 81.5656 76.1904C81.6634 76.1904 81.7194 76.2044 81.7718 76.2289L81.6914 76.6272C81.6285 76.6098 81.5796 76.5993 81.5062 76.5993C81.3664 76.5993 81.2022 76.6901 81.1043 76.9452V77.9971H80.6431V76.2359Z" fill="black"/>
<path d="M82.7993 75.666H84.232V76.0574H83.2641V76.6654H84.0923V77.0568H83.2641V78.0003H82.7993V75.6695V75.666Z" fill="black"/>
<path d="M84.4453 77.1165C84.4453 76.5329 84.8507 76.1904 85.291 76.1904C85.7313 76.1904 86.1366 76.5294 86.1366 77.1165C86.1366 77.7035 85.7313 78.0425 85.291 78.0425C84.8507 78.0425 84.4453 77.7035 84.4453 77.1165ZM85.6684 77.1165C85.6684 76.7845 85.5321 76.5678 85.2945 76.5678C85.0568 76.5678 84.9206 76.7845 84.9206 77.1165C84.9206 77.4484 85.0568 77.6651 85.2945 77.6651C85.5321 77.6651 85.6684 77.4519 85.6684 77.1165Z" fill="black"/>
<path d="M86.542 76.2359H86.9194L86.9543 76.5469H86.9648C87.0941 76.3162 87.2828 76.1904 87.4645 76.1904C87.5624 76.1904 87.6183 76.2044 87.6707 76.2289L87.5903 76.6272C87.5274 76.6098 87.4785 76.5993 87.4051 76.5993C87.2653 76.5993 87.1011 76.6901 87.0033 76.9452V77.9971H86.542V76.2359Z" fill="black"/>
<path d="M87.779 77.1165C87.779 76.5329 88.2018 76.1904 88.677 76.1904C88.8937 76.1904 89.0614 76.2743 89.1907 76.3861L88.9706 76.6866C88.8832 76.6098 88.7993 76.5713 88.7015 76.5713C88.4324 76.5713 88.2472 76.788 88.2472 77.12C88.2472 77.4519 88.4324 77.6686 88.684 77.6686C88.8098 77.6686 88.9286 77.6092 89.0265 77.5253L89.2117 77.8293C89.0405 77.9761 88.8273 78.0425 88.6316 78.0425C88.1424 78.0425 87.772 77.7035 87.772 77.1165H87.779Z" fill="black"/>
<path d="M89.3584 77.1165C89.3584 76.5469 89.7603 76.1904 90.1796 76.1904C90.6653 76.1904 90.9169 76.5469 90.9169 77.0291C90.9169 77.1165 90.9064 77.2038 90.896 77.2423H89.8092C89.8476 77.5323 90.0363 77.6826 90.2984 77.6826C90.4417 77.6826 90.5675 77.6371 90.6933 77.5602L90.8505 77.8433C90.6758 77.9621 90.4557 78.039 90.2355 78.039C89.7428 78.039 89.3584 77.6965 89.3584 77.113V77.1165ZM90.5186 76.9382C90.5186 76.7006 90.4102 76.5504 90.1866 76.5504C90.0014 76.5504 89.8371 76.6831 89.8022 76.9382H90.5186Z" fill="black"/>
<path d="M92.0807 75.666H92.5979L92.9928 76.7563C93.0417 76.8995 93.0871 77.0533 93.1325 77.2036H93.15C93.1989 77.0568 93.2409 76.903 93.2898 76.7563L93.6777 75.666H94.1949V77.9968H93.7685V77.0254C93.7685 76.8052 93.8035 76.4802 93.8279 76.2601H93.814L93.6253 76.8087L93.2653 77.7871H92.9963L92.6328 76.8087L92.4476 76.2601H92.4337C92.4546 76.4802 92.4931 76.8052 92.4931 77.0254V77.9968H92.0737V75.666H92.0807Z" fill="black"/>
<path d="M94.7051 75.6979C94.7051 75.5476 94.8169 75.4463 94.9741 75.4463C95.1314 75.4463 95.2432 75.5476 95.2432 75.6979C95.2432 75.8481 95.1349 75.953 94.9741 75.953C94.8134 75.953 94.7051 75.8516 94.7051 75.6979ZM94.7435 76.236H95.2048V77.9972H94.7435V76.236Z" fill="black"/>
<path d="M95.7148 77.5046V75.4883H96.1761V77.522C96.1761 77.6304 96.2215 77.6653 96.267 77.6653C96.2844 77.6653 96.2984 77.6653 96.3299 77.6583L96.3858 78.0008C96.3334 78.0217 96.2565 78.0427 96.1482 78.0427C95.8267 78.0427 95.7148 77.833 95.7148 77.5046Z" fill="black"/>
<path d="M96.6826 75.6979C96.6826 75.5476 96.7944 75.4463 96.9517 75.4463C97.1089 75.4463 97.2208 75.5476 97.2208 75.6979C97.2208 75.8481 97.1124 75.953 96.9517 75.953C96.7909 75.953 96.6826 75.8516 96.6826 75.6979ZM96.7211 76.236H97.1823V77.9972H96.7211V76.236Z" fill="black"/>
<path d="M97.7588 77.3826V76.6033H97.5107V76.2609L97.7833 76.2399L97.8357 75.7646H98.2201V76.2399H98.6534V76.6033H98.2201V77.3826C98.2201 77.5853 98.3005 77.6796 98.4577 77.6796C98.5136 77.6796 98.5835 77.6621 98.6325 77.6412L98.7093 77.9766C98.615 78.0081 98.4927 78.043 98.3389 78.043C97.9196 78.043 97.7588 77.774 97.7588 77.3826Z" fill="black"/>
<path d="M98.8701 77.5187C98.8701 77.1413 99.1741 76.9421 99.887 76.8688C99.8765 76.694 99.8031 76.5647 99.5865 76.5647C99.4222 76.5647 99.265 76.6381 99.1007 76.7325L98.933 76.4285C99.1392 76.2992 99.3908 76.1943 99.6703 76.1943C100.118 76.1943 100.348 76.4634 100.348 76.9701V77.9975H99.9709L99.9394 77.8088H99.9254C99.7717 77.9416 99.5935 78.0429 99.3943 78.0429C99.0798 78.0429 98.8736 77.8192 98.8736 77.5222L98.8701 77.5187ZM99.8835 77.5082V77.1518C99.4537 77.2042 99.3069 77.3265 99.3069 77.4838C99.3069 77.6236 99.4048 77.683 99.541 77.683C99.6773 77.683 99.7717 77.6201 99.8835 77.5082Z" fill="black"/>
<path d="M100.831 76.2359H101.208L101.243 76.5469H101.253C101.383 76.3162 101.571 76.1904 101.753 76.1904C101.851 76.1904 101.907 76.2044 101.959 76.2289L101.879 76.6272C101.816 76.6098 101.767 76.5993 101.694 76.5993C101.554 76.5993 101.39 76.6901 101.292 76.9452V77.9971H100.831V76.2359Z" fill="black"/>
<path d="M102.172 78.6715L102.256 78.3151C102.288 78.3256 102.337 78.3361 102.379 78.3361C102.557 78.3361 102.658 78.2243 102.711 78.067L102.742 77.9622L102.057 76.2324H102.522L102.801 77.0501C102.854 77.2074 102.899 77.3786 102.948 77.5463H102.966C103.008 77.3821 103.05 77.2144 103.091 77.0501L103.333 76.2324H103.776L103.151 78.046C102.997 78.4619 102.808 78.6995 102.414 78.6995C102.309 78.6995 102.239 78.6855 102.172 78.6646V78.6715Z" fill="black"/>
<path d="M104.849 75.666H105.314V76.6794H105.324L106.097 75.666H106.61L105.901 76.5851L106.74 77.9968H106.229L105.625 76.9485L105.321 77.3433V77.9968H104.856V75.666H104.849Z" fill="black"/>
<path d="M106.949 75.6979C106.949 75.5476 107.061 75.4463 107.218 75.4463C107.376 75.4463 107.487 75.5476 107.487 75.6979C107.487 75.8481 107.379 75.953 107.218 75.953C107.058 75.953 106.949 75.8516 106.949 75.6979ZM106.984 76.236H107.445V77.9972H106.984V76.236Z" fill="black"/>
<path d="M107.959 76.2363H108.337L108.372 76.4704H108.382C108.536 76.3201 108.714 76.1943 108.955 76.1943C109.336 76.1943 109.501 76.4599 109.501 76.9037V78.001H109.039V76.9596C109.039 76.6871 108.962 76.5927 108.791 76.5927C108.648 76.5927 108.554 76.6626 108.428 76.7919V78.0045H107.966V76.2433L107.959 76.2363Z" fill="black"/>
<path d="M109.888 77.1167C109.888 76.5436 110.248 76.1907 110.629 76.1907C110.828 76.1907 110.951 76.2675 111.076 76.3829L111.059 76.1068V75.4883H111.517V77.9973H111.143L111.108 77.8156H111.094C110.965 77.9414 110.79 78.0427 110.605 78.0427C110.168 78.0427 109.885 77.6968 109.885 77.1167H109.888ZM111.059 77.4801V76.7078C110.951 76.61 110.839 76.5751 110.727 76.5751C110.528 76.5751 110.364 76.7637 110.364 77.1167C110.364 77.4696 110.496 77.6653 110.727 77.6653C110.849 77.6653 110.954 77.6164 111.059 77.4836V77.4801Z" fill="black"/>
<path d="M112.03 76.2359H112.408L112.443 76.5469H112.453C112.582 76.3162 112.771 76.1904 112.953 76.1904C113.051 76.1904 113.107 76.2044 113.159 76.2289L113.079 76.6272C113.016 76.6098 112.967 76.5993 112.893 76.5993C112.754 76.5993 112.589 76.6901 112.492 76.9452V77.9971H112.03V76.2359Z" fill="black"/>
<path d="M113.271 77.1165C113.271 76.5469 113.673 76.1904 114.092 76.1904C114.578 76.1904 114.83 76.5469 114.83 77.0291C114.83 77.1165 114.819 77.2038 114.809 77.2423H113.722C113.76 77.5323 113.949 77.6826 114.211 77.6826C114.354 77.6826 114.48 77.6371 114.606 77.5602L114.763 77.8433C114.588 77.9621 114.368 78.039 114.148 78.039C113.655 78.039 113.271 77.6965 113.271 77.113V77.1165ZM114.431 76.9382C114.431 76.7006 114.323 76.5504 114.099 76.5504C113.914 76.5504 113.75 76.6831 113.715 76.9382H114.431Z" fill="black"/>
<path d="M115.123 77.1167C115.123 76.5436 115.483 76.1907 115.863 76.1907C116.063 76.1907 116.185 76.2675 116.311 76.3829L116.293 76.1068V75.4883H116.751V77.9973H116.377L116.342 77.8156H116.328C116.199 77.9414 116.024 78.0427 115.839 78.0427C115.402 78.0427 115.119 77.6968 115.119 77.1167H115.123ZM116.293 77.4801V76.7078C116.185 76.61 116.073 76.5751 115.961 76.5751C115.762 76.5751 115.598 76.7637 115.598 77.1167C115.598 77.4696 115.731 77.6653 115.961 77.6653C116.084 77.6653 116.188 77.6164 116.293 77.4836V77.4801Z" fill="black"/>
<path d="M117.729 75.666H118.219L118.526 76.8017C118.6 77.0603 118.649 77.2909 118.722 77.553H118.736C118.813 77.2909 118.862 77.0603 118.935 76.8017L119.236 75.666H119.707L118.998 77.9968H118.442L117.733 75.666H117.729Z" fill="black"/>
<path d="M119.914 75.6979C119.914 75.5476 120.025 75.4463 120.183 75.4463C120.34 75.4463 120.452 75.5476 120.452 75.6979C120.452 75.8481 120.343 75.953 120.183 75.953C120.022 75.953 119.914 75.8516 119.914 75.6979ZM119.952 76.236H120.413V77.9972H119.952V76.236Z" fill="black"/>
<path d="M120.924 77.5046V75.4883H121.385V77.522C121.385 77.6304 121.431 77.6653 121.476 77.6653C121.493 77.6653 121.507 77.6653 121.539 77.6583L121.595 78.0008C121.542 78.0217 121.465 78.0427 121.357 78.0427C121.036 78.0427 120.924 77.833 120.924 77.5046Z" fill="black"/>
<path d="M121.93 77.5046V75.4883H122.391V77.522C122.391 77.6304 122.437 77.6653 122.482 77.6653C122.5 77.6653 122.514 77.6653 122.545 77.6583L122.601 78.0008C122.549 78.0217 122.472 78.0427 122.363 78.0427C122.042 78.0427 121.93 77.833 121.93 77.5046Z" fill="black"/>
<path d="M122.849 77.5187C122.849 77.1413 123.153 76.9421 123.866 76.8688C123.856 76.694 123.782 76.5647 123.565 76.5647C123.401 76.5647 123.244 76.6381 123.08 76.7325L122.912 76.4285C123.118 76.2992 123.37 76.1943 123.649 76.1943C124.097 76.1943 124.327 76.4634 124.327 76.9701V77.9975H123.95L123.918 77.8088H123.904C123.751 77.9416 123.572 78.0429 123.373 78.0429C123.059 78.0429 122.853 77.8192 122.853 77.5222L122.849 77.5187ZM123.866 77.5082V77.1518C123.436 77.2042 123.289 77.3265 123.289 77.4838C123.289 77.6236 123.387 77.683 123.524 77.683C123.66 77.683 123.754 77.6201 123.866 77.5082Z" fill="black"/>
<path d="M124.694 78.3086C124.694 78.1619 124.785 78.0361 124.946 77.9452V77.9277C124.855 77.8683 124.785 77.7775 124.785 77.6307C124.785 77.4979 124.876 77.3756 124.984 77.2987V77.2848C124.862 77.1974 124.746 77.0297 124.746 76.8235C124.746 76.4111 125.082 76.1875 125.456 76.1875C125.554 76.1875 125.648 76.205 125.721 76.2329H126.357V76.5719H126.057C126.102 76.6313 126.137 76.7291 126.137 76.841C126.137 77.2358 125.837 77.4385 125.459 77.4385C125.389 77.4385 125.309 77.421 125.232 77.3966C125.187 77.4385 125.155 77.4769 125.155 77.5468C125.155 77.6412 125.225 77.6901 125.431 77.6901H125.732C126.158 77.6901 126.389 77.8229 126.389 78.1304C126.389 78.4868 126.018 78.7559 125.428 78.7559C125.012 78.7559 124.69 78.6161 124.69 78.3016L124.694 78.3086ZM125.945 78.2143C125.945 78.0885 125.84 78.057 125.651 78.057H125.438C125.33 78.057 125.257 78.0465 125.194 78.0326C125.113 78.0955 125.082 78.1654 125.082 78.2352C125.082 78.382 125.246 78.4694 125.501 78.4694C125.756 78.4694 125.948 78.354 125.948 78.2143H125.945ZM125.735 76.827C125.735 76.6243 125.616 76.5055 125.459 76.5055C125.302 76.5055 125.183 76.6208 125.183 76.827C125.183 77.0331 125.305 77.1555 125.459 77.1555C125.613 77.1555 125.735 77.0401 125.735 76.827Z" fill="black"/>
<path d="M126.536 77.1165C126.536 76.5469 126.938 76.1904 127.357 76.1904C127.843 76.1904 128.094 76.5469 128.094 77.0291C128.094 77.1165 128.084 77.2038 128.073 77.2423H126.986C127.025 77.5323 127.214 77.6826 127.476 77.6826C127.619 77.6826 127.745 77.6371 127.871 77.5602L128.028 77.8433C127.853 77.9621 127.633 78.039 127.413 78.039C126.92 78.039 126.536 77.6965 126.536 77.113V77.1165ZM127.696 76.9382C127.696 76.7006 127.587 76.5504 127.364 76.5504C127.179 76.5504 127.014 76.6831 126.979 76.9382H127.696Z" fill="black"/>
<path d="M129.254 75.666H129.73L130.408 76.91L130.642 77.4132H130.659C130.638 77.1721 130.6 76.8611 130.6 76.599V75.6695H131.04V78.0003H130.568L129.894 76.7563L129.656 76.2566H129.642C129.663 76.5082 129.698 76.8017 129.698 77.0673V78.0003H129.258V75.6695L129.254 75.666Z" fill="black"/>
<path d="M131.477 77.1165C131.477 76.5329 131.882 76.1904 132.323 76.1904C132.763 76.1904 133.168 76.5294 133.168 77.1165C133.168 77.7035 132.763 78.0425 132.323 78.0425C131.882 78.0425 131.477 77.7035 131.477 77.1165ZM132.7 77.1165C132.7 76.7845 132.564 76.5678 132.326 76.5678C132.089 76.5678 131.952 76.7845 131.952 77.1165C131.952 77.4484 132.089 77.6651 132.326 77.6651C132.564 77.6651 132.7 77.4519 132.7 77.1165Z" fill="black"/>
<path d="M133.511 77.739C133.511 77.5643 133.633 77.4385 133.797 77.4385C133.962 77.4385 134.087 77.5678 134.087 77.739C134.087 77.9102 133.965 78.0395 133.797 78.0395C133.63 78.0395 133.511 77.9067 133.511 77.739Z" fill="black"/>
<path d="M134.584 77.6235H135.083V76.2117H134.66V75.9252C134.895 75.8798 135.055 75.8203 135.202 75.7295H135.545V77.6235H135.981V77.9974H134.58V77.6235H134.584Z" fill="black"/>
<path d="M137.054 77.7032L137.323 77.3817C137.491 77.5355 137.711 77.6403 137.913 77.6403C138.154 77.6403 138.284 77.5355 138.284 77.3712C138.284 77.1965 138.144 77.1441 137.934 77.0567L137.623 76.924C137.386 76.8261 137.152 76.6374 137.152 76.2984C137.152 75.9176 137.484 75.624 137.955 75.624C138.224 75.624 138.497 75.7324 138.686 75.9245L138.451 76.2181C138.305 76.0958 138.151 76.0259 137.959 76.0259C137.753 76.0259 137.627 76.1167 137.627 76.2705C137.627 76.4382 137.791 76.4976 137.99 76.5745L138.294 76.7038C138.577 76.8191 138.762 77.0008 138.762 77.3363C138.762 77.7172 138.444 78.0422 137.906 78.0422C137.595 78.0422 137.284 77.9199 137.057 77.7032H137.054Z" fill="black"/>
<path d="M139.633 75.666H140.182L140.93 77.9968H140.44L140.276 77.3993H139.521L139.357 77.9968H138.885L139.63 75.666H139.633ZM139.623 77.0393H140.175L140.105 76.7842C140.031 76.5431 139.969 76.274 139.902 76.0224H139.888C139.829 76.2775 139.759 76.5431 139.689 76.7842L139.619 77.0393H139.623Z" fill="black"/>
<path d="M141.219 75.666H141.694L142.372 76.91L142.607 77.4132H142.624C142.603 77.1721 142.565 76.8611 142.565 76.599V75.6695H143.005V78.0003H142.533L141.859 76.7563L141.621 76.2566H141.607C141.628 76.5082 141.663 76.8017 141.663 77.0673V78.0003H141.223V75.6695L141.219 75.666Z" fill="black"/>
<path d="M143.473 76.844C143.473 76.0752 143.966 75.6279 144.556 75.6279C144.853 75.6279 145.088 75.7712 145.238 75.9285L144.997 76.2255C144.878 76.1137 144.742 76.0298 144.567 76.0298C144.214 76.0298 143.952 76.3303 143.952 76.8335C143.952 77.3367 144.189 77.6442 144.56 77.6442C144.763 77.6442 144.916 77.5499 145.042 77.4136L145.287 77.7036C145.095 77.9273 144.846 78.0461 144.546 78.0461C143.959 78.0461 143.48 77.6233 143.48 76.8475L143.473 76.844Z" fill="black"/>
<path d="M145.671 75.666H146.136V76.5851H147.017V75.666H147.478V77.9968H147.017V76.9904H146.136V77.9968H145.671V75.666Z" fill="black"/>
<path d="M147.953 76.8226C147.953 76.0643 148.379 75.624 148.994 75.624C149.609 75.624 150.036 76.0678 150.036 76.8226C150.036 77.5774 149.609 78.0387 148.994 78.0387C148.379 78.0387 147.953 77.5774 147.953 76.8226ZM149.561 76.8226C149.561 76.3229 149.34 76.0224 148.994 76.0224C148.649 76.0224 148.428 76.3194 148.428 76.8226C148.428 77.3258 148.649 77.6368 148.994 77.6368C149.34 77.6368 149.561 77.3188 149.561 76.8226Z" fill="black"/>
<path d="M150.504 75.666H150.979L151.657 76.91L151.891 77.4132H151.905C151.884 77.1721 151.846 76.8611 151.846 76.599V75.6695H152.286V78.0003H151.814L151.14 76.7563L150.902 76.2566H150.888C150.909 76.5082 150.944 76.8017 150.944 77.0673V78.0003H150.504V75.6695V75.666Z" fill="black"/>
<path d="M152.761 76.844C152.761 76.0752 153.257 75.6279 153.879 75.6279C154.215 75.6279 154.449 75.7712 154.599 75.9285L154.355 76.2255C154.239 76.1172 154.107 76.0298 153.897 76.0298C153.509 76.0298 153.24 76.3303 153.24 76.8335C153.24 77.3367 153.474 77.6442 153.932 77.6442C154.04 77.6442 154.156 77.6128 154.222 77.5569V77.0991H153.81V76.7182H154.638V77.77C154.48 77.9238 154.208 78.0496 153.883 78.0496C153.25 78.0496 152.765 77.6267 152.765 76.851L152.761 76.844Z" fill="black"/>
<path d="M96.3297 25.0144C95.1451 21.7891 91.5703 20.1362 88.3484 21.3208C85.1231 22.5054 83.4702 26.0802 84.6548 29.3021C85.8394 32.5275 89.4142 34.1803 92.6361 32.9957C95.8615 31.8111 97.5143 28.2363 96.3297 25.0144ZM90.0292 30.6614L89.7078 30.7803C89.5889 30.8222 89.4596 30.7628 89.4142 30.644L89.3793 30.5531C89.3373 30.4343 89.2046 30.3749 89.0857 30.4168L88.6699 30.5706C88.5511 30.6125 88.4917 30.7453 88.5336 30.8641L88.5686 30.955C88.6105 31.0738 88.5511 31.2031 88.4323 31.2485L88.1108 31.3673C87.992 31.4093 87.8627 31.3498 87.8173 31.231L85.7206 25.5176C85.6787 25.3988 85.7381 25.2695 85.8569 25.2241L87.7753 24.5182C87.8941 24.4763 88.0234 24.5357 88.0689 24.6545L90.1655 30.3679C90.2075 30.4867 90.1481 30.616 90.0292 30.6614ZM92.0246 29.1868L91.8463 29.4768C91.78 29.5852 91.6402 29.6166 91.5318 29.5502L90.48 28.8968C90.3717 28.8304 90.3402 28.6906 90.4066 28.5823L90.5849 28.2922C90.6513 28.1839 90.791 28.1524 90.8994 28.2188L91.9512 28.8723C92.0595 28.9387 92.091 29.0785 92.0246 29.1868ZM94.3344 29.8123L92.8737 30.3504C92.7549 30.3924 92.6256 30.333 92.5802 30.2142L92.4753 29.9346C92.4334 29.8158 92.4928 29.6865 92.6116 29.6411L93.3629 29.365C93.4817 29.3231 93.5412 29.1903 93.4992 29.0715L92.8283 27.2404C92.7864 27.1216 92.6536 27.0622 92.5348 27.1041L89.7916 28.1105C89.6728 28.1524 89.5435 28.093 89.4981 27.9742L89.4282 27.782C89.3863 27.6632 89.4457 27.5339 89.5645 27.4885L92.3076 26.4821C92.4264 26.4402 92.4858 26.3074 92.4439 26.1886L92.3146 25.8356C92.2727 25.7168 92.1399 25.6574 92.0211 25.6993L89.4457 26.6463C89.3269 26.6883 89.1976 26.6289 89.1521 26.5101L89.0823 26.3179C89.0403 26.199 89.0997 26.0698 89.2185 26.0243L90.6547 25.4967C90.7736 25.4547 90.833 25.3219 90.791 25.2031L90.5814 24.637C90.5394 24.5182 90.4066 24.4588 90.2878 24.5008L88.6839 25.0878C88.5651 25.1297 88.4358 25.0703 88.3904 24.9515L88.3205 24.7593C88.2785 24.6405 88.3379 24.5112 88.4567 24.4658L90.0607 23.8787C90.1795 23.8368 90.2389 23.704 90.197 23.5852L90.0327 23.1379C89.9908 23.0191 90.0502 22.8898 90.169 22.8444L90.4905 22.7256C90.6093 22.6836 90.7386 22.743 90.784 22.8619L90.9483 23.3091C90.9902 23.428 91.123 23.4874 91.2418 23.4454L92.8458 22.8584C92.9646 22.8164 93.0939 22.8758 93.1393 22.9946L93.2092 23.1868C93.2511 23.3057 93.1917 23.4349 93.0729 23.4804L91.4689 24.0674C91.3501 24.1094 91.2907 24.2422 91.3327 24.361L91.5423 24.9271C91.5843 25.0459 91.7171 25.1053 91.8359 25.0634L93.2721 24.5357C93.3909 24.4938 93.5202 24.5532 93.5656 24.672L93.6355 24.8642C93.6774 24.983 93.618 25.1123 93.4992 25.1577L93.1638 25.28C93.0449 25.3219 92.9855 25.4547 93.0275 25.5735L93.1568 25.9265C93.1987 26.0453 93.3315 26.1047 93.4503 26.0628L93.9535 25.8776C94.0723 25.8356 94.2016 25.895 94.247 26.0138L94.3169 26.206C94.3588 26.3248 94.2994 26.4541 94.1806 26.4996L93.6774 26.6848C93.5586 26.7267 93.4992 26.8595 93.5411 26.9783L94.4742 29.5188C94.5161 29.6376 94.4567 29.7669 94.3379 29.8123H94.3344Z" fill="black"/>
<path d="M87.2528 25.42L86.8363 25.573C86.7185 25.6163 86.6581 25.7468 86.7014 25.8646L87.1472 27.0782C87.1904 27.196 87.321 27.2564 87.4387 27.2131L87.8553 27.0601C87.973 27.0168 88.0334 26.8863 87.9902 26.7686L87.5444 25.5549C87.5011 25.4372 87.3706 25.3768 87.2528 25.42Z" fill="black"/>
<path d="M88.0819 27.6808L87.6654 27.8338C87.5476 27.877 87.4872 28.0076 87.5305 28.1253L88.1498 29.8113C88.193 29.9291 88.3236 29.9895 88.4413 29.9462L88.8579 29.7932C88.9756 29.7499 89.036 29.6194 88.9928 29.5016L88.3735 27.8157C88.3302 27.6979 88.1997 27.6375 88.0819 27.6808Z" fill="black"/>
<path d="M109.256 24.7773C109.232 24.7563 109.197 24.7493 109.165 24.7528L106.163 25.2805C106.118 25.2875 106.083 25.3189 106.073 25.3643L106.041 25.4692C105.992 25.6299 106.132 25.7872 106.3 25.7592L109.232 25.242C109.427 25.2071 109.487 24.959 109.333 24.8367L109.256 24.7773Z" fill="black"/>
<path d="M113.386 21.3977C112.789 18.0151 109.563 15.7577 106.181 16.3517C102.798 16.9493 100.541 20.1746 101.135 23.5572C101.729 26.9398 104.958 29.1973 108.34 28.6032C111.723 28.0057 113.98 24.7803 113.386 21.3977ZM111.202 22.2957L111.244 22.5299C111.262 22.6242 111.199 22.7151 111.101 22.7325L109.979 22.9317C109.885 22.9492 109.794 22.8863 109.777 22.7885L109.389 20.587C109.371 20.4926 109.28 20.4262 109.186 20.4437L109.074 20.4647C108.98 20.4821 108.914 20.573 108.931 20.6673L109.015 21.1496C109.067 21.4466 109.029 21.7401 108.917 21.9987C108.886 22.0721 108.907 22.156 108.969 22.2049L109.305 22.4705C109.382 22.5299 109.392 22.6417 109.333 22.7186L109.176 22.9143C109.116 22.9911 109.004 23.0016 108.928 22.9422L108.627 22.7046C108.554 22.6452 108.445 22.6557 108.382 22.7291L107.998 23.1833C107.935 23.2567 107.823 23.2672 107.75 23.2043L107.432 22.9352L107.456 22.9073L107.911 22.3726C107.974 22.2957 107.963 22.1839 107.886 22.121L107.663 21.9428C107.586 21.8834 107.575 21.7716 107.635 21.6947L107.792 21.4955C107.851 21.4186 107.963 21.4082 108.04 21.4676L108.162 21.5654C108.274 21.6563 108.445 21.5759 108.449 21.4326C108.449 21.3732 108.449 21.3173 108.435 21.2579L108.351 20.7757C108.333 20.6813 108.243 20.6149 108.148 20.6324L107.474 20.7512C107.379 20.7687 107.289 20.7058 107.271 20.6079L107.247 20.4682C107.229 20.3738 107.292 20.2829 107.39 20.2655L108.236 20.1152L108.229 20.0838L108.169 19.7448C108.152 19.6505 108.215 19.5596 108.312 19.5421L108.547 19.5002C108.641 19.4827 108.732 19.5456 108.749 19.6435L108.784 19.8426C108.802 19.937 108.893 20.0034 108.987 19.9859L109.679 19.8636C109.773 19.8461 109.864 19.909 109.881 20.0069L109.937 20.3214L110.007 20.7198L110.252 22.114C110.269 22.2084 110.36 22.2748 110.455 22.2573L110.996 22.163C111.091 22.1455 111.181 22.2084 111.199 22.3062L111.202 22.2957ZM110.647 23.4349C110.668 23.5607 110.587 23.676 110.462 23.7005L104.671 24.7209C104.545 24.7418 104.43 24.6615 104.406 24.5357L104.385 24.4099C104.364 24.2876 104.444 24.1688 104.57 24.1443L110.36 23.1239C110.486 23.103 110.601 23.1833 110.626 23.3091L110.647 23.4349ZM102.882 20.1676L102.833 19.8916C102.823 19.8287 102.865 19.7658 102.928 19.7553L104.727 19.4373C104.811 19.4233 104.853 19.3255 104.804 19.2556L104.685 19.0879C104.647 19.0354 104.661 18.9621 104.713 18.9236L105.066 18.679C105.119 18.6406 105.192 18.6545 105.23 18.707L105.583 19.2171C105.608 19.2556 105.657 19.2731 105.699 19.2661L107.628 18.9271C107.673 18.9201 107.708 18.8852 107.722 18.8397L107.879 18.2422C107.897 18.1793 107.96 18.1409 108.022 18.1583L108.438 18.2667C108.501 18.2841 108.54 18.347 108.522 18.4099L108.47 18.6091C108.449 18.693 108.519 18.7699 108.603 18.7559L110.402 18.4379C110.465 18.4274 110.528 18.4693 110.538 18.5322L110.587 18.8083C110.598 18.8712 110.556 18.9341 110.493 18.9446L103.018 20.262C102.956 20.2725 102.893 20.2305 102.882 20.1676ZM103.42 22.5823C103.361 22.5299 103.368 22.4355 103.434 22.3936L103.833 22.142C103.937 22.0686 103.871 21.9044 103.745 21.9288L103.326 22.0022C103.263 22.0127 103.2 21.9708 103.19 21.9079L103.151 21.6807C103.141 21.6178 103.183 21.5549 103.246 21.5444L104.629 21.2998C104.692 21.2893 104.738 21.2264 104.724 21.1635L104.706 21.0727C104.696 21.0098 104.633 20.9644 104.57 20.9783L103.536 21.1601C103.473 21.1705 103.41 21.1286 103.399 21.0657L103.361 20.8386C103.35 20.7757 103.392 20.7128 103.455 20.7023L104.49 20.5206C104.552 20.5101 104.598 20.4472 104.584 20.3843L104.573 20.3214C104.563 20.2585 104.605 20.1956 104.668 20.1851L105.017 20.1222C105.08 20.1117 105.143 20.1537 105.154 20.2166L105.164 20.2795C105.174 20.3424 105.237 20.3878 105.3 20.3738L106.352 20.1886C106.415 20.1781 106.478 20.22 106.488 20.2829L106.527 20.5101C106.537 20.573 106.495 20.6359 106.432 20.6464L105.381 20.8316C105.318 20.8421 105.272 20.905 105.286 20.9679L105.304 21.0587C105.314 21.1216 105.377 21.167 105.44 21.1531L106.841 20.905C106.904 20.8945 106.967 20.9364 106.978 20.9993L107.016 21.2264C107.027 21.2893 106.985 21.3522 106.922 21.3627L106.286 21.4745C106.307 21.6003 106.394 21.6702 106.509 21.6493L106.838 21.5934C106.901 21.5829 106.964 21.6248 106.974 21.6877L107.009 21.8834C107.02 21.9463 106.978 22.0092 106.915 22.0197L106.572 22.0791C106.244 22.135 105.926 21.9533 105.803 21.6528C105.783 21.6003 105.73 21.5724 105.674 21.5829L104.511 21.789L104.518 21.8345C104.542 21.9777 104.573 22.156 104.311 22.3412L103.714 22.7186C103.672 22.7465 103.612 22.743 103.574 22.7081L103.42 22.5753V22.5823ZM103.633 23.9172L103.595 23.69C103.581 23.6166 103.63 23.5468 103.7 23.5293L104.958 23.2427C105.031 23.2253 105.077 23.1554 105.063 23.082C105.049 23.0051 104.979 22.9562 104.902 22.9702L103.909 23.1449C103.833 23.1589 103.763 23.1065 103.749 23.0331L103.721 22.8723C103.707 22.7954 103.759 22.7256 103.833 22.7116L104.825 22.5369C104.902 22.5229 104.951 22.453 104.937 22.3761L104.874 22.0127C104.86 21.9358 104.912 21.8659 104.986 21.8519L105.293 21.7995C105.37 21.7856 105.44 21.838 105.454 21.9114L105.517 22.2748C105.531 22.3517 105.601 22.4006 105.678 22.3866L106.688 22.2084C106.764 22.1944 106.834 22.2468 106.848 22.3202L106.876 22.4809C106.89 22.5578 106.838 22.6277 106.764 22.6417L105.734 22.8234C105.671 22.8339 105.625 22.8968 105.639 22.9597C105.65 23.0261 105.716 23.068 105.783 23.054L107.051 22.764C107.128 22.7465 107.205 22.7989 107.219 22.8758L107.257 23.103C107.271 23.1763 107.222 23.2462 107.152 23.2637L103.801 24.0255C103.724 24.043 103.647 23.994 103.633 23.9137V23.9172ZM111.335 24.3714L110.301 24.5531C110.199 24.5706 110.168 24.6999 110.248 24.7628L111.171 25.4792C111.251 25.5421 111.22 25.6679 111.119 25.6888L110.605 25.7797C110.573 25.7867 110.538 25.7797 110.514 25.7552L110.329 25.612C110.304 25.591 110.269 25.584 110.238 25.5875L104.895 26.531C104.706 26.5624 104.563 26.3668 104.654 26.199L104.713 26.0837C104.731 26.0523 104.762 26.0278 104.797 26.0243L105.216 25.9509C105.262 25.9439 105.297 25.9125 105.307 25.8671L105.388 25.591C105.412 25.5071 105.339 25.4268 105.255 25.4442L104.081 25.6504C103.955 25.6714 103.84 25.591 103.815 25.4652L103.794 25.3394C103.773 25.2136 103.854 25.0983 103.979 25.0738L111.342 23.7739C111.405 23.7634 111.468 23.8053 111.478 23.8682L111.52 24.1024C111.541 24.2247 111.461 24.3435 111.335 24.3679V24.3714Z" fill="black"/>
<path d="M144.406 25.7973L142.512 25.0984C142.397 25.0565 142.268 25.1159 142.222 25.2312C142.177 25.3465 142.24 25.4758 142.355 25.5212L144.249 26.2201C144.364 26.2621 144.494 26.2026 144.539 26.0873C144.581 25.972 144.522 25.8427 144.406 25.7973Z" fill="black"/>
<path d="M144.794 24.7524L142.9 24.0535C142.785 24.0116 142.656 24.071 142.61 24.1863C142.568 24.3016 142.628 24.4309 142.743 24.4763L144.637 25.1752C144.752 25.2171 144.882 25.1577 144.927 25.0424C144.972 24.9271 144.909 24.7978 144.794 24.7524Z" fill="black"/>
<path d="M143.659 21.2645C140.437 20.0764 136.858 21.7258 135.67 24.9477C134.482 28.1695 136.132 31.7478 139.353 32.9359C142.575 34.124 146.154 32.4747 147.342 29.2528C148.53 26.0309 146.88 22.4526 143.659 21.2645ZM137.246 27.6803C137.12 27.6908 137.012 27.5929 137.005 27.4671L136.995 27.254C136.988 27.1317 137.082 27.0268 137.204 27.0164L138.186 26.9465C138.274 26.9395 138.351 26.8836 138.382 26.7997L139.168 24.6681C139.21 24.5528 139.151 24.4235 139.035 24.3781L138.515 24.1859C138.399 24.1439 138.34 24.0146 138.382 23.8958L138.455 23.6967C138.497 23.5813 138.627 23.5184 138.745 23.5639L139.263 23.7561C139.378 23.798 139.507 23.7386 139.553 23.6233L140.031 22.3198C140.073 22.2045 140.203 22.1451 140.321 22.1871L140.521 22.2604C140.636 22.3024 140.695 22.4317 140.653 22.5505L140.175 23.8539C140.133 23.9692 140.192 24.0985 140.307 24.1439L140.769 24.3152C140.884 24.3571 140.943 24.4864 140.901 24.6052L140.828 24.8044C140.786 24.9197 140.657 24.9826 140.538 24.9372L140.077 24.7659C139.961 24.724 139.832 24.7834 139.787 24.8987L139.175 26.5586C139.119 26.7123 139.238 26.8731 139.402 26.8626L139.734 26.8382C139.86 26.8312 139.968 26.9255 139.975 27.0513L139.986 27.2645C139.993 27.3868 139.899 27.4916 139.776 27.5021L137.246 27.6768V27.6803ZM145.357 28.0018L145.283 28.201C145.242 28.3163 145.112 28.3757 144.993 28.3338L141.911 27.1981C141.824 27.1666 141.73 27.1911 141.667 27.2575C141.646 27.2819 141.621 27.3029 141.6 27.3274C141.482 27.4427 141.523 27.6419 141.681 27.6978L144.571 28.7636C144.686 28.8055 144.749 28.9348 144.703 29.0536L144.553 29.466L143.721 31.7234C143.68 31.8387 143.55 31.8981 143.431 31.8562L141.964 31.3145C141.848 31.2726 141.786 31.1433 141.831 31.0245L141.936 30.7379C141.978 30.6226 142.107 30.5632 142.226 30.6052L142.984 30.8847C143.099 30.9266 143.229 30.8672 143.274 30.7519L143.767 29.4135C143.809 29.2982 143.749 29.1689 143.634 29.1235L143.428 29.0466C143.327 29.0082 143.215 29.0466 143.159 29.141C142.582 30.095 141.342 30.6471 140.87 30.8253C140.765 30.8672 140.643 30.8218 140.59 30.7205L140.524 30.5912C140.461 30.4724 140.517 30.3221 140.646 30.2767C141.083 30.1159 141.999 29.7141 142.505 29.0082C142.593 28.8859 142.54 28.7147 142.401 28.6657L141.999 28.5155C141.904 28.4805 141.803 28.5155 141.74 28.5924C141.191 29.2982 139.92 29.7071 139.451 29.8399C139.35 29.8678 139.242 29.8224 139.193 29.728L139.133 29.6127C139.067 29.4834 139.133 29.3262 139.277 29.2912C139.703 29.1864 140.521 28.9383 141.006 28.5015C141.132 28.3897 141.09 28.1835 140.929 28.1241L140.657 28.0228C140.601 28.0018 140.542 28.0053 140.486 28.0298C140.052 28.2219 139.633 28.3547 139.406 28.4211C139.305 28.4491 139.193 28.4037 139.144 28.3093L139.081 28.187C139.014 28.0612 139.081 27.904 139.221 27.8655C139.612 27.7607 140.335 27.5266 140.828 27.1666C140.975 27.0618 140.943 26.8347 140.772 26.7718L140.182 26.5551C140.066 26.5132 140.007 26.3839 140.049 26.2651L140.122 26.0659C140.164 25.9506 140.293 25.8912 140.412 25.9331L145.235 27.7118C145.35 27.7537 145.409 27.883 145.367 28.0018H145.357ZM145.905 24.6961L145.063 26.9849C145.021 27.1002 144.892 27.1596 144.773 27.1177L141.377 25.8667C141.261 25.8248 141.202 25.6955 141.244 25.5767L142.086 23.2878C142.128 23.1725 142.257 23.1096 142.376 23.155L145.773 24.406C145.888 24.448 145.947 24.5773 145.905 24.6961Z" fill="black"/>
<path d="M160.138 37.1017C157.206 33.8624 153.736 31.0039 149.857 28.5753C150.556 24.6126 148.344 20.5835 144.441 19.1473C143.498 18.7979 142.512 18.6231 141.516 18.6231C138.857 18.6231 136.39 19.8811 134.81 21.9149C134.262 21.7542 133.706 21.6039 133.15 21.4571C132.714 17.8509 129.967 14.7932 126.207 14.1293C125.721 14.0454 125.225 14 124.732 14C121.224 14 118.159 16.1351 116.884 19.2766C116.59 19.2766 116.293 19.2766 116 19.2766C115.706 19.2766 115.409 19.2766 115.116 19.2766C113.84 16.1351 110.776 14 107.267 14C106.774 14 106.278 14.0454 105.789 14.1293C102.029 14.7932 99.2859 17.8509 98.8491 21.4571C98.2795 21.6074 97.7134 21.7611 97.1508 21.9254C95.5713 19.9196 93.1217 18.6825 90.4834 18.6825C89.4875 18.6825 88.5091 18.8573 87.5691 19.1997C85.4444 19.9825 83.7531 21.5445 82.7992 23.5992C82.0688 25.1787 81.8452 26.905 82.1352 28.5823C78.2599 31.0074 74.7934 33.8659 71.8616 37.1017C71.6659 37.3184 71.6834 37.6503 71.8965 37.8425C72.1132 38.0382 72.4451 38.0208 72.6373 37.8076C75.4294 34.722 78.7177 31.9894 82.3903 29.6551C82.4322 29.7983 82.4812 29.9381 82.5336 30.0814C82.7677 30.7244 83.0752 31.3219 83.4491 31.874C81.0484 33.4256 78.8155 35.1658 76.7887 37.0738C76.5791 37.2729 76.5686 37.6049 76.7678 37.8146C76.9669 38.0242 77.2989 38.0347 77.5086 37.8355C79.5109 35.952 81.7159 34.2363 84.0921 32.7092C85.6716 34.5263 87.9989 35.6375 90.4974 35.6375C91.4933 35.6375 92.4753 35.4628 93.4153 35.1169C95.5364 34.3376 97.2312 32.7756 98.1817 30.7174C98.8561 29.2602 99.0972 27.6807 98.905 26.1292C99.1147 26.0698 99.3209 26.0139 99.5305 25.958C100.869 28.9457 103.857 30.9585 107.26 30.9585C107.749 30.9585 108.246 30.9131 108.735 30.8292C112.376 30.1827 115.07 27.2893 115.633 23.8264C115.755 23.8229 115.877 23.8229 116 23.8229C116.122 23.8229 116.244 23.8229 116.367 23.8264C116.929 27.2893 119.624 30.1827 123.265 30.8292C123.75 30.9131 124.25 30.9585 124.739 30.9585C128.143 30.9585 131.127 28.9457 132.469 25.958C132.675 26.0139 132.881 26.0698 133.088 26.1257C132.644 29.9207 134.835 33.6737 138.574 35.054C139.517 35.4034 140.503 35.5781 141.499 35.5781C143.98 35.5781 146.293 34.4844 147.873 32.6882C150.259 34.2223 152.478 35.9416 154.488 37.8355C154.589 37.9334 154.718 37.9788 154.847 37.9788C154.987 37.9788 155.127 37.9229 155.232 37.8146C155.428 37.6049 155.417 37.2729 155.207 37.0738C153.174 35.1588 150.934 33.4151 148.519 31.8601C148.903 31.2975 149.221 30.6859 149.463 30.0325C149.508 29.9032 149.553 29.7739 149.592 29.6446C153.271 31.9824 156.567 34.7185 159.359 37.8076C159.464 37.9194 159.607 37.9788 159.75 37.9788C159.876 37.9788 160.002 37.9334 160.1 37.8425C160.316 37.6503 160.33 37.3184 160.138 37.1017ZM93.0518 34.1314C92.2097 34.4425 91.3465 34.5892 90.4974 34.5892C88.4042 34.5892 86.3914 33.6946 84.9867 32.1501C84.7525 31.8915 84.5324 31.612 84.3332 31.3149C84.0047 30.8292 83.7322 30.2946 83.519 29.7215C83.4421 29.5083 83.3722 29.2951 83.3163 29.082C83.2185 28.7186 83.1486 28.3516 83.1102 27.9847C82.7363 24.665 84.6582 21.3872 87.929 20.1852C88.7711 19.8776 89.6343 19.7309 90.4834 19.7309C92.615 19.7309 94.6558 20.6534 96.0675 22.2504C96.3121 22.5264 96.5358 22.8235 96.7385 23.1414C97.0285 23.5887 97.2731 24.078 97.4653 24.5986C97.5597 24.8607 97.64 25.1228 97.7029 25.3884C97.7903 25.7343 97.8497 26.0803 97.8811 26.4262C98.2096 29.7145 96.2947 32.9398 93.0518 34.1314ZM98.7128 25.0983C98.6394 24.8083 98.5521 24.5183 98.4472 24.2352C98.2655 23.7425 98.0419 23.2742 97.7798 22.8339C98.1153 22.7396 98.4507 22.6452 98.7862 22.5579C98.7897 23.0191 98.8316 23.4839 98.9155 23.9522C98.9784 24.3016 99.0588 24.6441 99.1601 24.976C99.0098 25.0145 98.8631 25.0564 98.7128 25.0983ZM108.553 29.7949C108.12 29.8717 107.687 29.9102 107.26 29.9102C104.395 29.9102 101.788 28.2398 100.565 25.6924C100.411 25.3779 100.282 25.0494 100.177 24.7104C100.079 24.4064 100.002 24.0919 99.9464 23.7704C99.859 23.2707 99.824 22.778 99.8345 22.2888C99.8415 21.9149 99.88 21.5445 99.9464 21.1811C100.478 18.1968 102.819 15.7193 105.971 15.1636C106.408 15.0868 106.841 15.0483 107.267 15.0483C110.147 15.0483 112.767 16.7361 113.984 19.3046C114.137 19.6365 114.27 19.9825 114.375 20.3389C114.459 20.615 114.525 20.898 114.578 21.1881C114.672 21.7262 114.707 22.2608 114.686 22.7885C114.672 23.1414 114.633 23.4944 114.567 23.8368C114.015 26.7931 111.684 29.2427 108.553 29.7949ZM115.734 22.7745C115.755 22.1945 115.717 21.6004 115.612 21.0063C115.57 20.7757 115.521 20.5486 115.462 20.3249C115.64 20.3249 115.822 20.3249 116 20.3249C116.178 20.3249 116.36 20.3249 116.538 20.3249C116.479 20.5486 116.43 20.7757 116.388 21.0063C116.283 21.6004 116.244 22.1945 116.265 22.7745H115.734ZM124.739 29.9102C124.313 29.9102 123.88 29.8717 123.446 29.7949C120.315 29.2427 117.985 26.7931 117.433 23.8368C117.366 23.4944 117.328 23.1414 117.314 22.7885C117.293 22.2608 117.328 21.7262 117.422 21.1881C117.474 20.898 117.541 20.615 117.625 20.3389C117.73 19.9825 117.862 19.6365 118.016 19.3046C119.232 16.7361 121.853 15.0483 124.732 15.0483C125.159 15.0483 125.592 15.0868 126.025 15.1636C129.181 15.7158 131.519 18.1968 132.05 21.1811C132.116 21.5445 132.155 21.9149 132.162 22.2888C132.176 22.778 132.141 23.2742 132.053 23.7704C131.997 24.0919 131.92 24.4064 131.823 24.707C131.718 25.0494 131.588 25.3779 131.435 25.6924C130.212 28.2398 127.605 29.9102 124.739 29.9102ZM132.836 24.976C132.941 24.6406 133.021 24.3016 133.084 23.9522C133.168 23.4839 133.21 23.0191 133.213 22.5579C133.542 22.6452 133.867 22.7326 134.192 22.8269C133.94 23.2498 133.727 23.6971 133.552 24.1688C133.441 24.4763 133.346 24.7838 133.273 25.0948C133.13 25.0529 132.983 25.0145 132.836 24.976ZM148.477 29.6691C148.26 30.2596 147.977 30.8047 147.635 31.301C147.436 31.5945 147.216 31.8705 146.978 32.1256C145.577 33.6527 143.578 34.5298 141.499 34.5298C140.646 34.5298 139.783 34.383 138.937 34.072C135.715 32.8839 133.807 29.6865 134.108 26.4227C134.139 26.0768 134.195 25.7308 134.283 25.3849C134.349 25.0983 134.433 24.8153 134.538 24.5322C134.723 24.0325 134.954 23.5643 135.23 23.131C135.429 22.813 135.649 22.5159 135.89 22.2364C137.302 20.6115 139.364 19.6715 141.516 19.6715C142.365 19.6715 143.232 19.8182 144.078 20.1292C147.366 21.3418 149.284 24.6441 148.886 27.9812C148.84 28.3447 148.771 28.7081 148.669 29.0715C148.613 29.2707 148.55 29.4699 148.477 29.6691Z" fill="black"/>
<path d="M125.33 24.3892L126.745 24.6373C126.808 24.6478 126.868 24.6059 126.878 24.5465L126.91 24.3648L125.379 24.0957L125.327 24.3892H125.33Z" fill="black"/>
<path d="M123.255 22.9704L123.223 23.1521L124.754 23.4212L124.806 23.1276L123.391 22.8795C123.328 22.8691 123.269 22.911 123.258 22.9704H123.255Z" fill="black"/>
<path d="M123.094 23.879C123.083 23.9419 123.125 24.0013 123.185 24.0118L124.6 24.2599L124.652 23.9663L123.125 23.6973L123.094 23.879Z" fill="black"/>
<path d="M126.945 23.5049L125.529 23.2568L125.477 23.5504L127.008 23.8194L127.039 23.6377C127.05 23.5748 127.008 23.5154 126.948 23.5049H126.945Z" fill="black"/>
<path d="M124.544 20.944L126.515 21.29C126.585 21.3039 126.654 21.255 126.665 21.1851C126.679 21.1152 126.63 21.0453 126.56 21.0349L124.589 20.6889C124.519 20.6749 124.449 20.7239 124.439 20.7937C124.429 20.8636 124.474 20.9335 124.544 20.944Z" fill="black"/>
<path d="M125.816 16.3555C122.433 15.758 119.208 18.0189 118.61 21.4015C118.013 24.7841 120.274 28.0095 123.656 28.607C127.039 29.2046 130.264 26.9437 130.862 23.5611C131.459 20.1784 129.199 16.9531 125.816 16.3555ZM123.936 25.49L122.206 25.8499C122.136 25.8639 122.063 25.8324 122.024 25.7695L121.85 25.4795C121.787 25.3782 121.846 25.2454 121.962 25.2209L123.691 24.861C123.761 24.847 123.835 24.8785 123.873 24.9414L124.048 25.2314C124.111 25.3327 124.051 25.4655 123.936 25.49ZM127.476 26.4684L127.193 26.7026C127.137 26.7515 127.056 26.755 126.994 26.7165L125.487 25.787C125.386 25.7241 125.379 25.5843 125.47 25.5075L125.753 25.2733C125.809 25.2279 125.889 25.2209 125.952 25.2594L127.458 26.1889C127.56 26.2518 127.567 26.3916 127.476 26.4684ZM127.528 25.1021C127.507 25.2279 127.388 25.3083 127.263 25.2873L122.451 24.4382C122.342 24.4207 122.269 24.3159 122.29 24.2075L122.605 22.4149C122.626 22.2926 122.744 22.2087 122.87 22.2297L127.654 23.0718C127.78 23.0928 127.86 23.2116 127.839 23.3374L127.528 25.1021ZM129.076 20.1854C129.059 20.2798 128.971 20.3427 128.877 20.3252L122.804 19.2524C122.709 19.235 122.622 19.2979 122.605 19.3922L122.269 21.2862C122.29 21.2827 122.308 21.2827 122.328 21.2862L128.454 22.366C128.549 22.3834 128.611 22.4708 128.594 22.5651L128.559 22.7713C128.542 22.8657 128.454 22.9286 128.36 22.9111L122.234 21.8313C122.213 21.8278 122.196 21.8208 122.178 21.8104L122.168 21.8767C121.755 24.2215 120.896 25.1895 120.56 25.49C120.487 25.5564 120.375 25.5459 120.312 25.4725L120.096 25.2104C120.04 25.144 120.043 25.0462 120.103 24.9833C120.382 24.6863 121.13 23.7393 121.458 21.8733L122.021 18.6863C122.038 18.592 122.126 18.5291 122.22 18.5465L125.124 19.0567C125.246 19.0777 125.351 18.9659 125.32 18.8436L125.302 18.7772C125.278 18.6863 125.334 18.592 125.425 18.5675L125.732 18.4871C125.823 18.4627 125.917 18.5186 125.942 18.6094L126.078 19.1231C126.096 19.1895 126.148 19.2384 126.214 19.2489L128.985 19.7382C129.08 19.7556 129.143 19.843 129.125 19.9373L129.083 20.1819L129.076 20.1854ZM123.674 20.5279L122.884 20.3881C122.79 20.3706 122.727 20.2833 122.744 20.1889L122.779 19.9863C122.797 19.8919 122.884 19.829 122.978 19.8465L123.768 19.9863C123.863 20.0037 123.95 19.9408 123.967 19.8465C123.985 19.7521 124.072 19.6892 124.167 19.7067L124.443 19.7556C124.537 19.7731 124.6 19.8605 124.582 19.9548C124.565 20.0492 124.628 20.1365 124.722 20.154L126.609 20.486C126.704 20.5034 126.791 20.4405 126.808 20.3462C126.826 20.2518 126.913 20.1889 127.008 20.2064L127.284 20.2553C127.378 20.2728 127.441 20.3602 127.423 20.4545C127.406 20.5489 127.469 20.6362 127.563 20.6537L128.36 20.7935C128.454 20.8109 128.517 20.8983 128.5 20.9927L128.465 21.1953C128.447 21.2897 128.36 21.3526 128.266 21.3351L127.469 21.1953C127.374 21.1779 127.287 21.2408 127.27 21.3351L127.207 21.688C127.189 21.7824 127.102 21.8453 127.008 21.8278L126.564 21.7509L124.338 21.3596L123.894 21.2827C123.8 21.2652 123.737 21.1779 123.754 21.0835L123.817 20.7306C123.835 20.6362 123.772 20.5489 123.677 20.5314L123.674 20.5279Z" fill="black"/>
<path d="M126.49 64.7285V64.7984V65.5951H127.577H128.716V64.7285H127.577H126.49Z" fill="black"/>
<path d="M122.412 63.0234V63.8936H123.499H124.586V63.7852V63.0234H123.499H122.412Z" fill="black"/>
<path d="M126.49 63.7852V63.8936H127.577H128.716V63.0234H127.577H126.49V63.7852Z" fill="black"/>
<path d="M122.412 64.7285V65.5951H123.499H124.586V64.7984V64.7285H123.499H122.412Z" fill="black"/>
<path d="M86.1503 65.0957H84.6477H83.1416V65.9938H84.6477H86.1503V65.0957Z" fill="black"/>
<path d="M167.18 49.9718H152.905C153.425 49.6642 153.82 49.3218 154.086 48.9479C154.24 48.7347 154.334 48.5321 154.393 48.3468C160.386 48.1756 162.448 45.6946 163.06 44.6288C166.708 44.5624 168.839 43.549 170.069 42.5321C171.296 41.5152 171.621 40.4914 171.645 40.4075C171.708 40.1943 171.666 39.9672 171.534 39.7925C171.401 39.6142 171.195 39.5094 170.974 39.5094H134.489C134.29 39.5094 134.101 39.5933 133.968 39.7435C133.933 39.7855 130.869 43.1017 124.687 44.489C123.922 41.1099 121.294 38.4541 117.971 37.6888V37.6539C117.971 36.962 117.978 36.2945 117.985 35.6551C118.027 32.6149 118.055 30.4204 117.132 29.4839C116.828 29.1764 116.437 29.0156 116 29.0156C115.563 29.0156 115.168 29.1764 114.864 29.4839C113.945 30.4204 113.973 32.6149 114.012 35.6551C114.019 36.2945 114.029 36.962 114.029 37.6539V37.6888C110.706 38.4541 108.078 41.1099 107.313 44.489C104.926 43.9543 103.053 43.1471 101.718 42.4203C99.2756 41.0959 98.0386 39.754 98.0281 39.7435C97.8953 39.5933 97.7066 39.5094 97.5109 39.5094H61.0255C60.8054 39.5094 60.5957 39.6142 60.4664 39.7925C60.3336 39.9672 60.2917 40.1943 60.3546 40.4075C60.4035 40.5752 61.6406 44.496 68.9404 44.6288C69.5485 45.6946 71.6102 48.1756 77.6031 48.3434C77.6625 48.532 77.7569 48.7347 77.9107 48.9479C78.1762 49.3218 78.5711 49.6642 79.0918 49.9718H64.817C57.1991 49.9718 51 56.1709 51 63.7923C51 71.4136 57.1991 77.6093 64.817 77.6093H71.9876C73.4552 80.2266 76.2543 81.9983 79.4587 81.9983H152.538C155.746 81.9983 158.545 80.2266 160.012 77.6093H167.18C174.801 77.6093 181 71.4101 181 63.7923C181 56.1744 174.801 49.9718 167.18 49.9718ZM124.247 49.9718C124.68 48.9095 124.918 47.7493 124.918 46.5297C124.918 46.3131 124.911 46.0964 124.893 45.8833C130.684 44.6218 133.926 41.7528 134.783 40.9072H169.741C169.556 41.1238 169.315 41.358 169 41.5956C168.015 42.3434 166.117 43.2345 162.675 43.2345H143.662C143.278 43.2345 142.963 43.5455 142.963 43.9334C142.963 44.3213 143.278 44.6323 143.662 44.6323H161.305C160.379 45.5932 158.272 46.9561 153.754 46.9561H135.31C134.922 46.9561 134.611 47.2671 134.611 47.6549C134.611 48.0428 134.922 48.3538 135.31 48.3538H152.758C152.534 48.567 152.139 48.8465 151.455 49.1331C150.77 49.4196 149.791 49.7132 148.397 49.9718C148.121 50.0207 147.827 50.0696 147.52 50.1185C146.601 50.2548 145.531 50.3771 144.284 50.4715C144.06 50.4889 143.83 50.5064 143.592 50.5204C143.159 50.5483 142.704 50.5728 142.233 50.5938C142.212 50.5938 142.191 50.5938 142.17 50.5973C141.453 50.6287 140.688 50.6497 139.87 50.6637C139.318 50.6741 138.742 50.6776 138.144 50.6776H125.089C124.806 50.468 124.516 50.2513 124.222 50.0277C124.233 50.0102 124.24 49.9892 124.247 49.9718ZM127.577 60.0916H131.543L131.162 61.2867H126.49V61.9402H130.348V66.6856H126.49V67.3391H130.946L130.512 68.4993H126.49V69.3694H131.491L131.872 70.5295H119.1C119.208 70.1312 119.372 69.7677 119.533 69.3694H124.586V68.4993H120.455L120.022 67.3391H124.586V66.6856H120.78V61.9402H124.586V61.2867H119.914L119.425 60.0916H124.586V59.2215C124.205 59.2215 123.88 59.2565 123.499 59.2949C122.521 59.3299 121.542 59.3683 120.511 59.4032C120.403 58.9699 120.295 58.5716 120.078 58.2081C121.221 58.2081 122.36 58.1732 123.503 58.0998C124.914 57.9915 126.274 57.8832 127.577 57.7364C128.391 57.6281 129.153 57.5197 129.967 57.4114C130.184 57.7364 130.401 58.0649 130.673 58.3165C130.781 58.4597 130.89 58.5331 130.89 58.6065C130.89 58.6415 130.834 58.6799 130.781 58.6799L130.509 58.6449C129.639 58.7882 128.66 58.9 127.574 59.0084C127.249 59.0433 126.868 59.0818 126.487 59.1167V60.0951H127.574L127.577 60.0916ZM111.342 58.4982L110.853 59.9099H100.827L100.282 58.4982H111.342ZM105.394 53.578C106.02 53.0783 106.719 52.5611 107.334 52.1034C107.348 52.0929 107.358 52.0859 107.372 52.0754C107.872 51.7015 108.396 51.3136 108.931 50.9048C109.14 50.744 109.347 50.5903 109.549 50.44C111.29 49.1576 112.701 48.2944 113.69 47.7877C113.76 47.8821 113.833 47.9694 113.91 48.0533C113.596 48.3958 113.204 48.7941 112.729 49.2379C112.058 49.8704 111.22 50.5973 110.203 51.394C110.011 51.5478 109.808 51.7015 109.602 51.8588C109.43 51.988 109.263 52.1208 109.095 52.2501C108.728 52.5332 108.368 52.8127 108.026 53.0853C107.816 53.2495 107.606 53.4138 107.397 53.578C105.828 54.7976 104.318 55.9158 103.7 55.8249C103.658 55.818 103.623 55.8075 103.574 55.7411C103.312 55.3846 104.234 54.5075 105.394 53.578ZM110.744 62.9536L110.308 64.3653H101.592L101.103 62.9536H110.744ZM111.995 68.024L112.432 69.4358H99.6286C99.8452 68.964 100.065 68.4923 100.226 68.024H111.992H111.995ZM111.178 52.4004C112.582 51.2927 113.826 50.1779 114.735 49.217C114.864 49.0807 114.987 48.9479 115.098 48.8221C115.381 48.9164 115.686 48.9689 116 48.9689C116.314 48.9689 116.619 48.9164 116.902 48.8221C117.013 48.9479 117.136 49.0807 117.265 49.217C117.796 49.7796 118.443 50.3946 119.166 51.0306C119.683 51.4814 120.239 51.9426 120.822 52.4004C120.26 52.8826 119.631 53.281 118.949 53.578C118.044 53.9729 117.045 54.193 116 54.193C114.955 54.193 113.956 53.9729 113.051 53.578C112.369 53.281 111.74 52.8826 111.178 52.4004ZM128.423 55.7411C128.374 55.8075 128.339 55.818 128.297 55.8249C127.671 55.9123 126.165 54.7976 124.603 53.578C124.394 53.4138 124.184 53.2495 123.974 53.0853C123.628 52.8127 123.272 52.5367 122.905 52.2501C122.737 52.1208 122.566 51.9915 122.395 51.8588C122.189 51.7015 121.989 51.5478 121.797 51.394C120.068 50.0347 118.848 48.8815 118.09 48.0533C118.167 47.9694 118.24 47.8821 118.31 47.7877C119.299 48.2944 120.714 49.1576 122.458 50.447C122.657 50.5938 122.86 50.7475 123.069 50.9048C123.604 51.3136 124.125 51.7015 124.628 52.0754C124.642 52.0859 124.652 52.0929 124.666 52.1034C125.281 52.5611 125.977 53.0783 126.606 53.578C127.766 54.5075 128.685 55.3846 128.423 55.7411ZM117.953 39.125C120.602 39.8519 122.678 42.0219 123.314 44.7546C123.422 45.2053 123.489 45.6701 123.51 46.1453C123.517 46.2746 123.52 46.4004 123.52 46.5297C123.52 47.4523 123.359 48.3399 123.062 49.1611C122.038 48.4202 120.326 47.2391 118.841 46.4913C118.862 46.348 118.872 46.2048 118.872 46.058C118.872 45.0446 118.355 44.1465 117.576 43.6259C117.786 42.4867 117.911 40.9841 117.953 39.125ZM115.86 30.4658C115.895 30.4309 115.927 30.4134 116 30.4134C116.073 30.4134 116.101 30.4309 116.136 30.4658C116.65 30.9865 116.619 33.3522 116.587 35.6376C116.58 36.2281 116.573 36.8467 116.573 37.4861V37.6539C116.573 38.0837 116.57 38.4925 116.559 38.8839C116.514 40.701 116.374 42.1302 116.21 43.1541C116.14 43.1506 116.07 43.1471 116 43.1471C115.93 43.1471 115.86 43.1506 115.79 43.1541C115.626 42.1302 115.486 40.701 115.441 38.8839C115.43 38.4925 115.427 38.0837 115.427 37.6539V37.4861C115.427 36.8467 115.416 36.2281 115.409 35.6376C115.381 33.3487 115.35 30.9865 115.86 30.4658ZM114.532 45.9252C114.557 45.6282 114.662 45.3591 114.833 45.139C115.098 44.779 115.521 44.5449 116 44.5449C116.479 44.5449 116.902 44.779 117.167 45.139C117.338 45.3591 117.443 45.6282 117.468 45.9252C117.468 45.9671 117.475 46.0126 117.475 46.058C117.475 46.8932 116.811 47.5711 116 47.5711C115.189 47.5711 114.525 46.8932 114.525 46.058C114.525 46.0126 114.529 45.9671 114.532 45.9252ZM108.49 46.1488C108.511 45.6736 108.578 45.2053 108.686 44.7546C109.319 42.0219 111.394 39.8519 114.047 39.125C114.089 40.9841 114.214 42.4867 114.424 43.6259C113.645 44.1465 113.128 45.0446 113.128 46.058C113.128 46.2048 113.138 46.348 113.159 46.4913C111.677 47.2391 109.962 48.4202 108.938 49.1611C108.641 48.3399 108.48 47.4523 108.48 46.5297C108.48 46.4039 108.483 46.2746 108.49 46.1488ZM78.2461 46.9561C73.7243 46.9561 71.6172 45.5932 70.6946 44.6323H88.3346C88.7224 44.6323 89.0334 44.3178 89.0334 43.9334C89.0334 43.549 88.7224 43.2345 88.3346 43.2345H69.3248C65.8828 43.2345 63.9818 42.3434 62.9964 41.5956C62.6854 41.358 62.4443 41.1238 62.2591 40.9072H97.2139C98.07 41.7528 101.316 44.6218 107.107 45.8833C107.089 46.0964 107.082 46.3131 107.082 46.5297C107.082 47.7493 107.32 48.9095 107.753 49.9718C107.76 49.9892 107.767 50.0067 107.774 50.0242C107.481 50.2513 107.194 50.4645 106.911 50.6776H93.8558C93.2582 50.6776 92.6816 50.6741 92.1295 50.6637C91.3118 50.6497 90.5465 50.6287 89.8302 50.5973C89.8092 50.5938 89.7882 50.5938 89.7673 50.5938C89.2955 50.5728 88.8412 50.5483 88.4079 50.5204C88.1703 50.5064 87.9397 50.4889 87.716 50.4715C86.0492 50.3457 84.6968 50.1709 83.6031 49.9718C82.2053 49.7132 81.2269 49.4196 80.542 49.1331C79.8571 48.8465 79.4657 48.567 79.2385 48.3538H96.6897C97.0741 48.3538 97.3886 48.0393 97.3886 47.6549C97.3886 47.2706 97.0741 46.9561 96.6897 46.9561H78.2461ZM64.817 75.862C58.1601 75.862 52.7472 70.4492 52.7472 63.7923C52.7472 57.1354 58.1601 51.719 64.817 51.719H85.9374C87.0416 51.8378 88.2577 51.9286 89.5786 51.9846C90.896 52.0475 92.3252 52.0754 93.8558 52.0754H105.041C104.35 52.6066 103.742 53.1028 103.263 53.578H64.817C61.997 53.578 59.4426 54.7207 57.5975 56.5693C55.7489 58.4178 54.6063 60.9722 54.6063 63.7923C54.6063 69.4323 59.177 74.003 64.817 74.003H70.9218C70.9602 74.646 71.0755 75.268 71.2503 75.862H64.817ZM84.6479 69.1702L80.7551 69.7223V68.5307C80.7551 68.4399 80.811 68.328 80.9578 68.3106C81.9852 68.1638 83.362 67.9611 84.6479 67.7794C85.1616 67.706 85.6753 67.6326 86.154 67.5767V67.0456H81.8943C81.8594 67.0456 81.8209 67.0071 81.8209 66.9722V62.384C81.8209 62.3106 81.8768 62.1638 82.0585 62.1638H86.154V61.3916H82.6666V60.3642C82.6666 60.2349 82.7574 60.1266 82.8867 60.1266H86.154V59.1167L84.6479 59.3368L82.2787 59.6479V60.3817C82.2787 60.6193 82.2053 60.8395 82.0585 61.0421L81.1395 61.9612C81.0102 62.0171 80.9368 61.9996 80.9194 61.8878V58.6939C80.9194 58.5087 81.0487 58.4737 81.1779 58.4562L82.2787 58.292L84.6479 57.9426L86.8704 57.6316L89.0928 57.9426L91.4621 58.292L92.5628 58.4562C92.6921 58.4737 92.8214 58.5122 92.8214 58.6939V61.8878C92.8039 61.9996 92.7306 62.0171 92.6013 61.9612L91.6822 61.0421C91.5355 60.8395 91.4621 60.6193 91.4621 60.3817V59.6479L89.0928 59.3368L87.5867 59.1167V60.1266H90.8366C90.9659 60.1266 91.0742 60.2384 91.0742 60.3642V61.3916H87.5867V62.1638H91.6822C91.8674 62.1638 91.9198 62.3106 91.9198 62.384V66.9722C91.9198 67.0071 91.8814 67.0456 91.8465 67.0456H87.5867V67.5767L89.0928 67.7794L92.7445 68.2756C92.8738 68.2931 92.9472 68.3665 92.9647 68.5132V69.6874L89.0928 69.1562L87.5867 68.9535V70.1277C87.5867 70.2185 87.5693 70.3129 87.5308 70.3129H86.2099C86.175 70.3129 86.154 70.222 86.154 70.1277V68.9535L84.6479 69.1737V69.1702ZM70.2159 60.165V63.1039H74.0178C73.9445 63.4882 73.595 64.5925 73.0639 64.61H69.7791C68.7133 64.61 68.7133 64.0963 68.7133 63.1772V59.9449L68.0528 59.854L67.5566 59.9274C67.4483 61.3951 67.4658 62.6461 66.5852 63.7084C65.6871 64.8091 63.2061 64.9943 63.2061 64.9943L62.5806 63.4323C62.5456 63.3205 62.7273 63.4882 63.6464 63.3764C64.2509 63.303 64.8205 63.2122 65.2608 62.7334C65.9212 62.0346 65.9946 60.5669 66.0121 60.1441L63.4612 60.511V61.2273C63.4786 61.4859 63.3878 61.7061 63.241 61.8878L62.322 62.8243C62.1927 62.8802 62.1193 62.8418 62.1018 62.7509V59.557C62.1018 59.3543 62.2311 59.3194 62.3604 59.2984L63.0383 59.2076L67.333 58.5821V57.8657C67.333 57.7189 67.4238 57.5896 67.5357 57.5896H68.563C68.6749 57.5896 68.7657 57.7189 68.7657 57.8657V58.5821L72.9346 59.1866L73.7418 59.2984C73.8886 59.3159 74.0004 59.3543 74.0178 59.557V62.7509C73.9794 62.8418 73.906 62.8802 73.7802 62.8243L72.8612 61.8878C72.7144 61.7026 72.641 61.4824 72.641 61.2273V60.511L70.2194 60.1615L70.2159 60.165ZM68.0494 70.3373H61.9725V69.2191C61.9725 69.0898 62.0844 68.9815 62.2102 68.9815H67.333C67.3155 68.9081 67.3155 68.8347 67.3155 68.7439V66.4305L62.8007 67.0735V65.8994C62.8007 65.8085 62.8741 65.6967 63.0034 65.6792C64.6912 65.4416 66.3615 65.183 68.0528 64.9454L73.0813 65.6792C73.2106 65.6967 73.3015 65.7701 73.3015 65.9169V67.0735L68.7482 66.4305V68.9815H73.8711C74.0004 68.9815 74.0912 69.0933 74.0912 69.2191V70.3373H68.0528H68.0494ZM158.908 75.862C158.667 76.498 158.335 77.0851 157.926 77.6093C156.679 79.2167 154.729 80.251 152.538 80.251H79.4587C77.2677 80.251 75.3213 79.2167 74.0738 77.6093C73.6649 77.0851 73.3329 76.498 73.0918 75.862C72.8682 75.2785 72.7249 74.653 72.6725 74.003H159.328C159.275 74.653 159.132 75.2785 158.908 75.862ZM138.536 65.2529V64.0054C138.553 63.8587 138.626 63.7853 138.756 63.7678L146.339 62.6845C147.66 62.8872 148.984 63.034 150.322 63.2541C150.452 63.2541 150.525 63.4009 150.525 63.4743V64.7392L146.339 64.1347L138.536 65.2529ZM159.541 70.3269C159.502 70.3269 159.485 70.236 159.485 70.1242V64.4527C159.247 65.0048 158.88 65.5709 158.513 66.0671C158.108 65.9204 157.594 65.7177 157.192 65.5709C158.146 64.285 158.863 62.7614 159.45 61.1295H157.797V59.9728C157.814 59.8435 157.888 59.7702 158.017 59.7527H159.485V57.8622C159.485 57.698 159.632 57.642 159.705 57.642H160.676C160.823 57.642 160.914 57.7504 160.914 57.8797V59.7527H162.256C162.385 59.7527 162.476 59.8435 162.493 59.9728V61.1295H160.914V61.4615C161.665 62.6531 162.42 63.7923 163.171 64.893C162.787 65.1691 162.399 65.4242 162.015 65.7002C161.609 65.1481 161.225 64.6729 160.914 64.0473V70.1242C160.914 70.2325 160.879 70.3269 160.858 70.3269H159.537H159.541ZM167.18 75.862H160.75C160.924 75.268 161.04 74.646 161.078 74.003H167.18C170 74.003 172.554 72.8603 174.403 71.0118C176.251 69.1632 177.394 66.6123 177.394 63.7923C177.394 58.1522 172.82 53.578 167.18 53.578H128.734C128.251 53.1028 127.647 52.6066 126.955 52.0754H138.144C141.209 52.0754 143.851 51.9566 146.063 51.719H167.18C173.836 51.719 179.253 57.1354 179.253 63.7923C179.253 70.4492 173.836 75.862 167.18 75.862ZM169.821 59.571C169.951 59.5884 170.007 59.7003 170.007 59.8086V60.9827L168.815 60.78V69.0968C168.797 69.9215 167.99 70.3828 167.438 70.2884L164.961 69.939L164.042 69.8097L164.279 68.3944L164.957 68.4853L167.379 68.8347V60.7381L164.957 61.0876L163.231 61.3461V60.172C163.231 60.0637 163.304 59.9693 163.416 59.9519L164.957 59.7317L167.379 59.3997V57.8377C167.379 57.7469 167.452 57.6001 167.599 57.6001H168.57C168.735 57.6176 168.808 57.7084 168.808 57.8377V59.4172L169.818 59.564L169.821 59.571ZM163.339 62.709C163.689 62.5238 164.017 62.3246 164.384 62.1569C164.419 62.1394 164.587 62.066 164.695 62.2477C164.768 62.3595 164.842 62.5238 164.954 62.7265C165.579 63.939 166.662 66.3991 166.568 66.3991C166.163 66.5633 165.761 66.7485 165.355 66.9128C165.226 66.5633 165.097 66.2349 164.95 65.9029C164.492 64.8196 163.958 63.7363 163.336 62.709H163.339Z" fill="black"/>
<path d="M90.5952 64.0507V63.2051H89.0891H87.583V64.0507H89.0891H90.5952Z" fill="black"/>
<path d="M86.1503 64.0507V63.2051H84.6477H83.1416V64.0507H84.6477H86.1503Z" fill="black"/>
<path d="M90.5952 65.9938V65.0957H89.0891H87.583V65.9938H89.0891H90.5952Z" fill="black"/>
</g>
<defs>
<clipPath id="clip0_79_30414">
<rect width="130" height="67.9982" fill="white" transform="translate(51 14)"/>
</clipPath>
</defs>
</svg>
