<svg width="50" height="50" viewBox="0 0 50 50" fill="none" xmlns="http://www.w3.org/2000/svg">
<path d="M16.0395 20.1304C17.4045 20.1304 18.6408 20.6841 19.5357 21.5791C20.4306 22.474 20.9844 23.7103 20.9844 25.0753C20.9844 25.7387 20.8504 26.377 20.6076 26.9635C19.8413 28.8145 18.0345 30.0202 16.0395 30.0202V30.0163H13.6099V30.0202C13.0711 30.0202 12.6343 29.5834 12.6343 29.0446V21.1061C12.6343 20.5672 13.0711 20.1305 13.6099 20.1305H16.0395V20.1304ZM18.1561 22.9587C17.6143 22.4169 16.8659 22.0816 16.0395 22.0816H14.5855V28.0727H16.0395V28.0688C17.248 28.0688 18.3434 27.3483 18.8089 26.2241C18.9534 25.8749 19.0332 25.487 19.0332 25.0753C19.0332 24.2489 18.698 23.5004 18.1561 22.9587Z" fill="#5D4F3F"/>
<path d="M26.337 21.106C26.337 20.5671 25.9002 20.1304 25.3613 20.1304C24.8225 20.1304 24.3857 20.5671 24.3857 21.106V29.0444C24.3857 29.5833 24.8226 30.02 25.3613 30.02C25.9002 30.02 26.337 29.5833 26.337 29.0444V21.106Z" fill="#5D4F3F"/>
<path d="M23.249 28.0688C22.7102 28.0688 22.2734 28.5056 22.2734 29.0445C22.2734 29.5833 22.7103 30.0201 23.249 30.0201H27.5351C28.074 30.0201 28.5108 29.5833 28.5108 29.0445C28.5108 28.5056 28.074 28.0688 27.5351 28.0688H23.249Z" fill="#5D4F3F"/>
<path d="M23.1885 20.1304C22.6496 20.1304 22.2129 20.5671 22.2129 21.106C22.2129 21.6448 22.6498 22.0816 23.1885 22.0816H27.4746C28.0135 22.0816 28.4502 21.6447 28.4502 21.106C28.4502 20.5671 28.0133 20.1304 27.4746 20.1304H23.1885Z" fill="#5D4F3F"/>
<path d="M37.2546 21.6397C37.5492 21.1914 37.4247 20.5891 36.9764 20.2945C36.5281 19.9999 35.9258 20.1243 35.6312 20.5727L33.7897 23.3653L31.9482 20.5727C31.6536 20.1243 31.0512 19.9999 30.603 20.2945C30.1546 20.5891 30.0302 21.1915 30.3248 21.6397L32.9281 25.5876C33.0022 25.7273 33.1113 25.8511 33.2526 25.9443C33.7024 26.2408 34.3075 26.1166 34.6042 25.6669L34.6015 25.6634L37.2546 21.6397Z" fill="#5D4F3F"/>
<path d="M34.7652 25.1294C34.7652 24.5906 34.3284 24.1538 33.7896 24.1538C33.2507 24.1538 32.814 24.5907 32.814 25.1294V29.0442C32.814 29.5831 33.2507 30.0198 33.7896 30.0198C34.3284 30.0198 34.7652 29.5831 34.7652 29.0442V25.1294Z" fill="#5D4F3F"/>
<path fill-rule="evenodd" clip-rule="evenodd" d="M46.9776 25.0752C46.9776 12.9519 37.1496 3.12402 25.0264 3.12402C12.9032 3.12402 3.0752 12.9519 3.0752 25.0752C3.0752 37.1986 12.9032 47.0264 25.0264 47.0264C37.1496 47.0264 46.9776 37.1984 46.9776 25.0752ZM43.1442 25.0752C43.1442 35.0815 35.0326 43.193 25.0264 43.193C15.0201 43.193 6.90855 35.0815 6.90855 25.0752C6.90855 15.069 15.0201 6.95738 25.0264 6.95738C35.0325 6.95738 43.1442 15.069 43.1442 25.0752Z" fill="#5D4F3F"/>
</svg>
