<svg width="28" height="28" viewBox="0 0 28 28" fill="none" xmlns="http://www.w3.org/2000/svg">
<path d="M15.1325 21.3893V14.637H17.3974L17.7371 12.0324H15.1325V10.546C15.1325 10.1308 15.156 9.87125 15.2032 9.76744C15.2032 9.73913 15.241 9.6542 15.3165 9.51264C15.4863 9.20121 15.9252 9.0455 16.633 9.0455H17.8362V6.70981C17.2039 6.63431 16.5339 6.59656 15.8261 6.59656C14.4577 6.59656 13.4857 7.09673 12.91 8.09707C12.5797 8.65386 12.4146 9.29558 12.4146 10.0222V12.0324H10.1638V14.637H12.4146V21.3893H15.1325ZM14 28C12.1314 28 10.3478 27.6461 8.64914 26.9383C6.95045 26.24 5.43579 25.2255 4.10516 23.8948C2.77452 22.5642 1.75531 21.0495 1.04752 19.3509C0.349174 17.6522 0 15.8686 0 14C0 12.1314 0.349174 10.3478 1.04752 8.64914C1.75531 6.95045 2.77452 5.43579 4.10516 4.10516C5.43579 2.77452 6.95045 1.76003 8.64914 1.06168C10.3478 0.353893 12.1314 0 14 0C15.8686 0 17.6522 0.353893 19.3509 1.06168C21.0495 1.76003 22.5642 2.77452 23.8948 4.10516C25.2255 5.43579 26.24 6.95045 26.9383 8.64914C27.6461 10.3478 28 12.1314 28 14C28 15.8686 27.6461 17.6522 26.9383 19.3509C26.24 21.0495 25.2255 22.5642 23.8948 23.8948C22.5642 25.2255 21.0495 26.24 19.3509 26.9383C17.6522 27.6461 15.8686 28 14 28Z" fill="white"/>
</svg>
