<svg width="50" height="50" viewBox="0 0 50 50" fill="none" xmlns="http://www.w3.org/2000/svg">
<path fill-rule="evenodd" clip-rule="evenodd" d="M40.4492 33.7403L45.8496 12.8742C46.041 12.1361 46.0499 11.3625 45.8753 10.6202C45.7007 9.87793 45.3479 9.18935 44.8475 8.61399C44.3471 8.03863 43.714 7.5938 43.0031 7.31796C42.2923 7.04213 41.5249 6.94358 40.7673 7.03085L8.15854 10.7868C7.52297 10.8598 6.90903 11.062 6.35441 11.3808C5.79979 11.6997 5.31621 12.1286 4.93336 12.6411C4.5505 13.1536 4.27646 13.739 4.12805 14.3613C3.97964 14.9836 3.96 15.6297 4.07034 16.2598L6.58919 30.7187C6.76412 31.7228 7.26112 32.6427 8.0051 33.3394C8.74907 34.0361 9.69959 34.4716 10.713 34.5803L14.8025 35.0194L23.6687 42.5785C24.6564 43.4211 26.1303 42.4487 25.7485 41.209L24.1422 36.0224L35.4038 37.2303C36.5236 37.3508 37.6495 37.0646 38.5757 36.4239C39.502 35.7831 40.1669 34.8306 40.4492 33.7403ZM19.051 21.6218C19.3895 23.054 18.5029 24.4895 17.0707 24.8281C15.6385 25.1666 14.203 24.28 13.8645 22.8478C13.5259 21.4156 14.4125 19.9801 15.8447 19.6415C17.2769 19.303 18.7124 20.1896 19.051 21.6218ZM27.667 22.249C27.667 23.721 26.4738 24.9142 25.0018 24.9142C23.5299 24.9142 22.3366 23.721 22.3366 22.249C22.3366 20.777 23.5299 19.5838 25.0018 19.5838C26.4738 19.5838 27.667 20.777 27.667 22.249ZM35.4233 24.1346C36.4639 23.0939 36.4639 21.4066 35.4232 20.366C34.3826 19.3253 32.6953 19.3253 31.6546 20.366C30.614 21.4066 30.614 23.0939 31.6546 24.1346C32.6953 25.1753 34.3826 25.1753 35.4233 24.1346Z" fill="#5D4F3F"/>
</svg>
