<svg width="231" height="95" viewBox="0 0 231 95" fill="none" xmlns="http://www.w3.org/2000/svg">
<g clip-path="url(#clip0_197_4653)">
<path d="M40.6461 30.1865H30.6799V33.2604H24.7299H18V39.2861V63.346H24.7299V49.3932L26.0217 48.7135V63.346H32.2804V45.4203V44.6186V39.2861L24.7299 43.2591V39.2861H32.2804H51.8311V33.2604H40.6461V30.1865Z" fill="black"/>
<path d="M50.9212 39.7576H44.37V41.1009H33.0659V46.7665H44.37V56.5106C44.37 56.9927 42.672 57.1931 42.0166 57.1931C41.0741 57.1931 33.4234 56.9115 33.4234 56.9115V57.4341C35.72 57.835 36.6191 58.4389 37.3584 59.2812C38.0951 60.164 38.3415 61.4504 38.4661 63.2568C44.9333 63.2568 50.9212 62.8425 50.9212 56.8708V46.7638H51.8312V41.0982H50.9212V39.7549V39.7576Z" fill="black"/>
<path d="M42.9861 51.969C42.1871 49.8403 39.3489 47.7821 33.4531 47.9175L33.1309 48.2316C34.6123 49.8511 36.2047 51.9094 37.3259 54.1518C39.005 57.5127 44.305 55.4815 42.9888 51.969H42.9861Z" fill="black"/>
<path d="M74.3932 33.2607V32.4564C75.8475 32.2478 76.2131 31.671 76.316 30.9398L66.3417 30V33.2607H53.5264V58.0653H66.3417V64.1236H74.3932V58.0653H87.3575V33.2607H74.3932ZM62.6179 48.2967V41.1037H66.3417V48.2967H62.6179ZM78.266 48.2967H74.3932V41.1037H78.266V48.2967Z" fill="black"/>
<path d="M107.661 44.1855H105.893V44.5349H106.548V46.2925H107.011V44.5349H107.661V44.1855Z" fill="black"/>
<path d="M108.398 45.3853H109.31V46.2925H109.776V44.1855H109.31V45.0359H108.398V44.1855H107.935V46.2925H108.398V45.3853Z" fill="black"/>
<path d="M111.9 45.9405H110.716V45.3853H111.813V45.0359H110.716V44.5349H111.891V44.1855H110.253V46.2925H111.9V45.9405Z" fill="black"/>
<path d="M97.7735 46.3283L96.0402 48.4732L94.4911 46.5667C94.3232 46.369 94.2013 46.2038 94.1228 46.0765C94.047 45.9492 93.9793 45.8111 93.9224 45.6621H92.2271V45.6865C92.4735 45.9058 92.6874 46.1388 92.8716 46.3825V50.1334C92.8716 50.5152 92.8527 50.8429 92.8147 51.1138C92.7768 51.3846 92.7091 51.6581 92.6116 51.9343H94.2663C94.1688 51.6527 94.1011 51.3792 94.0605 51.1083C94.0199 50.8375 93.9982 50.5125 93.9982 50.1361V47.5849L96.0294 50.09L98.0226 47.6256V50.1361C98.0226 50.5234 98.001 50.8511 97.9604 51.1192C97.9197 51.3873 97.8493 51.6581 97.7545 51.9343H99.4174C99.3199 51.6581 99.2522 51.3873 99.2116 51.1192C99.1709 50.8511 99.1493 50.5234 99.1493 50.1361V47.157C99.1493 46.8158 99.1791 46.545 99.2413 46.3446C99.3036 46.1469 99.4309 45.9248 99.6259 45.6865V45.6621H98.2068C98.1256 45.8517 97.9793 46.0738 97.7708 46.3283H97.7735Z" fill="black"/>
<path d="M102.061 47.5064C101.698 47.5064 101.367 47.5958 101.072 47.7745C100.777 47.9532 100.539 48.2159 100.363 48.5599C100.187 48.9038 100.097 49.3182 100.097 49.803C100.097 50.5234 100.281 51.065 100.652 51.4333C101.023 51.8016 101.533 51.9858 102.182 51.9858C102.567 51.9858 102.919 51.9154 103.241 51.7718L103.556 50.6615L103.539 50.6452C103.309 50.7888 103.103 50.8917 102.922 50.954C102.74 51.019 102.564 51.0487 102.396 51.0487C102.085 51.0487 101.825 50.9567 101.619 50.7725C101.413 50.5883 101.289 50.2877 101.248 49.868L103.585 49.8057C103.602 49.6676 103.61 49.4888 103.61 49.2694C103.61 48.717 103.477 48.2864 103.214 47.9722C102.952 47.6581 102.567 47.501 102.061 47.501V47.5064ZM101.254 49.2586C101.283 48.8903 101.365 48.6249 101.495 48.4624C101.625 48.2999 101.801 48.2187 102.02 48.2187C102.261 48.2187 102.442 48.3053 102.567 48.4814C102.692 48.6574 102.754 48.9174 102.754 49.2586H101.251H101.254Z" fill="black"/>
<path d="M106.123 51.1054C105.928 51.1054 105.787 51.0648 105.7 50.9862C105.614 50.9077 105.57 50.7723 105.57 50.5854V48.2807H106.727V47.5766H105.57V46.5664H105.54L103.945 48.2509V48.2807H104.482V50.8996C104.482 51.2814 104.571 51.5577 104.747 51.7256C104.923 51.8935 105.205 51.9774 105.595 51.9774C105.8 51.9774 106.014 51.9503 106.239 51.9016L106.846 51.0052L106.83 50.9889C106.583 51.0648 106.35 51.1027 106.125 51.1027L106.123 51.1054Z" fill="black"/>
<path d="M109.232 47.7743C109.034 47.9422 108.823 48.2401 108.593 48.6626V48.1426C108.593 47.9395 108.609 47.75 108.639 47.5766H107.32C107.385 47.7797 107.433 47.972 107.46 48.1508C107.488 48.3295 107.504 48.5299 107.504 48.7547V50.7073C107.504 50.9429 107.488 51.1542 107.455 51.3383C107.423 51.5252 107.366 51.7229 107.282 51.9314H108.815C108.733 51.7229 108.676 51.5252 108.641 51.3383C108.609 51.1515 108.593 50.9429 108.593 50.7073V49.0066C108.842 48.7764 109.11 48.6626 109.389 48.6626C109.589 48.6626 109.806 48.7385 110.041 48.8928L110.196 47.5766C110.109 47.5414 110.006 47.5225 109.89 47.5225C109.649 47.5225 109.432 47.6064 109.234 47.7743H109.232Z" fill="black"/>
<path d="M113.614 47.7715C113.297 47.5955 112.929 47.5088 112.509 47.5088C112.14 47.5088 111.788 47.609 111.45 47.8067C111.111 48.0044 110.841 48.286 110.635 48.6435C110.429 49.0037 110.323 49.4127 110.323 49.8731C110.323 50.3335 110.418 50.7207 110.61 51.0403C110.803 51.3599 111.054 51.5982 111.369 51.7526C111.683 51.9096 112.024 51.9855 112.392 51.9855C112.761 51.9855 113.137 51.8853 113.478 51.6876C113.817 51.4899 114.093 51.2163 114.299 50.867C114.505 50.5203 114.61 50.1358 114.61 49.7106C114.61 49.2556 114.524 48.8629 114.35 48.5325C114.177 48.2021 113.931 47.9475 113.614 47.7715ZM113.175 50.7939C113.021 51.0457 112.815 51.1947 112.555 51.2353C112.249 51.1947 112.002 51.0349 111.815 50.7532C111.629 50.4716 111.537 50.1033 111.537 49.6429C111.537 49.1825 111.615 48.8575 111.775 48.6165C111.932 48.3781 112.138 48.2563 112.387 48.2563C112.576 48.2563 112.747 48.3213 112.904 48.4512C113.061 48.5812 113.183 48.7654 113.272 48.9983C113.362 49.2339 113.408 49.4966 113.408 49.7864C113.408 50.2062 113.332 50.542 113.178 50.7939H113.175Z" fill="black"/>
<path d="M118.759 44.6838C118.759 44.998 118.626 45.4638 118.364 46.0867L117.205 48.8409L116.062 45.9296C115.872 45.4475 115.777 45.0413 115.777 44.7136C115.777 44.5701 115.796 44.4238 115.837 44.2803H114.022V44.3019C114.142 44.4211 114.28 44.6269 114.437 44.9167C114.594 45.2065 114.746 45.5315 114.889 45.8917L116.66 50.39H117.684L119.626 45.7779C119.775 45.4204 119.91 45.1361 120.032 44.9275C120.154 44.719 120.306 44.5105 120.484 44.3019V44.2803H118.683C118.732 44.4157 118.759 44.5484 118.759 44.6838Z" fill="black"/>
<path d="M121.367 45.6369C121.551 45.6369 121.709 45.5719 121.841 45.4392C121.974 45.3065 122.039 45.1467 122.039 44.9571C122.039 44.7675 121.974 44.6077 121.841 44.475C121.709 44.3423 121.551 44.2773 121.367 44.2773C121.183 44.2773 121.015 44.3423 120.883 44.475C120.747 44.6077 120.682 44.7675 120.682 44.9571C120.682 45.1467 120.75 45.3065 120.883 45.4392C121.015 45.5719 121.178 45.6369 121.367 45.6369Z" fill="black"/>
<path d="M121.939 46.7206C121.971 46.5419 122.028 46.3496 122.107 46.1465H120.612C120.69 46.3496 120.747 46.5419 120.78 46.7206C120.812 46.8994 120.828 47.1025 120.828 47.3327V49.1986C120.828 49.4288 120.812 49.632 120.78 49.8134C120.747 49.9949 120.69 50.1872 120.612 50.393H122.107C122.028 50.1899 121.971 49.9976 121.939 49.8134C121.906 49.632 121.89 49.4261 121.89 49.1986V47.3327C121.89 47.1025 121.906 46.8994 121.939 46.7206Z" fill="black"/>
<path d="M124.102 49.1981V46.2218C124.102 45.8291 124.119 45.4553 124.154 45.0979C124.189 44.7431 124.232 44.4533 124.289 44.2285L122.824 44.5048C122.9 44.6835 122.954 44.8731 122.989 45.0708C123.025 45.2685 123.041 45.5366 123.041 45.8697V49.1981C123.041 49.4283 123.025 49.6314 122.992 49.8129C122.96 49.9943 122.903 50.1866 122.824 50.3924H124.319C124.241 50.1893 124.184 49.997 124.151 49.8129C124.119 49.6314 124.102 49.4256 124.102 49.1981Z" fill="black"/>
<path d="M126.299 49.1981V46.2218C126.299 45.8291 126.315 45.4553 126.35 45.0979C126.385 44.7431 126.429 44.4533 126.486 44.2285L125.021 44.5048C125.096 44.6835 125.15 44.8731 125.186 45.0708C125.221 45.2685 125.237 45.5366 125.237 45.8697V49.1981C125.237 49.4283 125.221 49.6314 125.188 49.8129C125.156 49.9943 125.099 50.1866 125.021 50.3924H126.515C126.437 50.1893 126.38 49.997 126.348 49.8129C126.315 49.6314 126.299 49.4256 126.299 49.1981Z" fill="black"/>
<path d="M130.147 49.1982V47.4297C130.147 46.9964 130.023 46.6633 129.774 46.4304C129.525 46.1975 129.156 46.0811 128.669 46.0811C128.284 46.0811 127.946 46.1379 127.653 46.2517L127.339 47.2293L127.353 47.2456C127.697 47.0316 128.038 46.9233 128.376 46.9233C128.596 46.9233 128.769 46.9856 128.896 47.1075C129.024 47.2293 129.086 47.4054 129.086 47.6329V47.7304C128.701 47.8847 128.355 48.0364 128.04 48.1853C127.648 48.3695 127.374 48.551 127.223 48.7297C127.071 48.9084 126.995 49.117 126.995 49.3553C126.995 49.683 127.106 49.943 127.331 50.1326C127.556 50.3221 127.867 50.4169 128.265 50.4169C128.341 50.4169 128.39 50.4169 128.414 50.4088C128.639 50.2057 128.864 50.0378 129.086 49.9078V50.3925H130.386C130.296 50.1948 130.234 50.008 130.199 49.8319C130.164 49.6586 130.147 49.4474 130.147 49.1982ZM129.086 49.6532C129.037 49.6694 128.969 49.6749 128.885 49.6749C128.617 49.6749 128.422 49.6207 128.3 49.5151C128.179 49.4095 128.116 49.2443 128.116 49.0195C128.116 48.8516 128.152 48.6837 128.222 48.5185H129.089V49.6532H129.086Z" fill="black"/>
<path d="M132.642 46.0785C132.309 46.0785 132.011 46.1462 131.748 46.2843C131.485 46.4224 131.285 46.6093 131.144 46.8476C131.003 47.0859 130.93 47.3486 130.93 47.6303C130.93 47.893 131.014 48.1232 131.185 48.3209C131.353 48.5186 131.61 48.6892 131.954 48.8409L131.282 49.2579C131.168 49.3284 131.09 49.3933 131.047 49.4556C131.003 49.5179 130.984 49.5938 130.984 49.6831C130.984 49.8267 131.057 49.9431 131.204 50.0325C131.35 50.1219 131.566 50.1733 131.851 50.1896C131.726 50.2952 131.599 50.3873 131.469 50.4685C131.339 50.5498 131.168 50.6473 130.954 50.7556C130.908 50.845 130.887 50.9425 130.887 51.0454C130.887 51.3135 131.017 51.5274 131.279 51.6872C131.542 51.847 131.908 51.9255 132.382 51.9255C133.018 51.9255 133.59 51.7305 134.093 51.3433C134.277 51.1997 134.416 51.0535 134.51 50.9072C134.605 50.761 134.651 50.5985 134.651 50.4198C134.651 50.2519 134.608 50.0948 134.521 49.9485C134.434 49.805 134.321 49.6831 134.18 49.5856C134.039 49.4881 133.896 49.4286 133.747 49.4015C133.462 49.4015 133.243 49.4015 133.089 49.4096L132.341 49.4177C132.103 49.4177 131.984 49.3473 131.984 49.2092C131.984 49.109 132.032 49.0088 132.133 48.9032C132.268 48.9167 132.414 48.9248 132.574 48.9248C132.912 48.9248 133.21 48.8652 133.47 48.7488C133.73 48.6323 133.931 48.4698 134.074 48.2613C134.218 48.0528 134.291 47.8172 134.291 47.5518C134.291 47.2864 134.191 47.0399 133.993 46.7908C134.261 46.891 134.513 46.9587 134.749 46.9912V46.0352C134.364 46.1706 133.963 46.2518 133.546 46.2816C133.292 46.1435 132.991 46.0731 132.642 46.0731V46.0785ZM132.073 50.1896C132.252 50.1896 132.395 50.1896 132.506 50.1814L133.029 50.1733C133.416 50.1733 133.611 50.3277 133.611 50.6364C133.611 50.7123 133.6 50.7854 133.579 50.8612C133.557 50.9343 133.527 50.9966 133.492 51.0399C133.392 51.0752 133.27 51.1022 133.126 51.1266C132.983 51.1483 132.839 51.1591 132.701 51.1591C132.433 51.1591 132.235 51.1131 132.108 51.0183C131.981 50.9235 131.919 50.7935 131.919 50.631C131.919 50.5525 131.929 50.4793 131.951 50.4198C131.973 50.3602 132.016 50.2816 132.076 50.1923L132.073 50.1896ZM133.097 48.2315C132.996 48.3588 132.864 48.4211 132.693 48.4211C132.479 48.4211 132.306 48.329 132.173 48.1476C132.04 47.9661 131.975 47.7251 131.975 47.4272C131.975 47.1889 132.024 46.9966 132.124 46.853C132.225 46.7095 132.36 46.6364 132.528 46.6364C132.742 46.6364 132.915 46.7366 133.048 46.9397C133.181 47.1401 133.246 47.3947 133.246 47.698C133.246 47.9282 133.197 48.1042 133.097 48.2315Z" fill="black"/>
<path d="M137.035 46.0789C136.68 46.0789 136.36 46.1655 136.07 46.3389C135.781 46.5122 135.55 46.7668 135.38 47.1026C135.209 47.4384 135.123 47.8419 135.123 48.3159C135.123 49.0173 135.304 49.5481 135.664 49.9056C136.024 50.2631 136.523 50.4418 137.154 50.4418C137.527 50.4418 137.871 50.3714 138.186 50.2333L138.492 49.1527L138.478 49.1365C138.253 49.2746 138.053 49.3775 137.877 49.4398C137.701 49.5021 137.53 49.5319 137.365 49.5319C137.062 49.5319 136.807 49.4425 136.607 49.2637C136.406 49.085 136.284 48.7898 136.244 48.3836L138.521 48.324C138.535 48.1886 138.543 48.0153 138.543 47.8013C138.543 47.2651 138.416 46.8426 138.158 46.5366C137.901 46.2305 137.527 46.0762 137.035 46.0762V46.0789ZM136.249 47.7878C136.279 47.4303 136.358 47.1703 136.485 47.0105C136.612 46.8507 136.783 46.7722 136.997 46.7722C137.23 46.7722 137.408 46.8588 137.53 47.0295C137.652 47.2001 137.712 47.4547 137.712 47.7878H136.246H136.249Z" fill="black"/>
<path d="M211.9 58.6534L212.77 52.2891L211.857 51.7582L210.341 56.4489C209.978 57.0528 209.761 57.088 209.398 56.4841C208.659 55.4171 208.025 54.1821 207.524 52.8767C209.831 49.1963 211.454 45.2423 212.366 41.0147L208.55 39.8448C207.917 42.2984 207.083 44.641 206.032 46.8537C206.005 46.6939 205.988 46.5991 205.988 46.5991C205.626 44.1807 205.479 41.5862 205.444 38.9565H212.827V37.0174H205.428L205.409 34.691V30.71H200.729C200.729 30.71 200.767 33.2692 200.837 34.6179H194.852L189.374 32.7682V38.9917C188.466 37.9599 187.632 37.0364 187.632 37.0364L186.254 39.49V32.343C187.269 32.2022 187.524 31.8447 187.597 31.3464L180.079 30.8129V38.8319H178.237V41.3018H180.079V53.6134L178.237 54.0277V59.7069L187.629 57.5945C186.836 59.6825 185.693 61.6893 184.041 63.5201L184.331 63.8044C188.713 61.5078 191.153 58.4936 192.488 55.2871L193.279 59.2384H196.117C195.399 59.8287 194.652 60.4056 193.875 60.9635L197.176 64.1213C199.443 62.2905 201.509 60.4191 203.34 58.4313C203.34 58.4313 203.743 58.0088 204.277 57.3995C204.791 58.5748 205.393 59.7448 206.059 60.8525C207.11 62.5586 209.791 65.2533 212.334 63.3765C213.588 62.3393 212.851 60.1212 211.898 58.648L211.9 58.6534ZM189.374 45.3912C189.374 46.8482 189.325 48.3053 189.23 49.8002C189.181 50.5423 189.122 51.0433 189.122 51.0433C188.962 52.5301 188.705 54.0196 188.312 55.4821V51.7637L186.256 52.2268V41.3018H189.376V45.3912H189.374ZM195.881 53.4401C195.881 54.1875 195.521 54.5396 194.76 54.5396H192.783C192.891 54.2552 192.929 54.1388 192.929 54.1388C193.98 51.1164 194.126 48.0588 194.126 45.3939V45.3641H195.884V53.4428L195.881 53.4401ZM201.907 53.4076C201.401 54.0359 200.87 54.6506 200.32 55.2519V40.6545H194.124V38.9538H200.87C200.943 40.9795 201.087 42.9349 201.268 44.8198C201.395 46.2335 201.376 45.7785 201.376 45.7785C201.653 48.0994 202.037 50.3689 202.611 52.5247C202.192 53.0717 201.904 53.4048 201.904 53.4048L201.907 53.4076Z" fill="black"/>
<path d="M149.898 38.6767L150.462 38.3897V40.6564H155.881V41.2143H150.462V45.1656H155.881V45.7235H150.462V51.2022H160.076V45.7235H157.709V45.1656H160.076V41.2143H157.709V40.6564H160.076V36.7051H153.308V30.8066L143.417 35.8358V36.1391V41.9699V51.2022H149.898V38.6767Z" fill="black"/>
<path d="M159.158 36.0714C161.221 34.8798 161.327 31.1587 154.31 30.8066C154.494 31.3158 155.128 33.1736 155.485 34.4763C155.913 36.0362 157.736 36.8893 159.158 36.0714Z" fill="black"/>
<path d="M177.298 51.9854H167.686V63.7878H177.298V51.9854Z" fill="black"/>
<path d="M170.532 30.8066L160.645 35.8358V36.1391V41.9699V51.2022H167.123V38.6767L167.686 38.3897V40.6564H173.105V41.2143H167.686V45.1656H173.105V45.7235H167.686V51.2022H177.3V45.7235H174.933V45.1656H177.3V41.2143H174.933V40.6564H177.3V36.7051H170.532V30.8066Z" fill="black"/>
<path d="M176.073 36.0714C178.137 34.8798 178.243 31.1587 171.226 30.8066C171.41 31.3158 172.043 33.1736 172.401 34.4763C172.829 36.0362 174.651 36.8893 176.073 36.0714Z" fill="black"/>
<path d="M210.752 36.0714C212.816 34.8798 212.921 31.1587 205.904 30.8066C206.088 31.3158 206.722 33.1736 207.08 34.4763C207.508 36.0362 209.33 36.8893 210.752 36.0714Z" fill="black"/>
<path d="M143.417 51.9854V57.6157H160.644V58.1547H143.417V63.7878H160.644H167.123V58.1547V57.6157V51.9854H160.644H143.417Z" fill="black"/>
</g>
<defs>
<clipPath id="clip0_197_4653">
<rect width="195" height="34.1236" fill="white" transform="translate(18 30)"/>
</clipPath>
</defs>
</svg>
