<svg width="50" height="50" viewBox="0 0 50 50" fill="none" xmlns="http://www.w3.org/2000/svg">
<path d="M20.4997 30.7668C20.4997 28.2835 22.5247 26.2585 24.9997 26.2585C25.4663 26.2585 25.833 25.8918 25.833 25.4251C25.833 24.9668 25.4663 24.5918 24.9997 24.5918C21.5997 24.5918 18.833 27.3585 18.833 30.7668C18.833 31.2251 19.208 31.6001 19.6663 31.6001C20.1247 31.6001 20.4997 31.2251 20.4997 30.7668Z" fill="#5D4F3F"/>
<path d="M44.4998 17.2835C44.0165 16.9585 43.4332 16.7668 42.8082 16.7668H34.6332C34.0248 16.7668 33.4832 16.3501 33.3248 15.7585L32.9748 14.4585C32.6248 13.1418 31.4165 12.2168 30.0498 12.2168H19.9582C19.3582 12.2168 18.7998 12.4001 18.3248 12.7085C18.2498 12.7585 18.1832 12.7918 18.1165 12.8418C18.1082 12.8501 18.0998 12.8585 18.0915 12.8668C17.5915 13.2585 17.2082 13.8085 17.0332 14.4668L16.9165 14.9001L16.6832 15.7585C16.5248 16.3501 15.9832 16.7668 15.3748 16.7668H13.7498V14.3585C13.7498 13.8918 13.3832 13.5251 12.9165 13.5251H9.07484C8.6165 13.5251 8.2415 13.8918 8.2415 14.3585V16.7668H7.19984C5.52484 16.7668 4.1665 18.1251 4.1665 19.8001V35.1835H16.5998C15.8998 33.8585 15.4998 32.3585 15.4998 30.7668C15.4998 30.1085 15.5665 29.4668 15.6915 28.8501C15.9665 27.5085 16.5415 26.2751 17.3165 25.2001C19.0498 22.8168 21.8415 21.2585 24.9998 21.2585C30.2415 21.2585 34.5082 25.5251 34.5082 30.7668C34.5082 32.3585 34.1082 33.8585 33.4082 35.1835H45.8332V19.8001C45.8332 18.7501 45.3082 17.8335 44.4998 17.2835ZM38.9748 23.0501H36.0332C35.5665 23.0501 35.1998 22.6751 35.1998 22.2168C35.1998 21.7585 35.5665 21.3835 36.0332 21.3835H38.9748C39.4415 21.3835 39.8082 21.7585 39.8082 22.2168C39.8082 22.6751 39.4415 23.0501 38.9748 23.0501Z" fill="#5D4F3F"/>
<path d="M31.2582 37.9001C29.5832 39.3668 27.3998 40.2668 24.9998 40.2668C23.5415 40.2668 22.1665 39.9251 20.9332 39.3334C19.6915 38.7418 18.5915 37.8918 17.7248 36.8501H4.1665V41.7334C4.1665 42.7751 4.69984 43.7001 5.50817 44.2418C5.9915 44.5668 6.57484 44.7584 7.19984 44.7584H42.8082C44.4748 44.7584 45.8332 43.4001 45.8332 41.7334V36.8501H32.2832C31.9748 37.2251 31.6248 37.5751 31.2582 37.9001Z" fill="#5D4F3F"/>
<path d="M19.8914 10.7835C20.058 10.9668 20.283 11.0585 20.5164 11.0585C20.7164 11.0585 20.9164 10.9918 21.0747 10.8501C21.4164 10.5418 21.4497 10.0168 21.1414 9.67514L18.433 6.6418C18.1247 6.30014 17.5997 6.26681 17.258 6.57514C16.9163 6.88347 16.883 7.40847 17.1913 7.75014L19.8914 10.7835Z" fill="#5D4F3F"/>
<path d="M29.4916 11.0585C29.7166 11.0585 29.9499 10.9668 30.1166 10.7835L32.8249 7.75014C33.1333 7.40847 33.0999 6.88347 32.7583 6.57514C32.4166 6.26681 31.8916 6.30014 31.5833 6.6418L28.8749 9.67514C28.5666 10.0168 28.5999 10.5418 28.9416 10.8501C29.0916 10.9835 29.2916 11.0585 29.4916 11.0585Z" fill="#5D4F3F"/>
<path d="M24.9998 10.7334C25.4582 10.7334 25.8332 10.3584 25.8332 9.90007V6.06673C25.8332 5.6084 25.4582 5.2334 24.9998 5.2334C24.5415 5.2334 24.1665 5.6084 24.1665 6.06673V9.90007C24.1665 10.3667 24.5415 10.7334 24.9998 10.7334Z" fill="#5D4F3F"/>
</svg>
