<svg width="1079" height="80" viewBox="0 0 1079 80" fill="none" xmlns="http://www.w3.org/2000/svg">
<path d="M992.656 26.1851H985.422V19.856H992.656V26.1851Z" fill="#D69700"/>
<path d="M1019.09 26.1851H1011.86V19.856H1019.09V26.1851Z" fill="#D69700"/>
<path d="M1045.53 26.1851H1038.29V19.856H1045.53V26.1851Z" fill="#D69700"/>
<path d="M1071.98 26.1851H1064.75V19.856H1071.98V26.1851Z" fill="#D69700"/>
<path d="M966.218 6.3291H958.984V9.67979e-05H966.218V6.3291Z" fill="#D69700"/>
<path d="M992.656 6.3291H985.422V9.67979e-05H992.656V6.3291Z" fill="#D69700"/>
<path d="M1019.09 6.3291H1011.86V9.67979e-05H1019.09V6.3291Z" fill="#D69700"/>
<path d="M1045.53 6.3291H1038.29V9.67979e-05H1045.53V6.3291Z" fill="#D69700"/>
<path d="M1079 80H0V50H1079V80Z" fill="#D69700"/>
</svg>
