<svg width="50" height="50" viewBox="0 0 50 50" fill="none" xmlns="http://www.w3.org/2000/svg">
<path fill-rule="evenodd" clip-rule="evenodd" d="M10.4168 2.0835H39.5835C41.7936 2.0835 43.9133 2.96147 45.4761 4.52427C47.0389 6.08708 47.9168 8.20669 47.9168 10.4168V45.8335C47.9178 46.232 47.8045 46.6224 47.5903 46.9584C47.3762 47.2944 47.0701 47.562 46.7085 47.7293C46.4327 47.8509 46.1349 47.9147 45.8335 47.9168C45.3369 47.9169 44.8567 47.7395 44.4793 47.4168L38.5418 42.3335L32.6043 47.4168C32.227 47.7396 31.7467 47.917 31.2502 47.917C30.7536 47.917 30.2734 47.7396 29.896 47.4168L23.9585 42.3335L18.021 47.4168C17.7184 47.6769 17.3474 47.8447 16.9523 47.9001C16.5571 47.9555 16.1543 47.8962 15.7918 47.7293C15.4302 47.562 15.1242 47.2944 14.91 46.9584C14.6958 46.6224 14.5825 46.232 14.5835 45.8335V10.4168C14.6153 10.14 14.6153 9.86036 14.5835 9.5835C14.4168 8.01736 13.8098 6.53053 12.8326 5.2953C11.8555 4.06008 10.5484 3.12704 9.06266 2.60433C9.43707 2.27407 9.91762 2.08924 10.4168 2.0835ZM10.4168 27.0835V10.4168C10.5273 9.31176 10.1943 8.20805 9.49107 7.34851C8.78781 6.48897 7.7719 5.944 6.66683 5.8335C5.56176 5.72299 4.45805 6.05599 3.59851 6.75926C2.73897 7.46252 2.194 8.47843 2.0835 9.5835V10.4168V25.0002C2.0835 25.5527 2.30299 26.0826 2.69369 26.4733C3.08439 26.864 3.6143 27.0835 4.16683 27.0835H10.4168ZM29.1842 10.8851V13.0643C26.2823 13.3382 24 15.8781 24 18.9621C24 22.2284 26.5582 24.8851 29.7046 24.8851H32.2967C33.439 24.8851 34.3696 25.8515 34.3696 27.0379C34.3696 28.2242 33.4402 29.1907 32.2967 29.1907H27.1112C26.1093 29.1907 25.296 30.0352 25.296 31.0758C25.296 32.1163 26.1093 32.9609 27.1112 32.9609H29.1842V35.1136C29.1842 36.1542 29.9962 36.9987 30.9994 36.9987C32.0026 36.9987 32.8146 36.1542 32.8146 35.1136V32.9345C35.7177 32.6618 38 30.1206 38 27.0366C38 23.7704 35.4418 21.1136 32.2967 21.1136H29.7046C28.5622 21.1136 27.6316 20.1472 27.6316 18.9609C27.6316 17.7745 28.561 16.8081 29.7046 16.8081H34.8888C35.8907 16.8081 36.7039 15.9636 36.7039 14.923C36.7039 13.8824 35.8907 13.0379 34.8888 13.0379H32.8146V10.8851C32.8146 9.84452 32.0014 9 30.9994 9C29.9974 9 29.1842 9.84452 29.1842 10.8851Z" fill="#5D4F3F"/>
</svg>
