<svg width="50" height="50" viewBox="0 0 50 50" fill="none" xmlns="http://www.w3.org/2000/svg">
<path d="M43.9141 31.2344C43.9141 29.8809 42.8066 28.7734 41.4531 28.7734C42.8066 28.7734 43.9141 27.666 43.9141 26.3125C43.9141 24.959 42.8066 23.8516 41.4531 23.8516H31.3634C32.8645 19.348 32.8398 17.9125 32.8398 15.1562C32.8398 13.1087 31.161 11.4648 29.1484 11.4648H28.4102C27.9426 11.4648 27.352 11.8341 27.2288 12.4C26.0114 17.1398 24.108 22.5788 19.3047 23.6804V41.4863L23.562 42.8991C24.8171 43.3174 26.1215 43.539 27.4504 43.539H38.9922C40.3514 43.5391 41.4531 42.4371 41.4531 41.0781C41.4531 39.7189 40.3514 38.6172 38.9922 38.6172H41.4531C42.8066 38.6172 43.9141 37.5098 43.9141 36.1562C43.9141 34.8027 42.8066 33.6953 41.4531 33.6953C42.8066 33.6953 43.9141 32.5879 43.9141 31.2344Z" fill="#5D4F3F"/>
<path d="M13.1523 21.3906H8.23047C7.55035 21.3906 7 21.941 7 22.6211V44.7695C7 45.4497 7.55035 46 8.23047 46H13.1523C15.1879 46 16.8438 44.3441 16.8438 42.3086V25.082C16.8438 23.0465 15.1879 21.3906 13.1523 21.3906ZM13.1523 41.0781C12.4728 41.0781 11.9219 40.5272 11.9219 39.8477C11.9219 39.1679 12.4728 38.6172 13.1523 38.6172C13.8319 38.6172 14.3828 39.1679 14.3828 39.8477C14.3828 40.5272 13.8319 41.0781 13.1523 41.0781Z" fill="#5D4F3F"/>
<path d="M23.9273 9.42563L22.1873 7.68566C21.7067 7.20504 20.928 7.20504 20.4474 7.68566C19.9668 8.16628 19.9668 8.945 20.4474 9.42563L22.1873 11.1656C22.668 11.6462 23.4466 11.6462 23.9273 11.1656C24.4079 10.685 24.4079 9.90625 23.9273 9.42563Z" fill="#5D4F3F"/>
<path d="M37.8497 7.68566C37.3691 7.20504 36.5903 7.20504 36.1097 7.68566L34.3697 9.42563C33.8891 9.90625 33.8891 10.685 34.3697 11.1656C34.8504 11.6462 35.6291 11.6462 36.1097 11.1656L37.8497 9.42563C38.3303 8.945 38.3303 8.16628 37.8497 7.68566Z" fill="#5D4F3F"/>
<path d="M29.1484 4C28.4593 4 27.918 4.54132 27.918 5.23047V7.77344C27.918 8.46258 28.4593 9.00391 29.1484 9.00391C29.8376 9.00391 30.3789 8.46258 30.3789 7.77344V5.23047C30.3789 4.54132 29.8376 4 29.1484 4Z" fill="#5D4F3F"/>
</svg>
