<svg width="51" height="52" viewBox="0 0 51 52" fill="none" xmlns="http://www.w3.org/2000/svg">
<circle cx="25.5" cy="26.0667" r="25.5" fill="white" fill-opacity="0.4"/>
<path d="M38.9444 25.5163C37.8466 22.6767 35.9408 20.221 33.4626 18.4527C30.9843 16.6844 28.0423 15.6811 25 15.5667C21.9577 15.6811 19.0157 16.6844 16.5374 18.4527C14.0592 20.221 12.1534 22.6767 11.0556 25.5163C10.9815 25.7213 10.9815 25.9459 11.0556 26.151C12.1534 28.9906 14.0592 31.4463 16.5374 33.2145C19.0157 34.9828 21.9577 35.9862 25 36.1006C28.0423 35.9862 30.9843 34.9828 33.4626 33.2145C35.9408 31.4463 37.8466 28.9906 38.9444 26.151C39.0185 25.9459 39.0185 25.7213 38.9444 25.5163ZM25 34.2338C20.0532 34.2338 14.8264 30.5657 12.9317 25.8336C14.8264 21.1015 20.0532 17.4334 25 17.4334C29.9468 17.4334 35.1736 21.1015 37.0683 25.8336C35.1736 30.5657 29.9468 34.2338 25 34.2338Z" fill="white"/>
<path d="M25.0001 20.2334C23.8925 20.2334 22.8097 20.5619 21.8888 21.1772C20.9678 21.7926 20.25 22.6672 19.8262 23.6905C19.4023 24.7138 19.2914 25.8398 19.5075 26.9261C19.7236 28.0125 20.257 29.0103 21.0401 29.7935C21.8233 30.5767 22.8212 31.1101 23.9075 31.3262C24.9938 31.5422 26.1198 31.4313 27.1431 31.0075C28.1664 30.5836 29.0411 29.8658 29.6564 28.9449C30.2718 28.0239 30.6002 26.9412 30.6002 25.8336C30.6002 24.3484 30.0102 22.9239 28.96 21.8737C27.9097 20.8235 26.4853 20.2334 25.0001 20.2334ZM25.0001 29.567C24.2617 29.567 23.5398 29.3481 22.9259 28.9378C22.3119 28.5276 21.8334 27.9445 21.5508 27.2623C21.2682 26.5801 21.1943 25.8295 21.3384 25.1052C21.4824 24.381 21.838 23.7158 22.3601 23.1937C22.8822 22.6715 23.5475 22.316 24.2717 22.1719C24.9959 22.0278 25.7466 22.1018 26.4288 22.3844C27.111 22.6669 27.6941 23.1455 28.1043 23.7594C28.5145 24.3734 28.7335 25.0952 28.7335 25.8336C28.7335 26.8238 28.3402 27.7734 27.64 28.4735C26.9398 29.1737 25.9902 29.567 25.0001 29.567Z" fill="white"/>
</svg>
